0
SECTION
2
HEADER
9
$INSUNITS
70
4
9
$ACADVER
1
AC1014
9
$HANDSEED
5
FFFF
0
ENDSEC
0
SECTION
2
TABLES
0
TABLE
2
VPORT
5
8
100
AcDbSymbolTable
0
ENDTAB
0
TABLE
2
LTYPE
5
5
100
AcDbSymbolTable
0
LTYPE
5
14
100
AcDbSymbolTableRecord
100
AcDbLinetypeTableRecord
2
BYBLOCK
70
0
0
LTYPE
5
15
100
AcDbSymbolTableRecord
100
AcDbLinetypeTableRecord
2
BYLAYER
70
0
0
ENDTAB
0
TABLE
2
LAYER
5
2
100
AcDbSymbolTable
70
2
0
LAYER
5
50
100
AcDbSymbolTableRecord
100
AcDbLayerTableRecord
2
0
70
0
6
CONTINUOUS
0
ENDTAB
0
TABLE
2
STYLE
5
3
100
AcDbSymbolTable
70
1
0
STYLE
5
11
100
AcDbSymbolTableRecord
100
AcDbTextStyleTableRecord
2
STANDARD
70
0
0
ENDTAB
0
TABLE
2
VIEW
5
6
100
AcDbSymbolTable
70
0
0
ENDTAB
0
TABLE
2
UCS
5
7
100
AcDbSymbolTable
70
0
0
ENDTAB
0
TABLE
2
APPID
5
9
100
AcDbSymbolTable
70
2
0
APPID
5
12
100
AcDbSymbolTableRecord
100
AcDbRegAppTableRecord
2
ACAD
70
0
0
ENDTAB
0
TABLE
2
DIMSTYLE
5
A
100
AcDbSymbolTable
70
1
0
ENDTAB
0
TABLE
2
BLOCK_RECORD
5
1
100
AcDbSymbolTable
70
1
0
BLOCK_RECORD
5
1F
100
AcDbSymbolTableRecord
100
AcDbBlockTableRecord
2
*MODEL_SPACE
0
BLOCK_RECORD
5
1B
100
AcDbSymbolTableRecord
100
AcDbBlockTableRecord
2
*PAPER_SPACE
0
ENDTAB
0
ENDSEC
0
SECTION
2
BLOCKS
0
BLOCK
5
20
100
AcDbEntity
100
AcDbBlockBegin
2
*MODEL_SPACE
0
ENDBLK
5
21
100
AcDbEntity
100
AcDbBlockEnd
0
BLOCK
5
1C
100
AcDbEntity
100
AcDbBlockBegin
2
*PAPER_SPACE
0
ENDBLK
5
1D
100
AcDbEntity
100
AcDbBlockEnd
0
ENDSEC
0
SECTION
2
ENTITIES
0
LWPOLYLINE
5
100
100
AcDbEntity
8
0
100
AcDbPolyline
90
36
70
1
43
0.0
10
29.393590513952795
20
-15.256849599450458
42
0.41792604934895117
10
28.393670632528412
20
-14.244191371602337
10
23.600000000000009
20
-14.244191371602328
42
-0.41421356237309509
10
22.600000000000009
20
-13.244191371602327
10
22.600000000000009
20
-4.2791004864212834
42
0.41421356237309309
10
21.600000000000009
20
-3.2791004864212803
10
18.300000000000082
20
-3.2791004864212843
10
18.300000000000082
20
3.2791004866118239
10
21.600000000001533
20
3.2791004866118096
42
0.41421356237309553
10
22.60000000000154
20
4.2791004866118074
10
22.600000000001561
20
13.244191371602351
42
-0.4142135623730957
10
23.600000000001565
20
14.244191371602351
10
28.056920802922654
20
14.244191371602335
42
0.50484006123223468
10
29.012477985263374
20
15.538997191214348
42
0.065586215411835472
10
20.296334334680832
20
34.532221118705657
42
0.25789313621357096
10
19.449728947972453
20
34.999999999999993
10
-19.449728947972442
20
34.999999999999993
42
0.25789313621357973
10
-20.296334334680857
20
34.532221118705635
42
0.065586215411835361
10
-29.012477985263342
20
15.538997191214374
42
0.50484006123224301
10
-28.056920802922644
20
14.244191371602337
10
-23.600000000001593
20
14.244191371602351
42
-0.41421356237309509
10
-22.600000000001586
20
13.244191371602355
10
-22.600000000001543
20
4.2791004866118048
42
0.41421356237309209
10
-21.600000000001543
20
3.2791004866118092
10
-18.300000000000082
20
3.2791004866118239
10
-18.300000000000082
20
-3.2791004864212843
10
-21.600000000000005
20
-3.2791004864212829
42
0.41421356237309231
10
-22.600000000000009
20
-4.2791004864212825
10
-22.600000000000001
20
-13.244191371602327
42
-0.41421356237309509
10
-23.600000000000001
20
-14.244191371602328
10
-28.393670632528412
20
-14.244191371602334
42
0.41792604934894662
10
-29.393590513952795
20
-15.256849599450433
42
0.051491280823638491
10
-27.498902195956365
20
-31.580900280354768
42
0.21670753618757888
10
-21.523727545313555
20
-39.518719014602581
42
0.25466225466094466
10
21.523727545313534
20
-39.518719014602574
42
0.21670753618757879
10
27.498902195956354
20
-31.580900280354768
42
0.051491280823638359
0
CIRCLE
5
101
100
AcDbEntity
8
0
100
AcDbCircle
10
-20.450000000000081
20
14.000000000000002
30
0
40
1.0499999999999998
210
0
220
-0
230
1
0
CIRCLE
5
102
100
AcDbEntity
8
0
100
AcDbCircle
10
20.450000000000074
20
-14.000000000000002
30
0
40
1.0499999999999998
210
0
220
-0
230
1
0
CIRCLE
5
103
100
AcDbEntity
8
0
100
AcDbCircle
10
20.450000000000081
20
14.000000000000002
30
0
40
1.0499999999999998
210
0
220
-0
230
1
0
CIRCLE
5
104
100
AcDbEntity
8
0
100
AcDbCircle
10
-20.450000000000074
20
-14.000000000000002
30
0
40
1.0499999999999998
210
0
220
-0
230
1
0
ENDSEC
0
SECTION
2
OBJECTS
0
DICTIONARY
5
C
100
AcDbDictionary
3
ACAD_GROUP
350
D
3
ACAD_MLINESTYLE
350
17
0
DICTIONARY
5
D
100
AcDbDictionary
0
DICTIONARY
5
1A
330
C
100
AcDbDictionary
0
DICTIONARY
5
17
100
AcDbDictionary
0
ENDSEC
0
EOF
