0
SECTION
2
HEADER
9
$INSUNITS
70
4
9
$ACADVER
1
AC1014
9
$HANDSEED
5
FFFF
0
ENDSEC
0
SECTION
2
TABLES
0
TABLE
2
VPORT
5
8
100
AcDbSymbolTable
0
ENDTAB
0
TABLE
2
LTYPE
5
5
100
AcDbSymbolTable
0
LTYPE
5
14
100
AcDbSymbolTableRecord
100
AcDbLinetypeTableRecord
2
BYBLOCK
70
0
0
LTYPE
5
15
100
AcDbSymbolTableRecord
100
AcDbLinetypeTableRecord
2
BYLAYER
70
0
0
ENDTAB
0
TABLE
2
LAYER
5
2
100
AcDbSymbolTable
70
2
0
LAYER
5
50
100
AcDbSymbolTableRecord
100
AcDbLayerTableRecord
2
0
70
0
6
CONTINUOUS
0
ENDTAB
0
TABLE
2
STYLE
5
3
100
AcDbSymbolTable
70
1
0
STYLE
5
11
100
AcDbSymbolTableRecord
100
AcDbTextStyleTableRecord
2
STANDARD
70
0
0
ENDTAB
0
TABLE
2
VIEW
5
6
100
AcDbSymbolTable
70
0
0
ENDTAB
0
TABLE
2
UCS
5
7
100
AcDbSymbolTable
70
0
0
ENDTAB
0
TABLE
2
APPID
5
9
100
AcDbSymbolTable
70
2
0
APPID
5
12
100
AcDbSymbolTableRecord
100
AcDbRegAppTableRecord
2
ACAD
70
0
0
ENDTAB
0
TABLE
2
DIMSTYLE
5
A
100
AcDbSymbolTable
70
1
0
ENDTAB
0
TABLE
2
BLOCK_RECORD
5
1
100
AcDbSymbolTable
70
1
0
BLOCK_RECORD
5
1F
100
AcDbSymbolTableRecord
100
AcDbBlockTableRecord
2
*MODEL_SPACE
0
BLOCK_RECORD
5
1B
100
AcDbSymbolTableRecord
100
AcDbBlockTableRecord
2
*PAPER_SPACE
0
ENDTAB
0
ENDSEC
0
SECTION
2
BLOCKS
0
BLOCK
5
20
100
AcDbEntity
100
AcDbBlockBegin
2
*MODEL_SPACE
0
ENDBLK
5
21
100
AcDbEntity
100
AcDbBlockEnd
0
BLOCK
5
1C
100
AcDbEntity
100
AcDbBlockBegin
2
*PAPER_SPACE
0
ENDBLK
5
1D
100
AcDbEntity
100
AcDbBlockEnd
0
ENDSEC
0
SECTION
2
ENTITIES
0
LWPOLYLINE
5
100
100
AcDbEntity
8
0
100
AcDbPolyline
90
24
70
1
43
0.0
10
-1.6000000000000014
20
-3.6000000000000005
10
-1.6000000000000014
20
3.5999999999999992
10
-3.3499999999999996
20
3.5999999999999992
10
-3.3499999999999996
20
4
10
-19.25
20
4.0000000000000098
10
-19.25
20
3.0000000000000009
10
-19.650000000000002
20
3
10
-19.650000000000002
20
2.7499999999999987
10
-21.150000000000002
20
2.7499999999999969
10
-21.150000000000002
20
1.2499999999999996
10
-22.200000000000003
20
1.2499999999999991
10
-22.200000000000003
20
0.49999999999999706
10
-26.200000000000003
20
0.49999999999997929
10
-26.200000000000003
20
-0.49999999999998013
10
-22.200000000000003
20
-0.49999999999999822
10
-22.200000000000003
20
-1.25
10
-21.150000000000002
20
-1.2500000000000002
10
-21.150000000000002
20
-2.7499999999999982
10
-19.650000000000002
20
-2.7499999999999996
10
-19.650000000000002
20
-3.0000000000000009
10
-19.25
20
-3.0000000000000027
10
-19.25
20
-4.0000000000000107
10
-3.3499999999999996
20
-4.0000000000000018
10
-3.3499999999999996
20
-3.600000000000001
0
LWPOLYLINE
5
101
100
AcDbEntity
8
0
100
AcDbPolyline
90
24
70
1
43
0.0
10
1.6000000000000014
20
-3.6000000000000005
10
1.6000000000000014
20
3.5999999999999992
10
3.3499999999999996
20
3.5999999999999992
10
3.3499999999999996
20
4
10
19.25
20
4.0000000000000098
10
19.25
20
3.0000000000000009
10
19.650000000000002
20
3
10
19.650000000000002
20
2.7499999999999987
10
21.150000000000002
20
2.7499999999999969
10
21.150000000000002
20
1.2499999999999996
10
22.200000000000003
20
1.2499999999999991
10
22.200000000000003
20
0.49999999999999706
10
26.200000000000003
20
0.49999999999997929
10
26.200000000000003
20
-0.49999999999998013
10
22.200000000000003
20
-0.49999999999999822
10
22.200000000000003
20
-1.25
10
21.150000000000002
20
-1.2500000000000002
10
21.150000000000002
20
-2.7499999999999982
10
19.650000000000002
20
-2.7499999999999996
10
19.650000000000002
20
-3.0000000000000009
10
19.25
20
-3.0000000000000027
10
19.25
20
-4.0000000000000107
10
3.3499999999999996
20
-4.0000000000000018
10
3.3499999999999996
20
-3.600000000000001
0
LWPOLYLINE
5
102
100
AcDbEntity
8
0
100
AcDbPolyline
90
42
70
1
43
0.0
10
17.900000000000084
20
-4.4941913716023425
10
17.900000000000084
20
-4.3468849654999122
10
17.900000000000084
20
-3.8726964653897205
10
17.900000000000084
20
3.8726964653897706
10
17.900000000000084
20
5.1801417416450057
10
17.900000000000084
20
12.241215180800573
10
17.900000000000084
20
13.240553805066849
10
17.900000000000084
20
16.094191371602346
10
22.200000000001566
20
16.094191371602346
10
22.200000000000003
20
13.240553805066849
10
22.200000000000003
20
12.241215180800575
10
22.200000000000003
20
12.209876796551573
42
0.19891236737965695
10
22.317157287525383
20
11.927034084076954
10
22.882842712474623
20
11.361348659127714
42
0.19891236737965595
10
23.165685424949238
20
11.244191371602334
10
26.000000000000163
20
11.244191371602334
10
26.000000000000163
20
4.2441913716023327
10
23.165685424949238
20
4.2441913716023318
42
0.19891236737965495
10
22.882842712474623
20
4.1270340840769544
10
22.317157287525383
20
3.5613486591277126
42
0.19891236737965645
10
22.200000000000003
20
3.2785059466530955
10
22.200000000000003
20
-3.2785059466530955
42
0.19891236737965684
10
22.317157287525383
20
-3.561348659127713
10
22.882842712474623
20
-4.1270340840769553
42
0.19891236737965526
10
23.165685424949238
20
-4.2441913716023327
10
26.000000000000163
20
-4.2441913716023336
10
26.000000000000163
20
-11.244191371602334
10
23.165685424949238
20
-11.244191371602334
42
0.19891236737965495
10
22.882842712474623
20
-11.361348659127712
10
22.317157287525383
20
-11.927034084076954
42
0.19891236737965695
10
22.200000000000003
20
-12.209876796551573
10
22.200000000000003
20
-12.241215180800664
10
22.200000000000003
20
-13.240553805066941
10
22.200000000001122
20
-16.094191371602346
10
17.900000000000084
20
-16.094191371602346
10
17.900000000000084
20
-13.240553805066941
10
17.900000000000084
20
-12.241215180800664
10
17.900000000000084
20
-11.35465648788141
10
17.900000000000084
20
-10.994191371602344
10
18.40000000000008
20
-10.994191371602342
10
18.40000000000008
20
-5.1801417416449453
10
18.40000000000008
20
-4.4941913716023425
0
CIRCLE
5
103
100
AcDbEntity
8
0
100
AcDbCircle
10
20.050000000000075
20
14.094191371602347
30
0
40
0.80000000000000016
210
0
220
0
230
1
0
CIRCLE
5
104
100
AcDbEntity
8
0
100
AcDbCircle
10
20.050000000000075
20
-14.094191371602347
30
0
40
0.80000000000000016
210
0
220
0
230
1
0
LWPOLYLINE
5
105
100
AcDbEntity
8
0
100
AcDbPolyline
90
42
70
1
43
0.0
10
-17.900000000000084
20
-4.4941913716023425
10
-17.900000000000084
20
-4.3468849654999122
10
-17.900000000000084
20
-3.8726964653897205
10
-17.900000000000084
20
3.8726964653897706
10
-17.900000000000084
20
5.1801417416450048
10
-17.900000000000084
20
12.241215180800575
10
-17.900000000000084
20
13.240553805066849
10
-17.900000000000084
20
16.094191371602346
10
-22.200000000001566
20
16.094191371602346
10
-22.200000000000003
20
13.240553805066849
10
-22.200000000000003
20
12.241215180800573
10
-22.200000000000003
20
12.209876796551573
42
-0.19891236737965695
10
-22.317157287525383
20
11.927034084076954
10
-22.882842712474623
20
11.361348659127712
42
-0.19891236737965498
10
-23.165685424949238
20
11.244191371602334
10
-26.000000000000163
20
11.244191371602334
10
-26.000000000000163
20
4.2441913716023327
10
-23.165685424949238
20
4.2441913716023318
42
-0.19891236737965498
10
-22.882842712474623
20
4.1270340840769544
10
-22.317157287525383
20
3.5613486591277121
42
-0.19891236737965629
10
-22.200000000000003
20
3.2785059466530955
10
-22.200000000000003
20
-3.2785059466530955
42
-0.19891236737965684
10
-22.317157287525383
20
-3.561348659127713
10
-22.882842712474623
20
-4.1270340840769553
42
-0.19891236737965523
10
-23.165685424949238
20
-4.2441913716023327
10
-26.000000000000163
20
-4.2441913716023336
10
-26.000000000000163
20
-11.244191371602334
10
-23.165685424949238
20
-11.244191371602334
42
-0.19891236737965498
10
-22.882842712474623
20
-11.361348659127712
10
-22.317157287525383
20
-11.927034084076954
42
-0.19891236737965695
10
-22.200000000000003
20
-12.209876796551573
10
-22.200000000000003
20
-12.241215180800664
10
-22.200000000000003
20
-13.240553805066941
10
-22.200000000001122
20
-16.094191371602346
10
-17.900000000000084
20
-16.094191371602346
10
-17.900000000000084
20
-13.240553805066941
10
-17.900000000000084
20
-12.241215180800664
10
-17.900000000000084
20
-11.35465648788141
10
-17.900000000000084
20
-10.994191371602344
10
-18.40000000000008
20
-10.994191371602342
10
-18.40000000000008
20
-5.1801417416449453
10
-18.40000000000008
20
-4.4941913716023425
0
CIRCLE
5
106
100
AcDbEntity
8
0
100
AcDbCircle
10
-20.050000000000075
20
14.094191371602347
30
0
40
0.80000000000000016
210
0
220
-0
230
1
0
CIRCLE
5
107
100
AcDbEntity
8
0
100
AcDbCircle
10
-20.050000000000075
20
-14.094191371602347
30
0
40
0.80000000000000016
210
0
220
-0
230
1
0
LINE
5
108
100
AcDbEntity
8
0
100
AcDbLine
10
-20.844214137441071
20
-17.529970085340935
30
0
11
-21.8029273076653
21
-28.48811176435014
31
0
0
LINE
5
109
100
AcDbEntity
8
0
100
AcDbLine
10
-21.8029273076653
20
-28.48811176435014
30
0
11
-26.783900798124026
21
-28.052333050611846
31
0
0
LINE
5
110
100
AcDbEntity
8
0
100
AcDbLine
10
-26.783900798124026
20
-28.052333050611846
30
0
11
-25.825187627899787
21
-17.094191371602349
31
0
0
LINE
5
111
100
AcDbEntity
8
0
100
AcDbLine
10
-25.825187627899787
20
-17.094191371602349
30
0
11
-20.844214137441071
21
-17.529970085340935
31
0
0
LINE
5
112
100
AcDbEntity
8
0
100
AcDbLine
10
-11.984401853654806
20
-38.743854365407259
30
0
11
-2.6325677763732824
21
-32.95220525740703
31
0
0
LINE
5
113
100
AcDbEntity
8
0
100
AcDbLine
10
-2.6325677763732829
20
-32.95220525740703
30
0
11
0
21
-37.203038928872743
31
0
0
LINE
5
114
100
AcDbEntity
8
0
100
AcDbLine
10
-7.0824032037313588e-44
20
-37.203038928872743
30
0
11
-9.3518340773088369
21
-42.994688036897614
31
0
0
LINE
5
115
100
AcDbEntity
8
0
100
AcDbLine
10
-9.3518340773088369
20
-42.994688036897614
30
0
11
-11.984401853654806
21
-38.743854365407259
31
0
0
LINE
5
116
100
AcDbEntity
8
0
100
AcDbLine
10
-7.0824032037313588e-44
20
-37.203038928865936
30
0
11
9.3518340773088369
21
-42.994688036903099
31
0
0
LINE
5
117
100
AcDbEntity
8
0
100
AcDbLine
10
11.984401853654806
20
-38.743854365411941
30
0
11
2.6325677763732824
21
-32.952205257391491
31
0
0
LINE
5
118
100
AcDbEntity
8
0
100
AcDbLine
10
2.6325677763732829
20
-32.952205257391491
30
0
11
0
21
-37.203038928865936
31
0
0
LINE
5
119
100
AcDbEntity
8
0
100
AcDbLine
10
9.3518340773088369
20
-42.994688036903099
30
0
11
11.984401853654806
21
-38.743854365411941
31
0
0
LINE
5
120
100
AcDbEntity
8
0
100
AcDbLine
10
21.8029273076653
20
-28.488111764350137
30
0
11
26.783900798124026
21
-28.052333050611846
31
0
0
LINE
5
121
100
AcDbEntity
8
0
100
AcDbLine
10
20.844214137441078
20
-17.529970085340928
30
0
11
21.8029273076653
21
-28.488111764350137
31
0
0
LINE
5
122
100
AcDbEntity
8
0
100
AcDbLine
10
25.825187627899787
20
-17.094191371602349
30
0
11
20.844214137441078
21
-17.529970085340928
31
0
0
LINE
5
123
100
AcDbEntity
8
0
100
AcDbLine
10
26.783900798124026
20
-28.052333050611846
30
0
11
25.825187627899787
21
-17.094191371602349
31
0
0
LWPOLYLINE
5
124
100
AcDbEntity
8
0
100
AcDbPolyline
90
4
70
1
43
0.0
10
18.40000000000008
20
-4.4941913716023425
10
18.40000000000008
20
-10.994191371602342
10
17.200000000000081
20
-10.994191371602342
10
17.200000000000081
20
-4.4941913716023416
0
LINE
5
125
100
AcDbEntity
8
0
100
AcDbLine
10
-5.7748826122720744e-44
20
-15.000000223517418
30
0
11
-5.7748826122720744e-44
21
26.000000387430191
31
0
0
LWPOLYLINE
5
126
100
AcDbEntity
8
0
100
AcDbPolyline
90
4
70
1
43
0.0
10
-17.200000000000081
20
-10.994191371602342
10
-17.200000000000081
20
-4.4941913716023407
10
-18.40000000000008
20
-4.4941913716023425
10
-18.40000000000008
20
-10.994191371602342
0
ENDSEC
0
SECTION
2
OBJECTS
0
DICTIONARY
5
C
100
AcDbDictionary
3
ACAD_GROUP
350
D
3
ACAD_MLINESTYLE
350
17
0
DICTIONARY
5
D
100
AcDbDictionary
0
DICTIONARY
5
1A
330
C
100
AcDbDictionary
0
DICTIONARY
5
17
100
AcDbDictionary
0
ENDSEC
0
EOF
