0
SECTION
2
HEADER
9
$INSUNITS
70
4
9
$ACADVER
1
AC1014
9
$HANDSEED
5
FFFF
0
ENDSEC
0
SECTION
2
TABLES
0
TABLE
2
VPORT
5
8
100
AcDbSymbolTable
0
ENDTAB
0
TABLE
2
LTYPE
5
5
100
AcDbSymbolTable
0
LTYPE
5
14
100
AcDbSymbolTableRecord
100
AcDbLinetypeTableRecord
2
BYBLOCK
70
0
0
LTYPE
5
15
100
AcDbSymbolTableRecord
100
AcDbLinetypeTableRecord
2
BYLAYER
70
0
0
ENDTAB
0
TABLE
2
LAYER
5
2
100
AcDbSymbolTable
70
2
0
LAYER
5
50
100
AcDbSymbolTableRecord
100
AcDbLayerTableRecord
2
0
70
0
6
CONTINUOUS
0
ENDTAB
0
TABLE
2
STYLE
5
3
100
AcDbSymbolTable
70
1
0
STYLE
5
11
100
AcDbSymbolTableRecord
100
AcDbTextStyleTableRecord
2
STANDARD
70
0
0
ENDTAB
0
TABLE
2
VIEW
5
6
100
AcDbSymbolTable
70
0
0
ENDTAB
0
TABLE
2
UCS
5
7
100
AcDbSymbolTable
70
0
0
ENDTAB
0
TABLE
2
APPID
5
9
100
AcDbSymbolTable
70
2
0
APPID
5
12
100
AcDbSymbolTableRecord
100
AcDbRegAppTableRecord
2
ACAD
70
0
0
ENDTAB
0
TABLE
2
DIMSTYLE
5
A
100
AcDbSymbolTable
70
1
0
ENDTAB
0
TABLE
2
BLOCK_RECORD
5
1
100
AcDbSymbolTable
70
1
0
BLOCK_RECORD
5
1F
100
AcDbSymbolTableRecord
100
AcDbBlockTableRecord
2
*MODEL_SPACE
0
BLOCK_RECORD
5
1B
100
AcDbSymbolTableRecord
100
AcDbBlockTableRecord
2
*PAPER_SPACE
0
ENDTAB
0
ENDSEC
0
SECTION
2
BLOCKS
0
BLOCK
5
20
100
AcDbEntity
100
AcDbBlockBegin
2
*MODEL_SPACE
0
ENDBLK
5
21
100
AcDbEntity
100
AcDbBlockEnd
0
BLOCK
5
1C
100
AcDbEntity
100
AcDbBlockBegin
2
*PAPER_SPACE
0
ENDBLK
5
1D
100
AcDbEntity
100
AcDbBlockEnd
0
ENDSEC
0
SECTION
2
ENTITIES
0
LWPOLYLINE
5
100
100
AcDbEntity
8
0
100
AcDbPolyline
90
36
70
1
43
0.0
10
28.993590513950412
20
-15.256849599450435
42
0.41792604934894723
10
27.993670632526033
20
-14.244191371602335
10
23.200000000000006
20
-14.24419137160233
42
-0.41421356237309509
10
22.200000000000006
20
-13.24419137160233
10
22.200000000000006
20
-4.2791004864212834
42
0.41421356237309309
10
21.20000000000001
20
-3.2791004864212803
10
17.90000000000008
20
-3.279100486421282
10
17.90000000000008
20
3.2791004866118239
10
21.200000000001534
20
3.2791004866118096
42
0.41421356237309553
10
22.200000000001538
20
4.2791004866118074
10
22.200000000001559
20
13.244191371602348
42
-0.4142135623730957
10
23.200000000001566
20
14.244191371602346
10
27.678037232287881
20
14.24419137160233
42
0.50003404720566891
10
28.638006720709519
20
15.524295961531696
42
0.065103472220509953
10
20.294141868546618
20
34.517519889022964
42
0.26250348536104939
10
19.438470690776999
20
34.999999999999993
10
-19.43847069077701
20
34.999999999999993
42
0.26250348536104035
10
-20.294141868546607
20
34.517519889022999
42
0.065103472220509953
10
-28.638006720709516
20
15.524295961531728
42
0.50003404720568401
10
-27.678037232287892
20
14.244191371602318
10
-23.200000000001562
20
14.244191371602351
42
-0.41421356237309509
10
-22.200000000001555
20
13.244191371602355
10
-22.200000000001513
20
4.2791004866118048
42
0.4142135623730947
10
-21.200000000001509
20
3.2791004866118092
10
-17.900000000000084
20
3.2791004866118239
10
-17.900000000000084
20
-3.279100486421282
10
-21.200000000000006
20
-3.2791004864212829
42
0.41421356237309231
10
-22.200000000000006
20
-4.2791004864212825
10
-22.200000000000006
20
-13.244191371602321
42
-0.4142135623730937
10
-23.200000000000003
20
-14.244191371602321
10
-27.99367063252603
20
-14.244191371602335
42
0.41792604934894401
10
-28.993590513950398
20
-15.256849599450437
42
0.05240887664840635
10
-27.034918010388985
20
-31.866664839077615
42
0.21983811759042651
10
-20.904109512041778
20
-39.849946116758616
42
0.24636561917524902
10
20.904109512041728
20
-39.849946116758638
42
0.21983811759042685
10
27.034918010388942
20
-31.866664839077625
42
0.052408876648406481
0
CIRCLE
5
101
100
AcDbEntity
8
0
100
AcDbCircle
10
-20.050000000000075
20
14.094191371602349
30
0
40
1.0499999999999998
210
0
220
-0
230
1
0
CIRCLE
5
102
100
AcDbEntity
8
0
100
AcDbCircle
10
20.050000000000075
20
-14.094191371602347
30
0
40
1.0499999999999998
210
0
220
-0
230
1
0
CIRCLE
5
103
100
AcDbEntity
8
0
100
AcDbCircle
10
20.050000000000075
20
14.094191371602347
30
0
40
1.0499999999999998
210
0
220
-0
230
1
0
CIRCLE
5
104
100
AcDbEntity
8
0
100
AcDbCircle
10
-20.050000000000075
20
-14.094191371602349
30
0
40
1.0499999999999998
210
0
220
-0
230
1
0
ENDSEC
0
SECTION
2
OBJECTS
0
DICTIONARY
5
C
100
AcDbDictionary
3
ACAD_GROUP
350
D
3
ACAD_MLINESTYLE
350
17
0
DICTIONARY
5
D
100
AcDbDictionary
0
DICTIONARY
5
1A
330
C
100
AcDbDictionary
0
DICTIONARY
5
17
100
AcDbDictionary
0
ENDSEC
0
EOF
