G04 #@! TF.GenerationSoftware,KiCad,Pcbnew,6.0.7-f9a2dced07~116~ubuntu20.04.1*
G04 #@! TF.CreationDate,2022-11-16T16:32:29+09:00*
G04 #@! TF.ProjectId,ocelli,6f63656c-6c69-42e6-9b69-6361645f7063,rev?*
G04 #@! TF.SameCoordinates,Original*
G04 #@! TF.FileFunction,Soldermask,Top*
G04 #@! TF.FilePolarity,Negative*
%FSLAX46Y46*%
G04 Gerber Fmt 4.6, Leading zero omitted, Abs format (unit mm)*
G04 Created by KiCad (PCBNEW 6.0.7-f9a2dced07~116~ubuntu20.04.1) date 2022-11-16 16:32:29*
%MOMM*%
%LPD*%
G01*
G04 APERTURE LIST*
G04 Aperture macros list*
%AMRoundRect*
0 Rectangle with rounded corners*
0 $1 Rounding radius*
0 $2 $3 $4 $5 $6 $7 $8 $9 X,Y pos of 4 corners*
0 Add a 4 corners polygon primitive as box body*
4,1,4,$2,$3,$4,$5,$6,$7,$8,$9,$2,$3,0*
0 Add four circle primitives for the rounded corners*
1,1,$1+$1,$2,$3*
1,1,$1+$1,$4,$5*
1,1,$1+$1,$6,$7*
1,1,$1+$1,$8,$9*
0 Add four rect primitives between the rounded corners*
20,1,$1+$1,$2,$3,$4,$5,0*
20,1,$1+$1,$4,$5,$6,$7,0*
20,1,$1+$1,$6,$7,$8,$9,0*
20,1,$1+$1,$8,$9,$2,$3,0*%
%AMRotRect*
0 Rectangle, with rotation*
0 The origin of the aperture is its center*
0 $1 length*
0 $2 width*
0 $3 Rotation angle, in degrees counterclockwise*
0 Add horizontal line*
21,1,$1,$2,0,0,$3*%
%AMOutline5P*
0 Free polygon, 5 corners , with rotation*
0 The origin of the aperture is its center*
0 number of corners: always 5*
0 $1 to $10 corner X, Y*
0 $11 Rotation angle, in degrees counterclockwise*
0 create outline with 5 corners*
4,1,5,$1,$2,$3,$4,$5,$6,$7,$8,$9,$10,$1,$2,$11*%
%AMOutline6P*
0 Free polygon, 6 corners , with rotation*
0 The origin of the aperture is its center*
0 number of corners: always 6*
0 $1 to $12 corner X, Y*
0 $13 Rotation angle, in degrees counterclockwise*
0 create outline with 6 corners*
4,1,6,$1,$2,$3,$4,$5,$6,$7,$8,$9,$10,$11,$12,$1,$2,$13*%
%AMOutline7P*
0 Free polygon, 7 corners , with rotation*
0 The origin of the aperture is its center*
0 number of corners: always 7*
0 $1 to $14 corner X, Y*
0 $15 Rotation angle, in degrees counterclockwise*
0 create outline with 7 corners*
4,1,7,$1,$2,$3,$4,$5,$6,$7,$8,$9,$10,$11,$12,$13,$14,$1,$2,$15*%
%AMOutline8P*
0 Free polygon, 8 corners , with rotation*
0 The origin of the aperture is its center*
0 number of corners: always 8*
0 $1 to $16 corner X, Y*
0 $17 Rotation angle, in degrees counterclockwise*
0 create outline with 8 corners*
4,1,8,$1,$2,$3,$4,$5,$6,$7,$8,$9,$10,$11,$12,$13,$14,$15,$16,$1,$2,$17*%
%AMFreePoly0*
4,1,14,0.266715,0.088284,0.363284,-0.008285,0.375000,-0.036569,0.375000,-0.060000,0.363284,-0.088284,0.335000,-0.100000,-0.335000,-0.100000,-0.363284,-0.088284,-0.375000,-0.060000,-0.375000,0.060000,-0.363284,0.088284,-0.335000,0.100000,0.238431,0.100000,0.266715,0.088284,0.266715,0.088284,$1*%
%AMFreePoly1*
4,1,14,0.363284,0.088284,0.375000,0.060000,0.375000,0.036569,0.363284,0.008285,0.266715,-0.088284,0.238431,-0.100000,-0.335000,-0.100000,-0.363284,-0.088284,-0.375000,-0.060000,-0.375000,0.060000,-0.363284,0.088284,-0.335000,0.100000,0.335000,0.100000,0.363284,0.088284,0.363284,0.088284,$1*%
%AMFreePoly2*
4,1,14,0.088284,0.363284,0.100000,0.335000,0.100000,-0.335000,0.088284,-0.363284,0.060000,-0.375000,-0.060000,-0.375000,-0.088284,-0.363284,-0.100000,-0.335000,-0.100000,0.238431,-0.088284,0.266715,0.008285,0.363284,0.036569,0.375000,0.060000,0.375000,0.088284,0.363284,0.088284,0.363284,$1*%
%AMFreePoly3*
4,1,14,-0.008285,0.363284,0.088284,0.266715,0.100000,0.238431,0.100000,-0.335000,0.088284,-0.363284,0.060000,-0.375000,-0.060000,-0.375000,-0.088284,-0.363284,-0.100000,-0.335000,-0.100000,0.335000,-0.088284,0.363284,-0.060000,0.375000,-0.036569,0.375000,-0.008285,0.363284,-0.008285,0.363284,$1*%
%AMFreePoly4*
4,1,14,0.363284,0.088284,0.375000,0.060000,0.375000,-0.060000,0.363284,-0.088284,0.335000,-0.100000,-0.238431,-0.100000,-0.266715,-0.088284,-0.363284,0.008285,-0.375000,0.036569,-0.375000,0.060000,-0.363284,0.088284,-0.335000,0.100000,0.335000,0.100000,0.363284,0.088284,0.363284,0.088284,$1*%
%AMFreePoly5*
4,1,14,0.363284,0.088284,0.375000,0.060000,0.375000,-0.060000,0.363284,-0.088284,0.335000,-0.100000,-0.335000,-0.100000,-0.363284,-0.088284,-0.375000,-0.060000,-0.375000,-0.036569,-0.363284,-0.008285,-0.266715,0.088284,-0.238431,0.100000,0.335000,0.100000,0.363284,0.088284,0.363284,0.088284,$1*%
%AMFreePoly6*
4,1,14,0.088284,0.363284,0.100000,0.335000,0.100000,-0.238431,0.088284,-0.266715,-0.008285,-0.363284,-0.036569,-0.375000,-0.060000,-0.375000,-0.088284,-0.363284,-0.100000,-0.335000,-0.100000,0.335000,-0.088284,0.363284,-0.060000,0.375000,0.060000,0.375000,0.088284,0.363284,0.088284,0.363284,$1*%
%AMFreePoly7*
4,1,14,0.088284,0.363284,0.100000,0.335000,0.100000,-0.335000,0.088284,-0.363284,0.060000,-0.375000,0.036569,-0.375000,0.008285,-0.363284,-0.088284,-0.266715,-0.100000,-0.238431,-0.100000,0.335000,-0.088284,0.363284,-0.060000,0.375000,0.060000,0.375000,0.088284,0.363284,0.088284,0.363284,$1*%
G04 Aperture macros list end*
%ADD10C,0.750000*%
%ADD11RoundRect,0.262500X0.537500X-0.262500X0.537500X0.262500X-0.537500X0.262500X-0.537500X-0.262500X0*%
%ADD12RoundRect,0.237500X0.250000X0.237500X-0.250000X0.237500X-0.250000X-0.237500X0.250000X-0.237500X0*%
%ADD13C,1.500000*%
%ADD14RoundRect,0.237500X-0.300000X-0.237500X0.300000X-0.237500X0.300000X0.237500X-0.300000X0.237500X0*%
%ADD15R,2.200000X1.200000*%
%ADD16R,6.400000X5.800000*%
%ADD17RoundRect,0.237500X0.300000X0.237500X-0.300000X0.237500X-0.300000X-0.237500X0.300000X-0.237500X0*%
%ADD18RoundRect,0.237500X-0.250000X-0.237500X0.250000X-0.237500X0.250000X0.237500X-0.250000X0.237500X0*%
%ADD19RoundRect,0.237500X0.237500X-0.250000X0.237500X0.250000X-0.237500X0.250000X-0.237500X-0.250000X0*%
%ADD20RotRect,1.524000X1.524000X31.800000*%
%ADD21C,1.524000*%
%ADD22RoundRect,0.075000X0.075000X-0.700000X0.075000X0.700000X-0.075000X0.700000X-0.075000X-0.700000X0*%
%ADD23RoundRect,0.075000X0.700000X-0.075000X0.700000X0.075000X-0.700000X0.075000X-0.700000X-0.075000X0*%
%ADD24Outline5P,-0.350000X0.860000X-0.210000X1.000000X0.350000X1.000000X0.350000X-1.000000X-0.350000X-1.000000X0.000000*%
%ADD25R,0.700000X2.000000*%
%ADD26RoundRect,0.400000X-0.400000X-0.600000X0.400000X-0.600000X0.400000X0.600000X-0.400000X0.600000X0*%
%ADD27RoundRect,0.500000X-0.500000X-0.500000X0.500000X-0.500000X0.500000X0.500000X-0.500000X0.500000X0*%
%ADD28RoundRect,0.300000X0.300000X0.400000X-0.300000X0.400000X-0.300000X-0.400000X0.300000X-0.400000X0*%
%ADD29RotRect,1.800000X1.800000X95.000000*%
%ADD30C,1.800000*%
%ADD31RoundRect,0.237500X-0.237500X0.250000X-0.237500X-0.250000X0.237500X-0.250000X0.237500X0.250000X0*%
%ADD32RoundRect,0.062500X-0.187500X-0.062500X0.187500X-0.062500X0.187500X0.062500X-0.187500X0.062500X0*%
%ADD33RoundRect,0.225000X-0.225000X-0.775000X0.225000X-0.775000X0.225000X0.775000X-0.225000X0.775000X0*%
%ADD34R,1.000000X1.000000*%
%ADD35O,1.000000X1.000000*%
%ADD36RoundRect,0.150000X-0.150000X0.587500X-0.150000X-0.587500X0.150000X-0.587500X0.150000X0.587500X0*%
%ADD37RoundRect,0.237500X0.237500X-0.300000X0.237500X0.300000X-0.237500X0.300000X-0.237500X-0.300000X0*%
%ADD38RoundRect,0.237500X-0.237500X0.300000X-0.237500X-0.300000X0.237500X-0.300000X0.237500X0.300000X0*%
%ADD39C,2.200000*%
%ADD40RoundRect,0.150000X0.150000X-0.587500X0.150000X0.587500X-0.150000X0.587500X-0.150000X-0.587500X0*%
%ADD41RotRect,1.524000X1.524000X95.000000*%
%ADD42RotRect,1.800000X1.800000X85.000000*%
%ADD43RotRect,1.524000X1.524000X85.000000*%
%ADD44RoundRect,0.262500X-0.537500X0.262500X-0.537500X-0.262500X0.537500X-0.262500X0.537500X0.262500X0*%
%ADD45RoundRect,0.250000X-1.250000X0.250000X-1.250000X-0.250000X1.250000X-0.250000X1.250000X0.250000X0*%
%ADD46RoundRect,0.237500X-0.237500X0.287500X-0.237500X-0.287500X0.237500X-0.287500X0.237500X0.287500X0*%
%ADD47RoundRect,0.250000X-1.500000X-0.550000X1.500000X-0.550000X1.500000X0.550000X-1.500000X0.550000X0*%
%ADD48R,3.400000X1.300000*%
%ADD49RotRect,1.800000X1.800000X148.200000*%
%ADD50RoundRect,0.100000X0.100000X-0.125000X0.100000X0.125000X-0.100000X0.125000X-0.100000X-0.125000X0*%
%ADD51RoundRect,0.100000X0.125000X-0.100000X0.125000X0.100000X-0.125000X0.100000X-0.125000X-0.100000X0*%
%ADD52R,2.700000X2.700000*%
%ADD53RoundRect,0.237500X0.237500X-0.287500X0.237500X0.287500X-0.237500X0.287500X-0.237500X-0.287500X0*%
%ADD54RotRect,1.800000X1.800000X31.800000*%
%ADD55Outline5P,-0.350000X0.860000X-0.210000X1.000000X0.350000X1.000000X0.350000X-1.000000X-0.350000X-1.000000X180.000000*%
%ADD56RoundRect,0.150000X-0.587500X-0.150000X0.587500X-0.150000X0.587500X0.150000X-0.587500X0.150000X0*%
%ADD57RoundRect,0.262500X0.262500X0.537500X-0.262500X0.537500X-0.262500X-0.537500X0.262500X-0.537500X0*%
%ADD58FreePoly0,180.000000*%
%ADD59RoundRect,0.050000X0.325000X0.050000X-0.325000X0.050000X-0.325000X-0.050000X0.325000X-0.050000X0*%
%ADD60FreePoly1,180.000000*%
%ADD61FreePoly2,180.000000*%
%ADD62RoundRect,0.050000X0.050000X0.325000X-0.050000X0.325000X-0.050000X-0.325000X0.050000X-0.325000X0*%
%ADD63FreePoly3,180.000000*%
%ADD64FreePoly4,180.000000*%
%ADD65FreePoly5,180.000000*%
%ADD66FreePoly6,180.000000*%
%ADD67FreePoly7,180.000000*%
%ADD68R,1.750000X1.600000*%
%ADD69RoundRect,0.237500X0.287500X0.237500X-0.287500X0.237500X-0.287500X-0.237500X0.287500X-0.237500X0*%
%ADD70RotRect,1.524000X1.524000X148.200000*%
G04 APERTURE END LIST*
D10*
X166700000Y-84000000D03*
X168500000Y-84000000D03*
D11*
X167600000Y-86225000D03*
X167600000Y-81775000D03*
D12*
X175162500Y-95700000D03*
X173337500Y-95700000D03*
D13*
X120900000Y-78900000D03*
X120900000Y-76900000D03*
D14*
X154237500Y-89100000D03*
X155962500Y-89100000D03*
D12*
X168762500Y-115800000D03*
X166937500Y-115800000D03*
D15*
X112464000Y-98050000D03*
D16*
X118764000Y-100330000D03*
D15*
X112464000Y-102610000D03*
D17*
X155562500Y-93900000D03*
X153837500Y-93900000D03*
D18*
X173337500Y-105000000D03*
X175162500Y-105000000D03*
D19*
X164600000Y-89612500D03*
X164600000Y-87787500D03*
D17*
X139062500Y-97700000D03*
X137337500Y-97700000D03*
D20*
X182055454Y-104088860D03*
D21*
X179896727Y-105427328D03*
D17*
X152562500Y-87600000D03*
X150837500Y-87600000D03*
D22*
X158050000Y-106125000D03*
X158550000Y-106125000D03*
X159050000Y-106125000D03*
X159550000Y-106125000D03*
X160050000Y-106125000D03*
X160550000Y-106125000D03*
X161050000Y-106125000D03*
X161550000Y-106125000D03*
X162050000Y-106125000D03*
X162550000Y-106125000D03*
X163050000Y-106125000D03*
X163550000Y-106125000D03*
X164050000Y-106125000D03*
X164550000Y-106125000D03*
X165050000Y-106125000D03*
X165550000Y-106125000D03*
D23*
X167475000Y-104200000D03*
X167475000Y-103700000D03*
X167475000Y-103200000D03*
X167475000Y-102700000D03*
X167475000Y-102200000D03*
X167475000Y-101700000D03*
X167475000Y-101200000D03*
X167475000Y-100700000D03*
X167475000Y-100200000D03*
X167475000Y-99700000D03*
X167475000Y-99200000D03*
X167475000Y-98700000D03*
X167475000Y-98200000D03*
X167475000Y-97700000D03*
X167475000Y-97200000D03*
X167475000Y-96700000D03*
D22*
X165550000Y-94775000D03*
X165050000Y-94775000D03*
X164550000Y-94775000D03*
X164050000Y-94775000D03*
X163550000Y-94775000D03*
X163050000Y-94775000D03*
X162550000Y-94775000D03*
X162050000Y-94775000D03*
X161550000Y-94775000D03*
X161050000Y-94775000D03*
X160550000Y-94775000D03*
X160050000Y-94775000D03*
X159550000Y-94775000D03*
X159050000Y-94775000D03*
X158550000Y-94775000D03*
X158050000Y-94775000D03*
D23*
X156125000Y-96700000D03*
X156125000Y-97200000D03*
X156125000Y-97700000D03*
X156125000Y-98200000D03*
X156125000Y-98700000D03*
X156125000Y-99200000D03*
X156125000Y-99700000D03*
X156125000Y-100200000D03*
X156125000Y-100700000D03*
X156125000Y-101200000D03*
X156125000Y-101700000D03*
X156125000Y-102200000D03*
X156125000Y-102700000D03*
X156125000Y-103200000D03*
X156125000Y-103700000D03*
X156125000Y-104200000D03*
D12*
X168762500Y-117300000D03*
X166937500Y-117300000D03*
D24*
X149200000Y-117050000D03*
D25*
X150216000Y-117050000D03*
X151232000Y-117050000D03*
X152248000Y-117050000D03*
X153264000Y-117050000D03*
X154280000Y-117050000D03*
D26*
X132875000Y-115150000D03*
D27*
X131700000Y-109150000D03*
D26*
X130525000Y-115150000D03*
D28*
X117912000Y-81520000D03*
X117912000Y-85920000D03*
X115412000Y-81520000D03*
X115412000Y-85920000D03*
X112912000Y-85920000D03*
X112912000Y-81520000D03*
D29*
X162453152Y-77860171D03*
D30*
X162231776Y-75329836D03*
D31*
X174600000Y-80887500D03*
X174600000Y-82712500D03*
D32*
X152450000Y-90250000D03*
X152450000Y-90750000D03*
X152450000Y-91250000D03*
X152450000Y-91750000D03*
X152450000Y-92250000D03*
X152450000Y-92750000D03*
D33*
X153400000Y-91500000D03*
D32*
X154350000Y-92750000D03*
X154350000Y-92250000D03*
X154350000Y-91750000D03*
X154350000Y-91250000D03*
X154350000Y-90750000D03*
X154350000Y-90250000D03*
D34*
X116300000Y-119650000D03*
D35*
X117570000Y-119650000D03*
X118840000Y-119650000D03*
X120110000Y-119650000D03*
X121380000Y-119650000D03*
X122650000Y-119650000D03*
X123920000Y-119650000D03*
X125190000Y-119650000D03*
D36*
X168800000Y-119062500D03*
X166900000Y-119062500D03*
X167850000Y-120937500D03*
D31*
X151800000Y-109187500D03*
X151800000Y-111012500D03*
D37*
X168500000Y-94112500D03*
X168500000Y-92387500D03*
D18*
X174728500Y-110600000D03*
X176553500Y-110600000D03*
D10*
X171600000Y-84000000D03*
X169800000Y-84000000D03*
D11*
X170700000Y-86225000D03*
X170700000Y-81775000D03*
D17*
X152562500Y-89100000D03*
X150837500Y-89100000D03*
D38*
X167800000Y-108937500D03*
X167800000Y-110662500D03*
D19*
X159000000Y-89912500D03*
X159000000Y-88087500D03*
D39*
X158000000Y-120900000D03*
D37*
X173228000Y-113875500D03*
X173228000Y-112150500D03*
D12*
X156512500Y-107400000D03*
X154687500Y-107400000D03*
D37*
X169799000Y-103662500D03*
X169799000Y-101937500D03*
D40*
X173300000Y-103237500D03*
X175200000Y-103237500D03*
X174250000Y-101362500D03*
D38*
X166300000Y-108937500D03*
X166300000Y-110662500D03*
D41*
X164762111Y-75108461D03*
D21*
X164983487Y-77638796D03*
D42*
X162452281Y-123049792D03*
D30*
X162230905Y-125580127D03*
D38*
X151300000Y-104137500D03*
X151300000Y-105862500D03*
D37*
X173228000Y-92026500D03*
X173228000Y-90301500D03*
D43*
X164761240Y-125801503D03*
D21*
X164982616Y-123271168D03*
D18*
X174728500Y-86975000D03*
X176553500Y-86975000D03*
D10*
X135050000Y-112300000D03*
X136850000Y-112300000D03*
D44*
X135950000Y-110075000D03*
X135950000Y-114525000D03*
D45*
X137800000Y-87850000D03*
X137800000Y-89350000D03*
D46*
X160550000Y-84823000D03*
X160550000Y-86573000D03*
D18*
X174728500Y-92053000D03*
X176553500Y-92053000D03*
D39*
X130000000Y-80000000D03*
X130000000Y-80000000D03*
D19*
X157500000Y-89912500D03*
X157500000Y-88087500D03*
X149800000Y-105912500D03*
X149800000Y-104087500D03*
D14*
X153837500Y-95400000D03*
X155562500Y-95400000D03*
D12*
X185570500Y-101092000D03*
X183745500Y-101092000D03*
D19*
X150300000Y-111012500D03*
X150300000Y-109187500D03*
D38*
X173228000Y-86999500D03*
X173228000Y-88724500D03*
D46*
X157350000Y-84823000D03*
X157350000Y-86573000D03*
D12*
X122737000Y-85470000D03*
X120912000Y-85470000D03*
D39*
X158000000Y-80000000D03*
D40*
X123150000Y-109737500D03*
X125050000Y-109737500D03*
X124100000Y-107862500D03*
D18*
X123187500Y-111500000D03*
X125012500Y-111500000D03*
D10*
X165400000Y-84000000D03*
X163600000Y-84000000D03*
D11*
X164500000Y-86225000D03*
X164500000Y-81775000D03*
D19*
X170600000Y-89612500D03*
X170600000Y-87787500D03*
D18*
X115814500Y-104648000D03*
X117639500Y-104648000D03*
D47*
X157700000Y-114300000D03*
X163100000Y-114300000D03*
D12*
X125012500Y-114500000D03*
X123187500Y-114500000D03*
D48*
X117600000Y-116450000D03*
X117600000Y-107750000D03*
D14*
X123237500Y-116000000D03*
X124962500Y-116000000D03*
D45*
X137800000Y-90950000D03*
X137800000Y-92450000D03*
D49*
X178566759Y-97636671D03*
D30*
X180725486Y-98975139D03*
D38*
X169300000Y-108937500D03*
X169300000Y-110662500D03*
D18*
X150787500Y-86100000D03*
X152612500Y-86100000D03*
D50*
X101775000Y-109775000D03*
X102425000Y-109775000D03*
X103075000Y-109775000D03*
X103725000Y-109775000D03*
D51*
X104525000Y-108975000D03*
X104525000Y-108325000D03*
X104525000Y-107675000D03*
X104525000Y-107025000D03*
D50*
X103725000Y-106225000D03*
X103075000Y-106225000D03*
X102425000Y-106225000D03*
X101775000Y-106225000D03*
D51*
X100975000Y-107025000D03*
X100975000Y-107675000D03*
X100975000Y-108325000D03*
X100975000Y-108975000D03*
D52*
X102750000Y-108000000D03*
D14*
X161437500Y-118700000D03*
X163162500Y-118700000D03*
D12*
X185570500Y-99568000D03*
X183745500Y-99568000D03*
D38*
X154300000Y-104137500D03*
X154300000Y-105862500D03*
X110244000Y-97689500D03*
X110244000Y-99414500D03*
D18*
X173337500Y-107000000D03*
X175162500Y-107000000D03*
D19*
X170000000Y-94162500D03*
X170000000Y-92337500D03*
D18*
X160687500Y-73250000D03*
X162512500Y-73250000D03*
D19*
X167600000Y-89612500D03*
X167600000Y-87787500D03*
X162000000Y-89912500D03*
X162000000Y-88087500D03*
D18*
X161387500Y-120200000D03*
X163212500Y-120200000D03*
D46*
X158950000Y-84823000D03*
X158950000Y-86573000D03*
D53*
X164800000Y-110675000D03*
X164800000Y-108925000D03*
D54*
X178558260Y-103268599D03*
D30*
X180716987Y-101930131D03*
D46*
X162150000Y-84823000D03*
X162150000Y-86573000D03*
D36*
X175200000Y-97462500D03*
X173300000Y-97462500D03*
X174250000Y-99337500D03*
D18*
X174728500Y-112124000D03*
X176553500Y-112124000D03*
D15*
X120912000Y-93300000D03*
D16*
X114612000Y-91020000D03*
D15*
X120912000Y-88740000D03*
D18*
X123187500Y-113000000D03*
X125012500Y-113000000D03*
D55*
X154280000Y-83850000D03*
D25*
X153264000Y-83850000D03*
X152248000Y-83850000D03*
X151232000Y-83850000D03*
X150216000Y-83850000D03*
X149200000Y-83850000D03*
D18*
X174728500Y-108822000D03*
X176553500Y-108822000D03*
D50*
X101775000Y-93275000D03*
X102425000Y-93275000D03*
X103075000Y-93275000D03*
X103725000Y-93275000D03*
D51*
X104525000Y-92475000D03*
X104525000Y-91825000D03*
X104525000Y-91175000D03*
X104525000Y-90525000D03*
D50*
X103725000Y-89725000D03*
X103075000Y-89725000D03*
X102425000Y-89725000D03*
X101775000Y-89725000D03*
D51*
X100975000Y-90525000D03*
X100975000Y-91175000D03*
X100975000Y-91825000D03*
X100975000Y-92475000D03*
D52*
X102750000Y-91500000D03*
D18*
X173337500Y-94200000D03*
X175162500Y-94200000D03*
D19*
X160500000Y-89912500D03*
X160500000Y-88087500D03*
D31*
X173100000Y-80887500D03*
X173100000Y-82712500D03*
D18*
X174728500Y-88750000D03*
X176553500Y-88750000D03*
D38*
X167000000Y-92387500D03*
X167000000Y-94112500D03*
D18*
X174728500Y-90275000D03*
X176553500Y-90275000D03*
D56*
X176362500Y-80850000D03*
X176362500Y-82750000D03*
X178237500Y-81800000D03*
D18*
X174728500Y-113902000D03*
X176553500Y-113902000D03*
D19*
X138300000Y-114512500D03*
X138300000Y-112687500D03*
D38*
X153300000Y-109237500D03*
X153300000Y-110962500D03*
D10*
X124250000Y-122500000D03*
X124250000Y-124300000D03*
D57*
X126475000Y-123400000D03*
X122025000Y-123400000D03*
D17*
X120312500Y-122200000D03*
X118587500Y-122200000D03*
D58*
X145500000Y-101450000D03*
D59*
X145500000Y-101050000D03*
X145500000Y-100650000D03*
X145500000Y-100250000D03*
X145500000Y-99850000D03*
D60*
X145500000Y-99450000D03*
D61*
X145000000Y-98950000D03*
D62*
X144600000Y-98950000D03*
X144200000Y-98950000D03*
X143800000Y-98950000D03*
X143400000Y-98950000D03*
D63*
X143000000Y-98950000D03*
D64*
X142500000Y-99450000D03*
D59*
X142500000Y-99850000D03*
X142500000Y-100250000D03*
X142500000Y-100650000D03*
X142500000Y-101050000D03*
D65*
X142500000Y-101450000D03*
D66*
X143000000Y-101950000D03*
D62*
X143400000Y-101950000D03*
X143800000Y-101950000D03*
X144200000Y-101950000D03*
X144600000Y-101950000D03*
D67*
X145000000Y-101950000D03*
D68*
X144000000Y-100450000D03*
D17*
X139062500Y-99200000D03*
X137337500Y-99200000D03*
D38*
X173228000Y-108848500D03*
X173228000Y-110573500D03*
D69*
X120904000Y-104648000D03*
X119154000Y-104648000D03*
D37*
X110244000Y-102970500D03*
X110244000Y-101245500D03*
D38*
X152800000Y-104137500D03*
X152800000Y-105862500D03*
D39*
X130000000Y-120900000D03*
D70*
X182063955Y-96816412D03*
D21*
X179905228Y-95477944D03*
M02*
