G04 #@! TF.GenerationSoftware,KiCad,Pcbnew,6.0.7-f9a2dced07~116~ubuntu20.04.1*
G04 #@! TF.CreationDate,2022-11-16T16:32:29+09:00*
G04 #@! TF.ProjectId,ocelli,6f63656c-6c69-42e6-9b69-6361645f7063,rev?*
G04 #@! TF.SameCoordinates,Original*
G04 #@! TF.FileFunction,Legend,Top*
G04 #@! TF.FilePolarity,Positive*
%FSLAX46Y46*%
G04 Gerber Fmt 4.6, Leading zero omitted, Abs format (unit mm)*
G04 Created by KiCad (PCBNEW 6.0.7-f9a2dced07~116~ubuntu20.04.1) date 2022-11-16 16:32:29*
%MOMM*%
%LPD*%
G01*
G04 APERTURE LIST*
%ADD10C,0.170000*%
%ADD11C,0.150000*%
%ADD12C,0.120000*%
G04 APERTURE END LIST*
D10*
X181576857Y-88721428D02*
X181519714Y-88835714D01*
X181462571Y-88892857D01*
X181348285Y-88950000D01*
X181005428Y-88950000D01*
X180891142Y-88892857D01*
X180834000Y-88835714D01*
X180776857Y-88721428D01*
X180776857Y-88550000D01*
X180834000Y-88435714D01*
X180891142Y-88378571D01*
X181005428Y-88321428D01*
X181348285Y-88321428D01*
X181462571Y-88378571D01*
X181519714Y-88435714D01*
X181576857Y-88550000D01*
X181576857Y-88721428D01*
X181519714Y-87292857D02*
X181576857Y-87407142D01*
X181576857Y-87635714D01*
X181519714Y-87750000D01*
X181462571Y-87807142D01*
X181348285Y-87864285D01*
X181005428Y-87864285D01*
X180891142Y-87807142D01*
X180834000Y-87750000D01*
X180776857Y-87635714D01*
X180776857Y-87407142D01*
X180834000Y-87292857D01*
X181519714Y-86321428D02*
X181576857Y-86435714D01*
X181576857Y-86664285D01*
X181519714Y-86778571D01*
X181405428Y-86835714D01*
X180948285Y-86835714D01*
X180834000Y-86778571D01*
X180776857Y-86664285D01*
X180776857Y-86435714D01*
X180834000Y-86321428D01*
X180948285Y-86264285D01*
X181062571Y-86264285D01*
X181176857Y-86835714D01*
X181576857Y-85578571D02*
X181519714Y-85692857D01*
X181405428Y-85750000D01*
X180376857Y-85750000D01*
X181576857Y-84950000D02*
X181519714Y-85064285D01*
X181405428Y-85121428D01*
X180376857Y-85121428D01*
X181576857Y-84492857D02*
X180776857Y-84492857D01*
X180376857Y-84492857D02*
X180434000Y-84550000D01*
X180491142Y-84492857D01*
X180434000Y-84435714D01*
X180376857Y-84492857D01*
X180491142Y-84492857D01*
X180776857Y-83121428D02*
X181576857Y-82835714D01*
X180776857Y-82550000D01*
X181576857Y-81464285D02*
X181576857Y-82150000D01*
X181576857Y-81807142D02*
X180376857Y-81807142D01*
X180548285Y-81921428D01*
X180662571Y-82035714D01*
X180719714Y-82150000D01*
X181462571Y-80950000D02*
X181519714Y-80892857D01*
X181576857Y-80950000D01*
X181519714Y-81007142D01*
X181462571Y-80950000D01*
X181576857Y-80950000D01*
X180376857Y-80150000D02*
X180376857Y-80035714D01*
X180434000Y-79921428D01*
X180491142Y-79864285D01*
X180605428Y-79807142D01*
X180834000Y-79750000D01*
X181119714Y-79750000D01*
X181348285Y-79807142D01*
X181462571Y-79864285D01*
X181519714Y-79921428D01*
X181576857Y-80035714D01*
X181576857Y-80150000D01*
X181519714Y-80264285D01*
X181462571Y-80321428D01*
X181348285Y-80378571D01*
X181119714Y-80435714D01*
X180834000Y-80435714D01*
X180605428Y-80378571D01*
X180491142Y-80321428D01*
X180434000Y-80264285D01*
X180376857Y-80150000D01*
X183508857Y-88007142D02*
X182308857Y-88007142D01*
X183508857Y-87321428D02*
X182823142Y-87835714D01*
X182308857Y-87321428D02*
X182994571Y-88007142D01*
X182708857Y-86292857D02*
X183508857Y-86292857D01*
X182708857Y-86807142D02*
X183337428Y-86807142D01*
X183451714Y-86750000D01*
X183508857Y-86635714D01*
X183508857Y-86464285D01*
X183451714Y-86350000D01*
X183394571Y-86292857D01*
X182708857Y-85835714D02*
X183508857Y-85607142D01*
X182937428Y-85378571D01*
X183508857Y-85150000D01*
X182708857Y-84921428D01*
X183508857Y-83950000D02*
X182880285Y-83950000D01*
X182766000Y-84007142D01*
X182708857Y-84121428D01*
X182708857Y-84350000D01*
X182766000Y-84464285D01*
X183451714Y-83950000D02*
X183508857Y-84064285D01*
X183508857Y-84350000D01*
X183451714Y-84464285D01*
X183337428Y-84521428D01*
X183223142Y-84521428D01*
X183108857Y-84464285D01*
X183051714Y-84350000D01*
X183051714Y-84064285D01*
X182994571Y-83950000D01*
X183508857Y-83378571D02*
X182708857Y-83378571D01*
X182823142Y-83378571D02*
X182766000Y-83321428D01*
X182708857Y-83207142D01*
X182708857Y-83035714D01*
X182766000Y-82921428D01*
X182880285Y-82864285D01*
X183508857Y-82864285D01*
X182880285Y-82864285D02*
X182766000Y-82807142D01*
X182708857Y-82692857D01*
X182708857Y-82521428D01*
X182766000Y-82407142D01*
X182880285Y-82350000D01*
X183508857Y-82350000D01*
X183508857Y-81264285D02*
X182880285Y-81264285D01*
X182766000Y-81321428D01*
X182708857Y-81435714D01*
X182708857Y-81664285D01*
X182766000Y-81778571D01*
X183451714Y-81264285D02*
X183508857Y-81378571D01*
X183508857Y-81664285D01*
X183451714Y-81778571D01*
X183337428Y-81835714D01*
X183223142Y-81835714D01*
X183108857Y-81778571D01*
X183051714Y-81664285D01*
X183051714Y-81378571D01*
X182994571Y-81264285D01*
X183508857Y-80692857D02*
X182708857Y-80692857D01*
X182308857Y-80692857D02*
X182366000Y-80750000D01*
X182423142Y-80692857D01*
X182366000Y-80635714D01*
X182308857Y-80692857D01*
X182423142Y-80692857D01*
D11*
X166266666Y-80804761D02*
X166409523Y-80852380D01*
X166647619Y-80852380D01*
X166742857Y-80804761D01*
X166790476Y-80757142D01*
X166838095Y-80661904D01*
X166838095Y-80566666D01*
X166790476Y-80471428D01*
X166742857Y-80423809D01*
X166647619Y-80376190D01*
X166457142Y-80328571D01*
X166361904Y-80280952D01*
X166314285Y-80233333D01*
X166266666Y-80138095D01*
X166266666Y-80042857D01*
X166314285Y-79947619D01*
X166361904Y-79900000D01*
X166457142Y-79852380D01*
X166695238Y-79852380D01*
X166838095Y-79900000D01*
X167171428Y-79852380D02*
X167409523Y-80852380D01*
X167600000Y-80138095D01*
X167790476Y-80852380D01*
X168028571Y-79852380D01*
X168314285Y-79852380D02*
X168933333Y-79852380D01*
X168600000Y-80233333D01*
X168742857Y-80233333D01*
X168838095Y-80280952D01*
X168885714Y-80328571D01*
X168933333Y-80423809D01*
X168933333Y-80661904D01*
X168885714Y-80757142D01*
X168838095Y-80804761D01*
X168742857Y-80852380D01*
X168457142Y-80852380D01*
X168361904Y-80804761D01*
X168314285Y-80757142D01*
X172402380Y-96892857D02*
X171926190Y-97226190D01*
X172402380Y-97464285D02*
X171402380Y-97464285D01*
X171402380Y-97083333D01*
X171450000Y-96988095D01*
X171497619Y-96940476D01*
X171592857Y-96892857D01*
X171735714Y-96892857D01*
X171830952Y-96940476D01*
X171878571Y-96988095D01*
X171926190Y-97083333D01*
X171926190Y-97464285D01*
X172402380Y-95940476D02*
X172402380Y-96511904D01*
X172402380Y-96226190D02*
X171402380Y-96226190D01*
X171545238Y-96321428D01*
X171640476Y-96416666D01*
X171688095Y-96511904D01*
X171497619Y-95559523D02*
X171450000Y-95511904D01*
X171402380Y-95416666D01*
X171402380Y-95178571D01*
X171450000Y-95083333D01*
X171497619Y-95035714D01*
X171592857Y-94988095D01*
X171688095Y-94988095D01*
X171830952Y-95035714D01*
X172402380Y-95607142D01*
X172402380Y-94988095D01*
X118066571Y-78685714D02*
X118114190Y-78542857D01*
X118161809Y-78495238D01*
X118257047Y-78447619D01*
X118399904Y-78447619D01*
X118495142Y-78495238D01*
X118542761Y-78542857D01*
X118590380Y-78638095D01*
X118590380Y-79019047D01*
X117590380Y-79019047D01*
X117590380Y-78685714D01*
X117638000Y-78590476D01*
X117685619Y-78542857D01*
X117780857Y-78495238D01*
X117876095Y-78495238D01*
X117971333Y-78542857D01*
X118018952Y-78590476D01*
X118066571Y-78685714D01*
X118066571Y-79019047D01*
X117590380Y-78161904D02*
X117590380Y-77590476D01*
X118590380Y-77876190D02*
X117590380Y-77876190D01*
X118590380Y-76733333D02*
X118590380Y-77304761D01*
X118590380Y-77019047D02*
X117590380Y-77019047D01*
X117733238Y-77114285D01*
X117828476Y-77209523D01*
X117876095Y-77304761D01*
X154457142Y-87957142D02*
X154409523Y-88004761D01*
X154266666Y-88052380D01*
X154171428Y-88052380D01*
X154028571Y-88004761D01*
X153933333Y-87909523D01*
X153885714Y-87814285D01*
X153838095Y-87623809D01*
X153838095Y-87480952D01*
X153885714Y-87290476D01*
X153933333Y-87195238D01*
X154028571Y-87100000D01*
X154171428Y-87052380D01*
X154266666Y-87052380D01*
X154409523Y-87100000D01*
X154457142Y-87147619D01*
X154790476Y-87052380D02*
X155409523Y-87052380D01*
X155076190Y-87433333D01*
X155219047Y-87433333D01*
X155314285Y-87480952D01*
X155361904Y-87528571D01*
X155409523Y-87623809D01*
X155409523Y-87861904D01*
X155361904Y-87957142D01*
X155314285Y-88004761D01*
X155219047Y-88052380D01*
X154933333Y-88052380D01*
X154838095Y-88004761D01*
X154790476Y-87957142D01*
X156028571Y-87052380D02*
X156123809Y-87052380D01*
X156219047Y-87100000D01*
X156266666Y-87147619D01*
X156314285Y-87242857D01*
X156361904Y-87433333D01*
X156361904Y-87671428D01*
X156314285Y-87861904D01*
X156266666Y-87957142D01*
X156219047Y-88004761D01*
X156123809Y-88052380D01*
X156028571Y-88052380D01*
X155933333Y-88004761D01*
X155885714Y-87957142D01*
X155838095Y-87861904D01*
X155790476Y-87671428D01*
X155790476Y-87433333D01*
X155838095Y-87242857D01*
X155885714Y-87147619D01*
X155933333Y-87100000D01*
X156028571Y-87052380D01*
X170752380Y-115492857D02*
X170276190Y-115826190D01*
X170752380Y-116064285D02*
X169752380Y-116064285D01*
X169752380Y-115683333D01*
X169800000Y-115588095D01*
X169847619Y-115540476D01*
X169942857Y-115492857D01*
X170085714Y-115492857D01*
X170180952Y-115540476D01*
X170228571Y-115588095D01*
X170276190Y-115683333D01*
X170276190Y-116064285D01*
X170752380Y-114540476D02*
X170752380Y-115111904D01*
X170752380Y-114826190D02*
X169752380Y-114826190D01*
X169895238Y-114921428D01*
X169990476Y-115016666D01*
X170038095Y-115111904D01*
X169752380Y-113683333D02*
X169752380Y-113873809D01*
X169800000Y-113969047D01*
X169847619Y-114016666D01*
X169990476Y-114111904D01*
X170180952Y-114159523D01*
X170561904Y-114159523D01*
X170657142Y-114111904D01*
X170704761Y-114064285D01*
X170752380Y-113969047D01*
X170752380Y-113778571D01*
X170704761Y-113683333D01*
X170657142Y-113635714D01*
X170561904Y-113588095D01*
X170323809Y-113588095D01*
X170228571Y-113635714D01*
X170180952Y-113683333D01*
X170133333Y-113778571D01*
X170133333Y-113969047D01*
X170180952Y-114064285D01*
X170228571Y-114111904D01*
X170323809Y-114159523D01*
X122816380Y-101091904D02*
X123625904Y-101091904D01*
X123721142Y-101044285D01*
X123768761Y-100996666D01*
X123816380Y-100901428D01*
X123816380Y-100710952D01*
X123768761Y-100615714D01*
X123721142Y-100568095D01*
X123625904Y-100520476D01*
X122816380Y-100520476D01*
X123816380Y-99520476D02*
X123816380Y-100091904D01*
X123816380Y-99806190D02*
X122816380Y-99806190D01*
X122959238Y-99901428D01*
X123054476Y-99996666D01*
X123102095Y-100091904D01*
X150857142Y-94257142D02*
X150809523Y-94304761D01*
X150666666Y-94352380D01*
X150571428Y-94352380D01*
X150428571Y-94304761D01*
X150333333Y-94209523D01*
X150285714Y-94114285D01*
X150238095Y-93923809D01*
X150238095Y-93780952D01*
X150285714Y-93590476D01*
X150333333Y-93495238D01*
X150428571Y-93400000D01*
X150571428Y-93352380D01*
X150666666Y-93352380D01*
X150809523Y-93400000D01*
X150857142Y-93447619D01*
X151809523Y-94352380D02*
X151238095Y-94352380D01*
X151523809Y-94352380D02*
X151523809Y-93352380D01*
X151428571Y-93495238D01*
X151333333Y-93590476D01*
X151238095Y-93638095D01*
X152285714Y-94352380D02*
X152476190Y-94352380D01*
X152571428Y-94304761D01*
X152619047Y-94257142D01*
X152714285Y-94114285D01*
X152761904Y-93923809D01*
X152761904Y-93542857D01*
X152714285Y-93447619D01*
X152666666Y-93400000D01*
X152571428Y-93352380D01*
X152380952Y-93352380D01*
X152285714Y-93400000D01*
X152238095Y-93447619D01*
X152190476Y-93542857D01*
X152190476Y-93780952D01*
X152238095Y-93876190D01*
X152285714Y-93923809D01*
X152380952Y-93971428D01*
X152571428Y-93971428D01*
X152666666Y-93923809D01*
X152714285Y-93876190D01*
X152761904Y-93780952D01*
X172202380Y-105166666D02*
X171726190Y-105500000D01*
X172202380Y-105738095D02*
X171202380Y-105738095D01*
X171202380Y-105357142D01*
X171250000Y-105261904D01*
X171297619Y-105214285D01*
X171392857Y-105166666D01*
X171535714Y-105166666D01*
X171630952Y-105214285D01*
X171678571Y-105261904D01*
X171726190Y-105357142D01*
X171726190Y-105738095D01*
X171297619Y-104785714D02*
X171250000Y-104738095D01*
X171202380Y-104642857D01*
X171202380Y-104404761D01*
X171250000Y-104309523D01*
X171297619Y-104261904D01*
X171392857Y-104214285D01*
X171488095Y-104214285D01*
X171630952Y-104261904D01*
X172202380Y-104833333D01*
X172202380Y-104214285D01*
X163752380Y-89342857D02*
X163276190Y-89676190D01*
X163752380Y-89914285D02*
X162752380Y-89914285D01*
X162752380Y-89533333D01*
X162800000Y-89438095D01*
X162847619Y-89390476D01*
X162942857Y-89342857D01*
X163085714Y-89342857D01*
X163180952Y-89390476D01*
X163228571Y-89438095D01*
X163276190Y-89533333D01*
X163276190Y-89914285D01*
X162847619Y-88961904D02*
X162800000Y-88914285D01*
X162752380Y-88819047D01*
X162752380Y-88580952D01*
X162800000Y-88485714D01*
X162847619Y-88438095D01*
X162942857Y-88390476D01*
X163038095Y-88390476D01*
X163180952Y-88438095D01*
X163752380Y-89009523D01*
X163752380Y-88390476D01*
X163085714Y-87533333D02*
X163752380Y-87533333D01*
X162704761Y-87771428D02*
X163419047Y-88009523D01*
X163419047Y-87390476D01*
X137557142Y-96557142D02*
X137509523Y-96604761D01*
X137366666Y-96652380D01*
X137271428Y-96652380D01*
X137128571Y-96604761D01*
X137033333Y-96509523D01*
X136985714Y-96414285D01*
X136938095Y-96223809D01*
X136938095Y-96080952D01*
X136985714Y-95890476D01*
X137033333Y-95795238D01*
X137128571Y-95700000D01*
X137271428Y-95652380D01*
X137366666Y-95652380D01*
X137509523Y-95700000D01*
X137557142Y-95747619D01*
X138509523Y-96652380D02*
X137938095Y-96652380D01*
X138223809Y-96652380D02*
X138223809Y-95652380D01*
X138128571Y-95795238D01*
X138033333Y-95890476D01*
X137938095Y-95938095D01*
X139414285Y-95652380D02*
X138938095Y-95652380D01*
X138890476Y-96128571D01*
X138938095Y-96080952D01*
X139033333Y-96033333D01*
X139271428Y-96033333D01*
X139366666Y-96080952D01*
X139414285Y-96128571D01*
X139461904Y-96223809D01*
X139461904Y-96461904D01*
X139414285Y-96557142D01*
X139366666Y-96604761D01*
X139271428Y-96652380D01*
X139033333Y-96652380D01*
X138938095Y-96604761D01*
X138890476Y-96557142D01*
X178057628Y-107265603D02*
X177951593Y-107275318D01*
X177820465Y-107244562D01*
X177623772Y-107198429D01*
X177517737Y-107208144D01*
X177436795Y-107258330D01*
X177602731Y-107435592D02*
X177496696Y-107445308D01*
X177365568Y-107414552D01*
X177224724Y-107277760D01*
X177049072Y-106994463D01*
X176989171Y-106807485D01*
X177019926Y-106676357D01*
X177075776Y-106585700D01*
X177237660Y-106485327D01*
X177343695Y-106475612D01*
X177474824Y-106506368D01*
X177615667Y-106643159D01*
X177791319Y-106926457D01*
X177851221Y-107113434D01*
X177820465Y-107244562D01*
X177764616Y-107335220D01*
X177602731Y-107435592D01*
X177813970Y-106240059D02*
X177829348Y-106174494D01*
X177885197Y-106083837D01*
X178087553Y-105958371D01*
X178193588Y-105948656D01*
X178259152Y-105964034D01*
X178349809Y-106019883D01*
X178399996Y-106100825D01*
X178434804Y-106247332D01*
X178250269Y-107034102D01*
X178776393Y-106707892D01*
X149607142Y-89092857D02*
X149654761Y-89140476D01*
X149702380Y-89283333D01*
X149702380Y-89378571D01*
X149654761Y-89521428D01*
X149559523Y-89616666D01*
X149464285Y-89664285D01*
X149273809Y-89711904D01*
X149130952Y-89711904D01*
X148940476Y-89664285D01*
X148845238Y-89616666D01*
X148750000Y-89521428D01*
X148702380Y-89378571D01*
X148702380Y-89283333D01*
X148750000Y-89140476D01*
X148797619Y-89092857D01*
X148797619Y-88711904D02*
X148750000Y-88664285D01*
X148702380Y-88569047D01*
X148702380Y-88330952D01*
X148750000Y-88235714D01*
X148797619Y-88188095D01*
X148892857Y-88140476D01*
X148988095Y-88140476D01*
X149130952Y-88188095D01*
X149702380Y-88759523D01*
X149702380Y-88140476D01*
X149130952Y-87569047D02*
X149083333Y-87664285D01*
X149035714Y-87711904D01*
X148940476Y-87759523D01*
X148892857Y-87759523D01*
X148797619Y-87711904D01*
X148750000Y-87664285D01*
X148702380Y-87569047D01*
X148702380Y-87378571D01*
X148750000Y-87283333D01*
X148797619Y-87235714D01*
X148892857Y-87188095D01*
X148940476Y-87188095D01*
X149035714Y-87235714D01*
X149083333Y-87283333D01*
X149130952Y-87378571D01*
X149130952Y-87569047D01*
X149178571Y-87664285D01*
X149226190Y-87711904D01*
X149321428Y-87759523D01*
X149511904Y-87759523D01*
X149607142Y-87711904D01*
X149654761Y-87664285D01*
X149702380Y-87569047D01*
X149702380Y-87378571D01*
X149654761Y-87283333D01*
X149607142Y-87235714D01*
X149511904Y-87188095D01*
X149321428Y-87188095D01*
X149226190Y-87235714D01*
X149178571Y-87283333D01*
X149130952Y-87378571D01*
X169252380Y-101211904D02*
X170061904Y-101211904D01*
X170157142Y-101164285D01*
X170204761Y-101116666D01*
X170252380Y-101021428D01*
X170252380Y-100830952D01*
X170204761Y-100735714D01*
X170157142Y-100688095D01*
X170061904Y-100640476D01*
X169252380Y-100640476D01*
X169252380Y-99688095D02*
X169252380Y-100164285D01*
X169728571Y-100211904D01*
X169680952Y-100164285D01*
X169633333Y-100069047D01*
X169633333Y-99830952D01*
X169680952Y-99735714D01*
X169728571Y-99688095D01*
X169823809Y-99640476D01*
X170061904Y-99640476D01*
X170157142Y-99688095D01*
X170204761Y-99735714D01*
X170252380Y-99830952D01*
X170252380Y-100069047D01*
X170204761Y-100164285D01*
X170157142Y-100211904D01*
X170732380Y-118392857D02*
X170256190Y-118726190D01*
X170732380Y-118964285D02*
X169732380Y-118964285D01*
X169732380Y-118583333D01*
X169780000Y-118488095D01*
X169827619Y-118440476D01*
X169922857Y-118392857D01*
X170065714Y-118392857D01*
X170160952Y-118440476D01*
X170208571Y-118488095D01*
X170256190Y-118583333D01*
X170256190Y-118964285D01*
X170732380Y-117440476D02*
X170732380Y-118011904D01*
X170732380Y-117726190D02*
X169732380Y-117726190D01*
X169875238Y-117821428D01*
X169970476Y-117916666D01*
X170018095Y-118011904D01*
X169732380Y-117107142D02*
X169732380Y-116440476D01*
X170732380Y-116869047D01*
X155516666Y-116502380D02*
X155516666Y-117216666D01*
X155469047Y-117359523D01*
X155373809Y-117454761D01*
X155230952Y-117502380D01*
X155135714Y-117502380D01*
X155945238Y-116597619D02*
X155992857Y-116550000D01*
X156088095Y-116502380D01*
X156326190Y-116502380D01*
X156421428Y-116550000D01*
X156469047Y-116597619D01*
X156516666Y-116692857D01*
X156516666Y-116788095D01*
X156469047Y-116930952D01*
X155897619Y-117502380D01*
X156516666Y-117502380D01*
X131104761Y-117602380D02*
X130771428Y-117126190D01*
X130533333Y-117602380D02*
X130533333Y-116602380D01*
X130914285Y-116602380D01*
X131009523Y-116650000D01*
X131057142Y-116697619D01*
X131104761Y-116792857D01*
X131104761Y-116935714D01*
X131057142Y-117030952D01*
X131009523Y-117078571D01*
X130914285Y-117126190D01*
X130533333Y-117126190D01*
X131390476Y-116602380D02*
X131723809Y-117602380D01*
X132057142Y-116602380D01*
X132914285Y-117602380D02*
X132342857Y-117602380D01*
X132628571Y-117602380D02*
X132628571Y-116602380D01*
X132533333Y-116745238D01*
X132438095Y-116840476D01*
X132342857Y-116888095D01*
X114078666Y-79974761D02*
X114221523Y-80022380D01*
X114459619Y-80022380D01*
X114554857Y-79974761D01*
X114602476Y-79927142D01*
X114650095Y-79831904D01*
X114650095Y-79736666D01*
X114602476Y-79641428D01*
X114554857Y-79593809D01*
X114459619Y-79546190D01*
X114269142Y-79498571D01*
X114173904Y-79450952D01*
X114126285Y-79403333D01*
X114078666Y-79308095D01*
X114078666Y-79212857D01*
X114126285Y-79117619D01*
X114173904Y-79070000D01*
X114269142Y-79022380D01*
X114507238Y-79022380D01*
X114650095Y-79070000D01*
X114983428Y-79022380D02*
X115221523Y-80022380D01*
X115412000Y-79308095D01*
X115602476Y-80022380D01*
X115840571Y-79022380D01*
X116745333Y-80022380D02*
X116173904Y-80022380D01*
X116459619Y-80022380D02*
X116459619Y-79022380D01*
X116364380Y-79165238D01*
X116269142Y-79260476D01*
X116173904Y-79308095D01*
X173864988Y-75395858D02*
X172868794Y-75483014D01*
X172848042Y-75245825D01*
X172883029Y-75099361D01*
X172969604Y-74996185D01*
X173060330Y-74940447D01*
X173245931Y-74876408D01*
X173388244Y-74863957D01*
X173582146Y-74894794D01*
X173681172Y-74933931D01*
X173784348Y-75020506D01*
X173844237Y-75158669D01*
X173864988Y-75395858D01*
X172740135Y-74012441D02*
X172781638Y-74486820D01*
X173260167Y-74492755D01*
X173208578Y-74449467D01*
X173152840Y-74358742D01*
X173132089Y-74121552D01*
X173171226Y-74022526D01*
X173214513Y-73970938D01*
X173305239Y-73915200D01*
X173542428Y-73894449D01*
X173641454Y-73933586D01*
X173693042Y-73976873D01*
X173748781Y-74067599D01*
X173769532Y-74304788D01*
X173730395Y-74403814D01*
X173687107Y-74455402D01*
X175052380Y-85342857D02*
X174576190Y-85676190D01*
X175052380Y-85914285D02*
X174052380Y-85914285D01*
X174052380Y-85533333D01*
X174100000Y-85438095D01*
X174147619Y-85390476D01*
X174242857Y-85342857D01*
X174385714Y-85342857D01*
X174480952Y-85390476D01*
X174528571Y-85438095D01*
X174576190Y-85533333D01*
X174576190Y-85914285D01*
X174147619Y-84961904D02*
X174100000Y-84914285D01*
X174052380Y-84819047D01*
X174052380Y-84580952D01*
X174100000Y-84485714D01*
X174147619Y-84438095D01*
X174242857Y-84390476D01*
X174338095Y-84390476D01*
X174480952Y-84438095D01*
X175052380Y-85009523D01*
X175052380Y-84390476D01*
X174052380Y-83533333D02*
X174052380Y-83723809D01*
X174100000Y-83819047D01*
X174147619Y-83866666D01*
X174290476Y-83961904D01*
X174480952Y-84009523D01*
X174861904Y-84009523D01*
X174957142Y-83961904D01*
X175004761Y-83914285D01*
X175052380Y-83819047D01*
X175052380Y-83628571D01*
X175004761Y-83533333D01*
X174957142Y-83485714D01*
X174861904Y-83438095D01*
X174623809Y-83438095D01*
X174528571Y-83485714D01*
X174480952Y-83533333D01*
X174433333Y-83628571D01*
X174433333Y-83819047D01*
X174480952Y-83914285D01*
X174528571Y-83961904D01*
X174623809Y-84009523D01*
X150752380Y-92261904D02*
X151561904Y-92261904D01*
X151657142Y-92214285D01*
X151704761Y-92166666D01*
X151752380Y-92071428D01*
X151752380Y-91880952D01*
X151704761Y-91785714D01*
X151657142Y-91738095D01*
X151561904Y-91690476D01*
X150752380Y-91690476D01*
X150752380Y-90785714D02*
X150752380Y-90976190D01*
X150800000Y-91071428D01*
X150847619Y-91119047D01*
X150990476Y-91214285D01*
X151180952Y-91261904D01*
X151561904Y-91261904D01*
X151657142Y-91214285D01*
X151704761Y-91166666D01*
X151752380Y-91071428D01*
X151752380Y-90880952D01*
X151704761Y-90785714D01*
X151657142Y-90738095D01*
X151561904Y-90690476D01*
X151323809Y-90690476D01*
X151228571Y-90738095D01*
X151180952Y-90785714D01*
X151133333Y-90880952D01*
X151133333Y-91071428D01*
X151180952Y-91166666D01*
X151228571Y-91214285D01*
X151323809Y-91261904D01*
X113617380Y-119983333D02*
X114331666Y-119983333D01*
X114474523Y-120030952D01*
X114569761Y-120126190D01*
X114617380Y-120269047D01*
X114617380Y-120364285D01*
X113617380Y-119030952D02*
X113617380Y-119507142D01*
X114093571Y-119554761D01*
X114045952Y-119507142D01*
X113998333Y-119411904D01*
X113998333Y-119173809D01*
X114045952Y-119078571D01*
X114093571Y-119030952D01*
X114188809Y-118983333D01*
X114426904Y-118983333D01*
X114522142Y-119030952D01*
X114569761Y-119078571D01*
X114617380Y-119173809D01*
X114617380Y-119411904D01*
X114569761Y-119507142D01*
X114522142Y-119554761D01*
X170847619Y-120295238D02*
X170800000Y-120390476D01*
X170704761Y-120485714D01*
X170561904Y-120628571D01*
X170514285Y-120723809D01*
X170514285Y-120819047D01*
X170752380Y-120771428D02*
X170704761Y-120866666D01*
X170609523Y-120961904D01*
X170419047Y-121009523D01*
X170085714Y-121009523D01*
X169895238Y-120961904D01*
X169800000Y-120866666D01*
X169752380Y-120771428D01*
X169752380Y-120580952D01*
X169800000Y-120485714D01*
X169895238Y-120390476D01*
X170085714Y-120342857D01*
X170419047Y-120342857D01*
X170609523Y-120390476D01*
X170704761Y-120485714D01*
X170752380Y-120580952D01*
X170752380Y-120771428D01*
X169752380Y-120009523D02*
X169752380Y-119342857D01*
X170752380Y-119771428D01*
X152252380Y-113942857D02*
X151776190Y-114276190D01*
X152252380Y-114514285D02*
X151252380Y-114514285D01*
X151252380Y-114133333D01*
X151300000Y-114038095D01*
X151347619Y-113990476D01*
X151442857Y-113942857D01*
X151585714Y-113942857D01*
X151680952Y-113990476D01*
X151728571Y-114038095D01*
X151776190Y-114133333D01*
X151776190Y-114514285D01*
X152252380Y-112990476D02*
X152252380Y-113561904D01*
X152252380Y-113276190D02*
X151252380Y-113276190D01*
X151395238Y-113371428D01*
X151490476Y-113466666D01*
X151538095Y-113561904D01*
X151252380Y-112371428D02*
X151252380Y-112276190D01*
X151300000Y-112180952D01*
X151347619Y-112133333D01*
X151442857Y-112085714D01*
X151633333Y-112038095D01*
X151871428Y-112038095D01*
X152061904Y-112085714D01*
X152157142Y-112133333D01*
X152204761Y-112180952D01*
X152252380Y-112276190D01*
X152252380Y-112371428D01*
X152204761Y-112466666D01*
X152157142Y-112514285D01*
X152061904Y-112561904D01*
X151871428Y-112609523D01*
X151633333Y-112609523D01*
X151442857Y-112561904D01*
X151347619Y-112514285D01*
X151300000Y-112466666D01*
X151252380Y-112371428D01*
X164657142Y-92742857D02*
X164704761Y-92790476D01*
X164752380Y-92933333D01*
X164752380Y-93028571D01*
X164704761Y-93171428D01*
X164609523Y-93266666D01*
X164514285Y-93314285D01*
X164323809Y-93361904D01*
X164180952Y-93361904D01*
X163990476Y-93314285D01*
X163895238Y-93266666D01*
X163800000Y-93171428D01*
X163752380Y-93028571D01*
X163752380Y-92933333D01*
X163800000Y-92790476D01*
X163847619Y-92742857D01*
X164752380Y-91790476D02*
X164752380Y-92361904D01*
X164752380Y-92076190D02*
X163752380Y-92076190D01*
X163895238Y-92171428D01*
X163990476Y-92266666D01*
X164038095Y-92361904D01*
X163752380Y-91457142D02*
X163752380Y-90790476D01*
X164752380Y-91219047D01*
X178141333Y-111052380D02*
X177808000Y-110576190D01*
X177569904Y-111052380D02*
X177569904Y-110052380D01*
X177950857Y-110052380D01*
X178046095Y-110100000D01*
X178093714Y-110147619D01*
X178141333Y-110242857D01*
X178141333Y-110385714D01*
X178093714Y-110480952D01*
X178046095Y-110528571D01*
X177950857Y-110576190D01*
X177569904Y-110576190D01*
X178712761Y-110480952D02*
X178617523Y-110433333D01*
X178569904Y-110385714D01*
X178522285Y-110290476D01*
X178522285Y-110242857D01*
X178569904Y-110147619D01*
X178617523Y-110100000D01*
X178712761Y-110052380D01*
X178903238Y-110052380D01*
X178998476Y-110100000D01*
X179046095Y-110147619D01*
X179093714Y-110242857D01*
X179093714Y-110290476D01*
X179046095Y-110385714D01*
X178998476Y-110433333D01*
X178903238Y-110480952D01*
X178712761Y-110480952D01*
X178617523Y-110528571D01*
X178569904Y-110576190D01*
X178522285Y-110671428D01*
X178522285Y-110861904D01*
X178569904Y-110957142D01*
X178617523Y-111004761D01*
X178712761Y-111052380D01*
X178903238Y-111052380D01*
X178998476Y-111004761D01*
X179046095Y-110957142D01*
X179093714Y-110861904D01*
X179093714Y-110671428D01*
X179046095Y-110576190D01*
X178998476Y-110528571D01*
X178903238Y-110480952D01*
X169366666Y-80804761D02*
X169509523Y-80852380D01*
X169747619Y-80852380D01*
X169842857Y-80804761D01*
X169890476Y-80757142D01*
X169938095Y-80661904D01*
X169938095Y-80566666D01*
X169890476Y-80471428D01*
X169842857Y-80423809D01*
X169747619Y-80376190D01*
X169557142Y-80328571D01*
X169461904Y-80280952D01*
X169414285Y-80233333D01*
X169366666Y-80138095D01*
X169366666Y-80042857D01*
X169414285Y-79947619D01*
X169461904Y-79900000D01*
X169557142Y-79852380D01*
X169795238Y-79852380D01*
X169938095Y-79900000D01*
X170271428Y-79852380D02*
X170509523Y-80852380D01*
X170700000Y-80138095D01*
X170890476Y-80852380D01*
X171128571Y-79852380D01*
X171938095Y-80185714D02*
X171938095Y-80852380D01*
X171700000Y-79804761D02*
X171461904Y-80519047D01*
X172080952Y-80519047D01*
X149607142Y-91942857D02*
X149654761Y-91990476D01*
X149702380Y-92133333D01*
X149702380Y-92228571D01*
X149654761Y-92371428D01*
X149559523Y-92466666D01*
X149464285Y-92514285D01*
X149273809Y-92561904D01*
X149130952Y-92561904D01*
X148940476Y-92514285D01*
X148845238Y-92466666D01*
X148750000Y-92371428D01*
X148702380Y-92228571D01*
X148702380Y-92133333D01*
X148750000Y-91990476D01*
X148797619Y-91942857D01*
X148797619Y-91561904D02*
X148750000Y-91514285D01*
X148702380Y-91419047D01*
X148702380Y-91180952D01*
X148750000Y-91085714D01*
X148797619Y-91038095D01*
X148892857Y-90990476D01*
X148988095Y-90990476D01*
X149130952Y-91038095D01*
X149702380Y-91609523D01*
X149702380Y-90990476D01*
X149702380Y-90514285D02*
X149702380Y-90323809D01*
X149654761Y-90228571D01*
X149607142Y-90180952D01*
X149464285Y-90085714D01*
X149273809Y-90038095D01*
X148892857Y-90038095D01*
X148797619Y-90085714D01*
X148750000Y-90133333D01*
X148702380Y-90228571D01*
X148702380Y-90419047D01*
X148750000Y-90514285D01*
X148797619Y-90561904D01*
X148892857Y-90609523D01*
X149130952Y-90609523D01*
X149226190Y-90561904D01*
X149273809Y-90514285D01*
X149321428Y-90419047D01*
X149321428Y-90228571D01*
X149273809Y-90133333D01*
X149226190Y-90085714D01*
X149130952Y-90038095D01*
X162707142Y-109992857D02*
X162754761Y-110040476D01*
X162802380Y-110183333D01*
X162802380Y-110278571D01*
X162754761Y-110421428D01*
X162659523Y-110516666D01*
X162564285Y-110564285D01*
X162373809Y-110611904D01*
X162230952Y-110611904D01*
X162040476Y-110564285D01*
X161945238Y-110516666D01*
X161850000Y-110421428D01*
X161802380Y-110278571D01*
X161802380Y-110183333D01*
X161850000Y-110040476D01*
X161897619Y-109992857D01*
X161897619Y-109611904D02*
X161850000Y-109564285D01*
X161802380Y-109469047D01*
X161802380Y-109230952D01*
X161850000Y-109135714D01*
X161897619Y-109088095D01*
X161992857Y-109040476D01*
X162088095Y-109040476D01*
X162230952Y-109088095D01*
X162802380Y-109659523D01*
X162802380Y-109040476D01*
X161802380Y-108707142D02*
X161802380Y-108040476D01*
X162802380Y-108469047D01*
X159252380Y-92742857D02*
X158776190Y-93076190D01*
X159252380Y-93314285D02*
X158252380Y-93314285D01*
X158252380Y-92933333D01*
X158300000Y-92838095D01*
X158347619Y-92790476D01*
X158442857Y-92742857D01*
X158585714Y-92742857D01*
X158680952Y-92790476D01*
X158728571Y-92838095D01*
X158776190Y-92933333D01*
X158776190Y-93314285D01*
X158252380Y-92409523D02*
X158252380Y-91790476D01*
X158633333Y-92123809D01*
X158633333Y-91980952D01*
X158680952Y-91885714D01*
X158728571Y-91838095D01*
X158823809Y-91790476D01*
X159061904Y-91790476D01*
X159157142Y-91838095D01*
X159204761Y-91885714D01*
X159252380Y-91980952D01*
X159252380Y-92266666D01*
X159204761Y-92361904D01*
X159157142Y-92409523D01*
X159252380Y-91314285D02*
X159252380Y-91123809D01*
X159204761Y-91028571D01*
X159157142Y-90980952D01*
X159014285Y-90885714D01*
X158823809Y-90838095D01*
X158442857Y-90838095D01*
X158347619Y-90885714D01*
X158300000Y-90933333D01*
X158252380Y-91028571D01*
X158252380Y-91219047D01*
X158300000Y-91314285D01*
X158347619Y-91361904D01*
X158442857Y-91409523D01*
X158680952Y-91409523D01*
X158776190Y-91361904D01*
X158823809Y-91314285D01*
X158871428Y-91219047D01*
X158871428Y-91028571D01*
X158823809Y-90933333D01*
X158776190Y-90885714D01*
X158680952Y-90838095D01*
X172061142Y-113655857D02*
X172108761Y-113703476D01*
X172156380Y-113846333D01*
X172156380Y-113941571D01*
X172108761Y-114084428D01*
X172013523Y-114179666D01*
X171918285Y-114227285D01*
X171727809Y-114274904D01*
X171584952Y-114274904D01*
X171394476Y-114227285D01*
X171299238Y-114179666D01*
X171204000Y-114084428D01*
X171156380Y-113941571D01*
X171156380Y-113846333D01*
X171204000Y-113703476D01*
X171251619Y-113655857D01*
X172156380Y-112703476D02*
X172156380Y-113274904D01*
X172156380Y-112989190D02*
X171156380Y-112989190D01*
X171299238Y-113084428D01*
X171394476Y-113179666D01*
X171442095Y-113274904D01*
X171156380Y-112084428D02*
X171156380Y-111989190D01*
X171204000Y-111893952D01*
X171251619Y-111846333D01*
X171346857Y-111798714D01*
X171537333Y-111751095D01*
X171775428Y-111751095D01*
X171965904Y-111798714D01*
X172061142Y-111846333D01*
X172108761Y-111893952D01*
X172156380Y-111989190D01*
X172156380Y-112084428D01*
X172108761Y-112179666D01*
X172061142Y-112227285D01*
X171965904Y-112274904D01*
X171775428Y-112322523D01*
X171537333Y-112322523D01*
X171346857Y-112274904D01*
X171251619Y-112227285D01*
X171204000Y-112179666D01*
X171156380Y-112084428D01*
X155433333Y-109282380D02*
X155100000Y-108806190D01*
X154861904Y-109282380D02*
X154861904Y-108282380D01*
X155242857Y-108282380D01*
X155338095Y-108330000D01*
X155385714Y-108377619D01*
X155433333Y-108472857D01*
X155433333Y-108615714D01*
X155385714Y-108710952D01*
X155338095Y-108758571D01*
X155242857Y-108806190D01*
X154861904Y-108806190D01*
X156290476Y-108282380D02*
X156100000Y-108282380D01*
X156004761Y-108330000D01*
X155957142Y-108377619D01*
X155861904Y-108520476D01*
X155814285Y-108710952D01*
X155814285Y-109091904D01*
X155861904Y-109187142D01*
X155909523Y-109234761D01*
X156004761Y-109282380D01*
X156195238Y-109282380D01*
X156290476Y-109234761D01*
X156338095Y-109187142D01*
X156385714Y-109091904D01*
X156385714Y-108853809D01*
X156338095Y-108758571D01*
X156290476Y-108710952D01*
X156195238Y-108663333D01*
X156004761Y-108663333D01*
X155909523Y-108710952D01*
X155861904Y-108758571D01*
X155814285Y-108853809D01*
X168857142Y-105407142D02*
X168809523Y-105454761D01*
X168666666Y-105502380D01*
X168571428Y-105502380D01*
X168428571Y-105454761D01*
X168333333Y-105359523D01*
X168285714Y-105264285D01*
X168238095Y-105073809D01*
X168238095Y-104930952D01*
X168285714Y-104740476D01*
X168333333Y-104645238D01*
X168428571Y-104550000D01*
X168571428Y-104502380D01*
X168666666Y-104502380D01*
X168809523Y-104550000D01*
X168857142Y-104597619D01*
X169238095Y-104597619D02*
X169285714Y-104550000D01*
X169380952Y-104502380D01*
X169619047Y-104502380D01*
X169714285Y-104550000D01*
X169761904Y-104597619D01*
X169809523Y-104692857D01*
X169809523Y-104788095D01*
X169761904Y-104930952D01*
X169190476Y-105502380D01*
X169809523Y-105502380D01*
X170761904Y-105502380D02*
X170190476Y-105502380D01*
X170476190Y-105502380D02*
X170476190Y-104502380D01*
X170380952Y-104645238D01*
X170285714Y-104740476D01*
X170190476Y-104788095D01*
X172297619Y-102395238D02*
X172250000Y-102490476D01*
X172154761Y-102585714D01*
X172011904Y-102728571D01*
X171964285Y-102823809D01*
X171964285Y-102919047D01*
X172202380Y-102871428D02*
X172154761Y-102966666D01*
X172059523Y-103061904D01*
X171869047Y-103109523D01*
X171535714Y-103109523D01*
X171345238Y-103061904D01*
X171250000Y-102966666D01*
X171202380Y-102871428D01*
X171202380Y-102680952D01*
X171250000Y-102585714D01*
X171345238Y-102490476D01*
X171535714Y-102442857D01*
X171869047Y-102442857D01*
X172059523Y-102490476D01*
X172154761Y-102585714D01*
X172202380Y-102680952D01*
X172202380Y-102871428D01*
X172202380Y-101490476D02*
X172202380Y-102061904D01*
X172202380Y-101776190D02*
X171202380Y-101776190D01*
X171345238Y-101871428D01*
X171440476Y-101966666D01*
X171488095Y-102061904D01*
X161457142Y-109992857D02*
X161504761Y-110040476D01*
X161552380Y-110183333D01*
X161552380Y-110278571D01*
X161504761Y-110421428D01*
X161409523Y-110516666D01*
X161314285Y-110564285D01*
X161123809Y-110611904D01*
X160980952Y-110611904D01*
X160790476Y-110564285D01*
X160695238Y-110516666D01*
X160600000Y-110421428D01*
X160552380Y-110278571D01*
X160552380Y-110183333D01*
X160600000Y-110040476D01*
X160647619Y-109992857D01*
X160647619Y-109611904D02*
X160600000Y-109564285D01*
X160552380Y-109469047D01*
X160552380Y-109230952D01*
X160600000Y-109135714D01*
X160647619Y-109088095D01*
X160742857Y-109040476D01*
X160838095Y-109040476D01*
X160980952Y-109088095D01*
X161552380Y-109659523D01*
X161552380Y-109040476D01*
X160552380Y-108183333D02*
X160552380Y-108373809D01*
X160600000Y-108469047D01*
X160647619Y-108516666D01*
X160790476Y-108611904D01*
X160980952Y-108659523D01*
X161361904Y-108659523D01*
X161457142Y-108611904D01*
X161504761Y-108564285D01*
X161552380Y-108469047D01*
X161552380Y-108278571D01*
X161504761Y-108183333D01*
X161457142Y-108135714D01*
X161361904Y-108088095D01*
X161123809Y-108088095D01*
X161028571Y-108135714D01*
X160980952Y-108183333D01*
X160933333Y-108278571D01*
X160933333Y-108469047D01*
X160980952Y-108564285D01*
X161028571Y-108611904D01*
X161123809Y-108659523D01*
X175403835Y-74597147D02*
X175364698Y-74696173D01*
X175278123Y-74799349D01*
X175148260Y-74954114D01*
X175109123Y-75053140D01*
X175117423Y-75148015D01*
X175350462Y-75079826D02*
X175311325Y-75178852D01*
X175224750Y-75282028D01*
X175039149Y-75346067D01*
X174707084Y-75375119D01*
X174513182Y-75344282D01*
X174410006Y-75257707D01*
X174354268Y-75166982D01*
X174337666Y-74977230D01*
X174376804Y-74878204D01*
X174463379Y-74775028D01*
X174648980Y-74710989D01*
X174981045Y-74681937D01*
X175174947Y-74712774D01*
X175278123Y-74799349D01*
X175333861Y-74890075D01*
X175350462Y-75079826D01*
X174694052Y-74133435D02*
X174654915Y-74232461D01*
X174611628Y-74284049D01*
X174520902Y-74339787D01*
X174473464Y-74343937D01*
X174374438Y-74304800D01*
X174322850Y-74261512D01*
X174267112Y-74170787D01*
X174250511Y-73981036D01*
X174289648Y-73882010D01*
X174332936Y-73830422D01*
X174423661Y-73774683D01*
X174471099Y-73770533D01*
X174570125Y-73809670D01*
X174621713Y-73852958D01*
X174677451Y-73943683D01*
X174694052Y-74133435D01*
X174749791Y-74224160D01*
X174801379Y-74267448D01*
X174900405Y-74306585D01*
X175090156Y-74289984D01*
X175180882Y-74234245D01*
X175224169Y-74182657D01*
X175263307Y-74083631D01*
X175246705Y-73893880D01*
X175190967Y-73803155D01*
X175139379Y-73759867D01*
X175040353Y-73720730D01*
X174850602Y-73737331D01*
X174759876Y-73793069D01*
X174716589Y-73844657D01*
X174677451Y-73943683D01*
X173636330Y-127174714D02*
X172640135Y-127087558D01*
X172660886Y-126850369D01*
X172720775Y-126712205D01*
X172823951Y-126625630D01*
X172922977Y-126586493D01*
X173116879Y-126555656D01*
X173259192Y-126568107D01*
X173444794Y-126632146D01*
X173535519Y-126687884D01*
X173622094Y-126791061D01*
X173657081Y-126937524D01*
X173636330Y-127174714D01*
X172718990Y-126186239D02*
X172772944Y-125569547D01*
X173123395Y-125934814D01*
X173135845Y-125792501D01*
X173191584Y-125701775D01*
X173243172Y-125658488D01*
X173342198Y-125619350D01*
X173579387Y-125640102D01*
X173670113Y-125695840D01*
X173713400Y-125747428D01*
X173752537Y-125846454D01*
X173727636Y-126131081D01*
X173671897Y-126221807D01*
X173620309Y-126265094D01*
X151657142Y-102542857D02*
X151704761Y-102590476D01*
X151752380Y-102733333D01*
X151752380Y-102828571D01*
X151704761Y-102971428D01*
X151609523Y-103066666D01*
X151514285Y-103114285D01*
X151323809Y-103161904D01*
X151180952Y-103161904D01*
X150990476Y-103114285D01*
X150895238Y-103066666D01*
X150800000Y-102971428D01*
X150752380Y-102828571D01*
X150752380Y-102733333D01*
X150800000Y-102590476D01*
X150847619Y-102542857D01*
X150847619Y-102161904D02*
X150800000Y-102114285D01*
X150752380Y-102019047D01*
X150752380Y-101780952D01*
X150800000Y-101685714D01*
X150847619Y-101638095D01*
X150942857Y-101590476D01*
X151038095Y-101590476D01*
X151180952Y-101638095D01*
X151752380Y-102209523D01*
X151752380Y-101590476D01*
X150752380Y-100971428D02*
X150752380Y-100876190D01*
X150800000Y-100780952D01*
X150847619Y-100733333D01*
X150942857Y-100685714D01*
X151133333Y-100638095D01*
X151371428Y-100638095D01*
X151561904Y-100685714D01*
X151657142Y-100733333D01*
X151704761Y-100780952D01*
X151752380Y-100876190D01*
X151752380Y-100971428D01*
X151704761Y-101066666D01*
X151657142Y-101114285D01*
X151561904Y-101161904D01*
X151371428Y-101209523D01*
X151133333Y-101209523D01*
X150942857Y-101161904D01*
X150847619Y-101114285D01*
X150800000Y-101066666D01*
X150752380Y-100971428D01*
X172307142Y-91330666D02*
X172354761Y-91378285D01*
X172402380Y-91521142D01*
X172402380Y-91616380D01*
X172354761Y-91759238D01*
X172259523Y-91854476D01*
X172164285Y-91902095D01*
X171973809Y-91949714D01*
X171830952Y-91949714D01*
X171640476Y-91902095D01*
X171545238Y-91854476D01*
X171450000Y-91759238D01*
X171402380Y-91616380D01*
X171402380Y-91521142D01*
X171450000Y-91378285D01*
X171497619Y-91330666D01*
X171402380Y-90425904D02*
X171402380Y-90902095D01*
X171878571Y-90949714D01*
X171830952Y-90902095D01*
X171783333Y-90806857D01*
X171783333Y-90568761D01*
X171830952Y-90473523D01*
X171878571Y-90425904D01*
X171973809Y-90378285D01*
X172211904Y-90378285D01*
X172307142Y-90425904D01*
X172354761Y-90473523D01*
X172402380Y-90568761D01*
X172402380Y-90806857D01*
X172354761Y-90902095D01*
X172307142Y-90949714D01*
X175287234Y-126592603D02*
X175231496Y-126683329D01*
X175128320Y-126769904D01*
X174973555Y-126899767D01*
X174917817Y-126990492D01*
X174909516Y-127085368D01*
X175150856Y-127058681D02*
X175095117Y-127149407D01*
X174991941Y-127235982D01*
X174798039Y-127266819D01*
X174465975Y-127237767D01*
X174280373Y-127173728D01*
X174193798Y-127070551D01*
X174154661Y-126971525D01*
X174171262Y-126781774D01*
X174227001Y-126691049D01*
X174330177Y-126604474D01*
X174524078Y-126573637D01*
X174856143Y-126602689D01*
X175041744Y-126666728D01*
X175128320Y-126769904D01*
X175167457Y-126868930D01*
X175150856Y-127058681D01*
X174266718Y-125690704D02*
X174250117Y-125880455D01*
X174289255Y-125979481D01*
X174332542Y-126031069D01*
X174466555Y-126138396D01*
X174652156Y-126202435D01*
X175031659Y-126235637D01*
X175130685Y-126196499D01*
X175182273Y-126153212D01*
X175238011Y-126062487D01*
X175254613Y-125872735D01*
X175215475Y-125773709D01*
X175172188Y-125722121D01*
X175081462Y-125666383D01*
X174844273Y-125645631D01*
X174745247Y-125684769D01*
X174693659Y-125728056D01*
X174637921Y-125818782D01*
X174621320Y-126008533D01*
X174660457Y-126107559D01*
X174703744Y-126159147D01*
X174794470Y-126214885D01*
X178173142Y-87427380D02*
X177839809Y-86951190D01*
X177601714Y-87427380D02*
X177601714Y-86427380D01*
X177982666Y-86427380D01*
X178077904Y-86475000D01*
X178125523Y-86522619D01*
X178173142Y-86617857D01*
X178173142Y-86760714D01*
X178125523Y-86855952D01*
X178077904Y-86903571D01*
X177982666Y-86951190D01*
X177601714Y-86951190D01*
X178554095Y-86522619D02*
X178601714Y-86475000D01*
X178696952Y-86427380D01*
X178935047Y-86427380D01*
X179030285Y-86475000D01*
X179077904Y-86522619D01*
X179125523Y-86617857D01*
X179125523Y-86713095D01*
X179077904Y-86855952D01*
X178506476Y-87427380D01*
X179125523Y-87427380D01*
X179458857Y-86427380D02*
X180125523Y-86427380D01*
X179696952Y-87427380D01*
X134616666Y-116604761D02*
X134759523Y-116652380D01*
X134997619Y-116652380D01*
X135092857Y-116604761D01*
X135140476Y-116557142D01*
X135188095Y-116461904D01*
X135188095Y-116366666D01*
X135140476Y-116271428D01*
X135092857Y-116223809D01*
X134997619Y-116176190D01*
X134807142Y-116128571D01*
X134711904Y-116080952D01*
X134664285Y-116033333D01*
X134616666Y-115938095D01*
X134616666Y-115842857D01*
X134664285Y-115747619D01*
X134711904Y-115700000D01*
X134807142Y-115652380D01*
X135045238Y-115652380D01*
X135188095Y-115700000D01*
X135521428Y-115652380D02*
X135759523Y-116652380D01*
X135950000Y-115938095D01*
X136140476Y-116652380D01*
X136378571Y-115652380D01*
X137188095Y-115652380D02*
X136997619Y-115652380D01*
X136902380Y-115700000D01*
X136854761Y-115747619D01*
X136759523Y-115890476D01*
X136711904Y-116080952D01*
X136711904Y-116461904D01*
X136759523Y-116557142D01*
X136807142Y-116604761D01*
X136902380Y-116652380D01*
X137092857Y-116652380D01*
X137188095Y-116604761D01*
X137235714Y-116557142D01*
X137283333Y-116461904D01*
X137283333Y-116223809D01*
X137235714Y-116128571D01*
X137188095Y-116080952D01*
X137092857Y-116033333D01*
X136902380Y-116033333D01*
X136807142Y-116080952D01*
X136759523Y-116128571D01*
X136711904Y-116223809D01*
X134252380Y-88933333D02*
X134966666Y-88933333D01*
X135109523Y-88980952D01*
X135204761Y-89076190D01*
X135252380Y-89219047D01*
X135252380Y-89314285D01*
X134252380Y-88552380D02*
X134252380Y-87885714D01*
X135252380Y-88314285D01*
X161000380Y-83838095D02*
X160000380Y-83838095D01*
X160000380Y-83600000D01*
X160048000Y-83457142D01*
X160143238Y-83361904D01*
X160238476Y-83314285D01*
X160428952Y-83266666D01*
X160571809Y-83266666D01*
X160762285Y-83314285D01*
X160857523Y-83361904D01*
X160952761Y-83457142D01*
X161000380Y-83600000D01*
X161000380Y-83838095D01*
X160428952Y-82695238D02*
X160381333Y-82790476D01*
X160333714Y-82838095D01*
X160238476Y-82885714D01*
X160190857Y-82885714D01*
X160095619Y-82838095D01*
X160048000Y-82790476D01*
X160000380Y-82695238D01*
X160000380Y-82504761D01*
X160048000Y-82409523D01*
X160095619Y-82361904D01*
X160190857Y-82314285D01*
X160238476Y-82314285D01*
X160333714Y-82361904D01*
X160381333Y-82409523D01*
X160428952Y-82504761D01*
X160428952Y-82695238D01*
X160476571Y-82790476D01*
X160524190Y-82838095D01*
X160619428Y-82885714D01*
X160809904Y-82885714D01*
X160905142Y-82838095D01*
X160952761Y-82790476D01*
X161000380Y-82695238D01*
X161000380Y-82504761D01*
X160952761Y-82409523D01*
X160905142Y-82361904D01*
X160809904Y-82314285D01*
X160619428Y-82314285D01*
X160524190Y-82361904D01*
X160476571Y-82409523D01*
X160428952Y-82504761D01*
X178173142Y-92505380D02*
X177839809Y-92029190D01*
X177601714Y-92505380D02*
X177601714Y-91505380D01*
X177982666Y-91505380D01*
X178077904Y-91553000D01*
X178125523Y-91600619D01*
X178173142Y-91695857D01*
X178173142Y-91838714D01*
X178125523Y-91933952D01*
X178077904Y-91981571D01*
X177982666Y-92029190D01*
X177601714Y-92029190D01*
X179125523Y-92505380D02*
X178554095Y-92505380D01*
X178839809Y-92505380D02*
X178839809Y-91505380D01*
X178744571Y-91648238D01*
X178649333Y-91743476D01*
X178554095Y-91791095D01*
X179458857Y-91505380D02*
X180077904Y-91505380D01*
X179744571Y-91886333D01*
X179887428Y-91886333D01*
X179982666Y-91933952D01*
X180030285Y-91981571D01*
X180077904Y-92076809D01*
X180077904Y-92314904D01*
X180030285Y-92410142D01*
X179982666Y-92457761D01*
X179887428Y-92505380D01*
X179601714Y-92505380D01*
X179506476Y-92457761D01*
X179458857Y-92410142D01*
X157852380Y-92742857D02*
X157376190Y-93076190D01*
X157852380Y-93314285D02*
X156852380Y-93314285D01*
X156852380Y-92933333D01*
X156900000Y-92838095D01*
X156947619Y-92790476D01*
X157042857Y-92742857D01*
X157185714Y-92742857D01*
X157280952Y-92790476D01*
X157328571Y-92838095D01*
X157376190Y-92933333D01*
X157376190Y-93314285D01*
X156852380Y-92409523D02*
X156852380Y-91790476D01*
X157233333Y-92123809D01*
X157233333Y-91980952D01*
X157280952Y-91885714D01*
X157328571Y-91838095D01*
X157423809Y-91790476D01*
X157661904Y-91790476D01*
X157757142Y-91838095D01*
X157804761Y-91885714D01*
X157852380Y-91980952D01*
X157852380Y-92266666D01*
X157804761Y-92361904D01*
X157757142Y-92409523D01*
X156852380Y-91457142D02*
X156852380Y-90790476D01*
X157852380Y-91219047D01*
X150352380Y-102542857D02*
X149876190Y-102876190D01*
X150352380Y-103114285D02*
X149352380Y-103114285D01*
X149352380Y-102733333D01*
X149400000Y-102638095D01*
X149447619Y-102590476D01*
X149542857Y-102542857D01*
X149685714Y-102542857D01*
X149780952Y-102590476D01*
X149828571Y-102638095D01*
X149876190Y-102733333D01*
X149876190Y-103114285D01*
X149447619Y-102161904D02*
X149400000Y-102114285D01*
X149352380Y-102019047D01*
X149352380Y-101780952D01*
X149400000Y-101685714D01*
X149447619Y-101638095D01*
X149542857Y-101590476D01*
X149638095Y-101590476D01*
X149780952Y-101638095D01*
X150352380Y-102209523D01*
X150352380Y-101590476D01*
X149780952Y-101019047D02*
X149733333Y-101114285D01*
X149685714Y-101161904D01*
X149590476Y-101209523D01*
X149542857Y-101209523D01*
X149447619Y-101161904D01*
X149400000Y-101114285D01*
X149352380Y-101019047D01*
X149352380Y-100828571D01*
X149400000Y-100733333D01*
X149447619Y-100685714D01*
X149542857Y-100638095D01*
X149590476Y-100638095D01*
X149685714Y-100685714D01*
X149733333Y-100733333D01*
X149780952Y-100828571D01*
X149780952Y-101019047D01*
X149828571Y-101114285D01*
X149876190Y-101161904D01*
X149971428Y-101209523D01*
X150161904Y-101209523D01*
X150257142Y-101161904D01*
X150304761Y-101114285D01*
X150352380Y-101019047D01*
X150352380Y-100828571D01*
X150304761Y-100733333D01*
X150257142Y-100685714D01*
X150161904Y-100638095D01*
X149971428Y-100638095D01*
X149876190Y-100685714D01*
X149828571Y-100733333D01*
X149780952Y-100828571D01*
X150807142Y-95757142D02*
X150759523Y-95804761D01*
X150616666Y-95852380D01*
X150521428Y-95852380D01*
X150378571Y-95804761D01*
X150283333Y-95709523D01*
X150235714Y-95614285D01*
X150188095Y-95423809D01*
X150188095Y-95280952D01*
X150235714Y-95090476D01*
X150283333Y-94995238D01*
X150378571Y-94900000D01*
X150521428Y-94852380D01*
X150616666Y-94852380D01*
X150759523Y-94900000D01*
X150807142Y-94947619D01*
X151188095Y-94947619D02*
X151235714Y-94900000D01*
X151330952Y-94852380D01*
X151569047Y-94852380D01*
X151664285Y-94900000D01*
X151711904Y-94947619D01*
X151759523Y-95042857D01*
X151759523Y-95138095D01*
X151711904Y-95280952D01*
X151140476Y-95852380D01*
X151759523Y-95852380D01*
X152092857Y-94852380D02*
X152711904Y-94852380D01*
X152378571Y-95233333D01*
X152521428Y-95233333D01*
X152616666Y-95280952D01*
X152664285Y-95328571D01*
X152711904Y-95423809D01*
X152711904Y-95661904D01*
X152664285Y-95757142D01*
X152616666Y-95804761D01*
X152521428Y-95852380D01*
X152235714Y-95852380D01*
X152140476Y-95804761D01*
X152092857Y-95757142D01*
X187552380Y-101916666D02*
X187076190Y-102250000D01*
X187552380Y-102488095D02*
X186552380Y-102488095D01*
X186552380Y-102107142D01*
X186600000Y-102011904D01*
X186647619Y-101964285D01*
X186742857Y-101916666D01*
X186885714Y-101916666D01*
X186980952Y-101964285D01*
X187028571Y-102011904D01*
X187076190Y-102107142D01*
X187076190Y-102488095D01*
X186552380Y-101583333D02*
X186552380Y-100964285D01*
X186933333Y-101297619D01*
X186933333Y-101154761D01*
X186980952Y-101059523D01*
X187028571Y-101011904D01*
X187123809Y-100964285D01*
X187361904Y-100964285D01*
X187457142Y-101011904D01*
X187504761Y-101059523D01*
X187552380Y-101154761D01*
X187552380Y-101440476D01*
X187504761Y-101535714D01*
X187457142Y-101583333D01*
X150752380Y-112966666D02*
X150276190Y-113300000D01*
X150752380Y-113538095D02*
X149752380Y-113538095D01*
X149752380Y-113157142D01*
X149800000Y-113061904D01*
X149847619Y-113014285D01*
X149942857Y-112966666D01*
X150085714Y-112966666D01*
X150180952Y-113014285D01*
X150228571Y-113061904D01*
X150276190Y-113157142D01*
X150276190Y-113538095D01*
X150752380Y-112490476D02*
X150752380Y-112300000D01*
X150704761Y-112204761D01*
X150657142Y-112157142D01*
X150514285Y-112061904D01*
X150323809Y-112014285D01*
X149942857Y-112014285D01*
X149847619Y-112061904D01*
X149800000Y-112109523D01*
X149752380Y-112204761D01*
X149752380Y-112395238D01*
X149800000Y-112490476D01*
X149847619Y-112538095D01*
X149942857Y-112585714D01*
X150180952Y-112585714D01*
X150276190Y-112538095D01*
X150323809Y-112490476D01*
X150371428Y-112395238D01*
X150371428Y-112204761D01*
X150323809Y-112109523D01*
X150276190Y-112061904D01*
X150180952Y-112014285D01*
X172307142Y-88992857D02*
X172354761Y-89040476D01*
X172402380Y-89183333D01*
X172402380Y-89278571D01*
X172354761Y-89421428D01*
X172259523Y-89516666D01*
X172164285Y-89564285D01*
X171973809Y-89611904D01*
X171830952Y-89611904D01*
X171640476Y-89564285D01*
X171545238Y-89516666D01*
X171450000Y-89421428D01*
X171402380Y-89278571D01*
X171402380Y-89183333D01*
X171450000Y-89040476D01*
X171497619Y-88992857D01*
X172402380Y-88040476D02*
X172402380Y-88611904D01*
X172402380Y-88326190D02*
X171402380Y-88326190D01*
X171545238Y-88421428D01*
X171640476Y-88516666D01*
X171688095Y-88611904D01*
X171402380Y-87707142D02*
X171402380Y-87088095D01*
X171783333Y-87421428D01*
X171783333Y-87278571D01*
X171830952Y-87183333D01*
X171878571Y-87135714D01*
X171973809Y-87088095D01*
X172211904Y-87088095D01*
X172307142Y-87135714D01*
X172354761Y-87183333D01*
X172402380Y-87278571D01*
X172402380Y-87564285D01*
X172354761Y-87659523D01*
X172307142Y-87707142D01*
X157802380Y-83838095D02*
X156802380Y-83838095D01*
X156802380Y-83600000D01*
X156850000Y-83457142D01*
X156945238Y-83361904D01*
X157040476Y-83314285D01*
X157230952Y-83266666D01*
X157373809Y-83266666D01*
X157564285Y-83314285D01*
X157659523Y-83361904D01*
X157754761Y-83457142D01*
X157802380Y-83600000D01*
X157802380Y-83838095D01*
X156802380Y-82409523D02*
X156802380Y-82600000D01*
X156850000Y-82695238D01*
X156897619Y-82742857D01*
X157040476Y-82838095D01*
X157230952Y-82885714D01*
X157611904Y-82885714D01*
X157707142Y-82838095D01*
X157754761Y-82790476D01*
X157802380Y-82695238D01*
X157802380Y-82504761D01*
X157754761Y-82409523D01*
X157707142Y-82361904D01*
X157611904Y-82314285D01*
X157373809Y-82314285D01*
X157278571Y-82361904D01*
X157230952Y-82409523D01*
X157183333Y-82504761D01*
X157183333Y-82695238D01*
X157230952Y-82790476D01*
X157278571Y-82838095D01*
X157373809Y-82885714D01*
X121633333Y-84352380D02*
X121300000Y-83876190D01*
X121061904Y-84352380D02*
X121061904Y-83352380D01*
X121442857Y-83352380D01*
X121538095Y-83400000D01*
X121585714Y-83447619D01*
X121633333Y-83542857D01*
X121633333Y-83685714D01*
X121585714Y-83780952D01*
X121538095Y-83828571D01*
X121442857Y-83876190D01*
X121061904Y-83876190D01*
X121966666Y-83352380D02*
X122633333Y-83352380D01*
X122204761Y-84352380D01*
X126928571Y-109147619D02*
X126833333Y-109100000D01*
X126738095Y-109004761D01*
X126595238Y-108861904D01*
X126500000Y-108814285D01*
X126404761Y-108814285D01*
X126452380Y-109052380D02*
X126357142Y-109004761D01*
X126261904Y-108909523D01*
X126214285Y-108719047D01*
X126214285Y-108385714D01*
X126261904Y-108195238D01*
X126357142Y-108100000D01*
X126452380Y-108052380D01*
X126642857Y-108052380D01*
X126738095Y-108100000D01*
X126833333Y-108195238D01*
X126880952Y-108385714D01*
X126880952Y-108719047D01*
X126833333Y-108909523D01*
X126738095Y-109004761D01*
X126642857Y-109052380D01*
X126452380Y-109052380D01*
X127833333Y-109052380D02*
X127261904Y-109052380D01*
X127547619Y-109052380D02*
X127547619Y-108052380D01*
X127452380Y-108195238D01*
X127357142Y-108290476D01*
X127261904Y-108338095D01*
X128452380Y-108052380D02*
X128547619Y-108052380D01*
X128642857Y-108100000D01*
X128690476Y-108147619D01*
X128738095Y-108242857D01*
X128785714Y-108433333D01*
X128785714Y-108671428D01*
X128738095Y-108861904D01*
X128690476Y-108957142D01*
X128642857Y-109004761D01*
X128547619Y-109052380D01*
X128452380Y-109052380D01*
X128357142Y-109004761D01*
X128309523Y-108957142D01*
X128261904Y-108861904D01*
X128214285Y-108671428D01*
X128214285Y-108433333D01*
X128261904Y-108242857D01*
X128309523Y-108147619D01*
X128357142Y-108100000D01*
X128452380Y-108052380D01*
X126857142Y-111752380D02*
X126523809Y-111276190D01*
X126285714Y-111752380D02*
X126285714Y-110752380D01*
X126666666Y-110752380D01*
X126761904Y-110800000D01*
X126809523Y-110847619D01*
X126857142Y-110942857D01*
X126857142Y-111085714D01*
X126809523Y-111180952D01*
X126761904Y-111228571D01*
X126666666Y-111276190D01*
X126285714Y-111276190D01*
X127190476Y-110752380D02*
X127809523Y-110752380D01*
X127476190Y-111133333D01*
X127619047Y-111133333D01*
X127714285Y-111180952D01*
X127761904Y-111228571D01*
X127809523Y-111323809D01*
X127809523Y-111561904D01*
X127761904Y-111657142D01*
X127714285Y-111704761D01*
X127619047Y-111752380D01*
X127333333Y-111752380D01*
X127238095Y-111704761D01*
X127190476Y-111657142D01*
X128666666Y-110752380D02*
X128476190Y-110752380D01*
X128380952Y-110800000D01*
X128333333Y-110847619D01*
X128238095Y-110990476D01*
X128190476Y-111180952D01*
X128190476Y-111561904D01*
X128238095Y-111657142D01*
X128285714Y-111704761D01*
X128380952Y-111752380D01*
X128571428Y-111752380D01*
X128666666Y-111704761D01*
X128714285Y-111657142D01*
X128761904Y-111561904D01*
X128761904Y-111323809D01*
X128714285Y-111228571D01*
X128666666Y-111180952D01*
X128571428Y-111133333D01*
X128380952Y-111133333D01*
X128285714Y-111180952D01*
X128238095Y-111228571D01*
X128190476Y-111323809D01*
X163166666Y-80804761D02*
X163309523Y-80852380D01*
X163547619Y-80852380D01*
X163642857Y-80804761D01*
X163690476Y-80757142D01*
X163738095Y-80661904D01*
X163738095Y-80566666D01*
X163690476Y-80471428D01*
X163642857Y-80423809D01*
X163547619Y-80376190D01*
X163357142Y-80328571D01*
X163261904Y-80280952D01*
X163214285Y-80233333D01*
X163166666Y-80138095D01*
X163166666Y-80042857D01*
X163214285Y-79947619D01*
X163261904Y-79900000D01*
X163357142Y-79852380D01*
X163595238Y-79852380D01*
X163738095Y-79900000D01*
X164071428Y-79852380D02*
X164309523Y-80852380D01*
X164500000Y-80138095D01*
X164690476Y-80852380D01*
X164928571Y-79852380D01*
X165261904Y-79947619D02*
X165309523Y-79900000D01*
X165404761Y-79852380D01*
X165642857Y-79852380D01*
X165738095Y-79900000D01*
X165785714Y-79947619D01*
X165833333Y-80042857D01*
X165833333Y-80138095D01*
X165785714Y-80280952D01*
X165214285Y-80852380D01*
X165833333Y-80852380D01*
X169752380Y-89342857D02*
X169276190Y-89676190D01*
X169752380Y-89914285D02*
X168752380Y-89914285D01*
X168752380Y-89533333D01*
X168800000Y-89438095D01*
X168847619Y-89390476D01*
X168942857Y-89342857D01*
X169085714Y-89342857D01*
X169180952Y-89390476D01*
X169228571Y-89438095D01*
X169276190Y-89533333D01*
X169276190Y-89914285D01*
X168752380Y-89009523D02*
X168752380Y-88390476D01*
X169133333Y-88723809D01*
X169133333Y-88580952D01*
X169180952Y-88485714D01*
X169228571Y-88438095D01*
X169323809Y-88390476D01*
X169561904Y-88390476D01*
X169657142Y-88438095D01*
X169704761Y-88485714D01*
X169752380Y-88580952D01*
X169752380Y-88866666D01*
X169704761Y-88961904D01*
X169657142Y-89009523D01*
X168847619Y-88009523D02*
X168800000Y-87961904D01*
X168752380Y-87866666D01*
X168752380Y-87628571D01*
X168800000Y-87533333D01*
X168847619Y-87485714D01*
X168942857Y-87438095D01*
X169038095Y-87438095D01*
X169180952Y-87485714D01*
X169752380Y-88057142D01*
X169752380Y-87438095D01*
X116084142Y-106624380D02*
X115750809Y-106148190D01*
X115512714Y-106624380D02*
X115512714Y-105624380D01*
X115893666Y-105624380D01*
X115988904Y-105672000D01*
X116036523Y-105719619D01*
X116084142Y-105814857D01*
X116084142Y-105957714D01*
X116036523Y-106052952D01*
X115988904Y-106100571D01*
X115893666Y-106148190D01*
X115512714Y-106148190D01*
X116465095Y-105719619D02*
X116512714Y-105672000D01*
X116607952Y-105624380D01*
X116846047Y-105624380D01*
X116941285Y-105672000D01*
X116988904Y-105719619D01*
X117036523Y-105814857D01*
X117036523Y-105910095D01*
X116988904Y-106052952D01*
X116417476Y-106624380D01*
X117036523Y-106624380D01*
X117417476Y-105719619D02*
X117465095Y-105672000D01*
X117560333Y-105624380D01*
X117798428Y-105624380D01*
X117893666Y-105672000D01*
X117941285Y-105719619D01*
X117988904Y-105814857D01*
X117988904Y-105910095D01*
X117941285Y-106052952D01*
X117369857Y-106624380D01*
X117988904Y-106624380D01*
X155407142Y-114466666D02*
X155454761Y-114514285D01*
X155502380Y-114657142D01*
X155502380Y-114752380D01*
X155454761Y-114895238D01*
X155359523Y-114990476D01*
X155264285Y-115038095D01*
X155073809Y-115085714D01*
X154930952Y-115085714D01*
X154740476Y-115038095D01*
X154645238Y-114990476D01*
X154550000Y-114895238D01*
X154502380Y-114752380D01*
X154502380Y-114657142D01*
X154550000Y-114514285D01*
X154597619Y-114466666D01*
X154597619Y-114085714D02*
X154550000Y-114038095D01*
X154502380Y-113942857D01*
X154502380Y-113704761D01*
X154550000Y-113609523D01*
X154597619Y-113561904D01*
X154692857Y-113514285D01*
X154788095Y-113514285D01*
X154930952Y-113561904D01*
X155502380Y-114133333D01*
X155502380Y-113514285D01*
X126757142Y-114952380D02*
X126423809Y-114476190D01*
X126185714Y-114952380D02*
X126185714Y-113952380D01*
X126566666Y-113952380D01*
X126661904Y-114000000D01*
X126709523Y-114047619D01*
X126757142Y-114142857D01*
X126757142Y-114285714D01*
X126709523Y-114380952D01*
X126661904Y-114428571D01*
X126566666Y-114476190D01*
X126185714Y-114476190D01*
X127090476Y-113952380D02*
X127709523Y-113952380D01*
X127376190Y-114333333D01*
X127519047Y-114333333D01*
X127614285Y-114380952D01*
X127661904Y-114428571D01*
X127709523Y-114523809D01*
X127709523Y-114761904D01*
X127661904Y-114857142D01*
X127614285Y-114904761D01*
X127519047Y-114952380D01*
X127233333Y-114952380D01*
X127138095Y-114904761D01*
X127090476Y-114857142D01*
X128280952Y-114380952D02*
X128185714Y-114333333D01*
X128138095Y-114285714D01*
X128090476Y-114190476D01*
X128090476Y-114142857D01*
X128138095Y-114047619D01*
X128185714Y-114000000D01*
X128280952Y-113952380D01*
X128471428Y-113952380D01*
X128566666Y-114000000D01*
X128614285Y-114047619D01*
X128661904Y-114142857D01*
X128661904Y-114190476D01*
X128614285Y-114285714D01*
X128566666Y-114333333D01*
X128471428Y-114380952D01*
X128280952Y-114380952D01*
X128185714Y-114428571D01*
X128138095Y-114476190D01*
X128090476Y-114571428D01*
X128090476Y-114761904D01*
X128138095Y-114857142D01*
X128185714Y-114904761D01*
X128280952Y-114952380D01*
X128471428Y-114952380D01*
X128566666Y-114904761D01*
X128614285Y-114857142D01*
X128661904Y-114761904D01*
X128661904Y-114571428D01*
X128614285Y-114476190D01*
X128566666Y-114428571D01*
X128471428Y-114380952D01*
X112552380Y-112742857D02*
X112552380Y-113219047D01*
X111552380Y-113219047D01*
X112504761Y-112457142D02*
X112552380Y-112314285D01*
X112552380Y-112076190D01*
X112504761Y-111980952D01*
X112457142Y-111933333D01*
X112361904Y-111885714D01*
X112266666Y-111885714D01*
X112171428Y-111933333D01*
X112123809Y-111980952D01*
X112076190Y-112076190D01*
X112028571Y-112266666D01*
X111980952Y-112361904D01*
X111933333Y-112409523D01*
X111838095Y-112457142D01*
X111742857Y-112457142D01*
X111647619Y-112409523D01*
X111600000Y-112361904D01*
X111552380Y-112266666D01*
X111552380Y-112028571D01*
X111600000Y-111885714D01*
X112552380Y-110933333D02*
X112552380Y-111504761D01*
X112552380Y-111219047D02*
X111552380Y-111219047D01*
X111695238Y-111314285D01*
X111790476Y-111409523D01*
X111838095Y-111504761D01*
X126757142Y-116357142D02*
X126709523Y-116404761D01*
X126566666Y-116452380D01*
X126471428Y-116452380D01*
X126328571Y-116404761D01*
X126233333Y-116309523D01*
X126185714Y-116214285D01*
X126138095Y-116023809D01*
X126138095Y-115880952D01*
X126185714Y-115690476D01*
X126233333Y-115595238D01*
X126328571Y-115500000D01*
X126471428Y-115452380D01*
X126566666Y-115452380D01*
X126709523Y-115500000D01*
X126757142Y-115547619D01*
X127709523Y-116452380D02*
X127138095Y-116452380D01*
X127423809Y-116452380D02*
X127423809Y-115452380D01*
X127328571Y-115595238D01*
X127233333Y-115690476D01*
X127138095Y-115738095D01*
X128566666Y-115452380D02*
X128376190Y-115452380D01*
X128280952Y-115500000D01*
X128233333Y-115547619D01*
X128138095Y-115690476D01*
X128090476Y-115880952D01*
X128090476Y-116261904D01*
X128138095Y-116357142D01*
X128185714Y-116404761D01*
X128280952Y-116452380D01*
X128471428Y-116452380D01*
X128566666Y-116404761D01*
X128614285Y-116357142D01*
X128661904Y-116261904D01*
X128661904Y-116023809D01*
X128614285Y-115928571D01*
X128566666Y-115880952D01*
X128471428Y-115833333D01*
X128280952Y-115833333D01*
X128185714Y-115880952D01*
X128138095Y-115928571D01*
X128090476Y-116023809D01*
X134302380Y-92033333D02*
X135016666Y-92033333D01*
X135159523Y-92080952D01*
X135254761Y-92176190D01*
X135302380Y-92319047D01*
X135302380Y-92414285D01*
X134302380Y-91128571D02*
X134302380Y-91319047D01*
X134350000Y-91414285D01*
X134397619Y-91461904D01*
X134540476Y-91557142D01*
X134730952Y-91604761D01*
X135111904Y-91604761D01*
X135207142Y-91557142D01*
X135254761Y-91509523D01*
X135302380Y-91414285D01*
X135302380Y-91223809D01*
X135254761Y-91128571D01*
X135207142Y-91080952D01*
X135111904Y-91033333D01*
X134873809Y-91033333D01*
X134778571Y-91080952D01*
X134730952Y-91128571D01*
X134683333Y-91223809D01*
X134683333Y-91414285D01*
X134730952Y-91509523D01*
X134778571Y-91557142D01*
X134873809Y-91604761D01*
X177815686Y-95754468D02*
X177288730Y-96604360D01*
X177086375Y-96478895D01*
X176990055Y-96363144D01*
X176959299Y-96232016D01*
X176969014Y-96125981D01*
X177028915Y-95939003D01*
X177104195Y-95817590D01*
X177245038Y-95680799D01*
X177335696Y-95624950D01*
X177466824Y-95594194D01*
X177613331Y-95629002D01*
X177815686Y-95754468D01*
X176529495Y-96021556D02*
X176463931Y-96036934D01*
X176357895Y-96027218D01*
X176155540Y-95901753D01*
X176099691Y-95811095D01*
X176084313Y-95745531D01*
X176094028Y-95639496D01*
X176144214Y-95558554D01*
X176259965Y-95462234D01*
X177046735Y-95277698D01*
X176520611Y-94951488D01*
X163957142Y-109992857D02*
X164004761Y-110040476D01*
X164052380Y-110183333D01*
X164052380Y-110278571D01*
X164004761Y-110421428D01*
X163909523Y-110516666D01*
X163814285Y-110564285D01*
X163623809Y-110611904D01*
X163480952Y-110611904D01*
X163290476Y-110564285D01*
X163195238Y-110516666D01*
X163100000Y-110421428D01*
X163052380Y-110278571D01*
X163052380Y-110183333D01*
X163100000Y-110040476D01*
X163147619Y-109992857D01*
X163147619Y-109611904D02*
X163100000Y-109564285D01*
X163052380Y-109469047D01*
X163052380Y-109230952D01*
X163100000Y-109135714D01*
X163147619Y-109088095D01*
X163242857Y-109040476D01*
X163338095Y-109040476D01*
X163480952Y-109088095D01*
X164052380Y-109659523D01*
X164052380Y-109040476D01*
X163052380Y-108135714D02*
X163052380Y-108611904D01*
X163528571Y-108659523D01*
X163480952Y-108611904D01*
X163433333Y-108516666D01*
X163433333Y-108278571D01*
X163480952Y-108183333D01*
X163528571Y-108135714D01*
X163623809Y-108088095D01*
X163861904Y-108088095D01*
X163957142Y-108135714D01*
X164004761Y-108183333D01*
X164052380Y-108278571D01*
X164052380Y-108516666D01*
X164004761Y-108611904D01*
X163957142Y-108659523D01*
X149702380Y-86266666D02*
X149226190Y-86600000D01*
X149702380Y-86838095D02*
X148702380Y-86838095D01*
X148702380Y-86457142D01*
X148750000Y-86361904D01*
X148797619Y-86314285D01*
X148892857Y-86266666D01*
X149035714Y-86266666D01*
X149130952Y-86314285D01*
X149178571Y-86361904D01*
X149226190Y-86457142D01*
X149226190Y-86838095D01*
X148702380Y-85361904D02*
X148702380Y-85838095D01*
X149178571Y-85885714D01*
X149130952Y-85838095D01*
X149083333Y-85742857D01*
X149083333Y-85504761D01*
X149130952Y-85409523D01*
X149178571Y-85361904D01*
X149273809Y-85314285D01*
X149511904Y-85314285D01*
X149607142Y-85361904D01*
X149654761Y-85409523D01*
X149702380Y-85504761D01*
X149702380Y-85742857D01*
X149654761Y-85838095D01*
X149607142Y-85885714D01*
X99552380Y-108761904D02*
X100361904Y-108761904D01*
X100457142Y-108714285D01*
X100504761Y-108666666D01*
X100552380Y-108571428D01*
X100552380Y-108380952D01*
X100504761Y-108285714D01*
X100457142Y-108238095D01*
X100361904Y-108190476D01*
X99552380Y-108190476D01*
X99647619Y-107761904D02*
X99600000Y-107714285D01*
X99552380Y-107619047D01*
X99552380Y-107380952D01*
X99600000Y-107285714D01*
X99647619Y-107238095D01*
X99742857Y-107190476D01*
X99838095Y-107190476D01*
X99980952Y-107238095D01*
X100552380Y-107809523D01*
X100552380Y-107190476D01*
X165107142Y-118216666D02*
X165154761Y-118264285D01*
X165202380Y-118407142D01*
X165202380Y-118502380D01*
X165154761Y-118645238D01*
X165059523Y-118740476D01*
X164964285Y-118788095D01*
X164773809Y-118835714D01*
X164630952Y-118835714D01*
X164440476Y-118788095D01*
X164345238Y-118740476D01*
X164250000Y-118645238D01*
X164202380Y-118502380D01*
X164202380Y-118407142D01*
X164250000Y-118264285D01*
X164297619Y-118216666D01*
X164202380Y-117883333D02*
X164202380Y-117264285D01*
X164583333Y-117597619D01*
X164583333Y-117454761D01*
X164630952Y-117359523D01*
X164678571Y-117311904D01*
X164773809Y-117264285D01*
X165011904Y-117264285D01*
X165107142Y-117311904D01*
X165154761Y-117359523D01*
X165202380Y-117454761D01*
X165202380Y-117740476D01*
X165154761Y-117835714D01*
X165107142Y-117883333D01*
X187552380Y-100092857D02*
X187076190Y-100426190D01*
X187552380Y-100664285D02*
X186552380Y-100664285D01*
X186552380Y-100283333D01*
X186600000Y-100188095D01*
X186647619Y-100140476D01*
X186742857Y-100092857D01*
X186885714Y-100092857D01*
X186980952Y-100140476D01*
X187028571Y-100188095D01*
X187076190Y-100283333D01*
X187076190Y-100664285D01*
X187552380Y-99140476D02*
X187552380Y-99711904D01*
X187552380Y-99426190D02*
X186552380Y-99426190D01*
X186695238Y-99521428D01*
X186790476Y-99616666D01*
X186838095Y-99711904D01*
X186885714Y-98283333D02*
X187552380Y-98283333D01*
X186504761Y-98521428D02*
X187219047Y-98759523D01*
X187219047Y-98140476D01*
X154657142Y-102542857D02*
X154704761Y-102590476D01*
X154752380Y-102733333D01*
X154752380Y-102828571D01*
X154704761Y-102971428D01*
X154609523Y-103066666D01*
X154514285Y-103114285D01*
X154323809Y-103161904D01*
X154180952Y-103161904D01*
X153990476Y-103114285D01*
X153895238Y-103066666D01*
X153800000Y-102971428D01*
X153752380Y-102828571D01*
X153752380Y-102733333D01*
X153800000Y-102590476D01*
X153847619Y-102542857D01*
X153847619Y-102161904D02*
X153800000Y-102114285D01*
X153752380Y-102019047D01*
X153752380Y-101780952D01*
X153800000Y-101685714D01*
X153847619Y-101638095D01*
X153942857Y-101590476D01*
X154038095Y-101590476D01*
X154180952Y-101638095D01*
X154752380Y-102209523D01*
X154752380Y-101590476D01*
X154085714Y-100733333D02*
X154752380Y-100733333D01*
X153704761Y-100971428D02*
X154419047Y-101209523D01*
X154419047Y-100590476D01*
X110593142Y-95924666D02*
X110640761Y-95972285D01*
X110688380Y-96115142D01*
X110688380Y-96210380D01*
X110640761Y-96353238D01*
X110545523Y-96448476D01*
X110450285Y-96496095D01*
X110259809Y-96543714D01*
X110116952Y-96543714D01*
X109926476Y-96496095D01*
X109831238Y-96448476D01*
X109736000Y-96353238D01*
X109688380Y-96210380D01*
X109688380Y-96115142D01*
X109736000Y-95972285D01*
X109783619Y-95924666D01*
X109688380Y-95067523D02*
X109688380Y-95258000D01*
X109736000Y-95353238D01*
X109783619Y-95400857D01*
X109926476Y-95496095D01*
X110116952Y-95543714D01*
X110497904Y-95543714D01*
X110593142Y-95496095D01*
X110640761Y-95448476D01*
X110688380Y-95353238D01*
X110688380Y-95162761D01*
X110640761Y-95067523D01*
X110593142Y-95019904D01*
X110497904Y-94972285D01*
X110259809Y-94972285D01*
X110164571Y-95019904D01*
X110116952Y-95067523D01*
X110069333Y-95162761D01*
X110069333Y-95353238D01*
X110116952Y-95448476D01*
X110164571Y-95496095D01*
X110259809Y-95543714D01*
X172202380Y-107466666D02*
X171726190Y-107800000D01*
X172202380Y-108038095D02*
X171202380Y-108038095D01*
X171202380Y-107657142D01*
X171250000Y-107561904D01*
X171297619Y-107514285D01*
X171392857Y-107466666D01*
X171535714Y-107466666D01*
X171630952Y-107514285D01*
X171678571Y-107561904D01*
X171726190Y-107657142D01*
X171726190Y-108038095D01*
X172202380Y-106514285D02*
X172202380Y-107085714D01*
X172202380Y-106800000D02*
X171202380Y-106800000D01*
X171345238Y-106895238D01*
X171440476Y-106990476D01*
X171488095Y-107085714D01*
X166152380Y-92742857D02*
X165676190Y-93076190D01*
X166152380Y-93314285D02*
X165152380Y-93314285D01*
X165152380Y-92933333D01*
X165200000Y-92838095D01*
X165247619Y-92790476D01*
X165342857Y-92742857D01*
X165485714Y-92742857D01*
X165580952Y-92790476D01*
X165628571Y-92838095D01*
X165676190Y-92933333D01*
X165676190Y-93314285D01*
X165152380Y-92409523D02*
X165152380Y-91790476D01*
X165533333Y-92123809D01*
X165533333Y-91980952D01*
X165580952Y-91885714D01*
X165628571Y-91838095D01*
X165723809Y-91790476D01*
X165961904Y-91790476D01*
X166057142Y-91838095D01*
X166104761Y-91885714D01*
X166152380Y-91980952D01*
X166152380Y-92266666D01*
X166104761Y-92361904D01*
X166057142Y-92409523D01*
X165485714Y-90933333D02*
X166152380Y-90933333D01*
X165104761Y-91171428D02*
X165819047Y-91409523D01*
X165819047Y-90790476D01*
X164307142Y-73152380D02*
X163973809Y-72676190D01*
X163735714Y-73152380D02*
X163735714Y-72152380D01*
X164116666Y-72152380D01*
X164211904Y-72200000D01*
X164259523Y-72247619D01*
X164307142Y-72342857D01*
X164307142Y-72485714D01*
X164259523Y-72580952D01*
X164211904Y-72628571D01*
X164116666Y-72676190D01*
X163735714Y-72676190D01*
X164688095Y-72247619D02*
X164735714Y-72200000D01*
X164830952Y-72152380D01*
X165069047Y-72152380D01*
X165164285Y-72200000D01*
X165211904Y-72247619D01*
X165259523Y-72342857D01*
X165259523Y-72438095D01*
X165211904Y-72580952D01*
X164640476Y-73152380D01*
X165259523Y-73152380D01*
X165735714Y-73152380D02*
X165926190Y-73152380D01*
X166021428Y-73104761D01*
X166069047Y-73057142D01*
X166164285Y-72914285D01*
X166211904Y-72723809D01*
X166211904Y-72342857D01*
X166164285Y-72247619D01*
X166116666Y-72200000D01*
X166021428Y-72152380D01*
X165830952Y-72152380D01*
X165735714Y-72200000D01*
X165688095Y-72247619D01*
X165640476Y-72342857D01*
X165640476Y-72580952D01*
X165688095Y-72676190D01*
X165735714Y-72723809D01*
X165830952Y-72771428D01*
X166021428Y-72771428D01*
X166116666Y-72723809D01*
X166164285Y-72676190D01*
X166211904Y-72580952D01*
X166752380Y-89342857D02*
X166276190Y-89676190D01*
X166752380Y-89914285D02*
X165752380Y-89914285D01*
X165752380Y-89533333D01*
X165800000Y-89438095D01*
X165847619Y-89390476D01*
X165942857Y-89342857D01*
X166085714Y-89342857D01*
X166180952Y-89390476D01*
X166228571Y-89438095D01*
X166276190Y-89533333D01*
X166276190Y-89914285D01*
X165752380Y-89009523D02*
X165752380Y-88390476D01*
X166133333Y-88723809D01*
X166133333Y-88580952D01*
X166180952Y-88485714D01*
X166228571Y-88438095D01*
X166323809Y-88390476D01*
X166561904Y-88390476D01*
X166657142Y-88438095D01*
X166704761Y-88485714D01*
X166752380Y-88580952D01*
X166752380Y-88866666D01*
X166704761Y-88961904D01*
X166657142Y-89009523D01*
X166752380Y-87438095D02*
X166752380Y-88009523D01*
X166752380Y-87723809D02*
X165752380Y-87723809D01*
X165895238Y-87819047D01*
X165990476Y-87914285D01*
X166038095Y-88009523D01*
X162052380Y-92742857D02*
X161576190Y-93076190D01*
X162052380Y-93314285D02*
X161052380Y-93314285D01*
X161052380Y-92933333D01*
X161100000Y-92838095D01*
X161147619Y-92790476D01*
X161242857Y-92742857D01*
X161385714Y-92742857D01*
X161480952Y-92790476D01*
X161528571Y-92838095D01*
X161576190Y-92933333D01*
X161576190Y-93314285D01*
X161385714Y-91885714D02*
X162052380Y-91885714D01*
X161004761Y-92123809D02*
X161719047Y-92361904D01*
X161719047Y-91742857D01*
X161147619Y-91409523D02*
X161100000Y-91361904D01*
X161052380Y-91266666D01*
X161052380Y-91028571D01*
X161100000Y-90933333D01*
X161147619Y-90885714D01*
X161242857Y-90838095D01*
X161338095Y-90838095D01*
X161480952Y-90885714D01*
X162052380Y-91457142D01*
X162052380Y-90838095D01*
X165202380Y-120892857D02*
X164726190Y-121226190D01*
X165202380Y-121464285D02*
X164202380Y-121464285D01*
X164202380Y-121083333D01*
X164250000Y-120988095D01*
X164297619Y-120940476D01*
X164392857Y-120892857D01*
X164535714Y-120892857D01*
X164630952Y-120940476D01*
X164678571Y-120988095D01*
X164726190Y-121083333D01*
X164726190Y-121464285D01*
X164297619Y-120511904D02*
X164250000Y-120464285D01*
X164202380Y-120369047D01*
X164202380Y-120130952D01*
X164250000Y-120035714D01*
X164297619Y-119988095D01*
X164392857Y-119940476D01*
X164488095Y-119940476D01*
X164630952Y-119988095D01*
X165202380Y-120559523D01*
X165202380Y-119940476D01*
X165202380Y-118988095D02*
X165202380Y-119559523D01*
X165202380Y-119273809D02*
X164202380Y-119273809D01*
X164345238Y-119369047D01*
X164440476Y-119464285D01*
X164488095Y-119559523D01*
X159402380Y-83838095D02*
X158402380Y-83838095D01*
X158402380Y-83600000D01*
X158450000Y-83457142D01*
X158545238Y-83361904D01*
X158640476Y-83314285D01*
X158830952Y-83266666D01*
X158973809Y-83266666D01*
X159164285Y-83314285D01*
X159259523Y-83361904D01*
X159354761Y-83457142D01*
X159402380Y-83600000D01*
X159402380Y-83838095D01*
X158402380Y-82933333D02*
X158402380Y-82266666D01*
X159402380Y-82695238D01*
X159778571Y-110283333D02*
X159778571Y-110616666D01*
X160302380Y-110616666D02*
X159302380Y-110616666D01*
X159302380Y-110140476D01*
X159778571Y-109426190D02*
X159826190Y-109283333D01*
X159873809Y-109235714D01*
X159969047Y-109188095D01*
X160111904Y-109188095D01*
X160207142Y-109235714D01*
X160254761Y-109283333D01*
X160302380Y-109378571D01*
X160302380Y-109759523D01*
X159302380Y-109759523D01*
X159302380Y-109426190D01*
X159350000Y-109330952D01*
X159397619Y-109283333D01*
X159492857Y-109235714D01*
X159588095Y-109235714D01*
X159683333Y-109283333D01*
X159730952Y-109330952D01*
X159778571Y-109426190D01*
X159778571Y-109759523D01*
X160302380Y-108235714D02*
X160302380Y-108807142D01*
X160302380Y-108521428D02*
X159302380Y-108521428D01*
X159445238Y-108616666D01*
X159540476Y-108711904D01*
X159588095Y-108807142D01*
X176711083Y-106123418D02*
X176184127Y-105273526D01*
X176386482Y-105148060D01*
X176532988Y-105113252D01*
X176664117Y-105144008D01*
X176754774Y-105199857D01*
X176895618Y-105336648D01*
X176970897Y-105458061D01*
X177030799Y-105645038D01*
X177040514Y-105751074D01*
X177009758Y-105882202D01*
X176913438Y-105997953D01*
X176711083Y-106123418D01*
X178006157Y-105320438D02*
X177520504Y-105621556D01*
X177763331Y-105470997D02*
X177236375Y-104621104D01*
X177230712Y-104792704D01*
X177199956Y-104923832D01*
X177144107Y-105014489D01*
X162602380Y-83838095D02*
X161602380Y-83838095D01*
X161602380Y-83600000D01*
X161650000Y-83457142D01*
X161745238Y-83361904D01*
X161840476Y-83314285D01*
X162030952Y-83266666D01*
X162173809Y-83266666D01*
X162364285Y-83314285D01*
X162459523Y-83361904D01*
X162554761Y-83457142D01*
X162602380Y-83600000D01*
X162602380Y-83838095D01*
X162602380Y-82790476D02*
X162602380Y-82600000D01*
X162554761Y-82504761D01*
X162507142Y-82457142D01*
X162364285Y-82361904D01*
X162173809Y-82314285D01*
X161792857Y-82314285D01*
X161697619Y-82361904D01*
X161650000Y-82409523D01*
X161602380Y-82504761D01*
X161602380Y-82695238D01*
X161650000Y-82790476D01*
X161697619Y-82838095D01*
X161792857Y-82885714D01*
X162030952Y-82885714D01*
X162126190Y-82838095D01*
X162173809Y-82790476D01*
X162221428Y-82695238D01*
X162221428Y-82504761D01*
X162173809Y-82409523D01*
X162126190Y-82361904D01*
X162030952Y-82314285D01*
X172497619Y-99345238D02*
X172450000Y-99440476D01*
X172354761Y-99535714D01*
X172211904Y-99678571D01*
X172164285Y-99773809D01*
X172164285Y-99869047D01*
X172402380Y-99821428D02*
X172354761Y-99916666D01*
X172259523Y-100011904D01*
X172069047Y-100059523D01*
X171735714Y-100059523D01*
X171545238Y-100011904D01*
X171450000Y-99916666D01*
X171402380Y-99821428D01*
X171402380Y-99630952D01*
X171450000Y-99535714D01*
X171545238Y-99440476D01*
X171735714Y-99392857D01*
X172069047Y-99392857D01*
X172259523Y-99440476D01*
X172354761Y-99535714D01*
X172402380Y-99630952D01*
X172402380Y-99821428D01*
X171402380Y-98488095D02*
X171402380Y-98964285D01*
X171878571Y-99011904D01*
X171830952Y-98964285D01*
X171783333Y-98869047D01*
X171783333Y-98630952D01*
X171830952Y-98535714D01*
X171878571Y-98488095D01*
X171973809Y-98440476D01*
X172211904Y-98440476D01*
X172307142Y-98488095D01*
X172354761Y-98535714D01*
X172402380Y-98630952D01*
X172402380Y-98869047D01*
X172354761Y-98964285D01*
X172307142Y-99011904D01*
X178173142Y-112576380D02*
X177839809Y-112100190D01*
X177601714Y-112576380D02*
X177601714Y-111576380D01*
X177982666Y-111576380D01*
X178077904Y-111624000D01*
X178125523Y-111671619D01*
X178173142Y-111766857D01*
X178173142Y-111909714D01*
X178125523Y-112004952D01*
X178077904Y-112052571D01*
X177982666Y-112100190D01*
X177601714Y-112100190D01*
X178554095Y-111671619D02*
X178601714Y-111624000D01*
X178696952Y-111576380D01*
X178935047Y-111576380D01*
X179030285Y-111624000D01*
X179077904Y-111671619D01*
X179125523Y-111766857D01*
X179125523Y-111862095D01*
X179077904Y-112004952D01*
X178506476Y-112576380D01*
X179125523Y-112576380D01*
X179458857Y-111576380D02*
X180077904Y-111576380D01*
X179744571Y-111957333D01*
X179887428Y-111957333D01*
X179982666Y-112004952D01*
X180030285Y-112052571D01*
X180077904Y-112147809D01*
X180077904Y-112385904D01*
X180030285Y-112481142D01*
X179982666Y-112528761D01*
X179887428Y-112576380D01*
X179601714Y-112576380D01*
X179506476Y-112528761D01*
X179458857Y-112481142D01*
X110959619Y-91115238D02*
X110912000Y-91210476D01*
X110816761Y-91305714D01*
X110673904Y-91448571D01*
X110626285Y-91543809D01*
X110626285Y-91639047D01*
X110864380Y-91591428D02*
X110816761Y-91686666D01*
X110721523Y-91781904D01*
X110531047Y-91829523D01*
X110197714Y-91829523D01*
X110007238Y-91781904D01*
X109912000Y-91686666D01*
X109864380Y-91591428D01*
X109864380Y-91400952D01*
X109912000Y-91305714D01*
X110007238Y-91210476D01*
X110197714Y-91162857D01*
X110531047Y-91162857D01*
X110721523Y-91210476D01*
X110816761Y-91305714D01*
X110864380Y-91400952D01*
X110864380Y-91591428D01*
X109864380Y-90829523D02*
X109864380Y-90210476D01*
X110245333Y-90543809D01*
X110245333Y-90400952D01*
X110292952Y-90305714D01*
X110340571Y-90258095D01*
X110435809Y-90210476D01*
X110673904Y-90210476D01*
X110769142Y-90258095D01*
X110816761Y-90305714D01*
X110864380Y-90400952D01*
X110864380Y-90686666D01*
X110816761Y-90781904D01*
X110769142Y-90829523D01*
X126757142Y-113252380D02*
X126423809Y-112776190D01*
X126185714Y-113252380D02*
X126185714Y-112252380D01*
X126566666Y-112252380D01*
X126661904Y-112300000D01*
X126709523Y-112347619D01*
X126757142Y-112442857D01*
X126757142Y-112585714D01*
X126709523Y-112680952D01*
X126661904Y-112728571D01*
X126566666Y-112776190D01*
X126185714Y-112776190D01*
X127090476Y-112252380D02*
X127709523Y-112252380D01*
X127376190Y-112633333D01*
X127519047Y-112633333D01*
X127614285Y-112680952D01*
X127661904Y-112728571D01*
X127709523Y-112823809D01*
X127709523Y-113061904D01*
X127661904Y-113157142D01*
X127614285Y-113204761D01*
X127519047Y-113252380D01*
X127233333Y-113252380D01*
X127138095Y-113204761D01*
X127090476Y-113157142D01*
X128614285Y-112252380D02*
X128138095Y-112252380D01*
X128090476Y-112728571D01*
X128138095Y-112680952D01*
X128233333Y-112633333D01*
X128471428Y-112633333D01*
X128566666Y-112680952D01*
X128614285Y-112728571D01*
X128661904Y-112823809D01*
X128661904Y-113061904D01*
X128614285Y-113157142D01*
X128566666Y-113204761D01*
X128471428Y-113252380D01*
X128233333Y-113252380D01*
X128138095Y-113204761D01*
X128090476Y-113157142D01*
X155883333Y-84397619D02*
X155883333Y-83683333D01*
X155930952Y-83540476D01*
X156026190Y-83445238D01*
X156169047Y-83397619D01*
X156264285Y-83397619D01*
X154883333Y-83397619D02*
X155454761Y-83397619D01*
X155169047Y-83397619D02*
X155169047Y-84397619D01*
X155264285Y-84254761D01*
X155359523Y-84159523D01*
X155454761Y-84111904D01*
X178141333Y-109274380D02*
X177808000Y-108798190D01*
X177569904Y-109274380D02*
X177569904Y-108274380D01*
X177950857Y-108274380D01*
X178046095Y-108322000D01*
X178093714Y-108369619D01*
X178141333Y-108464857D01*
X178141333Y-108607714D01*
X178093714Y-108702952D01*
X178046095Y-108750571D01*
X177950857Y-108798190D01*
X177569904Y-108798190D01*
X178998476Y-108607714D02*
X178998476Y-109274380D01*
X178760380Y-108226761D02*
X178522285Y-108941047D01*
X179141333Y-108941047D01*
X99552380Y-92261904D02*
X100361904Y-92261904D01*
X100457142Y-92214285D01*
X100504761Y-92166666D01*
X100552380Y-92071428D01*
X100552380Y-91880952D01*
X100504761Y-91785714D01*
X100457142Y-91738095D01*
X100361904Y-91690476D01*
X99552380Y-91690476D01*
X99552380Y-91309523D02*
X99552380Y-90690476D01*
X99933333Y-91023809D01*
X99933333Y-90880952D01*
X99980952Y-90785714D01*
X100028571Y-90738095D01*
X100123809Y-90690476D01*
X100361904Y-90690476D01*
X100457142Y-90738095D01*
X100504761Y-90785714D01*
X100552380Y-90880952D01*
X100552380Y-91166666D01*
X100504761Y-91261904D01*
X100457142Y-91309523D01*
X172402380Y-94142857D02*
X171926190Y-94476190D01*
X172402380Y-94714285D02*
X171402380Y-94714285D01*
X171402380Y-94333333D01*
X171450000Y-94238095D01*
X171497619Y-94190476D01*
X171592857Y-94142857D01*
X171735714Y-94142857D01*
X171830952Y-94190476D01*
X171878571Y-94238095D01*
X171926190Y-94333333D01*
X171926190Y-94714285D01*
X172402380Y-93190476D02*
X172402380Y-93761904D01*
X172402380Y-93476190D02*
X171402380Y-93476190D01*
X171545238Y-93571428D01*
X171640476Y-93666666D01*
X171688095Y-93761904D01*
X172402380Y-92238095D02*
X172402380Y-92809523D01*
X172402380Y-92523809D02*
X171402380Y-92523809D01*
X171545238Y-92619047D01*
X171640476Y-92714285D01*
X171688095Y-92809523D01*
X160652380Y-92742857D02*
X160176190Y-93076190D01*
X160652380Y-93314285D02*
X159652380Y-93314285D01*
X159652380Y-92933333D01*
X159700000Y-92838095D01*
X159747619Y-92790476D01*
X159842857Y-92742857D01*
X159985714Y-92742857D01*
X160080952Y-92790476D01*
X160128571Y-92838095D01*
X160176190Y-92933333D01*
X160176190Y-93314285D01*
X159985714Y-91885714D02*
X160652380Y-91885714D01*
X159604761Y-92123809D02*
X160319047Y-92361904D01*
X160319047Y-91742857D01*
X160652380Y-90838095D02*
X160652380Y-91409523D01*
X160652380Y-91123809D02*
X159652380Y-91123809D01*
X159795238Y-91219047D01*
X159890476Y-91314285D01*
X159938095Y-91409523D01*
X173552380Y-85342857D02*
X173076190Y-85676190D01*
X173552380Y-85914285D02*
X172552380Y-85914285D01*
X172552380Y-85533333D01*
X172600000Y-85438095D01*
X172647619Y-85390476D01*
X172742857Y-85342857D01*
X172885714Y-85342857D01*
X172980952Y-85390476D01*
X173028571Y-85438095D01*
X173076190Y-85533333D01*
X173076190Y-85914285D01*
X172647619Y-84961904D02*
X172600000Y-84914285D01*
X172552380Y-84819047D01*
X172552380Y-84580952D01*
X172600000Y-84485714D01*
X172647619Y-84438095D01*
X172742857Y-84390476D01*
X172838095Y-84390476D01*
X172980952Y-84438095D01*
X173552380Y-85009523D01*
X173552380Y-84390476D01*
X172552380Y-83485714D02*
X172552380Y-83961904D01*
X173028571Y-84009523D01*
X172980952Y-83961904D01*
X172933333Y-83866666D01*
X172933333Y-83628571D01*
X172980952Y-83533333D01*
X173028571Y-83485714D01*
X173123809Y-83438095D01*
X173361904Y-83438095D01*
X173457142Y-83485714D01*
X173504761Y-83533333D01*
X173552380Y-83628571D01*
X173552380Y-83866666D01*
X173504761Y-83961904D01*
X173457142Y-84009523D01*
X178173142Y-89202380D02*
X177839809Y-88726190D01*
X177601714Y-89202380D02*
X177601714Y-88202380D01*
X177982666Y-88202380D01*
X178077904Y-88250000D01*
X178125523Y-88297619D01*
X178173142Y-88392857D01*
X178173142Y-88535714D01*
X178125523Y-88630952D01*
X178077904Y-88678571D01*
X177982666Y-88726190D01*
X177601714Y-88726190D01*
X178506476Y-88202380D02*
X179125523Y-88202380D01*
X178792190Y-88583333D01*
X178935047Y-88583333D01*
X179030285Y-88630952D01*
X179077904Y-88678571D01*
X179125523Y-88773809D01*
X179125523Y-89011904D01*
X179077904Y-89107142D01*
X179030285Y-89154761D01*
X178935047Y-89202380D01*
X178649333Y-89202380D01*
X178554095Y-89154761D01*
X178506476Y-89107142D01*
X179744571Y-88202380D02*
X179839809Y-88202380D01*
X179935047Y-88250000D01*
X179982666Y-88297619D01*
X180030285Y-88392857D01*
X180077904Y-88583333D01*
X180077904Y-88821428D01*
X180030285Y-89011904D01*
X179982666Y-89107142D01*
X179935047Y-89154761D01*
X179839809Y-89202380D01*
X179744571Y-89202380D01*
X179649333Y-89154761D01*
X179601714Y-89107142D01*
X179554095Y-89011904D01*
X179506476Y-88821428D01*
X179506476Y-88583333D01*
X179554095Y-88392857D01*
X179601714Y-88297619D01*
X179649333Y-88250000D01*
X179744571Y-88202380D01*
X163257142Y-92742857D02*
X163304761Y-92790476D01*
X163352380Y-92933333D01*
X163352380Y-93028571D01*
X163304761Y-93171428D01*
X163209523Y-93266666D01*
X163114285Y-93314285D01*
X162923809Y-93361904D01*
X162780952Y-93361904D01*
X162590476Y-93314285D01*
X162495238Y-93266666D01*
X162400000Y-93171428D01*
X162352380Y-93028571D01*
X162352380Y-92933333D01*
X162400000Y-92790476D01*
X162447619Y-92742857D01*
X162447619Y-92361904D02*
X162400000Y-92314285D01*
X162352380Y-92219047D01*
X162352380Y-91980952D01*
X162400000Y-91885714D01*
X162447619Y-91838095D01*
X162542857Y-91790476D01*
X162638095Y-91790476D01*
X162780952Y-91838095D01*
X163352380Y-92409523D01*
X163352380Y-91790476D01*
X162447619Y-91409523D02*
X162400000Y-91361904D01*
X162352380Y-91266666D01*
X162352380Y-91028571D01*
X162400000Y-90933333D01*
X162447619Y-90885714D01*
X162542857Y-90838095D01*
X162638095Y-90838095D01*
X162780952Y-90885714D01*
X163352380Y-91457142D01*
X163352380Y-90838095D01*
X178173142Y-90727380D02*
X177839809Y-90251190D01*
X177601714Y-90727380D02*
X177601714Y-89727380D01*
X177982666Y-89727380D01*
X178077904Y-89775000D01*
X178125523Y-89822619D01*
X178173142Y-89917857D01*
X178173142Y-90060714D01*
X178125523Y-90155952D01*
X178077904Y-90203571D01*
X177982666Y-90251190D01*
X177601714Y-90251190D01*
X179125523Y-90727380D02*
X178554095Y-90727380D01*
X178839809Y-90727380D02*
X178839809Y-89727380D01*
X178744571Y-89870238D01*
X178649333Y-89965476D01*
X178554095Y-90013095D01*
X180030285Y-89727380D02*
X179554095Y-89727380D01*
X179506476Y-90203571D01*
X179554095Y-90155952D01*
X179649333Y-90108333D01*
X179887428Y-90108333D01*
X179982666Y-90155952D01*
X180030285Y-90203571D01*
X180077904Y-90298809D01*
X180077904Y-90536904D01*
X180030285Y-90632142D01*
X179982666Y-90679761D01*
X179887428Y-90727380D01*
X179649333Y-90727380D01*
X179554095Y-90679761D01*
X179506476Y-90632142D01*
X177847619Y-84495238D02*
X177800000Y-84590476D01*
X177704761Y-84685714D01*
X177561904Y-84828571D01*
X177514285Y-84923809D01*
X177514285Y-85019047D01*
X177752380Y-84971428D02*
X177704761Y-85066666D01*
X177609523Y-85161904D01*
X177419047Y-85209523D01*
X177085714Y-85209523D01*
X176895238Y-85161904D01*
X176800000Y-85066666D01*
X176752380Y-84971428D01*
X176752380Y-84780952D01*
X176800000Y-84685714D01*
X176895238Y-84590476D01*
X177085714Y-84542857D01*
X177419047Y-84542857D01*
X177609523Y-84590476D01*
X177704761Y-84685714D01*
X177752380Y-84780952D01*
X177752380Y-84971428D01*
X177752380Y-84066666D02*
X177752380Y-83876190D01*
X177704761Y-83780952D01*
X177657142Y-83733333D01*
X177514285Y-83638095D01*
X177323809Y-83590476D01*
X176942857Y-83590476D01*
X176847619Y-83638095D01*
X176800000Y-83685714D01*
X176752380Y-83780952D01*
X176752380Y-83971428D01*
X176800000Y-84066666D01*
X176847619Y-84114285D01*
X176942857Y-84161904D01*
X177180952Y-84161904D01*
X177276190Y-84114285D01*
X177323809Y-84066666D01*
X177371428Y-83971428D01*
X177371428Y-83780952D01*
X177323809Y-83685714D01*
X177276190Y-83638095D01*
X177180952Y-83590476D01*
X178173142Y-114354380D02*
X177839809Y-113878190D01*
X177601714Y-114354380D02*
X177601714Y-113354380D01*
X177982666Y-113354380D01*
X178077904Y-113402000D01*
X178125523Y-113449619D01*
X178173142Y-113544857D01*
X178173142Y-113687714D01*
X178125523Y-113782952D01*
X178077904Y-113830571D01*
X177982666Y-113878190D01*
X177601714Y-113878190D01*
X179125523Y-114354380D02*
X178554095Y-114354380D01*
X178839809Y-114354380D02*
X178839809Y-113354380D01*
X178744571Y-113497238D01*
X178649333Y-113592476D01*
X178554095Y-113640095D01*
X179696952Y-113782952D02*
X179601714Y-113735333D01*
X179554095Y-113687714D01*
X179506476Y-113592476D01*
X179506476Y-113544857D01*
X179554095Y-113449619D01*
X179601714Y-113402000D01*
X179696952Y-113354380D01*
X179887428Y-113354380D01*
X179982666Y-113402000D01*
X180030285Y-113449619D01*
X180077904Y-113544857D01*
X180077904Y-113592476D01*
X180030285Y-113687714D01*
X179982666Y-113735333D01*
X179887428Y-113782952D01*
X179696952Y-113782952D01*
X179601714Y-113830571D01*
X179554095Y-113878190D01*
X179506476Y-113973428D01*
X179506476Y-114163904D01*
X179554095Y-114259142D01*
X179601714Y-114306761D01*
X179696952Y-114354380D01*
X179887428Y-114354380D01*
X179982666Y-114306761D01*
X180030285Y-114259142D01*
X180077904Y-114163904D01*
X180077904Y-113973428D01*
X180030285Y-113878190D01*
X179982666Y-113830571D01*
X179887428Y-113782952D01*
X138357142Y-116652380D02*
X138023809Y-116176190D01*
X137785714Y-116652380D02*
X137785714Y-115652380D01*
X138166666Y-115652380D01*
X138261904Y-115700000D01*
X138309523Y-115747619D01*
X138357142Y-115842857D01*
X138357142Y-115985714D01*
X138309523Y-116080952D01*
X138261904Y-116128571D01*
X138166666Y-116176190D01*
X137785714Y-116176190D01*
X138690476Y-115652380D02*
X139309523Y-115652380D01*
X138976190Y-116033333D01*
X139119047Y-116033333D01*
X139214285Y-116080952D01*
X139261904Y-116128571D01*
X139309523Y-116223809D01*
X139309523Y-116461904D01*
X139261904Y-116557142D01*
X139214285Y-116604761D01*
X139119047Y-116652380D01*
X138833333Y-116652380D01*
X138738095Y-116604761D01*
X138690476Y-116557142D01*
X139642857Y-115652380D02*
X140261904Y-115652380D01*
X139928571Y-116033333D01*
X140071428Y-116033333D01*
X140166666Y-116080952D01*
X140214285Y-116128571D01*
X140261904Y-116223809D01*
X140261904Y-116461904D01*
X140214285Y-116557142D01*
X140166666Y-116604761D01*
X140071428Y-116652380D01*
X139785714Y-116652380D01*
X139690476Y-116604761D01*
X139642857Y-116557142D01*
X153657142Y-113066666D02*
X153704761Y-113114285D01*
X153752380Y-113257142D01*
X153752380Y-113352380D01*
X153704761Y-113495238D01*
X153609523Y-113590476D01*
X153514285Y-113638095D01*
X153323809Y-113685714D01*
X153180952Y-113685714D01*
X152990476Y-113638095D01*
X152895238Y-113590476D01*
X152800000Y-113495238D01*
X152752380Y-113352380D01*
X152752380Y-113257142D01*
X152800000Y-113114285D01*
X152847619Y-113066666D01*
X153085714Y-112209523D02*
X153752380Y-112209523D01*
X152704761Y-112447619D02*
X153419047Y-112685714D01*
X153419047Y-112066666D01*
X122866666Y-126304761D02*
X123009523Y-126352380D01*
X123247619Y-126352380D01*
X123342857Y-126304761D01*
X123390476Y-126257142D01*
X123438095Y-126161904D01*
X123438095Y-126066666D01*
X123390476Y-125971428D01*
X123342857Y-125923809D01*
X123247619Y-125876190D01*
X123057142Y-125828571D01*
X122961904Y-125780952D01*
X122914285Y-125733333D01*
X122866666Y-125638095D01*
X122866666Y-125542857D01*
X122914285Y-125447619D01*
X122961904Y-125400000D01*
X123057142Y-125352380D01*
X123295238Y-125352380D01*
X123438095Y-125400000D01*
X123771428Y-125352380D02*
X124009523Y-126352380D01*
X124200000Y-125638095D01*
X124390476Y-126352380D01*
X124628571Y-125352380D01*
X125485714Y-125352380D02*
X125009523Y-125352380D01*
X124961904Y-125828571D01*
X125009523Y-125780952D01*
X125104761Y-125733333D01*
X125342857Y-125733333D01*
X125438095Y-125780952D01*
X125485714Y-125828571D01*
X125533333Y-125923809D01*
X125533333Y-126161904D01*
X125485714Y-126257142D01*
X125438095Y-126304761D01*
X125342857Y-126352380D01*
X125104761Y-126352380D01*
X125009523Y-126304761D01*
X124961904Y-126257142D01*
X118807142Y-123987142D02*
X118759523Y-124034761D01*
X118616666Y-124082380D01*
X118521428Y-124082380D01*
X118378571Y-124034761D01*
X118283333Y-123939523D01*
X118235714Y-123844285D01*
X118188095Y-123653809D01*
X118188095Y-123510952D01*
X118235714Y-123320476D01*
X118283333Y-123225238D01*
X118378571Y-123130000D01*
X118521428Y-123082380D01*
X118616666Y-123082380D01*
X118759523Y-123130000D01*
X118807142Y-123177619D01*
X119759523Y-124082380D02*
X119188095Y-124082380D01*
X119473809Y-124082380D02*
X119473809Y-123082380D01*
X119378571Y-123225238D01*
X119283333Y-123320476D01*
X119188095Y-123368095D01*
X120330952Y-123510952D02*
X120235714Y-123463333D01*
X120188095Y-123415714D01*
X120140476Y-123320476D01*
X120140476Y-123272857D01*
X120188095Y-123177619D01*
X120235714Y-123130000D01*
X120330952Y-123082380D01*
X120521428Y-123082380D01*
X120616666Y-123130000D01*
X120664285Y-123177619D01*
X120711904Y-123272857D01*
X120711904Y-123320476D01*
X120664285Y-123415714D01*
X120616666Y-123463333D01*
X120521428Y-123510952D01*
X120330952Y-123510952D01*
X120235714Y-123558571D01*
X120188095Y-123606190D01*
X120140476Y-123701428D01*
X120140476Y-123891904D01*
X120188095Y-123987142D01*
X120235714Y-124034761D01*
X120330952Y-124082380D01*
X120521428Y-124082380D01*
X120616666Y-124034761D01*
X120664285Y-123987142D01*
X120711904Y-123891904D01*
X120711904Y-123701428D01*
X120664285Y-123606190D01*
X120616666Y-123558571D01*
X120521428Y-123510952D01*
X146452380Y-101211904D02*
X147261904Y-101211904D01*
X147357142Y-101164285D01*
X147404761Y-101116666D01*
X147452380Y-101021428D01*
X147452380Y-100830952D01*
X147404761Y-100735714D01*
X147357142Y-100688095D01*
X147261904Y-100640476D01*
X146452380Y-100640476D01*
X146785714Y-99735714D02*
X147452380Y-99735714D01*
X146404761Y-99973809D02*
X147119047Y-100211904D01*
X147119047Y-99592857D01*
X137557142Y-101107142D02*
X137509523Y-101154761D01*
X137366666Y-101202380D01*
X137271428Y-101202380D01*
X137128571Y-101154761D01*
X137033333Y-101059523D01*
X136985714Y-100964285D01*
X136938095Y-100773809D01*
X136938095Y-100630952D01*
X136985714Y-100440476D01*
X137033333Y-100345238D01*
X137128571Y-100250000D01*
X137271428Y-100202380D01*
X137366666Y-100202380D01*
X137509523Y-100250000D01*
X137557142Y-100297619D01*
X138509523Y-101202380D02*
X137938095Y-101202380D01*
X138223809Y-101202380D02*
X138223809Y-100202380D01*
X138128571Y-100345238D01*
X138033333Y-100440476D01*
X137938095Y-100488095D01*
X139366666Y-100535714D02*
X139366666Y-101202380D01*
X139128571Y-100154761D02*
X138890476Y-100869047D01*
X139509523Y-100869047D01*
X172107142Y-109877666D02*
X172154761Y-109925285D01*
X172202380Y-110068142D01*
X172202380Y-110163380D01*
X172154761Y-110306238D01*
X172059523Y-110401476D01*
X171964285Y-110449095D01*
X171773809Y-110496714D01*
X171630952Y-110496714D01*
X171440476Y-110449095D01*
X171345238Y-110401476D01*
X171250000Y-110306238D01*
X171202380Y-110163380D01*
X171202380Y-110068142D01*
X171250000Y-109925285D01*
X171297619Y-109877666D01*
X172202380Y-108925285D02*
X172202380Y-109496714D01*
X172202380Y-109211000D02*
X171202380Y-109211000D01*
X171345238Y-109306238D01*
X171440476Y-109401476D01*
X171488095Y-109496714D01*
X119290904Y-106624380D02*
X119290904Y-105624380D01*
X119529000Y-105624380D01*
X119671857Y-105672000D01*
X119767095Y-105767238D01*
X119814714Y-105862476D01*
X119862333Y-106052952D01*
X119862333Y-106195809D01*
X119814714Y-106386285D01*
X119767095Y-106481523D01*
X119671857Y-106576761D01*
X119529000Y-106624380D01*
X119290904Y-106624380D01*
X120719476Y-105957714D02*
X120719476Y-106624380D01*
X120481380Y-105576761D02*
X120243285Y-106291047D01*
X120862333Y-106291047D01*
X110593142Y-105068666D02*
X110640761Y-105116285D01*
X110688380Y-105259142D01*
X110688380Y-105354380D01*
X110640761Y-105497238D01*
X110545523Y-105592476D01*
X110450285Y-105640095D01*
X110259809Y-105687714D01*
X110116952Y-105687714D01*
X109926476Y-105640095D01*
X109831238Y-105592476D01*
X109736000Y-105497238D01*
X109688380Y-105354380D01*
X109688380Y-105259142D01*
X109736000Y-105116285D01*
X109783619Y-105068666D01*
X110688380Y-104592476D02*
X110688380Y-104402000D01*
X110640761Y-104306761D01*
X110593142Y-104259142D01*
X110450285Y-104163904D01*
X110259809Y-104116285D01*
X109878857Y-104116285D01*
X109783619Y-104163904D01*
X109736000Y-104211523D01*
X109688380Y-104306761D01*
X109688380Y-104497238D01*
X109736000Y-104592476D01*
X109783619Y-104640095D01*
X109878857Y-104687714D01*
X110116952Y-104687714D01*
X110212190Y-104640095D01*
X110259809Y-104592476D01*
X110307428Y-104497238D01*
X110307428Y-104306761D01*
X110259809Y-104211523D01*
X110212190Y-104163904D01*
X110116952Y-104116285D01*
X153157142Y-102542857D02*
X153204761Y-102590476D01*
X153252380Y-102733333D01*
X153252380Y-102828571D01*
X153204761Y-102971428D01*
X153109523Y-103066666D01*
X153014285Y-103114285D01*
X152823809Y-103161904D01*
X152680952Y-103161904D01*
X152490476Y-103114285D01*
X152395238Y-103066666D01*
X152300000Y-102971428D01*
X152252380Y-102828571D01*
X152252380Y-102733333D01*
X152300000Y-102590476D01*
X152347619Y-102542857D01*
X152252380Y-102209523D02*
X152252380Y-101590476D01*
X152633333Y-101923809D01*
X152633333Y-101780952D01*
X152680952Y-101685714D01*
X152728571Y-101638095D01*
X152823809Y-101590476D01*
X153061904Y-101590476D01*
X153157142Y-101638095D01*
X153204761Y-101685714D01*
X153252380Y-101780952D01*
X153252380Y-102066666D01*
X153204761Y-102161904D01*
X153157142Y-102209523D01*
X153252380Y-100638095D02*
X153252380Y-101209523D01*
X153252380Y-100923809D02*
X152252380Y-100923809D01*
X152395238Y-101019047D01*
X152490476Y-101114285D01*
X152538095Y-101209523D01*
X178119513Y-93934768D02*
X178175362Y-94025426D01*
X178206118Y-94156554D01*
X178252251Y-94353247D01*
X178308100Y-94443904D01*
X178389043Y-94494090D01*
X178474037Y-94266642D02*
X178529886Y-94357299D01*
X178560642Y-94488428D01*
X178500741Y-94675405D01*
X178325089Y-94958703D01*
X178184245Y-95095494D01*
X178053117Y-95126250D01*
X177947081Y-95116535D01*
X177785197Y-95016162D01*
X177729348Y-94925505D01*
X177698592Y-94794376D01*
X177758494Y-94607399D01*
X177934146Y-94324101D01*
X178074989Y-94187310D01*
X178206118Y-94156554D01*
X178312153Y-94166269D01*
X178474037Y-94266642D01*
X177030014Y-94155722D02*
X177381318Y-93589127D01*
X177031625Y-94604957D02*
X177610377Y-94123356D01*
X177084253Y-93797145D01*
D12*
X169050000Y-82050000D02*
X169050000Y-85950000D01*
X166150000Y-85950000D02*
X166150000Y-82050000D01*
X174504724Y-95177500D02*
X173995276Y-95177500D01*
X174504724Y-96222500D02*
X173995276Y-96222500D01*
X154953733Y-88590000D02*
X155246267Y-88590000D01*
X154953733Y-89610000D02*
X155246267Y-89610000D01*
X168104724Y-115277500D02*
X167595276Y-115277500D01*
X168104724Y-116322500D02*
X167595276Y-116322500D01*
X114194000Y-96880000D02*
X114194000Y-97150000D01*
X114194000Y-103510000D02*
X113094000Y-103510000D01*
X114194000Y-97150000D02*
X111364000Y-97150000D01*
X114194000Y-103780000D02*
X114194000Y-103510000D01*
X115694000Y-96880000D02*
X114194000Y-96880000D01*
X115694000Y-103780000D02*
X114194000Y-103780000D01*
X154846267Y-94410000D02*
X154553733Y-94410000D01*
X154846267Y-93390000D02*
X154553733Y-93390000D01*
X173995276Y-105522500D02*
X174504724Y-105522500D01*
X173995276Y-104477500D02*
X174504724Y-104477500D01*
X165122500Y-88954724D02*
X165122500Y-88445276D01*
X164077500Y-88954724D02*
X164077500Y-88445276D01*
X138346267Y-98210000D02*
X138053733Y-98210000D01*
X138346267Y-97190000D02*
X138053733Y-97190000D01*
X151846267Y-87090000D02*
X151553733Y-87090000D01*
X151846267Y-88110000D02*
X151553733Y-88110000D01*
X166910000Y-104610000D02*
X166910000Y-105560000D01*
X156690000Y-96290000D02*
X156690000Y-95340000D01*
X166910000Y-96290000D02*
X166910000Y-95340000D01*
X166910000Y-95340000D02*
X165960000Y-95340000D01*
X156690000Y-105560000D02*
X157640000Y-105560000D01*
X156690000Y-95340000D02*
X157640000Y-95340000D01*
X166910000Y-105560000D02*
X165960000Y-105560000D01*
X157640000Y-105560000D02*
X157640000Y-106900000D01*
X156690000Y-104610000D02*
X156690000Y-105560000D01*
X168104724Y-117822500D02*
X167595276Y-117822500D01*
X168104724Y-116777500D02*
X167595276Y-116777500D01*
X129200000Y-109900000D02*
X129200000Y-114400000D01*
X134200000Y-109900000D02*
X134200000Y-114400000D01*
X111162000Y-85470000D02*
X111162000Y-81970000D01*
X119662000Y-85470000D02*
X119662000Y-81970000D01*
X163529042Y-77766043D02*
X163529042Y-77766043D01*
X163437172Y-75224378D02*
X163307667Y-75235708D01*
X163324741Y-73939287D02*
X169461300Y-73402407D01*
X163770978Y-79039804D02*
X169907538Y-78502924D01*
X163437172Y-75224378D02*
X163437172Y-75224378D01*
X163324741Y-73939287D02*
X163289879Y-73540809D01*
X163658548Y-77754713D02*
X163658548Y-77754713D01*
X163307667Y-75235708D02*
X163307667Y-75235708D01*
X163658548Y-77754713D02*
X163529042Y-77766043D01*
X164405617Y-73443195D02*
X164440479Y-73841672D01*
X163529042Y-77766043D02*
X163658548Y-77754713D01*
X163289879Y-73540809D02*
X164405617Y-73443195D01*
X163307667Y-75235708D02*
X163437172Y-75224378D01*
X163770978Y-79039804D02*
X163324741Y-73939287D01*
X164440479Y-73841672D02*
X163324741Y-73939287D01*
X169907538Y-78502925D02*
G75*
G03*
X169461300Y-73402407I-223119J2550259D01*
G01*
X174077500Y-81545276D02*
X174077500Y-82054724D01*
X175122500Y-81545276D02*
X175122500Y-82054724D01*
X115540000Y-119650000D02*
X115540000Y-118320000D01*
X116935000Y-120980000D02*
X116935000Y-120410000D01*
X125885000Y-120980000D02*
X125885000Y-119957530D01*
X116935000Y-118320000D02*
X125885000Y-118320000D01*
X116935000Y-120980000D02*
X125885000Y-120980000D01*
X115540000Y-118320000D02*
X116300000Y-118320000D01*
X125885000Y-119342470D02*
X125885000Y-118320000D01*
X116935000Y-118890000D02*
X116935000Y-118320000D01*
X166290000Y-120000000D02*
X166290000Y-119350000D01*
X169410000Y-120000000D02*
X169410000Y-118325000D01*
X166290000Y-120000000D02*
X166290000Y-120650000D01*
X169410000Y-120000000D02*
X169410000Y-120650000D01*
X152322500Y-109845276D02*
X152322500Y-110354724D01*
X151277500Y-109845276D02*
X151277500Y-110354724D01*
X167990000Y-93396267D02*
X167990000Y-93103733D01*
X169010000Y-93396267D02*
X169010000Y-93103733D01*
X175386276Y-111122500D02*
X175895724Y-111122500D01*
X175386276Y-110077500D02*
X175895724Y-110077500D01*
X172150000Y-82050000D02*
X172150000Y-85950000D01*
X169250000Y-85950000D02*
X169250000Y-82050000D01*
X151846267Y-88590000D02*
X151553733Y-88590000D01*
X151846267Y-89610000D02*
X151553733Y-89610000D01*
X167290000Y-109653733D02*
X167290000Y-109946267D01*
X168310000Y-109653733D02*
X168310000Y-109946267D01*
X158477500Y-89254724D02*
X158477500Y-88745276D01*
X159522500Y-89254724D02*
X159522500Y-88745276D01*
X172718000Y-113159267D02*
X172718000Y-112866733D01*
X173738000Y-113159267D02*
X173738000Y-112866733D01*
X155854724Y-106877500D02*
X155345276Y-106877500D01*
X155854724Y-107922500D02*
X155345276Y-107922500D01*
X170309000Y-102946267D02*
X170309000Y-102653733D01*
X169289000Y-102946267D02*
X169289000Y-102653733D01*
X175810000Y-102300000D02*
X175810000Y-102950000D01*
X172690000Y-102300000D02*
X172690000Y-103975000D01*
X175810000Y-102300000D02*
X175810000Y-101650000D01*
X172690000Y-102300000D02*
X172690000Y-101650000D01*
X165790000Y-109653733D02*
X165790000Y-109946267D01*
X166810000Y-109653733D02*
X166810000Y-109946267D01*
X163323870Y-126970677D02*
X169460429Y-127507556D01*
X163436301Y-125685585D02*
X163436301Y-125685585D01*
X163287979Y-127380910D02*
X163322841Y-126982432D01*
X163528171Y-123143921D02*
X163657676Y-123155251D01*
X163306795Y-125674255D02*
X163436301Y-125685585D01*
X163770107Y-121870160D02*
X169906666Y-122407039D01*
X164438858Y-127076858D02*
X164403996Y-127475336D01*
X163657676Y-123155251D02*
X163528171Y-123143921D01*
X163323870Y-126970677D02*
X163770107Y-121870160D01*
X163287979Y-127380910D02*
X164403717Y-127478524D01*
X164885845Y-121967774D02*
X163770107Y-121870160D01*
X163306795Y-125674255D02*
X163306795Y-125674255D01*
X163528171Y-123143921D02*
X163528171Y-123143921D01*
X163436301Y-125685585D02*
X163306795Y-125674255D01*
X163657676Y-123155251D02*
X163657676Y-123155251D01*
X169460429Y-127507557D02*
G75*
G03*
X169906666Y-122407039I223119J2550259D01*
G01*
X151810000Y-104853733D02*
X151810000Y-105146267D01*
X150790000Y-104853733D02*
X150790000Y-105146267D01*
X173738000Y-91310267D02*
X173738000Y-91017733D01*
X172718000Y-91310267D02*
X172718000Y-91017733D01*
X175386276Y-87497500D02*
X175895724Y-87497500D01*
X175386276Y-86452500D02*
X175895724Y-86452500D01*
X137400000Y-110350000D02*
X137400000Y-114250000D01*
X134500000Y-114250000D02*
X134500000Y-110350000D01*
X161285000Y-86498000D02*
X161285000Y-84038000D01*
X161285000Y-84038000D02*
X159815000Y-84038000D01*
X159815000Y-84038000D02*
X159815000Y-86498000D01*
X175386276Y-92575500D02*
X175895724Y-92575500D01*
X175386276Y-91530500D02*
X175895724Y-91530500D01*
X156977500Y-89254724D02*
X156977500Y-88745276D01*
X158022500Y-89254724D02*
X158022500Y-88745276D01*
X149277500Y-105254724D02*
X149277500Y-104745276D01*
X150322500Y-105254724D02*
X150322500Y-104745276D01*
X154553733Y-95910000D02*
X154846267Y-95910000D01*
X154553733Y-94890000D02*
X154846267Y-94890000D01*
X184912724Y-100569500D02*
X184403276Y-100569500D01*
X184912724Y-101614500D02*
X184403276Y-101614500D01*
X150822500Y-110354724D02*
X150822500Y-109845276D01*
X149777500Y-110354724D02*
X149777500Y-109845276D01*
X173738000Y-87715733D02*
X173738000Y-88008267D01*
X172718000Y-87715733D02*
X172718000Y-88008267D01*
X158085000Y-84038000D02*
X156615000Y-84038000D01*
X158085000Y-86498000D02*
X158085000Y-84038000D01*
X156615000Y-84038000D02*
X156615000Y-86498000D01*
X122079224Y-84947500D02*
X121569776Y-84947500D01*
X122079224Y-85992500D02*
X121569776Y-85992500D01*
X122540000Y-108800000D02*
X122540000Y-110475000D01*
X125660000Y-108800000D02*
X125660000Y-108150000D01*
X125660000Y-108800000D02*
X125660000Y-109450000D01*
X122540000Y-108800000D02*
X122540000Y-108150000D01*
X123845276Y-110977500D02*
X124354724Y-110977500D01*
X123845276Y-112022500D02*
X124354724Y-112022500D01*
X163050000Y-85950000D02*
X163050000Y-82050000D01*
X165950000Y-82050000D02*
X165950000Y-85950000D01*
X170077500Y-88954724D02*
X170077500Y-88445276D01*
X171122500Y-88954724D02*
X171122500Y-88445276D01*
X116472276Y-105170500D02*
X116981724Y-105170500D01*
X116472276Y-104125500D02*
X116981724Y-104125500D01*
X163810000Y-117710000D02*
X163810000Y-115360000D01*
X155962500Y-115824000D02*
X156750000Y-115824000D01*
X156356250Y-115430250D02*
X156356250Y-116217750D01*
X156990000Y-116645563D02*
X156990000Y-115360000D01*
X156990000Y-111954437D02*
X158054437Y-110890000D01*
X156990000Y-111954437D02*
X156990000Y-113240000D01*
X156990000Y-116645563D02*
X158054437Y-117710000D01*
X158054437Y-110890000D02*
X163810000Y-110890000D01*
X158054437Y-117710000D02*
X163810000Y-117710000D01*
X163810000Y-110890000D02*
X163810000Y-113240000D01*
X124354724Y-115022500D02*
X123845276Y-115022500D01*
X124354724Y-113977500D02*
X123845276Y-113977500D01*
X119560000Y-107490000D02*
X122210000Y-107490000D01*
X112990000Y-107490000D02*
X115640000Y-107490000D01*
X115640000Y-116710000D02*
X112990000Y-116710000D01*
X112990000Y-116710000D02*
X112990000Y-107490000D01*
X122210000Y-107490000D02*
X122210000Y-116710000D01*
X115640000Y-116710000D02*
X115640000Y-117040000D01*
X122210000Y-116710000D02*
X119560000Y-116710000D01*
X123953733Y-116510000D02*
X124246267Y-116510000D01*
X123953733Y-115490000D02*
X124246267Y-115490000D01*
X182459464Y-98626542D02*
X185705512Y-93391203D01*
X181294598Y-98057255D02*
X181363103Y-97946769D01*
X181294598Y-98057255D02*
X181294598Y-98057255D01*
X181363103Y-97946769D02*
X181363103Y-97946769D01*
X178698204Y-94976648D02*
X178108013Y-95928528D01*
X181363103Y-97946769D02*
X181294598Y-98057255D01*
X183082134Y-97686799D02*
X183422091Y-97897582D01*
X179135871Y-96718787D02*
X179135871Y-96718787D01*
X182828318Y-98855241D02*
X182488360Y-98644458D01*
X182459464Y-98626542D02*
X178108013Y-95928528D01*
X179135871Y-96718787D02*
X179204375Y-96608301D01*
X178108013Y-95928528D02*
X181354061Y-90693189D01*
X179204375Y-96608301D02*
X179135871Y-96718787D01*
X182831037Y-98856927D02*
X183421228Y-97905047D01*
X179204375Y-96608301D02*
X179204375Y-96608301D01*
X185705511Y-93391203D02*
G75*
G03*
X181354061Y-90693189I-2175725J1349007D01*
G01*
X168790000Y-109653733D02*
X168790000Y-109946267D01*
X169810000Y-109653733D02*
X169810000Y-109946267D01*
X151445276Y-86622500D02*
X151954724Y-86622500D01*
X151445276Y-85577500D02*
X151954724Y-85577500D01*
X100640000Y-109435000D02*
X100640000Y-110110000D01*
X104860000Y-106565000D02*
X104860000Y-105890000D01*
X104860000Y-105890000D02*
X104185000Y-105890000D01*
X104860000Y-109435000D02*
X104860000Y-110110000D01*
X100640000Y-105890000D02*
X101315000Y-105890000D01*
X100640000Y-106565000D02*
X100640000Y-105890000D01*
X104860000Y-110110000D02*
X104185000Y-110110000D01*
X162153733Y-118190000D02*
X162446267Y-118190000D01*
X162153733Y-119210000D02*
X162446267Y-119210000D01*
X184912724Y-99045500D02*
X184403276Y-99045500D01*
X184912724Y-100090500D02*
X184403276Y-100090500D01*
X153790000Y-104853733D02*
X153790000Y-105146267D01*
X154810000Y-104853733D02*
X154810000Y-105146267D01*
X110754000Y-98405733D02*
X110754000Y-98698267D01*
X109734000Y-98405733D02*
X109734000Y-98698267D01*
X173995276Y-107522500D02*
X174504724Y-107522500D01*
X173995276Y-106477500D02*
X174504724Y-106477500D01*
X170522500Y-93504724D02*
X170522500Y-92995276D01*
X169477500Y-93504724D02*
X169477500Y-92995276D01*
X161345276Y-73772500D02*
X161854724Y-73772500D01*
X161345276Y-72727500D02*
X161854724Y-72727500D01*
X167077500Y-88954724D02*
X167077500Y-88445276D01*
X168122500Y-88954724D02*
X168122500Y-88445276D01*
X161477500Y-89254724D02*
X161477500Y-88745276D01*
X162522500Y-89254724D02*
X162522500Y-88745276D01*
X162045276Y-120722500D02*
X162554724Y-120722500D01*
X162045276Y-119677500D02*
X162554724Y-119677500D01*
X159685000Y-86498000D02*
X159685000Y-84038000D01*
X159685000Y-84038000D02*
X158215000Y-84038000D01*
X158215000Y-84038000D02*
X158215000Y-86498000D01*
X164290000Y-109971267D02*
X164290000Y-109628733D01*
X165310000Y-109971267D02*
X165310000Y-109628733D01*
X179195877Y-104296969D02*
X179195877Y-104296969D01*
X178099515Y-104976742D02*
X181345563Y-110212081D01*
X179127372Y-104186483D02*
X179195877Y-104296969D01*
X181286100Y-102848015D02*
X181354604Y-102958501D01*
X179195877Y-104296969D02*
X179127372Y-104186483D01*
X182790923Y-102067946D02*
X183381113Y-103019826D01*
X181286100Y-102848015D02*
X181286100Y-102848015D01*
X179127372Y-104186483D02*
X179127372Y-104186483D01*
X182450966Y-102278728D02*
X182790923Y-102067946D01*
X181354604Y-102958501D02*
X181354604Y-102958501D01*
X181354604Y-102958501D02*
X181286100Y-102848015D01*
X178099515Y-104976742D02*
X182450966Y-102278728D01*
X183041156Y-103230608D02*
X182450966Y-102278728D01*
X182450966Y-102278728D02*
X185697013Y-107514067D01*
X183381113Y-103019826D02*
X183041156Y-103230608D01*
X181345563Y-110212081D02*
G75*
G03*
X185697013Y-107514067I2175725J1349007D01*
G01*
X161415000Y-84038000D02*
X161415000Y-86498000D01*
X162885000Y-86498000D02*
X162885000Y-84038000D01*
X162885000Y-84038000D02*
X161415000Y-84038000D01*
X175810000Y-98400000D02*
X175810000Y-99050000D01*
X175810000Y-98400000D02*
X175810000Y-96725000D01*
X172690000Y-98400000D02*
X172690000Y-97750000D01*
X172690000Y-98400000D02*
X172690000Y-99050000D01*
X175386276Y-111601500D02*
X175895724Y-111601500D01*
X175386276Y-112646500D02*
X175895724Y-112646500D01*
X119182000Y-94470000D02*
X119182000Y-94200000D01*
X119182000Y-87570000D02*
X119182000Y-87840000D01*
X119182000Y-94200000D02*
X122012000Y-94200000D01*
X119182000Y-87840000D02*
X120282000Y-87840000D01*
X117682000Y-94470000D02*
X119182000Y-94470000D01*
X117682000Y-87570000D02*
X119182000Y-87570000D01*
X123845276Y-113522500D02*
X124354724Y-113522500D01*
X123845276Y-112477500D02*
X124354724Y-112477500D01*
X175386276Y-108299500D02*
X175895724Y-108299500D01*
X175386276Y-109344500D02*
X175895724Y-109344500D01*
X104860000Y-89390000D02*
X104185000Y-89390000D01*
X104860000Y-92935000D02*
X104860000Y-93610000D01*
X100640000Y-92935000D02*
X100640000Y-93610000D01*
X104860000Y-90065000D02*
X104860000Y-89390000D01*
X100640000Y-90065000D02*
X100640000Y-89390000D01*
X104860000Y-93610000D02*
X104185000Y-93610000D01*
X100640000Y-89390000D02*
X101315000Y-89390000D01*
X173995276Y-94722500D02*
X174504724Y-94722500D01*
X173995276Y-93677500D02*
X174504724Y-93677500D01*
X159977500Y-89254724D02*
X159977500Y-88745276D01*
X161022500Y-89254724D02*
X161022500Y-88745276D01*
X172577500Y-81545276D02*
X172577500Y-82054724D01*
X173622500Y-81545276D02*
X173622500Y-82054724D01*
X175386276Y-88227500D02*
X175895724Y-88227500D01*
X175386276Y-89272500D02*
X175895724Y-89272500D01*
X166490000Y-93103733D02*
X166490000Y-93396267D01*
X167510000Y-93103733D02*
X167510000Y-93396267D01*
X175386276Y-90797500D02*
X175895724Y-90797500D01*
X175386276Y-89752500D02*
X175895724Y-89752500D01*
X177300000Y-80240000D02*
X177950000Y-80240000D01*
X177300000Y-83360000D02*
X176650000Y-83360000D01*
X177300000Y-83360000D02*
X177950000Y-83360000D01*
X177300000Y-80240000D02*
X175625000Y-80240000D01*
X175386276Y-113379500D02*
X175895724Y-113379500D01*
X175386276Y-114424500D02*
X175895724Y-114424500D01*
X137777500Y-113854724D02*
X137777500Y-113345276D01*
X138822500Y-113854724D02*
X138822500Y-113345276D01*
X152790000Y-109953733D02*
X152790000Y-110246267D01*
X153810000Y-109953733D02*
X153810000Y-110246267D01*
X126200000Y-124850000D02*
X122300000Y-124850000D01*
X122300000Y-121950000D02*
X126200000Y-121950000D01*
X119596267Y-122710000D02*
X119303733Y-122710000D01*
X119596267Y-121690000D02*
X119303733Y-121690000D01*
X145360000Y-102060000D02*
X145610000Y-102060000D01*
X145610000Y-98840000D02*
X145610000Y-99090000D01*
X145360000Y-98840000D02*
X145610000Y-98840000D01*
X142390000Y-102060000D02*
X142390000Y-101810000D01*
X142390000Y-98840000D02*
X142390000Y-99090000D01*
X142640000Y-98840000D02*
X142390000Y-98840000D01*
X142640000Y-102060000D02*
X142390000Y-102060000D01*
X138346267Y-99710000D02*
X138053733Y-99710000D01*
X138346267Y-98690000D02*
X138053733Y-98690000D01*
X172718000Y-109564733D02*
X172718000Y-109857267D01*
X173738000Y-109564733D02*
X173738000Y-109857267D01*
X119229000Y-105383000D02*
X121689000Y-105383000D01*
X121689000Y-105383000D02*
X121689000Y-103913000D01*
X121689000Y-103913000D02*
X119229000Y-103913000D01*
X110754000Y-102254267D02*
X110754000Y-101961733D01*
X109734000Y-102254267D02*
X109734000Y-101961733D01*
G36*
X177101940Y-125898264D02*
G01*
X176894249Y-125894440D01*
X176687896Y-125883004D01*
X176483031Y-125864014D01*
X176279801Y-125837529D01*
X176078358Y-125803607D01*
X175878849Y-125762304D01*
X175681425Y-125713679D01*
X175486235Y-125657790D01*
X175293428Y-125594694D01*
X175103152Y-125524449D01*
X174915559Y-125447113D01*
X174730796Y-125362744D01*
X174549014Y-125271399D01*
X174370361Y-125173136D01*
X174194987Y-125068014D01*
X174023041Y-124956089D01*
X173854673Y-124837420D01*
X173690031Y-124712064D01*
X173529266Y-124580079D01*
X173398258Y-124464975D01*
X173374818Y-124443339D01*
X173346989Y-124416981D01*
X173315700Y-124386828D01*
X173281877Y-124353809D01*
X173246452Y-124318853D01*
X173210351Y-124282888D01*
X173174505Y-124246843D01*
X173139840Y-124211646D01*
X173107287Y-124178227D01*
X173077773Y-124147514D01*
X173052227Y-124120436D01*
X173035025Y-124101742D01*
X172897041Y-123943771D01*
X172765709Y-123781879D01*
X172641072Y-123616142D01*
X172523174Y-123446640D01*
X172412058Y-123273451D01*
X172307767Y-123096653D01*
X172210343Y-122916326D01*
X172119829Y-122732547D01*
X172036269Y-122545395D01*
X171959705Y-122354949D01*
X171890181Y-122161286D01*
X171827739Y-121964486D01*
X171787778Y-121823083D01*
X171739006Y-121626551D01*
X171697630Y-121428070D01*
X171663646Y-121227965D01*
X171637052Y-121026558D01*
X171617845Y-120824172D01*
X171606024Y-120621131D01*
X171601585Y-120417758D01*
X171602024Y-120387369D01*
X171876827Y-120387369D01*
X171878073Y-120519232D01*
X171882290Y-120648975D01*
X171889479Y-120774275D01*
X171890912Y-120793844D01*
X171909919Y-120994458D01*
X171936483Y-121193489D01*
X171970533Y-121390757D01*
X172011999Y-121586085D01*
X172060811Y-121779294D01*
X172116899Y-121970206D01*
X172180192Y-122158644D01*
X172250621Y-122344428D01*
X172328115Y-122527381D01*
X172412604Y-122707324D01*
X172504018Y-122884080D01*
X172602287Y-123057469D01*
X172707340Y-123227314D01*
X172819108Y-123393437D01*
X172937520Y-123555660D01*
X173019944Y-123661336D01*
X173066529Y-123718888D01*
X173111193Y-123772675D01*
X173155044Y-123823927D01*
X173199186Y-123873871D01*
X173244725Y-123923735D01*
X173292768Y-123974749D01*
X173344420Y-124028140D01*
X173400788Y-124085137D01*
X173407822Y-124092178D01*
X173465327Y-124149177D01*
X173519081Y-124201330D01*
X173570312Y-124249742D01*
X173620248Y-124295520D01*
X173670119Y-124339769D01*
X173721151Y-124383596D01*
X173774575Y-124428107D01*
X173831617Y-124474407D01*
X173838664Y-124480056D01*
X173996504Y-124601530D01*
X174158639Y-124716707D01*
X174324824Y-124825486D01*
X174494814Y-124927763D01*
X174668362Y-125023437D01*
X174845223Y-125112405D01*
X175025151Y-125194565D01*
X175207901Y-125269813D01*
X175393226Y-125338049D01*
X175580882Y-125399169D01*
X175770622Y-125453071D01*
X175962201Y-125499652D01*
X176155372Y-125538810D01*
X176349891Y-125570443D01*
X176500504Y-125589616D01*
X176521456Y-125591981D01*
X176540761Y-125594195D01*
X176556546Y-125596040D01*
X176566936Y-125597301D01*
X176568408Y-125597491D01*
X176573609Y-125597777D01*
X176573977Y-125596352D01*
X176568913Y-125592727D01*
X176557821Y-125586413D01*
X176549007Y-125581657D01*
X176480400Y-125540656D01*
X176416621Y-125493647D01*
X176357915Y-125440884D01*
X176304527Y-125382624D01*
X176256702Y-125319120D01*
X176214685Y-125250627D01*
X176195857Y-125214437D01*
X176164532Y-125142186D01*
X176140613Y-125068642D01*
X176123946Y-124994255D01*
X176114376Y-124919477D01*
X176111747Y-124844758D01*
X176115905Y-124770552D01*
X176126694Y-124697308D01*
X176143959Y-124625479D01*
X176167546Y-124555516D01*
X176197300Y-124487869D01*
X176233064Y-124422992D01*
X176274686Y-124361334D01*
X176322008Y-124303348D01*
X176374877Y-124249485D01*
X176433137Y-124200196D01*
X176496633Y-124155933D01*
X176565211Y-124117147D01*
X176574228Y-124112660D01*
X176647113Y-124081121D01*
X176721573Y-124056984D01*
X176797123Y-124040168D01*
X176873282Y-124030592D01*
X176949564Y-124028175D01*
X177025487Y-124032837D01*
X177100566Y-124044497D01*
X177174319Y-124063073D01*
X177246260Y-124088486D01*
X177315908Y-124120654D01*
X177382778Y-124159496D01*
X177446386Y-124204933D01*
X177506250Y-124256882D01*
X177520432Y-124270736D01*
X177573886Y-124329455D01*
X177620715Y-124391780D01*
X177660901Y-124457247D01*
X177694423Y-124525387D01*
X177721263Y-124595736D01*
X177741402Y-124667826D01*
X177754821Y-124741192D01*
X177761500Y-124815366D01*
X177761420Y-124889884D01*
X177754562Y-124964277D01*
X177740907Y-125038080D01*
X177720435Y-125110827D01*
X177693129Y-125182052D01*
X177658968Y-125251287D01*
X177617933Y-125318067D01*
X177570005Y-125381925D01*
X177566263Y-125386426D01*
X177517651Y-125439098D01*
X177463226Y-125488290D01*
X177404334Y-125533007D01*
X177342322Y-125572254D01*
X177278533Y-125605037D01*
X177259089Y-125613531D01*
X177251777Y-125616590D01*
X177246693Y-125618934D01*
X177244511Y-125620607D01*
X177245905Y-125621656D01*
X177251549Y-125622128D01*
X177262119Y-125622069D01*
X177278288Y-125621526D01*
X177300730Y-125620543D01*
X177330120Y-125619169D01*
X177336694Y-125618860D01*
X177540294Y-125605510D01*
X177742003Y-125584661D01*
X177941710Y-125556355D01*
X178139303Y-125520629D01*
X178334670Y-125477525D01*
X178527699Y-125427082D01*
X178718280Y-125369340D01*
X178906299Y-125304338D01*
X179091647Y-125232116D01*
X179274210Y-125152713D01*
X179453878Y-125066170D01*
X179630539Y-124972526D01*
X179804080Y-124871821D01*
X179974391Y-124764094D01*
X180141360Y-124649386D01*
X180215826Y-124595166D01*
X180302144Y-124529949D01*
X180384343Y-124465201D01*
X180463743Y-124399777D01*
X180541662Y-124332535D01*
X180619419Y-124262330D01*
X180698335Y-124188019D01*
X180779728Y-124108459D01*
X180796058Y-124092178D01*
X180876779Y-124010146D01*
X180952027Y-123930850D01*
X181022945Y-123852969D01*
X181090677Y-123775186D01*
X181156367Y-123696180D01*
X181221157Y-123614632D01*
X181286193Y-123529224D01*
X181299045Y-123511947D01*
X181417078Y-123346327D01*
X181528050Y-123177492D01*
X181631946Y-123005480D01*
X181728751Y-122830329D01*
X181818450Y-122652080D01*
X181901028Y-122470770D01*
X181976468Y-122286438D01*
X182044756Y-122099123D01*
X182105877Y-121908865D01*
X182159814Y-121715701D01*
X182206553Y-121519671D01*
X182246079Y-121320813D01*
X182278376Y-121119167D01*
X182295340Y-120987856D01*
X182298508Y-120960715D01*
X182300779Y-120940293D01*
X182302144Y-120925597D01*
X182302597Y-120915637D01*
X182302127Y-120909421D01*
X182300729Y-120905958D01*
X182298393Y-120904256D01*
X182295112Y-120903324D01*
X182294660Y-120903218D01*
X182290335Y-120902521D01*
X182278554Y-120900698D01*
X182259538Y-120897783D01*
X182233504Y-120893809D01*
X182200673Y-120888808D01*
X182161261Y-120882814D01*
X182115489Y-120875861D01*
X182063575Y-120867981D01*
X182005738Y-120859207D01*
X181942196Y-120849573D01*
X181873168Y-120839112D01*
X181798874Y-120827856D01*
X181719532Y-120815839D01*
X181635360Y-120803094D01*
X181546578Y-120789655D01*
X181453404Y-120775553D01*
X181356058Y-120760823D01*
X181254757Y-120745498D01*
X181149721Y-120729610D01*
X181041168Y-120713193D01*
X180929318Y-120696280D01*
X180814388Y-120678904D01*
X180696599Y-120661098D01*
X180576168Y-120642896D01*
X180453314Y-120624330D01*
X180328256Y-120605433D01*
X180201214Y-120586239D01*
X180147922Y-120578188D01*
X179994661Y-120555037D01*
X179848884Y-120533018D01*
X179710402Y-120512104D01*
X179579024Y-120492266D01*
X179454562Y-120473478D01*
X179336826Y-120455710D01*
X179225627Y-120438935D01*
X179120775Y-120423125D01*
X179022082Y-120408253D01*
X178929356Y-120394290D01*
X178842410Y-120381208D01*
X178761054Y-120368980D01*
X178685098Y-120357577D01*
X178614353Y-120346971D01*
X178548630Y-120337136D01*
X178487739Y-120328042D01*
X178431490Y-120319662D01*
X178379695Y-120311968D01*
X178332164Y-120304932D01*
X178288707Y-120298526D01*
X178249136Y-120292723D01*
X178213260Y-120287494D01*
X178180890Y-120282811D01*
X178151837Y-120278647D01*
X178125912Y-120274973D01*
X178102925Y-120271762D01*
X178082687Y-120268985D01*
X178065008Y-120266616D01*
X178049698Y-120264625D01*
X178036570Y-120262986D01*
X178025432Y-120261669D01*
X178016096Y-120260648D01*
X178008372Y-120259894D01*
X178002071Y-120259380D01*
X177997004Y-120259076D01*
X177992980Y-120258957D01*
X177989812Y-120258993D01*
X177987308Y-120259157D01*
X177985281Y-120259420D01*
X177985088Y-120259452D01*
X177951523Y-120268899D01*
X177920611Y-120284915D01*
X177894036Y-120306610D01*
X177891980Y-120308741D01*
X177885023Y-120316154D01*
X177878938Y-120323048D01*
X177873577Y-120330022D01*
X177868787Y-120337671D01*
X177864420Y-120346592D01*
X177860325Y-120357383D01*
X177856353Y-120370639D01*
X177852352Y-120386958D01*
X177848173Y-120406936D01*
X177843666Y-120431171D01*
X177838681Y-120460258D01*
X177833068Y-120494795D01*
X177826676Y-120535377D01*
X177819356Y-120582603D01*
X177813428Y-120621037D01*
X177805668Y-120670931D01*
X177798405Y-120716729D01*
X177791720Y-120757962D01*
X177785695Y-120794157D01*
X177780408Y-120824844D01*
X177775942Y-120849550D01*
X177772377Y-120867806D01*
X177769793Y-120879139D01*
X177768734Y-120882448D01*
X177756063Y-120901624D01*
X177737886Y-120916840D01*
X177715873Y-120927090D01*
X177691693Y-120931370D01*
X177687405Y-120931431D01*
X177682857Y-120930647D01*
X177670893Y-120928339D01*
X177651701Y-120924543D01*
X177625466Y-120919299D01*
X177592375Y-120912644D01*
X177552613Y-120904616D01*
X177506368Y-120895254D01*
X177453824Y-120884595D01*
X177395169Y-120872677D01*
X177330589Y-120859539D01*
X177260270Y-120845219D01*
X177249306Y-120842984D01*
X177184397Y-120829754D01*
X177103158Y-120813183D01*
X177016739Y-120795544D01*
X176925326Y-120776875D01*
X176829105Y-120757213D01*
X176728262Y-120736598D01*
X176622983Y-120715066D01*
X176513455Y-120692657D01*
X176399865Y-120669408D01*
X176282397Y-120645357D01*
X176161240Y-120620542D01*
X176036577Y-120595002D01*
X175908597Y-120568774D01*
X175777485Y-120541897D01*
X175643428Y-120514408D01*
X175506611Y-120486346D01*
X175367221Y-120457748D01*
X175225444Y-120428653D01*
X175081466Y-120399099D01*
X174935474Y-120369124D01*
X174795142Y-120340303D01*
X171917949Y-119749338D01*
X171915288Y-119759400D01*
X171913847Y-119767415D01*
X171911884Y-119782088D01*
X171909506Y-119802345D01*
X171906823Y-119827109D01*
X171903940Y-119855306D01*
X171900968Y-119885859D01*
X171898013Y-119917692D01*
X171895184Y-119949731D01*
X171892588Y-119980898D01*
X171890917Y-120002277D01*
X171883249Y-120126568D01*
X171878553Y-120255706D01*
X171876827Y-120387369D01*
X171602024Y-120387369D01*
X171604524Y-120214375D01*
X171614841Y-120011306D01*
X171632532Y-119808873D01*
X171657594Y-119607400D01*
X171690025Y-119407210D01*
X171729823Y-119208625D01*
X171776984Y-119011969D01*
X171811748Y-118884770D01*
X171872577Y-118686557D01*
X171940428Y-118491645D01*
X172015279Y-118300067D01*
X172097114Y-118111859D01*
X172185911Y-117927053D01*
X172281653Y-117745685D01*
X172384321Y-117567788D01*
X172493895Y-117393396D01*
X172610356Y-117222545D01*
X172733686Y-117055267D01*
X172863865Y-116891597D01*
X173000874Y-116731570D01*
X173027172Y-116702139D01*
X173044147Y-116683684D01*
X173065923Y-116660659D01*
X173091702Y-116633866D01*
X173120681Y-116604105D01*
X173152062Y-116572176D01*
X173185043Y-116538879D01*
X173218823Y-116505016D01*
X173252603Y-116471387D01*
X173285582Y-116438792D01*
X173316960Y-116408031D01*
X173345935Y-116379906D01*
X173371707Y-116355217D01*
X173393476Y-116334764D01*
X173406018Y-116323293D01*
X173565432Y-116184951D01*
X173728467Y-116053472D01*
X173895138Y-115928846D01*
X173905067Y-115921980D01*
X176442590Y-115921980D01*
X176444349Y-115999412D01*
X176453417Y-116077004D01*
X176469900Y-116154277D01*
X176489196Y-116217562D01*
X176517932Y-116288496D01*
X176553685Y-116356669D01*
X176596036Y-116421556D01*
X176644572Y-116482631D01*
X176698875Y-116539369D01*
X176758530Y-116591246D01*
X176820623Y-116636100D01*
X176884667Y-116673653D01*
X176952994Y-116705269D01*
X177024611Y-116730708D01*
X177098530Y-116749727D01*
X177173758Y-116762085D01*
X177249306Y-116767539D01*
X177324182Y-116765849D01*
X177345013Y-116764051D01*
X177424562Y-116752213D01*
X177501711Y-116733116D01*
X177576074Y-116706996D01*
X177647263Y-116674091D01*
X177714891Y-116634637D01*
X177778571Y-116588869D01*
X177837916Y-116537025D01*
X177892538Y-116479340D01*
X177942050Y-116416052D01*
X177961238Y-116387840D01*
X177995251Y-116329579D01*
X178025051Y-116266167D01*
X178050054Y-116199311D01*
X178069680Y-116130720D01*
X178083346Y-116062100D01*
X178089286Y-116012224D01*
X178091042Y-115977439D01*
X178091170Y-115938053D01*
X178089764Y-115897032D01*
X178086922Y-115857342D01*
X178083216Y-115825207D01*
X178068368Y-115748089D01*
X178046270Y-115673197D01*
X178017227Y-115600993D01*
X177981546Y-115531940D01*
X177939535Y-115466500D01*
X177891498Y-115405136D01*
X177837744Y-115348311D01*
X177778579Y-115296488D01*
X177714309Y-115250129D01*
X177693364Y-115236919D01*
X177627349Y-115201005D01*
X177557113Y-115171021D01*
X177483899Y-115147383D01*
X177408946Y-115130508D01*
X177352547Y-115122562D01*
X177321704Y-115120349D01*
X177286200Y-115119457D01*
X177248240Y-115119813D01*
X177210033Y-115121340D01*
X177173783Y-115123965D01*
X177141698Y-115127611D01*
X177125221Y-115130285D01*
X177045199Y-115148831D01*
X176969651Y-115173656D01*
X176898290Y-115204913D01*
X176830829Y-115242752D01*
X176766981Y-115287325D01*
X176706459Y-115338782D01*
X176678889Y-115365583D01*
X176626003Y-115424544D01*
X176579575Y-115487486D01*
X176539712Y-115553930D01*
X176506520Y-115623400D01*
X176480106Y-115695418D01*
X176460575Y-115769505D01*
X176448034Y-115845185D01*
X176442590Y-115921980D01*
X173905067Y-115921980D01*
X174065460Y-115811064D01*
X174239447Y-115700119D01*
X174417113Y-115596001D01*
X174598473Y-115498702D01*
X174783541Y-115408212D01*
X174972331Y-115324523D01*
X175164859Y-115247627D01*
X175186958Y-115239324D01*
X175368710Y-115175360D01*
X175554573Y-115117550D01*
X175743693Y-115066084D01*
X175935216Y-115021153D01*
X176128289Y-114982947D01*
X176322057Y-114951654D01*
X176515667Y-114927466D01*
X176642132Y-114915553D01*
X176682003Y-114912340D01*
X176717839Y-114909592D01*
X176750683Y-114907273D01*
X176781577Y-114905347D01*
X176811562Y-114903779D01*
X176841680Y-114902532D01*
X176872973Y-114901572D01*
X176906484Y-114900863D01*
X176943254Y-114900368D01*
X176984325Y-114900053D01*
X177030739Y-114899882D01*
X177083539Y-114899818D01*
X177101940Y-114899815D01*
X177157127Y-114899852D01*
X177205589Y-114899988D01*
X177248363Y-114900256D01*
X177286484Y-114900694D01*
X177320987Y-114901336D01*
X177352910Y-114902218D01*
X177383286Y-114903375D01*
X177413153Y-114904842D01*
X177443546Y-114906656D01*
X177475500Y-114908851D01*
X177510052Y-114911463D01*
X177548237Y-114914527D01*
X177559807Y-114915478D01*
X177764713Y-114936252D01*
X177968063Y-114964590D01*
X178169682Y-115000420D01*
X178369396Y-115043669D01*
X178567029Y-115094264D01*
X178762407Y-115152134D01*
X178955356Y-115217205D01*
X179145700Y-115289406D01*
X179333265Y-115368664D01*
X179517876Y-115454906D01*
X179699358Y-115548059D01*
X179877537Y-115648053D01*
X180052238Y-115754813D01*
X180223286Y-115868268D01*
X180390506Y-115988345D01*
X180553724Y-116114971D01*
X180656232Y-116199610D01*
X180697980Y-116235244D01*
X180737468Y-116269670D01*
X180775751Y-116303870D01*
X180813887Y-116338824D01*
X180852932Y-116375516D01*
X180893943Y-116414927D01*
X180937976Y-116458038D01*
X180986089Y-116505832D01*
X180990129Y-116509871D01*
X181059298Y-116579820D01*
X181123338Y-116646307D01*
X181183310Y-116710552D01*
X181240273Y-116773774D01*
X181295288Y-116837192D01*
X181349417Y-116902027D01*
X181403718Y-116969497D01*
X181459253Y-117040821D01*
X181509883Y-117107608D01*
X181629452Y-117273483D01*
X181742557Y-117443505D01*
X181849106Y-117617441D01*
X181949007Y-117795059D01*
X182042167Y-117976126D01*
X182128495Y-118160410D01*
X182207898Y-118347678D01*
X182280285Y-118537698D01*
X182345563Y-118730236D01*
X182403640Y-118925061D01*
X182454424Y-119121940D01*
X182497822Y-119320639D01*
X182533743Y-119520927D01*
X182562095Y-119722571D01*
X182568870Y-119781103D01*
X182574922Y-119837184D01*
X182580130Y-119888322D01*
X182584561Y-119935728D01*
X182588279Y-119980609D01*
X182591350Y-120024175D01*
X182593837Y-120067634D01*
X182595808Y-120112195D01*
X182597326Y-120159067D01*
X182598456Y-120209458D01*
X182599265Y-120264578D01*
X182599817Y-120325634D01*
X182600019Y-120359258D01*
X182600214Y-120401390D01*
X182600354Y-120441737D01*
X182600438Y-120479535D01*
X182600467Y-120514023D01*
X182600443Y-120544437D01*
X182600365Y-120570013D01*
X182600233Y-120589990D01*
X182600049Y-120603605D01*
X182599856Y-120609533D01*
X182599231Y-120620041D01*
X182598292Y-120636706D01*
X182597126Y-120657936D01*
X182595821Y-120682138D01*
X182594464Y-120707721D01*
X182594322Y-120710419D01*
X182583349Y-120868341D01*
X182566925Y-121029966D01*
X182545302Y-121193730D01*
X182518729Y-121358071D01*
X182487458Y-121521425D01*
X182451739Y-121682228D01*
X182416101Y-121823083D01*
X182358707Y-122022061D01*
X182294200Y-122217956D01*
X182222623Y-122410691D01*
X182144019Y-122600187D01*
X182058432Y-122786366D01*
X181965904Y-122969148D01*
X181866477Y-123148457D01*
X181760196Y-123324213D01*
X181647102Y-123496337D01*
X181527239Y-123664752D01*
X181400651Y-123829378D01*
X181267379Y-123990138D01*
X181168854Y-124101742D01*
X181147219Y-124125182D01*
X181120860Y-124153011D01*
X181090707Y-124184300D01*
X181057688Y-124218123D01*
X181022732Y-124253548D01*
X180986767Y-124289649D01*
X180950722Y-124325495D01*
X180915526Y-124360160D01*
X180882107Y-124392713D01*
X180851394Y-124422227D01*
X180824315Y-124447773D01*
X180805621Y-124464975D01*
X180648205Y-124602442D01*
X180486787Y-124733329D01*
X180321517Y-124857577D01*
X180152545Y-124975130D01*
X179980021Y-125085929D01*
X179804092Y-125189917D01*
X179624910Y-125287035D01*
X179442622Y-125377226D01*
X179257379Y-125460432D01*
X179069330Y-125536595D01*
X178878624Y-125605658D01*
X178685411Y-125667562D01*
X178489839Y-125722250D01*
X178292059Y-125769664D01*
X178092220Y-125809747D01*
X177890470Y-125842440D01*
X177686960Y-125867685D01*
X177481839Y-125885425D01*
X177275256Y-125895602D01*
X177251549Y-125895966D01*
X177101940Y-125898264D01*
G37*
X152290000Y-104853733D02*
X152290000Y-105146267D01*
X153310000Y-104853733D02*
X153310000Y-105146267D01*
M02*
