G04 #@! TF.GenerationSoftware,KiCad,Pcbnew,6.0.7-f9a2dced07~116~ubuntu20.04.1*
G04 #@! TF.CreationDate,2022-11-16T16:32:29+09:00*
G04 #@! TF.ProjectId,ocelli,6f63656c-6c69-42e6-9b69-6361645f7063,rev?*
G04 #@! TF.SameCoordinates,Original*
G04 #@! TF.FileFunction,Copper,L2,Bot*
G04 #@! TF.FilePolarity,Positive*
%FSLAX46Y46*%
G04 Gerber Fmt 4.6, Leading zero omitted, Abs format (unit mm)*
G04 Created by KiCad (PCBNEW 6.0.7-f9a2dced07~116~ubuntu20.04.1) date 2022-11-16 16:32:29*
%MOMM*%
%LPD*%
G01*
G04 APERTURE LIST*
G04 Aperture macros list*
%AMRoundRect*
0 Rectangle with rounded corners*
0 $1 Rounding radius*
0 $2 $3 $4 $5 $6 $7 $8 $9 X,Y pos of 4 corners*
0 Add a 4 corners polygon primitive as box body*
4,1,4,$2,$3,$4,$5,$6,$7,$8,$9,$2,$3,0*
0 Add four circle primitives for the rounded corners*
1,1,$1+$1,$2,$3*
1,1,$1+$1,$4,$5*
1,1,$1+$1,$6,$7*
1,1,$1+$1,$8,$9*
0 Add four rect primitives between the rounded corners*
20,1,$1+$1,$2,$3,$4,$5,0*
20,1,$1+$1,$4,$5,$6,$7,0*
20,1,$1+$1,$6,$7,$8,$9,0*
20,1,$1+$1,$8,$9,$2,$3,0*%
%AMRotRect*
0 Rectangle, with rotation*
0 The origin of the aperture is its center*
0 $1 length*
0 $2 width*
0 $3 Rotation angle, in degrees counterclockwise*
0 Add horizontal line*
21,1,$1,$2,0,0,$3*%
%AMOutline5P*
0 Free polygon, 5 corners , with rotation*
0 The origin of the aperture is its center*
0 number of corners: always 5*
0 $1 to $10 corner X, Y*
0 $11 Rotation angle, in degrees counterclockwise*
0 create outline with 5 corners*
4,1,5,$1,$2,$3,$4,$5,$6,$7,$8,$9,$10,$1,$2,$11*%
%AMOutline6P*
0 Free polygon, 6 corners , with rotation*
0 The origin of the aperture is its center*
0 number of corners: always 6*
0 $1 to $12 corner X, Y*
0 $13 Rotation angle, in degrees counterclockwise*
0 create outline with 6 corners*
4,1,6,$1,$2,$3,$4,$5,$6,$7,$8,$9,$10,$11,$12,$1,$2,$13*%
%AMOutline7P*
0 Free polygon, 7 corners , with rotation*
0 The origin of the aperture is its center*
0 number of corners: always 7*
0 $1 to $14 corner X, Y*
0 $15 Rotation angle, in degrees counterclockwise*
0 create outline with 7 corners*
4,1,7,$1,$2,$3,$4,$5,$6,$7,$8,$9,$10,$11,$12,$13,$14,$1,$2,$15*%
%AMOutline8P*
0 Free polygon, 8 corners , with rotation*
0 The origin of the aperture is its center*
0 number of corners: always 8*
0 $1 to $16 corner X, Y*
0 $17 Rotation angle, in degrees counterclockwise*
0 create outline with 8 corners*
4,1,8,$1,$2,$3,$4,$5,$6,$7,$8,$9,$10,$11,$12,$13,$14,$15,$16,$1,$2,$17*%
G04 Aperture macros list end*
G04 #@! TA.AperFunction,ComponentPad*
%ADD10C,1.500000*%
G04 #@! TD*
G04 #@! TA.AperFunction,ComponentPad*
%ADD11RotRect,1.524000X1.524000X31.800000*%
G04 #@! TD*
G04 #@! TA.AperFunction,ComponentPad*
%ADD12C,1.524000*%
G04 #@! TD*
G04 #@! TA.AperFunction,ComponentPad*
%ADD13RotRect,1.800000X1.800000X95.000000*%
G04 #@! TD*
G04 #@! TA.AperFunction,ComponentPad*
%ADD14C,1.800000*%
G04 #@! TD*
G04 #@! TA.AperFunction,ComponentPad*
%ADD15R,1.000000X1.000000*%
G04 #@! TD*
G04 #@! TA.AperFunction,ComponentPad*
%ADD16O,1.000000X1.000000*%
G04 #@! TD*
G04 #@! TA.AperFunction,ComponentPad*
%ADD17RotRect,1.524000X1.524000X95.000000*%
G04 #@! TD*
G04 #@! TA.AperFunction,ComponentPad*
%ADD18RotRect,1.800000X1.800000X85.000000*%
G04 #@! TD*
G04 #@! TA.AperFunction,ComponentPad*
%ADD19RotRect,1.524000X1.524000X85.000000*%
G04 #@! TD*
G04 #@! TA.AperFunction,ComponentPad*
%ADD20RotRect,1.800000X1.800000X148.200000*%
G04 #@! TD*
G04 #@! TA.AperFunction,ComponentPad*
%ADD21RotRect,1.800000X1.800000X31.800000*%
G04 #@! TD*
G04 #@! TA.AperFunction,ComponentPad*
%ADD22RotRect,1.524000X1.524000X148.200000*%
G04 #@! TD*
G04 #@! TA.AperFunction,SMDPad,CuDef*
%ADD23RoundRect,0.237500X-0.300000X-0.237500X0.300000X-0.237500X0.300000X0.237500X-0.300000X0.237500X0*%
G04 #@! TD*
G04 #@! TA.AperFunction,SMDPad,CuDef*
%ADD24RoundRect,0.237500X-0.237500X0.250000X-0.237500X-0.250000X0.237500X-0.250000X0.237500X0.250000X0*%
G04 #@! TD*
G04 #@! TA.AperFunction,SMDPad,CuDef*
%ADD25RoundRect,0.237500X0.300000X0.237500X-0.300000X0.237500X-0.300000X-0.237500X0.300000X-0.237500X0*%
G04 #@! TD*
G04 #@! TA.AperFunction,SMDPad,CuDef*
%ADD26Outline5P,-0.350000X0.750000X0.350000X0.750000X0.350000X-0.750000X-0.210000X-0.750000X-0.350000X-0.610000X0.000000*%
G04 #@! TD*
G04 #@! TA.AperFunction,SMDPad,CuDef*
%ADD27R,0.700000X1.500000*%
G04 #@! TD*
G04 #@! TA.AperFunction,ViaPad*
%ADD28C,0.800000*%
G04 #@! TD*
G04 #@! TA.AperFunction,ViaPad*
%ADD29C,0.600000*%
G04 #@! TD*
G04 #@! TA.AperFunction,Conductor*
%ADD30C,1.500000*%
G04 #@! TD*
G04 #@! TA.AperFunction,Conductor*
%ADD31C,0.250000*%
G04 #@! TD*
G04 #@! TA.AperFunction,Conductor*
%ADD32C,0.500000*%
G04 #@! TD*
G04 APERTURE END LIST*
D10*
X120900000Y-78900000D03*
X120900000Y-76900000D03*
D11*
X182055454Y-104088860D03*
D12*
X179896727Y-105427328D03*
D13*
X162453152Y-77860171D03*
D14*
X162231776Y-75329836D03*
D15*
X116300000Y-119650000D03*
D16*
X117570000Y-119650000D03*
X118840000Y-119650000D03*
X120110000Y-119650000D03*
X121380000Y-119650000D03*
X122650000Y-119650000D03*
X123920000Y-119650000D03*
X125190000Y-119650000D03*
D17*
X164762111Y-75108461D03*
D12*
X164983487Y-77638796D03*
D18*
X162452281Y-123049792D03*
D14*
X162230905Y-125580127D03*
D19*
X164761240Y-125801503D03*
D12*
X164982616Y-123271168D03*
D20*
X178566759Y-97636671D03*
D14*
X180725486Y-98975139D03*
D21*
X178558260Y-103268599D03*
D14*
X180716987Y-101930131D03*
D22*
X182063955Y-96816412D03*
D12*
X179905228Y-95477944D03*
D23*
X101837500Y-108900000D03*
X103562500Y-108900000D03*
D24*
X100700000Y-90487500D03*
X100700000Y-92312500D03*
D23*
X102237500Y-92300000D03*
X103962500Y-92300000D03*
D24*
X100300000Y-107087500D03*
X100300000Y-108912500D03*
D25*
X103562500Y-107100000D03*
X101837500Y-107100000D03*
D26*
X100210000Y-111050000D03*
D27*
X101226000Y-111050000D03*
X102242000Y-111050000D03*
X103258000Y-111050000D03*
X104274000Y-111050000D03*
X105290000Y-111050000D03*
D25*
X103962500Y-90500000D03*
X102237500Y-90500000D03*
D26*
X100210000Y-94550000D03*
D27*
X101226000Y-94550000D03*
X102242000Y-94550000D03*
X103258000Y-94550000D03*
X104274000Y-94550000D03*
X105290000Y-94550000D03*
D28*
X130600000Y-101950000D03*
D29*
X153400000Y-91500000D03*
D28*
X167450000Y-105150000D03*
X152100000Y-100150000D03*
X121350000Y-102600000D03*
X122950000Y-117300000D03*
X127050000Y-87150000D03*
X111150000Y-96600000D03*
X131350000Y-107300000D03*
X174150000Y-115150000D03*
X148650000Y-104950000D03*
D29*
X142200000Y-98400000D03*
X153400000Y-90800000D03*
D28*
X170550000Y-83050000D03*
X172300000Y-115150000D03*
X132750000Y-101950000D03*
X143950000Y-107950000D03*
X181000000Y-94300000D03*
X119100000Y-87050000D03*
X166450000Y-124450000D03*
X114150000Y-87250000D03*
X140000000Y-101900000D03*
X129850000Y-87150000D03*
X124000000Y-105200000D03*
X130700000Y-98500000D03*
X117350000Y-121500000D03*
X113600000Y-118500000D03*
X148100000Y-88950000D03*
X116150000Y-102600000D03*
X173050000Y-101050000D03*
X118764000Y-100330000D03*
X164700000Y-103450000D03*
X142350000Y-116700000D03*
X143050000Y-111200000D03*
D29*
X172150000Y-98000000D03*
D28*
X129200000Y-100050000D03*
X122950000Y-94450000D03*
D29*
X153400000Y-92200000D03*
D28*
X116200000Y-98100000D03*
X122000000Y-114950000D03*
D29*
X154275500Y-117050000D03*
X143400000Y-104250000D03*
D28*
X179800000Y-108900000D03*
X121350000Y-98050000D03*
X146950000Y-111400000D03*
X149650000Y-93550000D03*
X137900000Y-111150000D03*
X145450000Y-106850000D03*
X148050000Y-83850000D03*
X132750000Y-104350000D03*
X126300000Y-107550000D03*
X118650000Y-114950000D03*
X113550000Y-105750000D03*
D29*
X166200000Y-92400000D03*
D28*
X122750000Y-97200000D03*
X175650000Y-84100000D03*
X163100000Y-114300000D03*
X149550000Y-97300000D03*
X161800000Y-81750000D03*
X138100000Y-101900000D03*
X176350000Y-102700000D03*
D29*
X167700000Y-90575500D03*
X167700000Y-95300000D03*
X144799500Y-98094116D03*
X140700000Y-98100000D03*
X148900000Y-109050000D03*
X143100000Y-109050000D03*
X103700000Y-105550000D03*
X101000000Y-106100000D03*
X103725000Y-89175000D03*
X101000000Y-89550000D03*
X102564977Y-105662642D03*
X100210000Y-110600000D03*
X102580226Y-89148830D03*
X100210000Y-94100000D03*
X170000000Y-107000000D03*
X153264000Y-83850000D03*
X165500000Y-98750000D03*
X164850000Y-98200000D03*
X152248000Y-83850000D03*
X166202723Y-102825500D03*
X151232000Y-83850000D03*
X154000000Y-113050000D03*
X164200000Y-97150000D03*
X150216000Y-83850000D03*
X163550000Y-97750000D03*
X158750000Y-107600000D03*
X158750000Y-109924500D03*
X101250000Y-110600000D03*
X102250000Y-110600000D03*
X103258000Y-110600000D03*
X104300000Y-110600000D03*
X101226000Y-94100000D03*
X102242000Y-94100000D03*
X103269437Y-94100000D03*
X104274000Y-94100000D03*
X154500000Y-96400000D03*
X158400000Y-97100000D03*
X154100000Y-100000000D03*
X165675000Y-104200000D03*
X146400000Y-112400000D03*
X165674500Y-107275500D03*
X170525500Y-106150000D03*
X172800000Y-106150000D03*
X172900000Y-93250000D03*
X170750000Y-93250000D03*
X168400000Y-107900000D03*
X169200000Y-114350000D03*
X173100000Y-84600000D03*
X169300000Y-97200000D03*
X152800000Y-106900000D03*
X157400497Y-104100000D03*
X153500000Y-107600000D03*
X158200000Y-104100000D03*
X150200000Y-99400000D03*
X150700000Y-97500000D03*
D30*
X120900000Y-76900000D02*
X119400000Y-76900000D01*
X120900000Y-76900000D02*
X120900000Y-75950000D01*
X120900000Y-76900000D02*
X122350000Y-76900000D01*
D31*
X141250000Y-97550000D02*
X144255384Y-97550000D01*
D32*
X167700000Y-90575500D02*
X167700000Y-95300000D01*
D31*
X140700000Y-98100000D02*
X141250000Y-97550000D01*
X144255384Y-97550000D02*
X144799500Y-98094116D01*
D32*
X148900000Y-109050000D02*
X143100000Y-109050000D01*
D31*
X104600000Y-108900000D02*
X105175000Y-109475000D01*
X105175000Y-109475000D02*
X105175000Y-110800000D01*
X103562500Y-108900000D02*
X104600000Y-108900000D01*
X100500000Y-106100000D02*
X100300000Y-106300000D01*
X100300000Y-106300000D02*
X100300000Y-107087500D01*
X101000000Y-106100000D02*
X100500000Y-106100000D01*
X100312500Y-107100000D02*
X100300000Y-107087500D01*
X101837500Y-107100000D02*
X100312500Y-107100000D01*
X105100000Y-92550000D02*
X105100000Y-94300000D01*
X103962500Y-92300000D02*
X104850000Y-92300000D01*
X104850000Y-92300000D02*
X105100000Y-92550000D01*
X100712500Y-90500000D02*
X100700000Y-90487500D01*
X102237500Y-90500000D02*
X100712500Y-90500000D01*
X100700000Y-89850000D02*
X100700000Y-90487500D01*
X101000000Y-89550000D02*
X100700000Y-89850000D01*
X102700000Y-108037500D02*
X101837500Y-108900000D01*
X102564977Y-105662642D02*
X102700000Y-105797665D01*
X101825000Y-108912500D02*
X101837500Y-108900000D01*
X100300000Y-110510000D02*
X100300000Y-108912500D01*
X100300000Y-108912500D02*
X101825000Y-108912500D01*
X100210000Y-110600000D02*
X100300000Y-110510000D01*
X102700000Y-105797665D02*
X102700000Y-108037500D01*
X100210000Y-94100000D02*
X100210000Y-92890000D01*
X102580226Y-89148830D02*
X102848830Y-89148830D01*
X100700000Y-92400000D02*
X100700000Y-92312500D01*
X102848830Y-89148830D02*
X103100000Y-89400000D01*
X103100000Y-91437500D02*
X102237500Y-92300000D01*
X100210000Y-92890000D02*
X100700000Y-92400000D01*
X100712500Y-92300000D02*
X100700000Y-92312500D01*
X101837500Y-92300000D02*
X100712500Y-92300000D01*
X103100000Y-89400000D02*
X103100000Y-91437500D01*
D32*
X170000000Y-107000000D02*
X180500000Y-107000000D01*
X182880000Y-97632457D02*
X182063955Y-96816412D01*
X182880000Y-103264314D02*
X182880000Y-97632457D01*
X180500000Y-107000000D02*
X182055454Y-105444546D01*
X182055454Y-105444546D02*
X182055454Y-104088860D01*
X182055454Y-104088860D02*
X182880000Y-103264314D01*
D31*
X154700000Y-86950000D02*
X153264000Y-85514000D01*
X162650000Y-86950000D02*
X154700000Y-86950000D01*
X165500000Y-98750000D02*
X165500000Y-89800000D01*
X153264000Y-85514000D02*
X153264000Y-83850000D01*
X165500000Y-89800000D02*
X162650000Y-86950000D01*
X162463604Y-87400000D02*
X154500000Y-87400000D01*
X164850000Y-89786396D02*
X162463604Y-87400000D01*
X154500000Y-87400000D02*
X152248000Y-85148000D01*
X152248000Y-85148000D02*
X152248000Y-83850000D01*
X164850000Y-98200000D02*
X164850000Y-89786396D01*
X153850000Y-87850000D02*
X151232000Y-85232000D01*
X154150000Y-112900000D02*
X154000000Y-113050000D01*
X166202723Y-102825500D02*
X166299500Y-102922277D01*
X164200000Y-89772792D02*
X162277208Y-87850000D01*
X166299500Y-102922277D02*
X166299500Y-109275500D01*
X164200000Y-97150000D02*
X164200000Y-89772792D01*
X166299500Y-109275500D02*
X162675000Y-112900000D01*
X151232000Y-85232000D02*
X151232000Y-83850000D01*
X162675000Y-112900000D02*
X154150000Y-112900000D01*
X162277208Y-87850000D02*
X153850000Y-87850000D01*
X150216000Y-85116000D02*
X150216000Y-83850000D01*
X163550000Y-89759188D02*
X162090812Y-88300000D01*
X162090812Y-88300000D02*
X153400000Y-88300000D01*
X163550000Y-97750000D02*
X163550000Y-89759188D01*
X153400000Y-88300000D02*
X150216000Y-85116000D01*
X158750000Y-109924500D02*
X158750000Y-107600000D01*
X134613604Y-95950000D02*
X119600000Y-110963604D01*
X154050000Y-95950000D02*
X134613604Y-95950000D01*
X119600000Y-110963604D02*
X119600000Y-117600000D01*
X117570000Y-119630000D02*
X117570000Y-119650000D01*
X154500000Y-96400000D02*
X154050000Y-95950000D01*
X119600000Y-117600000D02*
X117570000Y-119630000D01*
X120100000Y-111100000D02*
X120100000Y-119640000D01*
X120100000Y-119640000D02*
X120110000Y-119650000D01*
X134700000Y-96500000D02*
X120100000Y-111100000D01*
X154300000Y-97100000D02*
X153700000Y-96500000D01*
X153700000Y-96500000D02*
X134700000Y-96500000D01*
X158400000Y-97100000D02*
X154300000Y-97100000D01*
X120600000Y-111236396D02*
X120600000Y-117600000D01*
X154100000Y-100000000D02*
X151200000Y-102900000D01*
X120600000Y-117600000D02*
X122650000Y-119650000D01*
X128936396Y-102900000D02*
X120600000Y-111236396D01*
X151200000Y-102900000D02*
X128936396Y-102900000D01*
X121100000Y-111372792D02*
X121100000Y-116830000D01*
X165675000Y-104200000D02*
X159700000Y-104200000D01*
X158900000Y-103400000D02*
X129072792Y-103400000D01*
X129072792Y-103400000D02*
X121100000Y-111372792D01*
X121100000Y-116830000D02*
X123920000Y-119650000D01*
X159700000Y-104200000D02*
X158900000Y-103400000D01*
X162500000Y-112400000D02*
X146400000Y-112400000D01*
X165674500Y-107275500D02*
X165674500Y-109225500D01*
X165674500Y-109225500D02*
X162500000Y-112400000D01*
X172800000Y-106150000D02*
X170525500Y-106150000D01*
X170750000Y-93250000D02*
X172900000Y-93250000D01*
X170300000Y-113250000D02*
X170300000Y-108500000D01*
X169700000Y-107900000D02*
X168400000Y-107900000D01*
X169200000Y-114350000D02*
X170300000Y-113250000D01*
X170300000Y-108500000D02*
X169700000Y-107900000D01*
X169300000Y-88400000D02*
X173100000Y-84600000D01*
X169300000Y-97200000D02*
X169300000Y-88400000D01*
X157400497Y-104100000D02*
X157400497Y-104741955D01*
X155242452Y-106900000D02*
X152800000Y-106900000D01*
X157400497Y-104741955D02*
X155242452Y-106900000D01*
X155700000Y-107600000D02*
X153500000Y-107600000D01*
X158200000Y-104100000D02*
X158200000Y-105100000D01*
X158200000Y-105100000D02*
X155700000Y-107600000D01*
X150700000Y-97500000D02*
X150200000Y-98000000D01*
X150200000Y-98000000D02*
X150200000Y-99400000D01*
G04 #@! TA.AperFunction,Conductor*
G36*
X103670769Y-87582864D02*
G01*
X103682159Y-87585559D01*
X103787563Y-87615730D01*
X104030287Y-87685208D01*
X104041372Y-87688946D01*
X104139564Y-87727225D01*
X104378769Y-87820478D01*
X104389465Y-87825232D01*
X104713177Y-87987493D01*
X104723386Y-87993218D01*
X105030660Y-88184828D01*
X105040292Y-88191475D01*
X105328456Y-88410770D01*
X105337421Y-88418275D01*
X105430656Y-88503996D01*
X105603996Y-88663368D01*
X105612232Y-88671678D01*
X105667020Y-88732356D01*
X105697825Y-88796320D01*
X105699500Y-88816796D01*
X105699500Y-88991281D01*
X105699498Y-88991941D01*
X105699031Y-89081105D01*
X105699722Y-89083984D01*
X105700000Y-89088802D01*
X105700000Y-93166000D01*
X105679998Y-93234121D01*
X105626342Y-93280614D01*
X105574000Y-93292000D01*
X105562115Y-93292000D01*
X105546876Y-93296475D01*
X105545671Y-93297865D01*
X105544000Y-93305548D01*
X105544000Y-94473500D01*
X105523998Y-94541621D01*
X105470342Y-94588114D01*
X105418000Y-94599500D01*
X105258500Y-94599500D01*
X105190379Y-94579498D01*
X105143886Y-94525842D01*
X105132500Y-94473500D01*
X105132500Y-93751866D01*
X105125745Y-93689684D01*
X105074615Y-93553295D01*
X105061173Y-93535359D01*
X105036326Y-93468856D01*
X105036000Y-93459796D01*
X105036000Y-93310116D01*
X105031525Y-93294877D01*
X105030135Y-93293672D01*
X105022452Y-93292001D01*
X104895331Y-93292001D01*
X104888520Y-93292370D01*
X104877898Y-93293524D01*
X104808016Y-93280997D01*
X104755999Y-93232677D01*
X104738364Y-93163905D01*
X104760709Y-93096516D01*
X104775116Y-93079244D01*
X104846359Y-93007876D01*
X104855375Y-92996460D01*
X104938912Y-92860937D01*
X104945056Y-92847759D01*
X104995315Y-92696234D01*
X104998181Y-92682868D01*
X105007672Y-92590230D01*
X105008000Y-92583815D01*
X105008000Y-92572115D01*
X105003525Y-92556876D01*
X105002135Y-92555671D01*
X104994452Y-92554000D01*
X103834500Y-92554000D01*
X103766379Y-92533998D01*
X103719886Y-92480342D01*
X103708500Y-92428000D01*
X103708500Y-92027885D01*
X104216500Y-92027885D01*
X104220975Y-92043124D01*
X104222365Y-92044329D01*
X104230048Y-92046000D01*
X104989885Y-92046000D01*
X105005124Y-92041525D01*
X105006329Y-92040135D01*
X105008000Y-92032452D01*
X105008000Y-92016234D01*
X105007663Y-92009718D01*
X104997925Y-91915868D01*
X104995032Y-91902472D01*
X104944512Y-91751047D01*
X104938347Y-91737885D01*
X104854574Y-91602508D01*
X104845540Y-91591110D01*
X104743506Y-91489253D01*
X104709427Y-91426970D01*
X104714430Y-91356150D01*
X104743351Y-91311062D01*
X104846363Y-91207871D01*
X104855375Y-91196460D01*
X104938912Y-91060937D01*
X104945056Y-91047759D01*
X104995315Y-90896234D01*
X104998181Y-90882868D01*
X105007672Y-90790230D01*
X105008000Y-90783815D01*
X105008000Y-90772115D01*
X105003525Y-90756876D01*
X105002135Y-90755671D01*
X104994452Y-90754000D01*
X104234615Y-90754000D01*
X104219376Y-90758475D01*
X104218171Y-90759865D01*
X104216500Y-90767548D01*
X104216500Y-92027885D01*
X103708500Y-92027885D01*
X103708500Y-91646130D01*
X103712671Y-91616824D01*
X103713181Y-91615645D01*
X103714421Y-91607817D01*
X103714423Y-91607810D01*
X103720099Y-91571976D01*
X103722505Y-91560356D01*
X103731528Y-91525211D01*
X103731528Y-91525210D01*
X103733500Y-91517530D01*
X103733500Y-91497276D01*
X103735051Y-91477565D01*
X103736980Y-91465386D01*
X103738220Y-91457557D01*
X103734059Y-91413538D01*
X103733500Y-91401681D01*
X103733500Y-90227885D01*
X104216500Y-90227885D01*
X104220975Y-90243124D01*
X104222365Y-90244329D01*
X104230048Y-90246000D01*
X104989885Y-90246000D01*
X105005124Y-90241525D01*
X105006329Y-90240135D01*
X105008000Y-90232452D01*
X105008000Y-90216234D01*
X105007663Y-90209718D01*
X104997925Y-90115868D01*
X104995032Y-90102472D01*
X104944512Y-89951047D01*
X104938347Y-89937885D01*
X104854574Y-89802508D01*
X104845540Y-89791110D01*
X104732871Y-89678637D01*
X104721460Y-89669625D01*
X104585937Y-89586088D01*
X104572759Y-89579944D01*
X104421234Y-89529685D01*
X104407868Y-89526819D01*
X104315230Y-89517328D01*
X104308815Y-89517000D01*
X104234615Y-89517000D01*
X104219376Y-89521475D01*
X104218171Y-89522865D01*
X104216500Y-89530548D01*
X104216500Y-90227885D01*
X103733500Y-90227885D01*
X103733500Y-89478767D01*
X103734027Y-89467584D01*
X103735702Y-89460091D01*
X103733562Y-89392014D01*
X103733500Y-89388055D01*
X103733500Y-89360144D01*
X103732995Y-89356144D01*
X103732062Y-89344301D01*
X103730922Y-89308030D01*
X103730673Y-89300111D01*
X103725021Y-89280657D01*
X103721013Y-89261300D01*
X103719468Y-89249070D01*
X103719468Y-89249069D01*
X103718474Y-89241203D01*
X103715555Y-89233830D01*
X103702196Y-89200088D01*
X103698351Y-89188858D01*
X103688229Y-89154017D01*
X103688229Y-89154016D01*
X103686018Y-89146407D01*
X103681985Y-89139588D01*
X103681983Y-89139583D01*
X103675707Y-89128972D01*
X103667012Y-89111224D01*
X103659552Y-89092383D01*
X103654291Y-89085141D01*
X103633564Y-89056613D01*
X103627048Y-89046693D01*
X103608580Y-89015465D01*
X103608578Y-89015462D01*
X103604542Y-89008638D01*
X103590218Y-88994314D01*
X103577383Y-88979287D01*
X103565472Y-88962893D01*
X103558972Y-88957515D01*
X103531408Y-88934713D01*
X103522627Y-88926723D01*
X103436904Y-88840999D01*
X103402879Y-88778687D01*
X103400000Y-88751904D01*
X103400000Y-87683851D01*
X103420002Y-87615730D01*
X103473658Y-87569237D01*
X103549284Y-87560021D01*
X103670769Y-87582864D01*
G37*
G04 #@! TD.AperFunction*
G04 #@! TA.AperFunction,Conductor*
G36*
X103541488Y-104058555D02*
G01*
X103670769Y-104082864D01*
X103682159Y-104085559D01*
X103910489Y-104150917D01*
X104030287Y-104185208D01*
X104041372Y-104188946D01*
X104139564Y-104227225D01*
X104378769Y-104320478D01*
X104389465Y-104325232D01*
X104713177Y-104487493D01*
X104723386Y-104493218D01*
X105030660Y-104684828D01*
X105040292Y-104691475D01*
X105328456Y-104910770D01*
X105337421Y-104918275D01*
X105445678Y-105017808D01*
X105603996Y-105163368D01*
X105612232Y-105171678D01*
X105667020Y-105232356D01*
X105697825Y-105296320D01*
X105699500Y-105316796D01*
X105699500Y-105491281D01*
X105699498Y-105491941D01*
X105699031Y-105581105D01*
X105699722Y-105583984D01*
X105700000Y-105588802D01*
X105700000Y-109666000D01*
X105679998Y-109734121D01*
X105626342Y-109780614D01*
X105574000Y-109792000D01*
X105562115Y-109792000D01*
X105546876Y-109796475D01*
X105545671Y-109797865D01*
X105544000Y-109805548D01*
X105544000Y-110973500D01*
X105523998Y-111041621D01*
X105470342Y-111088114D01*
X105418000Y-111099500D01*
X105258500Y-111099500D01*
X105190379Y-111079498D01*
X105143886Y-111025842D01*
X105132500Y-110973500D01*
X105132500Y-110251866D01*
X105125745Y-110189684D01*
X105074615Y-110053295D01*
X105061173Y-110035359D01*
X105036326Y-109968856D01*
X105036000Y-109959796D01*
X105036000Y-109810116D01*
X105031525Y-109794877D01*
X105030135Y-109793672D01*
X105022452Y-109792001D01*
X104895331Y-109792001D01*
X104888510Y-109792371D01*
X104837648Y-109797895D01*
X104814707Y-109803349D01*
X104814091Y-109800756D01*
X104756142Y-109805002D01*
X104746422Y-109802148D01*
X104741716Y-109801029D01*
X104734316Y-109798255D01*
X104672134Y-109791500D01*
X104560832Y-109791500D01*
X104492711Y-109771498D01*
X104446218Y-109717842D01*
X104436114Y-109647568D01*
X104453572Y-109599384D01*
X104538912Y-109460937D01*
X104545056Y-109447759D01*
X104595315Y-109296234D01*
X104598181Y-109282868D01*
X104607672Y-109190230D01*
X104608000Y-109183815D01*
X104608000Y-109172115D01*
X104603525Y-109156876D01*
X104602135Y-109155671D01*
X104594452Y-109154000D01*
X103434500Y-109154000D01*
X103366379Y-109133998D01*
X103319886Y-109080342D01*
X103308500Y-109028000D01*
X103308500Y-108627885D01*
X103816500Y-108627885D01*
X103820975Y-108643124D01*
X103822365Y-108644329D01*
X103830048Y-108646000D01*
X104589885Y-108646000D01*
X104605124Y-108641525D01*
X104606329Y-108640135D01*
X104608000Y-108632452D01*
X104608000Y-108616234D01*
X104607663Y-108609718D01*
X104597925Y-108515868D01*
X104595032Y-108502472D01*
X104544512Y-108351047D01*
X104538347Y-108337885D01*
X104454574Y-108202508D01*
X104445540Y-108191110D01*
X104343506Y-108089253D01*
X104309427Y-108026970D01*
X104314430Y-107956150D01*
X104343351Y-107911062D01*
X104446363Y-107807871D01*
X104455375Y-107796460D01*
X104538912Y-107660937D01*
X104545056Y-107647759D01*
X104595315Y-107496234D01*
X104598181Y-107482868D01*
X104607672Y-107390230D01*
X104608000Y-107383815D01*
X104608000Y-107372115D01*
X104603525Y-107356876D01*
X104602135Y-107355671D01*
X104594452Y-107354000D01*
X103834615Y-107354000D01*
X103819376Y-107358475D01*
X103818171Y-107359865D01*
X103816500Y-107367548D01*
X103816500Y-108627885D01*
X103308500Y-108627885D01*
X103308500Y-108246130D01*
X103312671Y-108216824D01*
X103313181Y-108215645D01*
X103314421Y-108207817D01*
X103314423Y-108207810D01*
X103320099Y-108171976D01*
X103322505Y-108160356D01*
X103331528Y-108125211D01*
X103331528Y-108125210D01*
X103333500Y-108117530D01*
X103333500Y-108097276D01*
X103335051Y-108077565D01*
X103336980Y-108065386D01*
X103338220Y-108057557D01*
X103334059Y-108013538D01*
X103333500Y-108001681D01*
X103333500Y-106827885D01*
X103816500Y-106827885D01*
X103820975Y-106843124D01*
X103822365Y-106844329D01*
X103830048Y-106846000D01*
X104589885Y-106846000D01*
X104605124Y-106841525D01*
X104606329Y-106840135D01*
X104608000Y-106832452D01*
X104608000Y-106816234D01*
X104607663Y-106809718D01*
X104597925Y-106715868D01*
X104595032Y-106702472D01*
X104544512Y-106551047D01*
X104538347Y-106537885D01*
X104454574Y-106402508D01*
X104445540Y-106391110D01*
X104332871Y-106278637D01*
X104321460Y-106269625D01*
X104185937Y-106186088D01*
X104172759Y-106179944D01*
X104021234Y-106129685D01*
X104007868Y-106126819D01*
X103915230Y-106117328D01*
X103908815Y-106117000D01*
X103834615Y-106117000D01*
X103819376Y-106121475D01*
X103818171Y-106122865D01*
X103816500Y-106130548D01*
X103816500Y-106827885D01*
X103333500Y-106827885D01*
X103333500Y-105939524D01*
X103341712Y-105894780D01*
X103350532Y-105871562D01*
X103350533Y-105871560D01*
X103353032Y-105864980D01*
X103361800Y-105802593D01*
X103377725Y-105689281D01*
X103377725Y-105689278D01*
X103378276Y-105685359D01*
X103378593Y-105662642D01*
X103358374Y-105482387D01*
X103356059Y-105475739D01*
X103354497Y-105468864D01*
X103355351Y-105468670D01*
X103350000Y-105437027D01*
X103350000Y-104174449D01*
X103370002Y-104106328D01*
X103423658Y-104059835D01*
X103499284Y-104050619D01*
X103541488Y-104058555D01*
G37*
G04 #@! TD.AperFunction*
G04 #@! TA.AperFunction,Conductor*
G36*
X160876802Y-71794238D02*
G01*
X160881922Y-71794408D01*
X161280746Y-71811778D01*
X162507089Y-71865189D01*
X162512155Y-71865462D01*
X164135605Y-71969675D01*
X164140655Y-71970052D01*
X164872263Y-72032155D01*
X165761551Y-72107643D01*
X165766652Y-72108129D01*
X167384354Y-72279042D01*
X167389444Y-72279633D01*
X169003256Y-72483794D01*
X169008332Y-72484489D01*
X170617656Y-72721822D01*
X170622717Y-72722622D01*
X171361909Y-72847225D01*
X172226819Y-72993020D01*
X172231788Y-72993910D01*
X173755843Y-73283185D01*
X173829966Y-73297254D01*
X173834990Y-73298261D01*
X175369995Y-73622474D01*
X175403760Y-73632137D01*
X175405552Y-73632789D01*
X175420775Y-73638335D01*
X175435698Y-73639960D01*
X175435704Y-73639962D01*
X175441918Y-73640639D01*
X175475805Y-73646725D01*
X176045678Y-73790353D01*
X176059313Y-73794205D01*
X176659298Y-73982306D01*
X176672691Y-73986927D01*
X176966853Y-74097889D01*
X177261021Y-74208853D01*
X177274118Y-74214224D01*
X177848869Y-74469254D01*
X177861634Y-74475359D01*
X178420956Y-74762670D01*
X178433369Y-74769499D01*
X178975424Y-75088145D01*
X178987429Y-75095670D01*
X179510475Y-75444626D01*
X179522033Y-75452821D01*
X179695224Y-75583189D01*
X179967156Y-75787884D01*
X180024405Y-75830978D01*
X180035474Y-75839815D01*
X180515516Y-76245926D01*
X180526064Y-76255377D01*
X180939120Y-76647236D01*
X180982227Y-76688131D01*
X180992222Y-76698168D01*
X181134898Y-76849849D01*
X181423047Y-77156184D01*
X181432444Y-77166761D01*
X181836538Y-77648560D01*
X181845302Y-77659636D01*
X182205031Y-78141782D01*
X182221316Y-78163609D01*
X182229457Y-78175194D01*
X182574132Y-78696612D01*
X182576196Y-78699735D01*
X182583665Y-78711764D01*
X182861776Y-79189504D01*
X182874353Y-79211109D01*
X182886616Y-79236658D01*
X182890126Y-79243267D01*
X182895526Y-79257278D01*
X182907611Y-79274618D01*
X182910622Y-79278938D01*
X182926734Y-79305432D01*
X183506626Y-80408356D01*
X183509930Y-80414871D01*
X184077503Y-81575819D01*
X184080608Y-81582415D01*
X184613884Y-82759510D01*
X184616779Y-82766159D01*
X185115304Y-83958405D01*
X185118023Y-83965184D01*
X185581363Y-85171544D01*
X185583881Y-85178401D01*
X186011610Y-86397757D01*
X186013924Y-86404674D01*
X186071859Y-86586766D01*
X186405731Y-87636143D01*
X186407843Y-87643136D01*
X186746172Y-88825500D01*
X186763344Y-88885513D01*
X186765246Y-88892550D01*
X187046269Y-89996060D01*
X187084156Y-90144832D01*
X187085855Y-90151937D01*
X187367891Y-91413021D01*
X187369381Y-91420172D01*
X187611846Y-92676242D01*
X187614312Y-92689019D01*
X187615588Y-92696194D01*
X187677166Y-93074513D01*
X187823195Y-93971689D01*
X187824262Y-93978915D01*
X187994357Y-95259871D01*
X187995213Y-95267125D01*
X188053797Y-95835668D01*
X188126835Y-96544490D01*
X188127670Y-96552597D01*
X188128310Y-96559850D01*
X188179096Y-97251066D01*
X188223003Y-97848659D01*
X188223431Y-97855951D01*
X188241960Y-98276750D01*
X188278813Y-99113668D01*
X188280278Y-99146946D01*
X188280491Y-99154229D01*
X188286776Y-99582634D01*
X188299446Y-100446348D01*
X188299446Y-100453652D01*
X188290945Y-101033143D01*
X188281113Y-101703439D01*
X188280492Y-101745752D01*
X188280279Y-101753035D01*
X188258569Y-102246060D01*
X188223431Y-103044049D01*
X188223003Y-103051341D01*
X188200203Y-103361661D01*
X188131288Y-104299629D01*
X188128312Y-104340127D01*
X188127672Y-104347380D01*
X188086757Y-104744454D01*
X187995213Y-105632875D01*
X187994357Y-105640129D01*
X187824262Y-106921085D01*
X187823195Y-106928311D01*
X187705627Y-107650623D01*
X187617104Y-108194496D01*
X187615591Y-108203789D01*
X187614315Y-108210964D01*
X187487466Y-108868097D01*
X187369381Y-109479828D01*
X187367891Y-109486979D01*
X187085855Y-110748063D01*
X187084157Y-110755166D01*
X186782394Y-111940117D01*
X186765250Y-112007436D01*
X186763348Y-112014473D01*
X186676130Y-112319275D01*
X186407843Y-113256864D01*
X186405731Y-113263857D01*
X186013927Y-114495316D01*
X186011613Y-114502233D01*
X185860735Y-114932353D01*
X185583881Y-115721599D01*
X185581363Y-115728456D01*
X185118023Y-116934816D01*
X185115304Y-116941595D01*
X184616779Y-118133841D01*
X184613884Y-118140490D01*
X184101980Y-119270411D01*
X184080614Y-119317573D01*
X184077503Y-119324181D01*
X183509930Y-120485129D01*
X183506626Y-120491644D01*
X182931329Y-121585829D01*
X182915096Y-121611903D01*
X182913899Y-121614226D01*
X182902594Y-121629744D01*
X182902593Y-121629747D01*
X182893006Y-121653153D01*
X182892185Y-121654184D01*
X182879312Y-121680301D01*
X182583630Y-122188236D01*
X182576174Y-122200245D01*
X182229430Y-122724804D01*
X182221310Y-122736361D01*
X181948666Y-123101793D01*
X181845288Y-123240353D01*
X181836496Y-123251463D01*
X181432441Y-123733222D01*
X181423031Y-123743815D01*
X180992220Y-124201821D01*
X180982223Y-124211861D01*
X180526051Y-124644629D01*
X180515498Y-124654084D01*
X180035461Y-125060194D01*
X180024404Y-125069021D01*
X179522030Y-125447182D01*
X179510493Y-125455363D01*
X178987412Y-125804344D01*
X178975421Y-125811860D01*
X178433360Y-126130510D01*
X178420947Y-126137340D01*
X177861634Y-126424645D01*
X177848852Y-126430757D01*
X177274120Y-126685778D01*
X177261010Y-126691154D01*
X176725797Y-126893043D01*
X176672694Y-126913074D01*
X176659305Y-126917694D01*
X176059322Y-127105792D01*
X176045707Y-127109639D01*
X175587486Y-127225126D01*
X175485184Y-127250909D01*
X175467493Y-127253895D01*
X175458603Y-127256409D01*
X175435207Y-127258462D01*
X175435205Y-127258463D01*
X175435202Y-127258463D01*
X175415810Y-127265070D01*
X175415806Y-127265071D01*
X175408501Y-127267560D01*
X175379654Y-127275490D01*
X173834991Y-127601742D01*
X173829965Y-127602749D01*
X172231789Y-127906093D01*
X172226820Y-127906983D01*
X171438753Y-128039825D01*
X170622717Y-128177381D01*
X170617656Y-128178181D01*
X169008327Y-128415514D01*
X169003250Y-128416209D01*
X167389449Y-128620367D01*
X167384360Y-128620958D01*
X165766653Y-128791872D01*
X165761552Y-128792358D01*
X164872232Y-128867849D01*
X164140655Y-128929949D01*
X164135605Y-128930326D01*
X162512155Y-129034538D01*
X162507089Y-129034811D01*
X161402305Y-129082928D01*
X160881922Y-129105592D01*
X160876802Y-129105762D01*
X160049182Y-129124758D01*
X159308405Y-129141760D01*
X159273319Y-129140087D01*
X159255313Y-129137948D01*
X159255307Y-129137948D01*
X159251177Y-129138457D01*
X159201826Y-129136374D01*
X159193853Y-129135204D01*
X159118935Y-129111697D01*
X159105552Y-129105027D01*
X159041672Y-129059354D01*
X159031032Y-129048848D01*
X158984556Y-128985559D01*
X158977715Y-128972259D01*
X158953259Y-128897649D01*
X158951184Y-128884655D01*
X158949089Y-128856401D01*
X158949798Y-128851010D01*
X158946197Y-128818413D01*
X158944691Y-128791072D01*
X158944691Y-125580127D01*
X160925437Y-125580127D01*
X160945270Y-125806819D01*
X161004166Y-126026623D01*
X161100337Y-126232861D01*
X161230858Y-126419266D01*
X161391766Y-126580174D01*
X161413393Y-126595317D01*
X161567266Y-126703059D01*
X161578171Y-126710695D01*
X161784409Y-126806866D01*
X162004213Y-126865762D01*
X162015041Y-126866709D01*
X162015045Y-126866710D01*
X162220069Y-126884647D01*
X162230905Y-126885595D01*
X162241741Y-126884647D01*
X162446765Y-126866710D01*
X162446769Y-126866709D01*
X162457597Y-126865762D01*
X162677401Y-126806866D01*
X162883639Y-126710695D01*
X162894545Y-126703059D01*
X163048417Y-126595317D01*
X163070044Y-126580174D01*
X163137693Y-126512525D01*
X163218475Y-126458549D01*
X163313763Y-126439595D01*
X163409051Y-126458549D01*
X163489833Y-126512525D01*
X163544632Y-126595316D01*
X163588152Y-126703034D01*
X163600748Y-126718045D01*
X163600749Y-126718047D01*
X163650798Y-126777693D01*
X163669700Y-126800219D01*
X163729615Y-126837658D01*
X163760669Y-126857063D01*
X163760671Y-126857064D01*
X163777289Y-126867448D01*
X163796304Y-126872189D01*
X163796306Y-126872190D01*
X163831704Y-126881015D01*
X163869422Y-126890420D01*
X163879172Y-126891273D01*
X165440677Y-127027886D01*
X165440682Y-127027886D01*
X165450420Y-127028738D01*
X165488172Y-127026098D01*
X165525597Y-127023482D01*
X165525599Y-127023482D01*
X165545144Y-127022115D01*
X165563314Y-127014774D01*
X165644600Y-126981933D01*
X165644603Y-126981931D01*
X165662771Y-126974591D01*
X165759956Y-126893043D01*
X165812048Y-126809679D01*
X165816800Y-126802074D01*
X165816801Y-126802072D01*
X165827185Y-126785454D01*
X165850157Y-126693321D01*
X165873663Y-126424645D01*
X165987623Y-125122066D01*
X165987623Y-125122061D01*
X165988475Y-125112323D01*
X165984996Y-125062565D01*
X165983219Y-125037146D01*
X165983219Y-125037144D01*
X165981852Y-125017599D01*
X165942006Y-124918975D01*
X165941670Y-124918143D01*
X165941668Y-124918140D01*
X165934328Y-124899972D01*
X165852780Y-124802787D01*
X165768137Y-124749896D01*
X165761811Y-124745943D01*
X165761809Y-124745942D01*
X165745191Y-124735558D01*
X165726174Y-124730816D01*
X165726173Y-124730816D01*
X165663995Y-124715313D01*
X165576122Y-124673870D01*
X165510799Y-124601954D01*
X165477969Y-124510514D01*
X165482631Y-124413471D01*
X165524074Y-124325598D01*
X165602566Y-124256459D01*
X165633925Y-124238897D01*
X165633931Y-124238893D01*
X165643884Y-124233319D01*
X165808149Y-124096701D01*
X165944767Y-123932436D01*
X166009836Y-123816247D01*
X166043586Y-123755982D01*
X166043587Y-123755980D01*
X166049162Y-123746025D01*
X166068966Y-123687684D01*
X166114168Y-123554524D01*
X166114169Y-123554519D01*
X166117838Y-123543711D01*
X166120624Y-123524500D01*
X166147443Y-123339532D01*
X166147443Y-123339530D01*
X166148496Y-123332269D01*
X166150096Y-123271168D01*
X166130546Y-123058412D01*
X166072552Y-122852781D01*
X166055943Y-122819100D01*
X166009347Y-122724614D01*
X165978056Y-122661161D01*
X165850223Y-122489971D01*
X165768266Y-122414211D01*
X165701715Y-122352692D01*
X165701714Y-122352691D01*
X165693333Y-122344944D01*
X165671820Y-122331370D01*
X165609899Y-122292301D01*
X165512641Y-122230936D01*
X165314198Y-122151765D01*
X165257268Y-122140441D01*
X165115844Y-122112310D01*
X165115840Y-122112310D01*
X165104651Y-122110084D01*
X164997834Y-122108685D01*
X164902429Y-122107436D01*
X164902425Y-122107436D01*
X164891017Y-122107287D01*
X164680450Y-122143469D01*
X164669739Y-122147420D01*
X164669737Y-122147421D01*
X164605816Y-122171003D01*
X164480003Y-122217418D01*
X164296388Y-122326657D01*
X164287807Y-122334182D01*
X164287802Y-122334186D01*
X164260451Y-122358173D01*
X164239594Y-122376464D01*
X164155458Y-122425042D01*
X164059134Y-122437724D01*
X163965289Y-122412579D01*
X163888211Y-122353436D01*
X163839632Y-122269298D01*
X163827023Y-122206623D01*
X163823763Y-122159993D01*
X163823763Y-122159992D01*
X163822396Y-122140441D01*
X163774871Y-122022813D01*
X163762278Y-122007805D01*
X163762276Y-122007802D01*
X163705919Y-121940639D01*
X163705918Y-121940638D01*
X163693323Y-121925628D01*
X163585735Y-121858399D01*
X163566723Y-121853659D01*
X163566721Y-121853658D01*
X163523819Y-121842962D01*
X163493601Y-121835428D01*
X162738364Y-121769354D01*
X161647397Y-121673907D01*
X161647392Y-121673907D01*
X161637654Y-121673055D01*
X161592984Y-121676178D01*
X161562481Y-121678310D01*
X161562480Y-121678310D01*
X161542930Y-121679677D01*
X161425302Y-121727202D01*
X161410294Y-121739795D01*
X161410291Y-121739797D01*
X161348523Y-121791627D01*
X161328117Y-121808750D01*
X161260888Y-121916338D01*
X161237917Y-122008472D01*
X161174234Y-122736379D01*
X161078434Y-123831390D01*
X161075544Y-123864419D01*
X161082166Y-123959143D01*
X161129691Y-124076771D01*
X161142284Y-124091779D01*
X161142286Y-124091782D01*
X161176385Y-124132419D01*
X161211239Y-124173956D01*
X161227857Y-124184340D01*
X161306815Y-124233679D01*
X161377579Y-124300248D01*
X161417482Y-124388830D01*
X161420449Y-124485940D01*
X161386027Y-124576793D01*
X161350934Y-124620912D01*
X161230858Y-124740988D01*
X161100337Y-124927393D01*
X161004166Y-125133631D01*
X160945270Y-125353435D01*
X160944323Y-125364263D01*
X160944322Y-125364267D01*
X160939344Y-125421172D01*
X160925437Y-125580127D01*
X158944691Y-125580127D01*
X158944691Y-124117470D01*
X158947175Y-124082385D01*
X158947974Y-124076771D01*
X158949681Y-124064778D01*
X158949836Y-124050000D01*
X158948635Y-124040076D01*
X158947463Y-124027907D01*
X158946452Y-124013763D01*
X158936468Y-123874171D01*
X158932326Y-123816248D01*
X158932325Y-123816243D01*
X158931691Y-123807374D01*
X158922508Y-123765158D01*
X158881877Y-123578385D01*
X158881877Y-123578384D01*
X158879985Y-123569687D01*
X158874330Y-123554524D01*
X158798086Y-123350108D01*
X158798086Y-123350107D01*
X158794979Y-123341778D01*
X158739596Y-123240353D01*
X158682665Y-123136092D01*
X158682664Y-123136091D01*
X158678403Y-123128287D01*
X158532631Y-122933559D01*
X158360629Y-122761559D01*
X158357794Y-122759437D01*
X158299391Y-122684254D01*
X158273687Y-122590561D01*
X158285795Y-122494164D01*
X158333872Y-122409737D01*
X158410597Y-122350136D01*
X158461390Y-122331301D01*
X158485217Y-122325316D01*
X158711493Y-122226928D01*
X158918661Y-122092905D01*
X159101158Y-121926846D01*
X159254082Y-121733210D01*
X159261451Y-121719862D01*
X159368389Y-121526143D01*
X159373327Y-121517198D01*
X159385275Y-121483460D01*
X159452281Y-121294240D01*
X159452282Y-121294238D01*
X159455691Y-121284610D01*
X159498961Y-121041694D01*
X159499286Y-121015135D01*
X159501850Y-120805198D01*
X159501975Y-120794972D01*
X159464653Y-120551070D01*
X159460614Y-120538712D01*
X159391171Y-120326250D01*
X159391170Y-120326247D01*
X159387997Y-120316540D01*
X159274065Y-120097679D01*
X159125917Y-119900364D01*
X159118537Y-119893312D01*
X159118533Y-119893307D01*
X158954921Y-119736957D01*
X158947532Y-119729896D01*
X158830409Y-119650000D01*
X158752146Y-119596612D01*
X158752142Y-119596610D01*
X158743700Y-119590851D01*
X158519896Y-119486965D01*
X158510061Y-119484238D01*
X158510057Y-119484236D01*
X158291978Y-119423757D01*
X158291974Y-119423756D01*
X158282129Y-119421026D01*
X158149018Y-119406800D01*
X158087297Y-119400204D01*
X158087294Y-119400204D01*
X158080708Y-119399500D01*
X157937446Y-119399500D01*
X157754089Y-119414575D01*
X157514783Y-119474684D01*
X157288507Y-119573072D01*
X157081339Y-119707095D01*
X156898842Y-119873154D01*
X156745918Y-120066790D01*
X156626673Y-120282802D01*
X156623264Y-120292428D01*
X156623262Y-120292433D01*
X156547862Y-120505357D01*
X156544309Y-120515390D01*
X156501039Y-120758306D01*
X156500914Y-120768526D01*
X156500914Y-120768528D01*
X156500591Y-120794972D01*
X156498025Y-121005028D01*
X156535347Y-121248930D01*
X156538521Y-121258641D01*
X156566336Y-121343740D01*
X156612003Y-121483460D01*
X156725935Y-121702321D01*
X156874083Y-121899636D01*
X156881468Y-121906693D01*
X156895896Y-121920481D01*
X156951691Y-122000017D01*
X156972802Y-122094851D01*
X156956015Y-122190545D01*
X156903885Y-122272530D01*
X156824349Y-122328325D01*
X156723866Y-122349500D01*
X148341595Y-122349500D01*
X148309095Y-122347370D01*
X148301369Y-122346353D01*
X148301370Y-122346353D01*
X148286489Y-122344394D01*
X148272692Y-122345917D01*
X148238192Y-122343021D01*
X148225493Y-122341009D01*
X148151415Y-122316940D01*
X148138201Y-122310207D01*
X148075173Y-122264416D01*
X148064684Y-122253927D01*
X148018893Y-122190899D01*
X148012160Y-122177685D01*
X147988090Y-122103605D01*
X147987697Y-122101124D01*
X147985139Y-122066285D01*
X147985107Y-122066287D01*
X147985012Y-122064556D01*
X147984645Y-122059561D01*
X147984660Y-122058155D01*
X147984660Y-122058147D01*
X147984745Y-122050000D01*
X147981403Y-122022383D01*
X147979600Y-121992469D01*
X147979600Y-118759172D01*
X147979603Y-118757868D01*
X147979990Y-118683902D01*
X147980069Y-118668895D01*
X147976566Y-118654302D01*
X147976565Y-118654297D01*
X147973058Y-118639688D01*
X147967983Y-118611484D01*
X147966180Y-118596586D01*
X147964376Y-118581680D01*
X147955523Y-118558250D01*
X147946332Y-118528375D01*
X147943991Y-118518623D01*
X147940488Y-118504032D01*
X147926719Y-118477355D01*
X147915060Y-118451167D01*
X147909752Y-118437119D01*
X147909748Y-118437112D01*
X147904445Y-118423077D01*
X147895943Y-118410707D01*
X147895941Y-118410703D01*
X147890263Y-118402441D01*
X147874205Y-118375611D01*
X147869612Y-118366712D01*
X147869610Y-118366710D01*
X147862725Y-118353369D01*
X147852856Y-118342056D01*
X147852854Y-118342053D01*
X147842988Y-118330744D01*
X147825427Y-118308105D01*
X147808412Y-118283349D01*
X147789711Y-118266687D01*
X147767733Y-118244477D01*
X147751269Y-118225604D01*
X147738985Y-118216971D01*
X147738981Y-118216967D01*
X147726704Y-118208338D01*
X147704243Y-118190536D01*
X147693028Y-118180544D01*
X147693022Y-118180540D01*
X147681821Y-118170560D01*
X147668559Y-118163538D01*
X147668556Y-118163536D01*
X147659688Y-118158840D01*
X147633039Y-118142510D01*
X147624834Y-118136744D01*
X147612553Y-118128113D01*
X147584576Y-118117205D01*
X147558517Y-118105274D01*
X147545244Y-118098246D01*
X147545241Y-118098245D01*
X147531981Y-118091224D01*
X147507704Y-118085126D01*
X147477914Y-118075619D01*
X147468571Y-118071976D01*
X147468569Y-118071976D01*
X147454587Y-118066524D01*
X147427213Y-118062920D01*
X147424813Y-118062604D01*
X147396656Y-118057232D01*
X147391918Y-118056042D01*
X147367541Y-118049919D01*
X147327179Y-118049708D01*
X147326730Y-118049692D01*
X147325274Y-118049500D01*
X147288272Y-118049500D01*
X147286968Y-118049497D01*
X147197995Y-118049031D01*
X147196285Y-118049442D01*
X147195273Y-118049500D01*
X140730072Y-118049500D01*
X140728768Y-118049497D01*
X140639795Y-118049031D01*
X140625202Y-118052534D01*
X140625197Y-118052535D01*
X140610588Y-118056042D01*
X140582385Y-118061117D01*
X140552580Y-118064724D01*
X140529150Y-118073577D01*
X140499280Y-118082767D01*
X140474932Y-118088612D01*
X140461600Y-118095493D01*
X140461598Y-118095494D01*
X140448255Y-118102381D01*
X140422067Y-118114040D01*
X140408019Y-118119348D01*
X140408012Y-118119352D01*
X140393977Y-118124655D01*
X140381607Y-118133157D01*
X140381603Y-118133159D01*
X140373341Y-118138837D01*
X140346511Y-118154895D01*
X140337612Y-118159488D01*
X140337610Y-118159490D01*
X140324269Y-118166375D01*
X140312956Y-118176244D01*
X140312953Y-118176246D01*
X140301644Y-118186112D01*
X140279005Y-118203673D01*
X140254249Y-118220688D01*
X140237587Y-118239389D01*
X140215377Y-118261367D01*
X140196504Y-118277831D01*
X140187871Y-118290115D01*
X140187867Y-118290119D01*
X140179238Y-118302396D01*
X140161436Y-118324857D01*
X140151444Y-118336072D01*
X140151440Y-118336078D01*
X140141460Y-118347279D01*
X140134438Y-118360541D01*
X140134436Y-118360544D01*
X140129740Y-118369412D01*
X140113410Y-118396061D01*
X140099013Y-118416547D01*
X140093562Y-118430528D01*
X140088107Y-118444520D01*
X140076174Y-118470583D01*
X140062124Y-118497119D01*
X140058468Y-118511674D01*
X140056026Y-118521396D01*
X140046519Y-118551186D01*
X140043757Y-118558271D01*
X140037424Y-118574513D01*
X140035465Y-118589394D01*
X140033504Y-118604287D01*
X140028132Y-118632444D01*
X140020819Y-118661559D01*
X140020608Y-118701915D01*
X140020592Y-118702370D01*
X140020400Y-118703826D01*
X140020400Y-118740828D01*
X140020397Y-118742132D01*
X140019931Y-118831105D01*
X140020342Y-118832815D01*
X140020400Y-118833827D01*
X140020400Y-121987505D01*
X140018270Y-122020005D01*
X140015294Y-122042611D01*
X140016817Y-122056408D01*
X140013921Y-122090908D01*
X140012303Y-122101124D01*
X140011910Y-122103605D01*
X139987840Y-122177685D01*
X139981107Y-122190899D01*
X139935316Y-122253927D01*
X139924827Y-122264416D01*
X139861799Y-122310207D01*
X139848585Y-122316940D01*
X139774503Y-122341010D01*
X139761561Y-122343060D01*
X139733696Y-122345106D01*
X139728289Y-122344394D01*
X139704938Y-122346972D01*
X139695661Y-122347996D01*
X139668338Y-122349500D01*
X131278543Y-122349500D01*
X131183255Y-122330546D01*
X131102473Y-122276570D01*
X131048497Y-122195788D01*
X131029543Y-122100500D01*
X131048497Y-122005212D01*
X131095723Y-121931791D01*
X131101158Y-121926846D01*
X131254082Y-121733210D01*
X131261451Y-121719862D01*
X131368389Y-121526143D01*
X131373327Y-121517198D01*
X131385275Y-121483460D01*
X131452281Y-121294240D01*
X131452282Y-121294238D01*
X131455691Y-121284610D01*
X131498961Y-121041694D01*
X131499286Y-121015135D01*
X131501850Y-120805198D01*
X131501975Y-120794972D01*
X131464653Y-120551070D01*
X131460614Y-120538712D01*
X131391171Y-120326250D01*
X131391170Y-120326247D01*
X131387997Y-120316540D01*
X131274065Y-120097679D01*
X131125917Y-119900364D01*
X131118537Y-119893312D01*
X131118533Y-119893307D01*
X130954921Y-119736957D01*
X130947532Y-119729896D01*
X130830409Y-119650000D01*
X130752146Y-119596612D01*
X130752142Y-119596610D01*
X130743700Y-119590851D01*
X130519896Y-119486965D01*
X130510061Y-119484238D01*
X130510057Y-119484236D01*
X130291978Y-119423757D01*
X130291974Y-119423756D01*
X130282129Y-119421026D01*
X130149018Y-119406800D01*
X130087297Y-119400204D01*
X130087294Y-119400204D01*
X130080708Y-119399500D01*
X129937446Y-119399500D01*
X129754089Y-119414575D01*
X129514783Y-119474684D01*
X129288507Y-119573072D01*
X129081339Y-119707095D01*
X128898842Y-119873154D01*
X128745918Y-120066790D01*
X128626673Y-120282802D01*
X128623264Y-120292428D01*
X128623262Y-120292433D01*
X128547862Y-120505357D01*
X128544309Y-120515390D01*
X128501039Y-120758306D01*
X128500914Y-120768526D01*
X128500914Y-120768528D01*
X128500591Y-120794972D01*
X128498025Y-121005028D01*
X128535347Y-121248930D01*
X128538521Y-121258641D01*
X128566336Y-121343740D01*
X128612003Y-121483460D01*
X128725935Y-121702321D01*
X128874083Y-121899636D01*
X128881463Y-121906688D01*
X128881467Y-121906693D01*
X129008127Y-122027731D01*
X129052468Y-122070104D01*
X129097027Y-122100500D01*
X129247854Y-122203388D01*
X129247858Y-122203390D01*
X129256300Y-122209149D01*
X129480104Y-122313035D01*
X129489943Y-122315764D01*
X129489944Y-122315764D01*
X129546217Y-122331370D01*
X129632974Y-122375100D01*
X129696393Y-122448701D01*
X129726818Y-122540969D01*
X129719618Y-122637857D01*
X129675888Y-122724614D01*
X129644193Y-122757961D01*
X129639377Y-122761566D01*
X129467376Y-122933565D01*
X129321605Y-123128292D01*
X129205029Y-123341782D01*
X129201924Y-123350106D01*
X129201922Y-123350111D01*
X129131476Y-123538987D01*
X129120024Y-123569690D01*
X129068318Y-123807375D01*
X129067684Y-123816240D01*
X129067683Y-123816247D01*
X129053557Y-124013763D01*
X129052165Y-124027474D01*
X129052162Y-124027731D01*
X129050203Y-124042611D01*
X129050986Y-124049705D01*
X129050965Y-124050000D01*
X129051019Y-124050000D01*
X129053392Y-124071496D01*
X129053392Y-124071498D01*
X129053805Y-124075236D01*
X129055309Y-124102559D01*
X129055309Y-128444417D01*
X129053178Y-128476923D01*
X129050203Y-128499517D01*
X129051742Y-128513455D01*
X129048872Y-128547872D01*
X129046949Y-128560109D01*
X129023247Y-128633673D01*
X129016608Y-128646823D01*
X128971495Y-128709569D01*
X128961145Y-128720049D01*
X128898945Y-128765953D01*
X128885875Y-128772756D01*
X128812606Y-128797369D01*
X128806084Y-128798477D01*
X128798086Y-128799835D01*
X128720811Y-128800796D01*
X128714155Y-128799835D01*
X128706214Y-128798688D01*
X128680938Y-128792638D01*
X128676081Y-128790410D01*
X128676079Y-128790410D01*
X128676071Y-128790406D01*
X128659272Y-128787188D01*
X128659270Y-128787187D01*
X128648287Y-128785083D01*
X128619340Y-128777713D01*
X127147752Y-128307413D01*
X127142988Y-128305837D01*
X125635737Y-127790441D01*
X125631006Y-127788770D01*
X124764077Y-127472679D01*
X124134394Y-127243090D01*
X124129771Y-127241352D01*
X122991697Y-126800219D01*
X122644454Y-126665623D01*
X122639794Y-126663763D01*
X121612991Y-126241770D01*
X121166361Y-126058215D01*
X121161779Y-126056277D01*
X119700855Y-125421165D01*
X119696290Y-125419125D01*
X118248520Y-124754732D01*
X118243981Y-124752593D01*
X117296703Y-124294552D01*
X123469612Y-124294552D01*
X123487798Y-124467581D01*
X123492284Y-124480758D01*
X123492285Y-124480763D01*
X123511137Y-124536139D01*
X123543867Y-124632281D01*
X123554460Y-124649499D01*
X123627736Y-124768610D01*
X123627739Y-124768613D01*
X123635031Y-124780467D01*
X123671588Y-124817798D01*
X123737358Y-124884959D01*
X123756760Y-124904772D01*
X123903004Y-124999020D01*
X123916082Y-125003780D01*
X123916084Y-125003781D01*
X123928701Y-125008373D01*
X124066493Y-125058525D01*
X124080296Y-125060269D01*
X124080297Y-125060269D01*
X124193103Y-125074520D01*
X124193108Y-125074520D01*
X124200863Y-125075500D01*
X124293746Y-125075500D01*
X124300662Y-125074724D01*
X124300666Y-125074724D01*
X124375283Y-125066354D01*
X124422898Y-125061013D01*
X124436043Y-125056435D01*
X124436045Y-125056435D01*
X124491435Y-125037146D01*
X124587203Y-125003796D01*
X124709474Y-124927393D01*
X124722946Y-124918975D01*
X124722948Y-124918973D01*
X124734748Y-124911600D01*
X124744624Y-124901793D01*
X124848323Y-124798816D01*
X124848326Y-124798812D01*
X124858201Y-124789006D01*
X124881310Y-124752593D01*
X124943969Y-124653857D01*
X124943969Y-124653856D01*
X124951425Y-124642108D01*
X124965724Y-124601954D01*
X125005116Y-124491328D01*
X125005116Y-124491326D01*
X125009788Y-124478207D01*
X125030388Y-124305448D01*
X125012202Y-124132419D01*
X125007716Y-124119242D01*
X125007715Y-124119237D01*
X124960620Y-123980900D01*
X124956133Y-123967719D01*
X124920127Y-123909191D01*
X124872264Y-123831390D01*
X124872261Y-123831387D01*
X124864969Y-123819533D01*
X124743240Y-123695228D01*
X124731539Y-123687687D01*
X124731535Y-123687684D01*
X124609072Y-123608762D01*
X124539243Y-123541212D01*
X124500580Y-123452081D01*
X124498970Y-123354939D01*
X124534656Y-123264576D01*
X124602206Y-123194747D01*
X124612007Y-123188297D01*
X124722946Y-123118975D01*
X124722948Y-123118973D01*
X124734748Y-123111600D01*
X124828989Y-123018015D01*
X124848323Y-122998816D01*
X124848326Y-122998812D01*
X124858201Y-122989006D01*
X124888872Y-122940677D01*
X124943969Y-122853857D01*
X124943969Y-122853856D01*
X124951425Y-122842108D01*
X124977868Y-122767850D01*
X125005116Y-122691328D01*
X125005116Y-122691326D01*
X125009788Y-122678207D01*
X125030388Y-122505448D01*
X125028762Y-122489971D01*
X125020328Y-122409737D01*
X125012202Y-122332419D01*
X125007716Y-122319242D01*
X125007715Y-122319237D01*
X124967211Y-122200259D01*
X124956133Y-122167719D01*
X124911305Y-122094851D01*
X124872264Y-122031390D01*
X124872261Y-122031387D01*
X124864969Y-122019533D01*
X124762841Y-121915244D01*
X124752981Y-121905175D01*
X124752980Y-121905174D01*
X124743240Y-121895228D01*
X124596996Y-121800980D01*
X124583918Y-121796220D01*
X124583916Y-121796219D01*
X124532231Y-121777408D01*
X124433507Y-121741475D01*
X124419704Y-121739731D01*
X124419703Y-121739731D01*
X124306897Y-121725480D01*
X124306892Y-121725480D01*
X124299137Y-121724500D01*
X124206254Y-121724500D01*
X124199338Y-121725276D01*
X124199334Y-121725276D01*
X124128604Y-121733210D01*
X124077102Y-121738987D01*
X124063957Y-121743565D01*
X124063955Y-121743565D01*
X124056291Y-121746234D01*
X123912797Y-121796204D01*
X123850025Y-121835428D01*
X123777054Y-121881025D01*
X123777052Y-121881027D01*
X123765252Y-121888400D01*
X123755377Y-121898206D01*
X123755376Y-121898207D01*
X123651677Y-122001184D01*
X123651674Y-122001188D01*
X123641799Y-122010994D01*
X123634342Y-122022745D01*
X123634340Y-122022747D01*
X123591079Y-122090916D01*
X123548575Y-122157892D01*
X123543907Y-122171000D01*
X123543906Y-122171003D01*
X123500598Y-122292625D01*
X123490212Y-122321793D01*
X123469612Y-122494552D01*
X123471067Y-122508396D01*
X123471067Y-122508398D01*
X123477448Y-122569107D01*
X123487798Y-122667581D01*
X123492284Y-122680758D01*
X123492285Y-122680763D01*
X123519791Y-122761559D01*
X123543867Y-122832281D01*
X123579873Y-122890809D01*
X123627736Y-122968610D01*
X123627739Y-122968613D01*
X123635031Y-122980467D01*
X123756760Y-123104772D01*
X123768461Y-123112313D01*
X123768465Y-123112316D01*
X123890928Y-123191238D01*
X123960757Y-123258788D01*
X123999420Y-123347919D01*
X124001030Y-123445061D01*
X123965344Y-123535424D01*
X123897794Y-123605253D01*
X123887993Y-123611703D01*
X123777054Y-123681025D01*
X123777052Y-123681027D01*
X123765252Y-123688400D01*
X123755377Y-123698206D01*
X123755376Y-123698207D01*
X123651677Y-123801184D01*
X123651674Y-123801188D01*
X123641799Y-123810994D01*
X123634342Y-123822745D01*
X123634340Y-123822747D01*
X123601838Y-123873963D01*
X123548575Y-123957892D01*
X123543907Y-123971000D01*
X123543906Y-123971003D01*
X123494884Y-124108672D01*
X123490212Y-124121793D01*
X123469612Y-124294552D01*
X117296703Y-124294552D01*
X116990032Y-124146266D01*
X116809886Y-124059159D01*
X116805448Y-124056959D01*
X115679412Y-123484206D01*
X115385520Y-123334719D01*
X115381071Y-123332399D01*
X113976068Y-122581739D01*
X113971667Y-122579330D01*
X113284998Y-122194476D01*
X112582056Y-121800501D01*
X112577774Y-121798044D01*
X111204090Y-120991344D01*
X111199797Y-120988764D01*
X110901162Y-120805198D01*
X109892123Y-120184959D01*
X109863619Y-120164539D01*
X109849573Y-120152897D01*
X109849558Y-120152890D01*
X109849545Y-120152879D01*
X109835464Y-120146056D01*
X109829303Y-120142048D01*
X109807080Y-120125773D01*
X109806728Y-120125484D01*
X109763680Y-120079936D01*
X109756494Y-120070101D01*
X109726173Y-120015223D01*
X109721672Y-120003906D01*
X109706020Y-119943191D01*
X109705764Y-119941171D01*
X109704349Y-119916706D01*
X109705605Y-119907168D01*
X109702002Y-119874511D01*
X109700500Y-119847205D01*
X109700500Y-119118481D01*
X115399500Y-119118481D01*
X115399501Y-120181518D01*
X115414354Y-120275304D01*
X115442506Y-120330555D01*
X115459172Y-120363263D01*
X115471950Y-120388342D01*
X115561658Y-120478050D01*
X115674696Y-120535646D01*
X115694052Y-120538712D01*
X115694053Y-120538712D01*
X115714007Y-120541872D01*
X115768481Y-120550500D01*
X116299864Y-120550500D01*
X116831518Y-120550499D01*
X116925304Y-120535646D01*
X117015305Y-120489788D01*
X117108812Y-120463416D01*
X117205294Y-120474835D01*
X117229618Y-120484172D01*
X117290197Y-120511144D01*
X117475354Y-120550500D01*
X117664646Y-120550500D01*
X117849803Y-120511144D01*
X117957001Y-120463416D01*
X118010807Y-120439460D01*
X118010811Y-120439458D01*
X118022730Y-120434151D01*
X118033286Y-120426482D01*
X118033291Y-120426479D01*
X118059068Y-120407751D01*
X118147299Y-120367076D01*
X118244379Y-120363263D01*
X118335529Y-120396890D01*
X118351782Y-120407751D01*
X118376955Y-120426040D01*
X118399447Y-120439026D01*
X118548432Y-120505357D01*
X118566012Y-120511070D01*
X118582866Y-120511291D01*
X118585870Y-120504299D01*
X118586000Y-120503065D01*
X118586000Y-119645000D01*
X118604954Y-119549712D01*
X118658930Y-119468930D01*
X118739712Y-119414954D01*
X118835000Y-119396000D01*
X118845000Y-119396000D01*
X118940288Y-119414954D01*
X119021070Y-119468930D01*
X119075046Y-119549712D01*
X119094000Y-119645000D01*
X119094000Y-120491590D01*
X119098069Y-120512048D01*
X119105535Y-120513533D01*
X119106765Y-120513403D01*
X119106885Y-120513378D01*
X119131568Y-120505357D01*
X119280553Y-120439026D01*
X119303045Y-120426040D01*
X119328218Y-120407751D01*
X119416449Y-120367076D01*
X119513529Y-120363263D01*
X119604679Y-120396891D01*
X119620932Y-120407751D01*
X119646709Y-120426479D01*
X119646714Y-120426482D01*
X119657270Y-120434151D01*
X119669189Y-120439458D01*
X119669193Y-120439460D01*
X119722999Y-120463416D01*
X119830197Y-120511144D01*
X120015354Y-120550500D01*
X120204646Y-120550500D01*
X120389803Y-120511144D01*
X120497001Y-120463416D01*
X120550807Y-120439460D01*
X120550811Y-120439458D01*
X120562730Y-120434151D01*
X120573282Y-120426485D01*
X120573290Y-120426480D01*
X120598644Y-120408059D01*
X120686875Y-120367385D01*
X120783955Y-120363572D01*
X120875104Y-120397200D01*
X120891356Y-120408059D01*
X120916710Y-120426480D01*
X120916718Y-120426485D01*
X120927270Y-120434151D01*
X120939189Y-120439458D01*
X120939193Y-120439460D01*
X120992999Y-120463416D01*
X121100197Y-120511144D01*
X121285354Y-120550500D01*
X121474646Y-120550500D01*
X121659803Y-120511144D01*
X121767001Y-120463416D01*
X121820807Y-120439460D01*
X121820811Y-120439458D01*
X121832730Y-120434151D01*
X121843282Y-120426485D01*
X121843290Y-120426480D01*
X121868644Y-120408059D01*
X121956875Y-120367385D01*
X122053955Y-120363572D01*
X122145104Y-120397200D01*
X122161356Y-120408059D01*
X122186710Y-120426480D01*
X122186718Y-120426485D01*
X122197270Y-120434151D01*
X122209189Y-120439458D01*
X122209193Y-120439460D01*
X122262999Y-120463416D01*
X122370197Y-120511144D01*
X122555354Y-120550500D01*
X122744646Y-120550500D01*
X122929803Y-120511144D01*
X123037001Y-120463416D01*
X123090807Y-120439460D01*
X123090811Y-120439458D01*
X123102730Y-120434151D01*
X123113282Y-120426485D01*
X123113290Y-120426480D01*
X123138644Y-120408059D01*
X123226875Y-120367385D01*
X123323955Y-120363572D01*
X123415104Y-120397200D01*
X123431356Y-120408059D01*
X123456710Y-120426480D01*
X123456718Y-120426485D01*
X123467270Y-120434151D01*
X123479189Y-120439458D01*
X123479193Y-120439460D01*
X123532999Y-120463416D01*
X123640197Y-120511144D01*
X123825354Y-120550500D01*
X124014646Y-120550500D01*
X124199803Y-120511144D01*
X124307001Y-120463416D01*
X124360807Y-120439460D01*
X124360811Y-120439458D01*
X124372730Y-120434151D01*
X124383282Y-120426485D01*
X124383290Y-120426480D01*
X124408644Y-120408059D01*
X124496875Y-120367385D01*
X124593955Y-120363572D01*
X124685104Y-120397200D01*
X124701356Y-120408059D01*
X124726710Y-120426480D01*
X124726718Y-120426485D01*
X124737270Y-120434151D01*
X124749189Y-120439458D01*
X124749193Y-120439460D01*
X124802999Y-120463416D01*
X124910197Y-120511144D01*
X125095354Y-120550500D01*
X125284646Y-120550500D01*
X125469803Y-120511144D01*
X125577001Y-120463416D01*
X125630807Y-120439460D01*
X125630811Y-120439458D01*
X125642730Y-120434151D01*
X125653286Y-120426482D01*
X125785319Y-120330555D01*
X125785322Y-120330552D01*
X125795871Y-120322888D01*
X125823293Y-120292433D01*
X125913799Y-120191917D01*
X125913803Y-120191912D01*
X125922533Y-120182216D01*
X126017179Y-120018284D01*
X126066570Y-119866276D01*
X126071642Y-119850666D01*
X126071643Y-119850664D01*
X126075674Y-119838256D01*
X126095460Y-119650000D01*
X126075674Y-119461744D01*
X126017179Y-119281716D01*
X125922533Y-119117784D01*
X125913803Y-119108088D01*
X125913799Y-119108083D01*
X125804599Y-118986805D01*
X125804597Y-118986803D01*
X125795871Y-118977112D01*
X125785322Y-118969448D01*
X125785319Y-118969445D01*
X125653286Y-118873518D01*
X125653284Y-118873517D01*
X125642730Y-118865849D01*
X125630811Y-118860542D01*
X125630807Y-118860540D01*
X125530373Y-118815824D01*
X125469803Y-118788856D01*
X125284646Y-118749500D01*
X125095354Y-118749500D01*
X124910197Y-118788856D01*
X124849627Y-118815824D01*
X124749193Y-118860540D01*
X124749189Y-118860542D01*
X124737270Y-118865849D01*
X124726718Y-118873515D01*
X124726710Y-118873520D01*
X124701356Y-118891941D01*
X124613125Y-118932615D01*
X124516045Y-118936428D01*
X124424896Y-118902800D01*
X124408644Y-118891941D01*
X124383290Y-118873520D01*
X124383282Y-118873515D01*
X124372730Y-118865849D01*
X124360811Y-118860542D01*
X124360807Y-118860540D01*
X124260373Y-118815824D01*
X124199803Y-118788856D01*
X124014646Y-118749500D01*
X123865809Y-118749500D01*
X123770521Y-118730546D01*
X123689739Y-118676570D01*
X121698430Y-116685261D01*
X121644454Y-116604479D01*
X121625500Y-116509191D01*
X121625500Y-112294552D01*
X134269612Y-112294552D01*
X134287798Y-112467581D01*
X134292284Y-112480758D01*
X134292285Y-112480763D01*
X134295882Y-112491328D01*
X134343867Y-112632281D01*
X134351163Y-112644140D01*
X134427736Y-112768610D01*
X134427739Y-112768613D01*
X134435031Y-112780467D01*
X134556760Y-112904772D01*
X134703004Y-112999020D01*
X134716082Y-113003780D01*
X134716084Y-113003781D01*
X134728701Y-113008373D01*
X134866493Y-113058525D01*
X134880296Y-113060269D01*
X134880297Y-113060269D01*
X134993103Y-113074520D01*
X134993108Y-113074520D01*
X135000863Y-113075500D01*
X135093746Y-113075500D01*
X135100662Y-113074724D01*
X135100666Y-113074724D01*
X135175283Y-113066354D01*
X135222898Y-113061013D01*
X135236043Y-113056435D01*
X135236045Y-113056435D01*
X135279948Y-113041146D01*
X135387203Y-113003796D01*
X135471135Y-112951349D01*
X135522946Y-112918975D01*
X135522948Y-112918973D01*
X135534748Y-112911600D01*
X135551641Y-112894825D01*
X135648323Y-112798816D01*
X135648326Y-112798812D01*
X135658201Y-112789006D01*
X135693861Y-112732815D01*
X135740246Y-112659724D01*
X135807308Y-112589426D01*
X135896167Y-112550142D01*
X135993295Y-112547853D01*
X136083905Y-112582907D01*
X136154203Y-112649969D01*
X136162564Y-112662673D01*
X136227736Y-112768610D01*
X136227739Y-112768613D01*
X136235031Y-112780467D01*
X136356760Y-112904772D01*
X136503004Y-112999020D01*
X136516082Y-113003780D01*
X136516084Y-113003781D01*
X136528701Y-113008373D01*
X136666493Y-113058525D01*
X136680296Y-113060269D01*
X136680297Y-113060269D01*
X136793103Y-113074520D01*
X136793108Y-113074520D01*
X136800863Y-113075500D01*
X136893746Y-113075500D01*
X136900662Y-113074724D01*
X136900666Y-113074724D01*
X136975283Y-113066354D01*
X137022898Y-113061013D01*
X137036043Y-113056435D01*
X137036045Y-113056435D01*
X137079948Y-113041146D01*
X137187203Y-113003796D01*
X137271135Y-112951349D01*
X137322946Y-112918975D01*
X137322948Y-112918973D01*
X137334748Y-112911600D01*
X137351641Y-112894825D01*
X137448323Y-112798816D01*
X137448326Y-112798812D01*
X137458201Y-112789006D01*
X137501768Y-112720356D01*
X137543969Y-112653857D01*
X137543969Y-112653856D01*
X137551425Y-112642108D01*
X137570185Y-112589426D01*
X137605116Y-112491328D01*
X137605116Y-112491326D01*
X137609788Y-112478207D01*
X137630388Y-112305448D01*
X137612202Y-112132419D01*
X137607716Y-112119242D01*
X137607715Y-112119237D01*
X137560620Y-111980900D01*
X137556133Y-111967719D01*
X137498785Y-111874500D01*
X137472264Y-111831390D01*
X137472261Y-111831387D01*
X137464969Y-111819533D01*
X137343240Y-111695228D01*
X137196996Y-111600980D01*
X137183918Y-111596220D01*
X137183916Y-111596219D01*
X137132231Y-111577408D01*
X137033507Y-111541475D01*
X137019704Y-111539731D01*
X137019703Y-111539731D01*
X136906897Y-111525480D01*
X136906892Y-111525480D01*
X136899137Y-111524500D01*
X136806254Y-111524500D01*
X136799338Y-111525276D01*
X136799334Y-111525276D01*
X136724717Y-111533646D01*
X136677102Y-111538987D01*
X136663957Y-111543565D01*
X136663955Y-111543565D01*
X136656291Y-111546234D01*
X136512797Y-111596204D01*
X136493086Y-111608521D01*
X136377054Y-111681025D01*
X136377052Y-111681027D01*
X136365252Y-111688400D01*
X136355377Y-111698206D01*
X136355376Y-111698207D01*
X136251677Y-111801184D01*
X136251674Y-111801188D01*
X136241799Y-111810994D01*
X136234342Y-111822745D01*
X136234340Y-111822747D01*
X136159754Y-111940276D01*
X136092692Y-112010574D01*
X136003833Y-112049858D01*
X135906705Y-112052147D01*
X135816095Y-112017093D01*
X135745797Y-111950031D01*
X135737436Y-111937327D01*
X135672264Y-111831390D01*
X135672261Y-111831387D01*
X135664969Y-111819533D01*
X135543240Y-111695228D01*
X135396996Y-111600980D01*
X135383918Y-111596220D01*
X135383916Y-111596219D01*
X135332231Y-111577408D01*
X135233507Y-111541475D01*
X135219704Y-111539731D01*
X135219703Y-111539731D01*
X135106897Y-111525480D01*
X135106892Y-111525480D01*
X135099137Y-111524500D01*
X135006254Y-111524500D01*
X134999338Y-111525276D01*
X134999334Y-111525276D01*
X134924717Y-111533646D01*
X134877102Y-111538987D01*
X134863957Y-111543565D01*
X134863955Y-111543565D01*
X134856291Y-111546234D01*
X134712797Y-111596204D01*
X134693086Y-111608521D01*
X134577054Y-111681025D01*
X134577052Y-111681027D01*
X134565252Y-111688400D01*
X134555377Y-111698206D01*
X134555376Y-111698207D01*
X134451677Y-111801184D01*
X134451674Y-111801188D01*
X134441799Y-111810994D01*
X134434342Y-111822745D01*
X134434340Y-111822747D01*
X134401497Y-111874500D01*
X134348575Y-111957892D01*
X134343907Y-111971000D01*
X134343906Y-111971003D01*
X134328422Y-112014487D01*
X134290212Y-112121793D01*
X134269612Y-112294552D01*
X121625500Y-112294552D01*
X121625500Y-111693601D01*
X121644454Y-111598313D01*
X121698430Y-111517531D01*
X123298850Y-109917111D01*
X158044394Y-109917111D01*
X158062999Y-110085635D01*
X158121266Y-110244856D01*
X158215830Y-110385583D01*
X158341233Y-110499691D01*
X158354425Y-110506853D01*
X158354424Y-110506853D01*
X158477047Y-110573432D01*
X158477050Y-110573433D01*
X158490235Y-110580592D01*
X158504747Y-110584399D01*
X158504749Y-110584400D01*
X158532877Y-110591779D01*
X158654233Y-110623616D01*
X158669245Y-110623852D01*
X158669246Y-110623852D01*
X158728097Y-110624776D01*
X158823760Y-110626279D01*
X158889284Y-110611272D01*
X158974400Y-110591779D01*
X158974404Y-110591777D01*
X158989029Y-110588428D01*
X159140498Y-110512247D01*
X159269423Y-110402134D01*
X159368361Y-110264447D01*
X159431601Y-110107134D01*
X159455490Y-109939278D01*
X159455645Y-109924500D01*
X159435276Y-109756180D01*
X159375345Y-109597577D01*
X159366845Y-109585209D01*
X159366841Y-109585202D01*
X159319293Y-109516020D01*
X159280941Y-109426755D01*
X159275500Y-109374985D01*
X159275500Y-108149362D01*
X159294454Y-108054074D01*
X159322291Y-108004060D01*
X159359604Y-107952134D01*
X159359605Y-107952133D01*
X159368361Y-107939947D01*
X159373959Y-107926022D01*
X159426001Y-107796565D01*
X159426002Y-107796563D01*
X159431601Y-107782634D01*
X159434059Y-107765368D01*
X159454341Y-107622851D01*
X159455490Y-107614778D01*
X159455645Y-107600000D01*
X159440877Y-107477963D01*
X159437079Y-107446576D01*
X159437078Y-107446573D01*
X159435276Y-107431680D01*
X159375345Y-107273077D01*
X159279312Y-107133349D01*
X159268110Y-107123369D01*
X159268108Y-107123366D01*
X159181512Y-107046212D01*
X159152721Y-107020560D01*
X159131815Y-107009491D01*
X159016144Y-106948246D01*
X159016141Y-106948245D01*
X159002881Y-106941224D01*
X158983362Y-106936321D01*
X158852997Y-106903575D01*
X158852995Y-106903575D01*
X158838441Y-106899919D01*
X158823438Y-106899840D01*
X158823435Y-106899840D01*
X158750861Y-106899460D01*
X158668895Y-106899031D01*
X158504032Y-106938612D01*
X158490699Y-106945494D01*
X158490698Y-106945494D01*
X158366706Y-107009491D01*
X158366704Y-107009492D01*
X158353369Y-107016375D01*
X158342059Y-107026241D01*
X158342058Y-107026242D01*
X158257493Y-107100013D01*
X158225604Y-107127831D01*
X158216970Y-107140116D01*
X158216969Y-107140117D01*
X158178418Y-107194970D01*
X158128113Y-107266547D01*
X158120093Y-107287117D01*
X158071976Y-107410528D01*
X158071975Y-107410532D01*
X158066524Y-107424513D01*
X158044394Y-107592611D01*
X158062999Y-107761135D01*
X158121266Y-107920356D01*
X158182175Y-108010999D01*
X158219588Y-108100658D01*
X158224500Y-108149874D01*
X158224500Y-109375154D01*
X158205546Y-109470442D01*
X158179223Y-109518325D01*
X158128113Y-109591047D01*
X158122659Y-109605036D01*
X158071976Y-109735028D01*
X158071975Y-109735032D01*
X158066524Y-109749013D01*
X158044394Y-109917111D01*
X123298850Y-109917111D01*
X124173350Y-109042611D01*
X142394394Y-109042611D01*
X142412999Y-109211135D01*
X142471266Y-109370356D01*
X142565830Y-109511083D01*
X142691233Y-109625191D01*
X142704425Y-109632353D01*
X142704424Y-109632353D01*
X142827047Y-109698932D01*
X142827050Y-109698933D01*
X142840235Y-109706092D01*
X142854747Y-109709899D01*
X142854749Y-109709900D01*
X142882877Y-109717279D01*
X143004233Y-109749116D01*
X143019245Y-109749352D01*
X143019246Y-109749352D01*
X143078097Y-109750276D01*
X143173760Y-109751779D01*
X143339029Y-109713928D01*
X143339830Y-109713525D01*
X143414460Y-109700500D01*
X148586800Y-109700500D01*
X148649985Y-109708650D01*
X148804233Y-109749116D01*
X148819245Y-109749352D01*
X148819246Y-109749352D01*
X148878097Y-109750276D01*
X148973760Y-109751779D01*
X149046900Y-109735028D01*
X149124400Y-109717279D01*
X149124404Y-109717277D01*
X149139029Y-109713928D01*
X149290498Y-109637747D01*
X149419423Y-109527634D01*
X149518361Y-109389947D01*
X149524376Y-109374985D01*
X149576001Y-109246565D01*
X149576002Y-109246563D01*
X149581601Y-109232634D01*
X149605490Y-109064778D01*
X149605645Y-109050000D01*
X149585276Y-108881680D01*
X149525345Y-108723077D01*
X149429312Y-108583349D01*
X149418110Y-108573369D01*
X149418108Y-108573366D01*
X149315957Y-108482353D01*
X149302721Y-108470560D01*
X149264043Y-108450081D01*
X149166144Y-108398246D01*
X149166141Y-108398245D01*
X149152881Y-108391224D01*
X149133362Y-108386321D01*
X149002997Y-108353575D01*
X149002995Y-108353575D01*
X148988441Y-108349919D01*
X148973438Y-108349840D01*
X148973435Y-108349840D01*
X148900861Y-108349460D01*
X148818895Y-108349031D01*
X148654032Y-108388612D01*
X148653684Y-108387164D01*
X148585126Y-108399500D01*
X143415558Y-108399500D01*
X143353683Y-108388031D01*
X143352881Y-108391224D01*
X143202997Y-108353575D01*
X143202995Y-108353575D01*
X143188441Y-108349919D01*
X143173438Y-108349840D01*
X143173435Y-108349840D01*
X143100861Y-108349460D01*
X143018895Y-108349031D01*
X142854032Y-108388612D01*
X142840699Y-108395494D01*
X142840698Y-108395494D01*
X142716706Y-108459491D01*
X142716704Y-108459492D01*
X142703369Y-108466375D01*
X142692059Y-108476241D01*
X142692058Y-108476242D01*
X142608732Y-108548932D01*
X142575604Y-108577831D01*
X142566970Y-108590116D01*
X142566969Y-108590117D01*
X142560479Y-108599352D01*
X142478113Y-108716547D01*
X142472659Y-108730536D01*
X142421976Y-108860528D01*
X142421975Y-108860532D01*
X142416524Y-108874513D01*
X142394394Y-109042611D01*
X124173350Y-109042611D01*
X129217531Y-103998430D01*
X129298313Y-103944454D01*
X129393601Y-103925500D01*
X156453419Y-103925500D01*
X156548707Y-103944454D01*
X156629489Y-103998430D01*
X156683465Y-104079212D01*
X156700915Y-104147177D01*
X156711848Y-104246212D01*
X156711849Y-104246216D01*
X156713496Y-104261135D01*
X156761184Y-104391448D01*
X156771763Y-104420356D01*
X156768383Y-104421593D01*
X156787272Y-104488590D01*
X156775844Y-104585071D01*
X156728365Y-104669834D01*
X156715108Y-104684175D01*
X155097713Y-106301570D01*
X155016931Y-106355546D01*
X154921643Y-106374500D01*
X153355202Y-106374500D01*
X153259914Y-106355546D01*
X153213569Y-106330225D01*
X153202721Y-106320560D01*
X153166855Y-106301570D01*
X153066144Y-106248246D01*
X153066141Y-106248245D01*
X153052881Y-106241224D01*
X153033362Y-106236321D01*
X152902997Y-106203575D01*
X152902995Y-106203575D01*
X152888441Y-106199919D01*
X152873438Y-106199840D01*
X152873435Y-106199840D01*
X152800861Y-106199460D01*
X152718895Y-106199031D01*
X152554032Y-106238612D01*
X152540699Y-106245494D01*
X152540698Y-106245494D01*
X152416706Y-106309491D01*
X152416704Y-106309492D01*
X152403369Y-106316375D01*
X152392059Y-106326241D01*
X152392058Y-106326242D01*
X152338093Y-106373319D01*
X152275604Y-106427831D01*
X152178113Y-106566547D01*
X152172659Y-106580536D01*
X152121976Y-106710528D01*
X152121975Y-106710532D01*
X152116524Y-106724513D01*
X152094394Y-106892611D01*
X152112999Y-107061135D01*
X152171266Y-107220356D01*
X152265830Y-107361083D01*
X152391233Y-107475191D01*
X152404425Y-107482353D01*
X152404424Y-107482353D01*
X152527047Y-107548932D01*
X152527050Y-107548933D01*
X152540235Y-107556092D01*
X152617897Y-107576466D01*
X152636608Y-107581375D01*
X152723968Y-107623889D01*
X152788408Y-107696597D01*
X152812556Y-107757125D01*
X152812999Y-107761135D01*
X152871266Y-107920356D01*
X152965830Y-108061083D01*
X153091233Y-108175191D01*
X153104425Y-108182353D01*
X153104424Y-108182353D01*
X153227047Y-108248932D01*
X153227050Y-108248933D01*
X153240235Y-108256092D01*
X153254747Y-108259899D01*
X153254749Y-108259900D01*
X153308813Y-108274083D01*
X153404233Y-108299116D01*
X153419245Y-108299352D01*
X153419246Y-108299352D01*
X153478097Y-108300276D01*
X153573760Y-108301779D01*
X153639284Y-108286772D01*
X153724400Y-108267279D01*
X153724404Y-108267277D01*
X153739029Y-108263928D01*
X153785030Y-108240792D01*
X153877080Y-108194496D01*
X153877083Y-108194494D01*
X153890498Y-108187747D01*
X153901916Y-108177995D01*
X153914419Y-108169688D01*
X153916245Y-108172437D01*
X153978296Y-108137687D01*
X154055241Y-108125500D01*
X155682967Y-108125500D01*
X155693395Y-108125718D01*
X155749919Y-108128087D01*
X155784455Y-108119987D01*
X155807514Y-108115713D01*
X155842646Y-108110901D01*
X155858232Y-108104157D01*
X155866020Y-108101982D01*
X155873561Y-108099088D01*
X155890093Y-108095210D01*
X155921172Y-108078124D01*
X155942234Y-108067806D01*
X155959209Y-108060460D01*
X155959211Y-108060459D01*
X155974783Y-108053720D01*
X155987972Y-108043041D01*
X155997026Y-108037557D01*
X156004830Y-108032133D01*
X156016263Y-108025847D01*
X156024005Y-108019164D01*
X156042660Y-108000509D01*
X156062030Y-107983069D01*
X156073481Y-107973797D01*
X156073484Y-107973794D01*
X156086675Y-107963112D01*
X156096509Y-107949274D01*
X156107266Y-107937819D01*
X156117713Y-107925456D01*
X158559547Y-105483622D01*
X158567075Y-105476403D01*
X158596217Y-105449606D01*
X158596218Y-105449605D01*
X158608712Y-105438116D01*
X158627407Y-105407964D01*
X158640681Y-105388651D01*
X158662128Y-105360396D01*
X158668378Y-105344610D01*
X158672345Y-105337569D01*
X158675635Y-105330181D01*
X158684582Y-105315750D01*
X158689319Y-105299446D01*
X158694477Y-105281693D01*
X158702075Y-105259499D01*
X158708880Y-105242312D01*
X158708881Y-105242307D01*
X158715129Y-105226527D01*
X158716903Y-105209647D01*
X158719430Y-105199360D01*
X158721111Y-105190017D01*
X158724751Y-105177488D01*
X158725500Y-105167288D01*
X158725500Y-105140914D01*
X158726864Y-105114884D01*
X158728406Y-105100217D01*
X158728406Y-105100216D01*
X158730180Y-105083338D01*
X158727349Y-105066603D01*
X158726856Y-105050908D01*
X158725500Y-105034758D01*
X158725500Y-104649362D01*
X158744454Y-104554074D01*
X158772292Y-104504059D01*
X158805555Y-104457769D01*
X158876552Y-104391448D01*
X158967525Y-104357345D01*
X159064623Y-104360651D01*
X159153066Y-104400864D01*
X159183833Y-104427002D01*
X159316378Y-104559547D01*
X159323596Y-104567074D01*
X159361884Y-104608712D01*
X159392036Y-104627407D01*
X159411349Y-104640681D01*
X159439604Y-104662128D01*
X159455386Y-104668377D01*
X159462432Y-104672347D01*
X159469826Y-104675639D01*
X159484250Y-104684582D01*
X159500547Y-104689316D01*
X159500548Y-104689317D01*
X159518307Y-104694476D01*
X159540499Y-104702074D01*
X159573473Y-104715130D01*
X159590353Y-104716904D01*
X159600625Y-104719427D01*
X159609982Y-104721110D01*
X159622512Y-104724751D01*
X159632712Y-104725500D01*
X159659085Y-104725500D01*
X159685113Y-104726864D01*
X159699781Y-104728406D01*
X159699783Y-104728406D01*
X159716662Y-104730180D01*
X159733397Y-104727349D01*
X159749092Y-104726856D01*
X159765242Y-104725500D01*
X165119957Y-104725500D01*
X165215245Y-104744454D01*
X165259134Y-104768732D01*
X165266233Y-104775191D01*
X165343827Y-104817321D01*
X165402047Y-104848932D01*
X165402050Y-104848933D01*
X165415235Y-104856092D01*
X165429747Y-104859899D01*
X165429749Y-104859900D01*
X165579233Y-104899116D01*
X165578646Y-104901352D01*
X165650618Y-104926201D01*
X165723329Y-104990638D01*
X165765847Y-105077995D01*
X165774000Y-105141192D01*
X165774000Y-106334876D01*
X165755046Y-106430164D01*
X165701070Y-106510946D01*
X165620288Y-106564922D01*
X165583132Y-106576995D01*
X165428532Y-106614112D01*
X165415199Y-106620994D01*
X165415198Y-106620994D01*
X165291206Y-106684991D01*
X165291204Y-106684992D01*
X165277869Y-106691875D01*
X165266559Y-106701741D01*
X165266558Y-106701742D01*
X165223396Y-106739395D01*
X165150104Y-106803331D01*
X165052613Y-106942047D01*
X165047159Y-106956036D01*
X164996476Y-107086028D01*
X164996475Y-107086032D01*
X164991024Y-107100013D01*
X164968894Y-107268111D01*
X164987499Y-107436635D01*
X165045766Y-107595856D01*
X165106675Y-107686499D01*
X165144088Y-107776158D01*
X165149000Y-107825374D01*
X165149000Y-108904691D01*
X165130046Y-108999979D01*
X165076070Y-109080761D01*
X162355261Y-111801570D01*
X162274479Y-111855546D01*
X162179191Y-111874500D01*
X146955202Y-111874500D01*
X146859914Y-111855546D01*
X146813569Y-111830225D01*
X146802721Y-111820560D01*
X146766126Y-111801184D01*
X146666144Y-111748246D01*
X146666141Y-111748245D01*
X146652881Y-111741224D01*
X146633362Y-111736321D01*
X146502997Y-111703575D01*
X146502995Y-111703575D01*
X146488441Y-111699919D01*
X146473438Y-111699840D01*
X146473435Y-111699840D01*
X146400861Y-111699460D01*
X146318895Y-111699031D01*
X146154032Y-111738612D01*
X146140699Y-111745494D01*
X146140698Y-111745494D01*
X146016706Y-111809491D01*
X146016704Y-111809492D01*
X146003369Y-111816375D01*
X145875604Y-111927831D01*
X145866970Y-111940116D01*
X145866969Y-111940117D01*
X145826859Y-111997189D01*
X145778113Y-112066547D01*
X145772659Y-112080536D01*
X145721976Y-112210528D01*
X145721975Y-112210532D01*
X145716524Y-112224513D01*
X145694394Y-112392611D01*
X145712999Y-112561135D01*
X145771266Y-112720356D01*
X145865830Y-112861083D01*
X145991233Y-112975191D01*
X146004425Y-112982353D01*
X146004424Y-112982353D01*
X146127047Y-113048932D01*
X146127050Y-113048933D01*
X146140235Y-113056092D01*
X146154747Y-113059899D01*
X146154749Y-113059900D01*
X146182877Y-113067279D01*
X146304233Y-113099116D01*
X146319245Y-113099352D01*
X146319246Y-113099352D01*
X146378097Y-113100276D01*
X146473760Y-113101779D01*
X146539284Y-113086772D01*
X146624400Y-113067279D01*
X146624404Y-113067277D01*
X146639029Y-113063928D01*
X146749488Y-113008373D01*
X146777080Y-112994496D01*
X146777083Y-112994494D01*
X146790498Y-112987747D01*
X146801916Y-112977995D01*
X146814419Y-112969688D01*
X146816245Y-112972437D01*
X146878296Y-112937687D01*
X146955241Y-112925500D01*
X153058442Y-112925500D01*
X153153730Y-112944454D01*
X153234512Y-112998430D01*
X153288488Y-113079212D01*
X153305938Y-113147177D01*
X153311351Y-113196212D01*
X153311352Y-113196216D01*
X153312999Y-113211135D01*
X153371266Y-113370356D01*
X153465830Y-113511083D01*
X153591233Y-113625191D01*
X153604425Y-113632353D01*
X153604424Y-113632353D01*
X153727047Y-113698932D01*
X153727050Y-113698933D01*
X153740235Y-113706092D01*
X153754747Y-113709899D01*
X153754749Y-113709900D01*
X153782877Y-113717279D01*
X153904233Y-113749116D01*
X153919245Y-113749352D01*
X153919246Y-113749352D01*
X153978097Y-113750276D01*
X154073760Y-113751779D01*
X154139284Y-113736772D01*
X154224400Y-113717279D01*
X154224404Y-113717277D01*
X154239029Y-113713928D01*
X154390498Y-113637747D01*
X154519423Y-113527634D01*
X154528184Y-113515443D01*
X154536906Y-113505957D01*
X154615357Y-113448646D01*
X154709768Y-113425718D01*
X154720194Y-113425500D01*
X162657967Y-113425500D01*
X162668395Y-113425718D01*
X162724919Y-113428087D01*
X162759455Y-113419987D01*
X162782514Y-113415713D01*
X162817646Y-113410901D01*
X162833232Y-113404157D01*
X162841020Y-113401982D01*
X162848561Y-113399088D01*
X162865093Y-113395210D01*
X162896172Y-113378124D01*
X162917234Y-113367806D01*
X162934209Y-113360460D01*
X162934211Y-113360459D01*
X162949783Y-113353720D01*
X162962972Y-113343041D01*
X162972026Y-113337557D01*
X162979830Y-113332133D01*
X162991263Y-113325847D01*
X162999005Y-113319164D01*
X163017660Y-113300509D01*
X163037030Y-113283069D01*
X163048481Y-113273797D01*
X163048484Y-113273794D01*
X163061675Y-113263112D01*
X163071509Y-113249274D01*
X163082266Y-113237819D01*
X163092713Y-113225456D01*
X166659047Y-109659122D01*
X166666575Y-109651903D01*
X166695719Y-109625104D01*
X166695719Y-109625103D01*
X166708212Y-109613616D01*
X166717158Y-109599188D01*
X166726905Y-109583468D01*
X166740190Y-109564138D01*
X166751364Y-109549417D01*
X166751364Y-109549416D01*
X166761627Y-109535896D01*
X166767876Y-109520113D01*
X166771847Y-109513065D01*
X166775136Y-109505679D01*
X166784082Y-109491250D01*
X166793977Y-109457193D01*
X166801573Y-109435005D01*
X166808382Y-109417807D01*
X166808382Y-109417806D01*
X166814629Y-109402028D01*
X166816403Y-109385149D01*
X166818928Y-109374869D01*
X166820610Y-109365520D01*
X166824251Y-109352988D01*
X166825000Y-109342788D01*
X166825000Y-109316406D01*
X166826364Y-109290378D01*
X166827905Y-109275719D01*
X166827905Y-109275717D01*
X166829679Y-109258838D01*
X166826849Y-109242104D01*
X166826355Y-109226396D01*
X166825000Y-109210265D01*
X166825000Y-107892611D01*
X167694394Y-107892611D01*
X167712999Y-108061135D01*
X167771266Y-108220356D01*
X167865830Y-108361083D01*
X167991233Y-108475191D01*
X168004425Y-108482353D01*
X168004424Y-108482353D01*
X168127047Y-108548932D01*
X168127050Y-108548933D01*
X168140235Y-108556092D01*
X168154747Y-108559899D01*
X168154749Y-108559900D01*
X168206080Y-108573366D01*
X168304233Y-108599116D01*
X168319245Y-108599352D01*
X168319246Y-108599352D01*
X168378097Y-108600276D01*
X168473760Y-108601779D01*
X168554231Y-108583349D01*
X168624400Y-108567279D01*
X168624404Y-108567277D01*
X168639029Y-108563928D01*
X168668845Y-108548932D01*
X168777080Y-108494496D01*
X168777083Y-108494494D01*
X168790498Y-108487747D01*
X168801916Y-108477995D01*
X168814419Y-108469688D01*
X168816245Y-108472437D01*
X168878296Y-108437687D01*
X168955241Y-108425500D01*
X169379191Y-108425500D01*
X169474479Y-108444454D01*
X169555261Y-108498430D01*
X169701570Y-108644739D01*
X169755546Y-108725521D01*
X169774500Y-108820809D01*
X169774500Y-112929191D01*
X169755546Y-113024479D01*
X169701570Y-113105261D01*
X169219747Y-113587084D01*
X169138965Y-113641060D01*
X169101808Y-113653133D01*
X168954032Y-113688612D01*
X168940699Y-113695494D01*
X168940698Y-113695494D01*
X168816706Y-113759491D01*
X168816704Y-113759492D01*
X168803369Y-113766375D01*
X168675604Y-113877831D01*
X168578113Y-114016547D01*
X168572659Y-114030536D01*
X168521976Y-114160528D01*
X168521975Y-114160532D01*
X168516524Y-114174513D01*
X168494394Y-114342611D01*
X168512999Y-114511135D01*
X168571266Y-114670356D01*
X168665830Y-114811083D01*
X168791233Y-114925191D01*
X168804425Y-114932353D01*
X168804424Y-114932353D01*
X168927047Y-114998932D01*
X168927050Y-114998933D01*
X168940235Y-115006092D01*
X168954747Y-115009899D01*
X168954749Y-115009900D01*
X168982877Y-115017279D01*
X169104233Y-115049116D01*
X169119245Y-115049352D01*
X169119246Y-115049352D01*
X169178097Y-115050276D01*
X169273760Y-115051779D01*
X169339284Y-115036772D01*
X169424400Y-115017279D01*
X169424404Y-115017277D01*
X169439029Y-115013928D01*
X169590498Y-114937747D01*
X169719423Y-114827634D01*
X169818361Y-114689947D01*
X169881601Y-114532634D01*
X169889985Y-114473724D01*
X169922176Y-114382057D01*
X169960431Y-114332738D01*
X170659547Y-113633622D01*
X170667075Y-113626403D01*
X170696217Y-113599606D01*
X170696218Y-113599605D01*
X170708712Y-113588116D01*
X170727407Y-113557964D01*
X170740681Y-113538651D01*
X170762128Y-113510396D01*
X170768377Y-113494614D01*
X170772347Y-113487568D01*
X170775639Y-113480174D01*
X170784582Y-113465750D01*
X170794480Y-113431683D01*
X170802073Y-113409505D01*
X170815129Y-113376528D01*
X170816903Y-113359649D01*
X170819426Y-113349377D01*
X170821109Y-113340024D01*
X170824751Y-113327488D01*
X170825500Y-113317288D01*
X170825500Y-113290914D01*
X170826864Y-113264884D01*
X170828406Y-113250217D01*
X170828406Y-113250216D01*
X170830180Y-113233338D01*
X170827349Y-113216603D01*
X170826856Y-113200908D01*
X170825500Y-113184758D01*
X170825500Y-108517033D01*
X170825718Y-108506606D01*
X170826061Y-108498430D01*
X170828087Y-108450081D01*
X170824213Y-108433562D01*
X170824212Y-108433556D01*
X170819988Y-108415548D01*
X170815714Y-108392488D01*
X170815183Y-108388612D01*
X170810901Y-108357354D01*
X170804157Y-108341771D01*
X170801984Y-108333987D01*
X170799086Y-108326437D01*
X170795209Y-108309907D01*
X170778121Y-108278824D01*
X170767807Y-108257771D01*
X170753720Y-108225217D01*
X170743036Y-108212023D01*
X170737558Y-108202979D01*
X170732138Y-108195181D01*
X170725847Y-108183737D01*
X170719164Y-108175995D01*
X170700509Y-108157340D01*
X170683069Y-108137970D01*
X170673797Y-108126519D01*
X170673794Y-108126516D01*
X170663112Y-108113325D01*
X170649274Y-108103491D01*
X170637819Y-108092734D01*
X170625456Y-108082287D01*
X170618739Y-108075570D01*
X170564763Y-107994788D01*
X170545809Y-107899500D01*
X170564763Y-107804212D01*
X170618739Y-107723430D01*
X170699521Y-107669454D01*
X170794809Y-107650500D01*
X180423508Y-107650500D01*
X180429436Y-107650780D01*
X180438296Y-107652760D01*
X180453952Y-107652268D01*
X180506289Y-107650623D01*
X180514111Y-107650500D01*
X180540925Y-107650500D01*
X180548685Y-107649520D01*
X180552072Y-107649307D01*
X180559875Y-107648939D01*
X180602569Y-107647597D01*
X180617614Y-107643226D01*
X180624672Y-107642108D01*
X180640611Y-107638807D01*
X180647515Y-107637034D01*
X180663058Y-107635071D01*
X180700025Y-107620434D01*
X180722218Y-107612836D01*
X180745350Y-107606116D01*
X180745353Y-107606115D01*
X180760398Y-107601744D01*
X180773885Y-107593768D01*
X180780434Y-107590934D01*
X180795060Y-107583769D01*
X180801309Y-107580334D01*
X180815871Y-107574568D01*
X180828541Y-107565363D01*
X180828544Y-107565361D01*
X180848037Y-107551198D01*
X180867638Y-107538323D01*
X180901865Y-107518081D01*
X180912943Y-107507003D01*
X180918569Y-107502639D01*
X180930948Y-107492067D01*
X180936157Y-107487175D01*
X180948837Y-107477963D01*
X180958824Y-107465891D01*
X180958827Y-107465888D01*
X180974173Y-107447337D01*
X180989961Y-107429985D01*
X182461345Y-105958601D01*
X182465728Y-105954613D01*
X182473394Y-105949748D01*
X182519948Y-105900173D01*
X182525390Y-105894556D01*
X182544365Y-105875581D01*
X182549163Y-105869396D01*
X182551387Y-105866873D01*
X182556655Y-105861084D01*
X182575178Y-105841359D01*
X182585902Y-105829939D01*
X182593448Y-105816212D01*
X182597634Y-105810451D01*
X182606580Y-105796832D01*
X182610211Y-105790693D01*
X182619816Y-105778310D01*
X182635607Y-105741820D01*
X182645922Y-105720766D01*
X182657533Y-105699646D01*
X182657536Y-105699638D01*
X182665081Y-105685914D01*
X182668976Y-105670746D01*
X182671599Y-105664120D01*
X182676876Y-105648705D01*
X182678867Y-105641852D01*
X182685089Y-105627473D01*
X182687541Y-105611993D01*
X182691308Y-105588212D01*
X182696065Y-105565240D01*
X182702057Y-105541903D01*
X182702058Y-105541898D01*
X182705954Y-105526723D01*
X182705954Y-105511052D01*
X182706847Y-105503983D01*
X182708125Y-105487752D01*
X182708349Y-105480613D01*
X182710800Y-105465141D01*
X182707059Y-105425565D01*
X182705954Y-105402133D01*
X182705954Y-105191943D01*
X182724908Y-105096655D01*
X182778884Y-105015873D01*
X182823742Y-104980320D01*
X182936308Y-104910526D01*
X183342445Y-104658710D01*
X183357019Y-104646131D01*
X183399487Y-104609474D01*
X183414326Y-104596666D01*
X183480046Y-104488150D01*
X183509016Y-104364635D01*
X183498400Y-104238214D01*
X183490809Y-104220155D01*
X183490808Y-104220152D01*
X183465394Y-104159696D01*
X183461604Y-104150680D01*
X183354852Y-103978507D01*
X183320750Y-103887536D01*
X183324056Y-103790437D01*
X183364269Y-103701995D01*
X183384963Y-103676846D01*
X183399724Y-103661127D01*
X183410448Y-103649707D01*
X183417994Y-103635980D01*
X183422180Y-103630219D01*
X183431132Y-103616591D01*
X183434759Y-103610457D01*
X183444362Y-103598078D01*
X183460149Y-103561595D01*
X183470468Y-103540533D01*
X183482080Y-103519410D01*
X183482080Y-103519409D01*
X183489627Y-103505682D01*
X183493521Y-103490514D01*
X183496146Y-103483885D01*
X183501421Y-103468477D01*
X183503415Y-103461614D01*
X183509635Y-103447240D01*
X183515853Y-103407980D01*
X183520610Y-103385009D01*
X183526605Y-103361661D01*
X183530500Y-103346491D01*
X183530500Y-103330829D01*
X183531392Y-103323768D01*
X183532671Y-103307520D01*
X183532895Y-103300381D01*
X183535346Y-103284909D01*
X183531605Y-103245333D01*
X183530500Y-103221901D01*
X183530500Y-97708949D01*
X183530780Y-97703021D01*
X183532760Y-97694161D01*
X183531053Y-97639833D01*
X183530623Y-97626168D01*
X183530500Y-97618346D01*
X183530500Y-97591532D01*
X183529520Y-97583772D01*
X183529307Y-97580385D01*
X183528939Y-97572579D01*
X183528089Y-97545548D01*
X183527597Y-97529888D01*
X183523226Y-97514843D01*
X183522108Y-97507785D01*
X183518807Y-97491846D01*
X183517034Y-97484942D01*
X183515071Y-97469399D01*
X183500434Y-97432432D01*
X183492836Y-97410239D01*
X183486116Y-97387107D01*
X183486115Y-97387104D01*
X183481744Y-97372059D01*
X183473768Y-97358572D01*
X183470934Y-97352023D01*
X183463769Y-97337397D01*
X183460334Y-97331148D01*
X183454568Y-97316586D01*
X183439570Y-97295942D01*
X183431198Y-97284420D01*
X183418323Y-97264819D01*
X183398081Y-97230592D01*
X183387003Y-97219514D01*
X183379048Y-97209258D01*
X183335623Y-97122348D01*
X183328763Y-97025435D01*
X183364176Y-96925435D01*
X183464947Y-96762908D01*
X183464948Y-96762907D01*
X183470103Y-96754592D01*
X183492105Y-96702255D01*
X183499306Y-96685126D01*
X183499307Y-96685123D01*
X183506901Y-96667058D01*
X183517517Y-96540637D01*
X183494200Y-96441224D01*
X183493022Y-96436200D01*
X183493021Y-96436198D01*
X183488547Y-96417122D01*
X183422827Y-96308606D01*
X183387943Y-96278495D01*
X183358347Y-96252948D01*
X183358343Y-96252945D01*
X183350947Y-96246561D01*
X182877160Y-95952801D01*
X182010451Y-95415420D01*
X182010450Y-95415419D01*
X182002135Y-95410264D01*
X181982410Y-95401972D01*
X181932669Y-95381061D01*
X181932666Y-95381060D01*
X181914601Y-95373466D01*
X181788180Y-95362850D01*
X181726422Y-95377335D01*
X181683743Y-95387345D01*
X181683741Y-95387346D01*
X181664665Y-95391820D01*
X181601603Y-95430012D01*
X181572913Y-95447387D01*
X181572912Y-95447388D01*
X181556149Y-95457540D01*
X181509083Y-95512067D01*
X181500362Y-95522170D01*
X181423751Y-95581917D01*
X181330107Y-95607799D01*
X181233686Y-95595875D01*
X181149168Y-95547960D01*
X181089421Y-95471349D01*
X181063915Y-95382253D01*
X181055678Y-95292611D01*
X181053158Y-95265188D01*
X180995164Y-95059557D01*
X180986541Y-95042070D01*
X180905718Y-94878178D01*
X180900668Y-94867937D01*
X180772835Y-94696747D01*
X180615945Y-94551720D01*
X180435253Y-94437712D01*
X180236810Y-94358541D01*
X180185380Y-94348311D01*
X180038456Y-94319086D01*
X180038452Y-94319086D01*
X180027263Y-94316860D01*
X179920446Y-94315462D01*
X179825041Y-94314212D01*
X179825037Y-94314212D01*
X179813629Y-94314063D01*
X179603062Y-94350245D01*
X179592351Y-94354196D01*
X179592349Y-94354197D01*
X179477890Y-94396423D01*
X179402615Y-94424194D01*
X179219000Y-94533433D01*
X179058368Y-94674304D01*
X178926097Y-94842089D01*
X178826617Y-95031169D01*
X178763260Y-95235211D01*
X178761918Y-95246550D01*
X178740768Y-95425249D01*
X178738148Y-95447383D01*
X178743525Y-95529420D01*
X178749486Y-95620356D01*
X178752122Y-95660578D01*
X178754933Y-95671646D01*
X178771948Y-95738646D01*
X178777032Y-95835668D01*
X178744600Y-95927250D01*
X178679591Y-95999450D01*
X178591900Y-96041276D01*
X178494878Y-96046360D01*
X178434117Y-96029480D01*
X178372839Y-96003720D01*
X178353315Y-96002080D01*
X178353313Y-96002080D01*
X178309629Y-95998412D01*
X178246419Y-95993104D01*
X178184661Y-96007589D01*
X178141982Y-96017599D01*
X178141980Y-96017600D01*
X178122904Y-96022074D01*
X178059114Y-96060707D01*
X178031152Y-96077641D01*
X178031151Y-96077642D01*
X178014388Y-96087794D01*
X177952343Y-96159674D01*
X177947190Y-96167985D01*
X176975762Y-97734739D01*
X176975758Y-97734746D01*
X176970606Y-97743056D01*
X176933808Y-97830591D01*
X176932168Y-97850115D01*
X176932168Y-97850117D01*
X176930727Y-97867279D01*
X176923192Y-97957011D01*
X176930315Y-97987381D01*
X176946471Y-98056261D01*
X176952162Y-98080526D01*
X176986520Y-98137258D01*
X177004701Y-98167277D01*
X177017882Y-98189042D01*
X177032716Y-98201846D01*
X177082362Y-98244700D01*
X177082366Y-98244703D01*
X177089762Y-98251087D01*
X177098073Y-98256240D01*
X178664827Y-99227668D01*
X178664834Y-99227672D01*
X178673144Y-99232824D01*
X178760679Y-99269622D01*
X178780203Y-99271262D01*
X178780205Y-99271262D01*
X178823889Y-99274930D01*
X178887099Y-99280238D01*
X178948856Y-99265753D01*
X178991536Y-99255743D01*
X178991538Y-99255742D01*
X179010614Y-99251268D01*
X179107650Y-99192501D01*
X179198971Y-99159352D01*
X179296030Y-99163674D01*
X179384046Y-99204810D01*
X179449621Y-99276497D01*
X179477152Y-99341041D01*
X179498747Y-99421635D01*
X179594918Y-99627873D01*
X179725439Y-99814278D01*
X179886347Y-99975186D01*
X180072752Y-100105707D01*
X180278990Y-100201878D01*
X180289493Y-100204692D01*
X180289495Y-100204693D01*
X180312958Y-100210980D01*
X180400094Y-100253949D01*
X180464154Y-100326993D01*
X180495384Y-100418992D01*
X180489031Y-100515939D01*
X180446062Y-100603075D01*
X180373018Y-100667135D01*
X180312962Y-100692011D01*
X180280997Y-100700576D01*
X180280987Y-100700580D01*
X180270491Y-100703392D01*
X180064253Y-100799563D01*
X179877848Y-100930084D01*
X179716940Y-101090992D01*
X179586419Y-101277397D01*
X179490248Y-101483635D01*
X179487435Y-101494132D01*
X179487435Y-101494133D01*
X179468653Y-101564229D01*
X179425682Y-101651364D01*
X179352637Y-101715423D01*
X179260638Y-101746653D01*
X179163691Y-101740299D01*
X179099153Y-101712770D01*
X179002115Y-101654002D01*
X178983039Y-101649528D01*
X178983037Y-101649527D01*
X178940357Y-101639517D01*
X178878600Y-101625032D01*
X178815390Y-101630340D01*
X178771706Y-101634008D01*
X178771704Y-101634008D01*
X178752180Y-101635648D01*
X178719163Y-101649527D01*
X178673665Y-101668652D01*
X178673661Y-101668654D01*
X178664645Y-101672444D01*
X178656335Y-101677596D01*
X178656328Y-101677600D01*
X177557588Y-102358849D01*
X177081264Y-102654183D01*
X177073860Y-102660573D01*
X177073857Y-102660576D01*
X177024219Y-102703422D01*
X177009383Y-102716228D01*
X176943663Y-102824744D01*
X176939189Y-102843820D01*
X176939188Y-102843822D01*
X176933090Y-102869821D01*
X176914693Y-102948259D01*
X176925309Y-103074679D01*
X176932903Y-103092744D01*
X176955229Y-103145856D01*
X176962105Y-103162214D01*
X176967257Y-103170524D01*
X176967261Y-103170531D01*
X177713183Y-104373578D01*
X177943844Y-104745595D01*
X178005889Y-104817476D01*
X178022652Y-104827628D01*
X178022653Y-104827629D01*
X178050453Y-104844465D01*
X178114405Y-104883196D01*
X178133481Y-104887670D01*
X178133483Y-104887671D01*
X178160285Y-104893957D01*
X178237920Y-104912166D01*
X178301130Y-104906858D01*
X178344814Y-104903190D01*
X178344816Y-104903190D01*
X178364340Y-104901550D01*
X178421633Y-104877466D01*
X178516818Y-104858014D01*
X178612204Y-104876469D01*
X178693267Y-104930022D01*
X178747666Y-105010519D01*
X178767119Y-105105707D01*
X178758708Y-105162141D01*
X178760518Y-105162526D01*
X178758145Y-105173691D01*
X178754759Y-105184595D01*
X178752681Y-105202150D01*
X178736713Y-105337070D01*
X178729647Y-105396767D01*
X178731535Y-105425566D01*
X178741752Y-105581442D01*
X178743621Y-105609962D01*
X178746431Y-105621026D01*
X178746431Y-105621027D01*
X178792593Y-105802790D01*
X178796212Y-105817041D01*
X178800987Y-105827399D01*
X178800990Y-105827407D01*
X178878830Y-105996254D01*
X178901510Y-106090724D01*
X178886312Y-106186683D01*
X178835548Y-106269521D01*
X178756948Y-106326628D01*
X178662478Y-106349308D01*
X178652702Y-106349500D01*
X173750472Y-106349500D01*
X173655184Y-106330546D01*
X173574402Y-106276570D01*
X173520426Y-106195788D01*
X173503275Y-106130414D01*
X173487079Y-105996576D01*
X173487078Y-105996573D01*
X173485276Y-105981680D01*
X173425345Y-105823077D01*
X173329312Y-105683349D01*
X173318110Y-105673369D01*
X173318108Y-105673366D01*
X173249224Y-105611993D01*
X173202721Y-105570560D01*
X173181815Y-105559491D01*
X173066144Y-105498246D01*
X173066141Y-105498245D01*
X173052881Y-105491224D01*
X173033362Y-105486321D01*
X172902997Y-105453575D01*
X172902995Y-105453575D01*
X172888441Y-105449919D01*
X172873438Y-105449840D01*
X172873435Y-105449840D01*
X172800861Y-105449460D01*
X172718895Y-105449031D01*
X172554032Y-105488612D01*
X172540699Y-105495494D01*
X172540698Y-105495494D01*
X172535366Y-105498246D01*
X172403369Y-105566375D01*
X172392054Y-105576246D01*
X172384408Y-105581442D01*
X172294944Y-105619326D01*
X172244447Y-105624500D01*
X171080702Y-105624500D01*
X170985414Y-105605546D01*
X170939069Y-105580225D01*
X170928221Y-105570560D01*
X170874097Y-105541903D01*
X170791644Y-105498246D01*
X170791641Y-105498245D01*
X170778381Y-105491224D01*
X170758862Y-105486321D01*
X170628497Y-105453575D01*
X170628495Y-105453575D01*
X170613941Y-105449919D01*
X170598938Y-105449840D01*
X170598935Y-105449840D01*
X170526361Y-105449460D01*
X170444395Y-105449031D01*
X170279532Y-105488612D01*
X170266199Y-105495494D01*
X170266198Y-105495494D01*
X170142206Y-105559491D01*
X170142204Y-105559492D01*
X170128869Y-105566375D01*
X170117559Y-105576241D01*
X170117558Y-105576242D01*
X170103837Y-105588212D01*
X170001104Y-105677831D01*
X169992470Y-105690116D01*
X169992469Y-105690117D01*
X169985772Y-105699646D01*
X169903613Y-105816547D01*
X169898159Y-105830536D01*
X169847476Y-105960528D01*
X169847475Y-105960532D01*
X169842024Y-105974513D01*
X169819894Y-106142611D01*
X169821344Y-106155742D01*
X169801621Y-106249744D01*
X169746802Y-106329956D01*
X169686788Y-106373319D01*
X169616709Y-106409489D01*
X169616705Y-106409492D01*
X169603369Y-106416375D01*
X169592059Y-106426241D01*
X169592058Y-106426242D01*
X169494960Y-106510946D01*
X169475604Y-106527831D01*
X169378113Y-106666547D01*
X169372659Y-106680536D01*
X169321976Y-106810528D01*
X169321975Y-106810532D01*
X169316524Y-106824513D01*
X169294394Y-106992611D01*
X169296041Y-107007530D01*
X169296041Y-107007531D01*
X169306048Y-107098177D01*
X169297665Y-107194970D01*
X169252878Y-107281186D01*
X169178508Y-107343701D01*
X169085875Y-107372996D01*
X169058552Y-107374500D01*
X168955202Y-107374500D01*
X168859914Y-107355546D01*
X168813569Y-107330225D01*
X168802721Y-107320560D01*
X168731839Y-107283030D01*
X168666144Y-107248246D01*
X168666141Y-107248245D01*
X168652881Y-107241224D01*
X168633362Y-107236321D01*
X168502997Y-107203575D01*
X168502995Y-107203575D01*
X168488441Y-107199919D01*
X168473438Y-107199840D01*
X168473435Y-107199840D01*
X168400861Y-107199460D01*
X168318895Y-107199031D01*
X168154032Y-107238612D01*
X168140699Y-107245494D01*
X168140698Y-107245494D01*
X168016706Y-107309491D01*
X168016704Y-107309492D01*
X168003369Y-107316375D01*
X167992059Y-107326241D01*
X167992058Y-107326242D01*
X167887282Y-107417644D01*
X167875604Y-107427831D01*
X167866970Y-107440116D01*
X167866969Y-107440117D01*
X167849419Y-107465088D01*
X167778113Y-107566547D01*
X167772659Y-107580536D01*
X167721976Y-107710528D01*
X167721975Y-107710532D01*
X167716524Y-107724513D01*
X167694394Y-107892611D01*
X166825000Y-107892611D01*
X166825000Y-103203882D01*
X166842969Y-103111007D01*
X166878724Y-103022065D01*
X166878725Y-103022063D01*
X166884324Y-103008134D01*
X166886722Y-102991288D01*
X166907064Y-102848351D01*
X166908213Y-102840278D01*
X166908368Y-102825500D01*
X166897173Y-102732992D01*
X166889802Y-102672076D01*
X166889801Y-102672073D01*
X166887999Y-102657180D01*
X166828068Y-102498577D01*
X166732035Y-102358849D01*
X166720833Y-102348869D01*
X166720831Y-102348866D01*
X166667747Y-102301570D01*
X166605444Y-102246060D01*
X166584538Y-102234991D01*
X166468867Y-102173746D01*
X166468864Y-102173745D01*
X166455604Y-102166724D01*
X166436085Y-102161821D01*
X166305720Y-102129075D01*
X166305718Y-102129075D01*
X166291164Y-102125419D01*
X166276161Y-102125340D01*
X166276158Y-102125340D01*
X166203584Y-102124960D01*
X166121618Y-102124531D01*
X165956755Y-102164112D01*
X165943422Y-102170994D01*
X165943421Y-102170994D01*
X165819429Y-102234991D01*
X165819427Y-102234992D01*
X165806092Y-102241875D01*
X165678327Y-102353331D01*
X165669693Y-102365616D01*
X165669692Y-102365617D01*
X165663449Y-102374500D01*
X165580836Y-102492047D01*
X165575382Y-102506036D01*
X165524699Y-102636028D01*
X165524698Y-102636032D01*
X165519247Y-102650013D01*
X165497117Y-102818111D01*
X165515722Y-102986635D01*
X165573989Y-103145856D01*
X165582361Y-103158315D01*
X165589176Y-103171690D01*
X165587824Y-103172379D01*
X165618704Y-103246378D01*
X165618961Y-103343533D01*
X165582018Y-103433390D01*
X165513501Y-103502270D01*
X165456704Y-103527204D01*
X165457697Y-103529875D01*
X165443623Y-103535109D01*
X165429032Y-103538612D01*
X165415699Y-103545494D01*
X165415698Y-103545494D01*
X165366137Y-103571074D01*
X165278369Y-103616375D01*
X165267054Y-103626246D01*
X165259408Y-103631442D01*
X165169944Y-103669326D01*
X165119447Y-103674500D01*
X160020809Y-103674500D01*
X159925521Y-103655546D01*
X159844740Y-103601570D01*
X159283634Y-103040465D01*
X159276414Y-103032937D01*
X159249606Y-103003783D01*
X159249605Y-103003782D01*
X159238116Y-102991288D01*
X159207964Y-102972593D01*
X159188651Y-102959319D01*
X159160396Y-102937872D01*
X159144614Y-102931623D01*
X159137568Y-102927653D01*
X159130174Y-102924361D01*
X159115750Y-102915418D01*
X159081683Y-102905520D01*
X159059505Y-102897927D01*
X159042311Y-102891119D01*
X159042307Y-102891118D01*
X159026528Y-102884871D01*
X159009649Y-102883097D01*
X158999365Y-102880571D01*
X158990018Y-102878889D01*
X158977488Y-102875249D01*
X158967288Y-102874500D01*
X158940906Y-102874500D01*
X158914878Y-102873136D01*
X158900219Y-102871595D01*
X158900217Y-102871595D01*
X158883338Y-102869821D01*
X158866604Y-102872651D01*
X158850896Y-102873145D01*
X158834765Y-102874500D01*
X152569809Y-102874500D01*
X152474521Y-102855546D01*
X152393739Y-102801570D01*
X152339763Y-102720788D01*
X152320809Y-102625500D01*
X152339763Y-102530212D01*
X152393739Y-102449430D01*
X154081121Y-100762048D01*
X154161903Y-100708072D01*
X154201601Y-100695403D01*
X154339029Y-100663928D01*
X154490498Y-100587747D01*
X154619423Y-100477634D01*
X154718361Y-100339947D01*
X154723959Y-100326022D01*
X154776001Y-100196565D01*
X154776002Y-100196563D01*
X154781601Y-100182634D01*
X154794030Y-100095306D01*
X154804341Y-100022851D01*
X154805490Y-100014778D01*
X154805645Y-100000000D01*
X154792017Y-99887381D01*
X154787079Y-99846576D01*
X154787078Y-99846573D01*
X154785276Y-99831680D01*
X154725345Y-99673077D01*
X154629312Y-99533349D01*
X154618110Y-99523369D01*
X154618108Y-99523366D01*
X154514986Y-99431488D01*
X154502721Y-99420560D01*
X154461873Y-99398932D01*
X154366144Y-99348246D01*
X154366141Y-99348245D01*
X154352881Y-99341224D01*
X154333362Y-99336321D01*
X154202997Y-99303575D01*
X154202995Y-99303575D01*
X154188441Y-99299919D01*
X154173438Y-99299840D01*
X154173435Y-99299840D01*
X154100861Y-99299460D01*
X154018895Y-99299031D01*
X153854032Y-99338612D01*
X153840699Y-99345494D01*
X153840698Y-99345494D01*
X153716706Y-99409491D01*
X153716704Y-99409492D01*
X153703369Y-99416375D01*
X153692059Y-99426241D01*
X153692058Y-99426242D01*
X153665567Y-99449352D01*
X153575604Y-99527831D01*
X153566970Y-99540116D01*
X153566969Y-99540117D01*
X153547535Y-99567769D01*
X153478113Y-99666547D01*
X153472659Y-99680536D01*
X153421976Y-99810528D01*
X153421975Y-99810532D01*
X153416524Y-99824513D01*
X153414565Y-99839394D01*
X153410001Y-99874061D01*
X153378771Y-99966060D01*
X153339201Y-100017630D01*
X151055261Y-102301570D01*
X150974479Y-102355546D01*
X150879191Y-102374500D01*
X130169809Y-102374500D01*
X130074521Y-102355546D01*
X129993739Y-102301570D01*
X129939763Y-102220788D01*
X129920809Y-102125500D01*
X129939763Y-102030212D01*
X129993739Y-101949430D01*
X134844739Y-97098430D01*
X134925521Y-97044454D01*
X135020809Y-97025500D01*
X140229094Y-97025500D01*
X140324382Y-97044454D01*
X140405164Y-97098430D01*
X140459140Y-97179212D01*
X140478094Y-97274500D01*
X140459140Y-97369788D01*
X140405164Y-97450570D01*
X140343298Y-97495765D01*
X140316712Y-97509487D01*
X140316705Y-97509492D01*
X140303369Y-97516375D01*
X140292059Y-97526241D01*
X140292058Y-97526242D01*
X140188732Y-97616379D01*
X140175604Y-97627831D01*
X140078113Y-97766547D01*
X140064376Y-97801779D01*
X140021976Y-97910528D01*
X140021975Y-97910532D01*
X140016524Y-97924513D01*
X139994394Y-98092611D01*
X140012999Y-98261135D01*
X140071266Y-98420356D01*
X140165830Y-98561083D01*
X140291233Y-98675191D01*
X140304425Y-98682353D01*
X140304424Y-98682353D01*
X140427047Y-98748932D01*
X140427050Y-98748933D01*
X140440235Y-98756092D01*
X140454747Y-98759899D01*
X140454749Y-98759900D01*
X140482877Y-98767279D01*
X140604233Y-98799116D01*
X140619245Y-98799352D01*
X140619246Y-98799352D01*
X140678097Y-98800276D01*
X140773760Y-98801779D01*
X140858580Y-98782353D01*
X140924400Y-98767279D01*
X140924404Y-98767277D01*
X140939029Y-98763928D01*
X141090498Y-98687747D01*
X141219423Y-98577634D01*
X141318361Y-98439947D01*
X141381601Y-98282634D01*
X141383716Y-98267776D01*
X141385785Y-98260053D01*
X141428756Y-98172918D01*
X141501801Y-98108859D01*
X141593800Y-98077630D01*
X141626300Y-98075500D01*
X143874837Y-98075500D01*
X143970125Y-98094454D01*
X144050907Y-98148430D01*
X144104883Y-98229212D01*
X144112098Y-98251617D01*
X144112499Y-98255251D01*
X144117659Y-98269352D01*
X144117660Y-98269355D01*
X144151247Y-98361135D01*
X144170766Y-98414472D01*
X144265330Y-98555199D01*
X144390733Y-98669307D01*
X144403925Y-98676469D01*
X144403924Y-98676469D01*
X144526547Y-98743048D01*
X144526550Y-98743049D01*
X144539735Y-98750208D01*
X144554247Y-98754015D01*
X144554249Y-98754016D01*
X144596454Y-98765088D01*
X144703733Y-98793232D01*
X144718745Y-98793468D01*
X144718746Y-98793468D01*
X144777597Y-98794392D01*
X144873260Y-98795895D01*
X144938784Y-98780888D01*
X145023900Y-98761395D01*
X145023904Y-98761393D01*
X145038529Y-98758044D01*
X145189998Y-98681863D01*
X145318923Y-98571750D01*
X145417861Y-98434063D01*
X145425955Y-98413928D01*
X145475501Y-98290681D01*
X145475502Y-98290679D01*
X145481101Y-98276750D01*
X145483324Y-98261135D01*
X145503841Y-98116967D01*
X145504990Y-98108894D01*
X145505145Y-98094116D01*
X145490862Y-97976089D01*
X145486579Y-97940692D01*
X145486578Y-97940689D01*
X145484776Y-97925796D01*
X145424845Y-97767193D01*
X145328812Y-97627465D01*
X145317610Y-97617485D01*
X145317608Y-97617482D01*
X145259205Y-97565447D01*
X145202221Y-97514676D01*
X145188957Y-97507653D01*
X145188954Y-97507651D01*
X145164224Y-97494557D01*
X145088881Y-97433218D01*
X145042746Y-97347715D01*
X145032844Y-97251066D01*
X145060682Y-97157985D01*
X145122021Y-97082642D01*
X145207524Y-97036507D01*
X145280739Y-97025500D01*
X149774151Y-97025500D01*
X149869439Y-97044454D01*
X149950221Y-97098430D01*
X150004197Y-97179212D01*
X150023151Y-97274500D01*
X150016980Y-97323343D01*
X150016524Y-97324513D01*
X150014565Y-97339397D01*
X150014564Y-97339399D01*
X150010001Y-97374061D01*
X149978771Y-97466060D01*
X149939201Y-97517630D01*
X149840452Y-97616379D01*
X149832923Y-97623598D01*
X149803786Y-97650390D01*
X149803781Y-97650397D01*
X149791288Y-97661884D01*
X149772593Y-97692036D01*
X149759319Y-97711349D01*
X149737872Y-97739604D01*
X149731623Y-97755386D01*
X149727653Y-97762432D01*
X149724361Y-97769826D01*
X149715418Y-97784250D01*
X149705520Y-97818317D01*
X149697927Y-97840495D01*
X149691119Y-97857689D01*
X149691118Y-97857693D01*
X149684871Y-97873472D01*
X149683097Y-97890351D01*
X149680571Y-97900635D01*
X149678889Y-97909982D01*
X149675249Y-97922512D01*
X149674500Y-97932712D01*
X149674500Y-97959094D01*
X149673136Y-97985122D01*
X149669821Y-98016662D01*
X149672651Y-98033396D01*
X149673145Y-98049104D01*
X149674500Y-98065235D01*
X149674500Y-98850654D01*
X149655546Y-98945942D01*
X149629223Y-98993825D01*
X149578113Y-99066547D01*
X149572659Y-99080536D01*
X149521976Y-99210528D01*
X149521975Y-99210532D01*
X149516524Y-99224513D01*
X149494394Y-99392611D01*
X149512999Y-99561135D01*
X149571266Y-99720356D01*
X149665830Y-99861083D01*
X149791233Y-99975191D01*
X149804425Y-99982353D01*
X149804424Y-99982353D01*
X149927047Y-100048932D01*
X149927050Y-100048933D01*
X149940235Y-100056092D01*
X149954747Y-100059899D01*
X149954749Y-100059900D01*
X149982877Y-100067279D01*
X150104233Y-100099116D01*
X150119245Y-100099352D01*
X150119246Y-100099352D01*
X150178097Y-100100276D01*
X150273760Y-100101779D01*
X150339284Y-100086772D01*
X150424400Y-100067279D01*
X150424404Y-100067277D01*
X150439029Y-100063928D01*
X150590498Y-99987747D01*
X150719423Y-99877634D01*
X150818361Y-99739947D01*
X150858923Y-99639048D01*
X150876001Y-99596565D01*
X150876002Y-99596563D01*
X150881601Y-99582634D01*
X150889401Y-99527831D01*
X150904341Y-99422851D01*
X150905490Y-99414778D01*
X150905645Y-99400000D01*
X150896094Y-99321073D01*
X150887079Y-99246576D01*
X150887078Y-99246573D01*
X150885276Y-99231680D01*
X150825345Y-99073077D01*
X150816845Y-99060709D01*
X150816841Y-99060702D01*
X150769293Y-98991520D01*
X150730941Y-98902255D01*
X150725500Y-98850485D01*
X150725500Y-98411251D01*
X150744454Y-98315963D01*
X150798430Y-98235181D01*
X150879212Y-98181205D01*
X150918908Y-98168536D01*
X150939029Y-98163928D01*
X151090498Y-98087747D01*
X151219423Y-97977634D01*
X151318361Y-97839947D01*
X151333705Y-97801779D01*
X151376001Y-97696565D01*
X151376002Y-97696563D01*
X151381601Y-97682634D01*
X151384555Y-97661884D01*
X151404341Y-97522851D01*
X151405490Y-97514778D01*
X151405645Y-97500000D01*
X151385276Y-97331680D01*
X151383676Y-97327445D01*
X151379641Y-97236835D01*
X151412791Y-97145510D01*
X151478366Y-97073823D01*
X151566383Y-97032687D01*
X151625776Y-97025500D01*
X153379191Y-97025500D01*
X153474479Y-97044454D01*
X153555261Y-97098430D01*
X153916378Y-97459547D01*
X153923597Y-97467075D01*
X153946437Y-97491913D01*
X153961884Y-97508712D01*
X153976310Y-97517657D01*
X153976312Y-97517658D01*
X153992032Y-97527405D01*
X154011362Y-97540690D01*
X154039604Y-97562127D01*
X154055387Y-97568376D01*
X154062435Y-97572347D01*
X154069821Y-97575636D01*
X154084250Y-97584582D01*
X154100552Y-97589318D01*
X154100551Y-97589318D01*
X154118307Y-97594477D01*
X154140495Y-97602073D01*
X154173472Y-97615129D01*
X154190351Y-97616903D01*
X154200631Y-97619428D01*
X154209980Y-97621110D01*
X154222512Y-97624751D01*
X154232712Y-97625500D01*
X154259093Y-97625500D01*
X154285121Y-97626864D01*
X154299780Y-97628405D01*
X154299782Y-97628405D01*
X154316661Y-97630179D01*
X154333395Y-97627349D01*
X154349103Y-97626855D01*
X154365234Y-97625500D01*
X157844957Y-97625500D01*
X157940245Y-97644454D01*
X157984134Y-97668732D01*
X157991233Y-97675191D01*
X158040615Y-97702003D01*
X158127047Y-97748932D01*
X158127050Y-97748933D01*
X158140235Y-97756092D01*
X158154747Y-97759899D01*
X158154749Y-97759900D01*
X158182877Y-97767279D01*
X158304233Y-97799116D01*
X158319245Y-97799352D01*
X158319246Y-97799352D01*
X158378097Y-97800276D01*
X158473760Y-97801779D01*
X158558580Y-97782353D01*
X158624400Y-97767279D01*
X158624404Y-97767277D01*
X158639029Y-97763928D01*
X158790498Y-97687747D01*
X158895866Y-97597754D01*
X158908011Y-97587381D01*
X158908012Y-97587380D01*
X158919423Y-97577634D01*
X159018361Y-97439947D01*
X159023959Y-97426022D01*
X159076001Y-97296565D01*
X159076002Y-97296563D01*
X159081601Y-97282634D01*
X159087089Y-97244077D01*
X159104341Y-97122851D01*
X159105490Y-97114778D01*
X159105645Y-97100000D01*
X159085276Y-96931680D01*
X159025345Y-96773077D01*
X158929312Y-96633349D01*
X158918110Y-96623369D01*
X158918108Y-96623366D01*
X158829579Y-96544490D01*
X158802721Y-96520560D01*
X158789457Y-96513537D01*
X158666144Y-96448246D01*
X158666141Y-96448245D01*
X158652881Y-96441224D01*
X158632880Y-96436200D01*
X158502997Y-96403575D01*
X158502995Y-96403575D01*
X158488441Y-96399919D01*
X158473438Y-96399840D01*
X158473435Y-96399840D01*
X158400861Y-96399460D01*
X158318895Y-96399031D01*
X158154032Y-96438612D01*
X158003369Y-96516375D01*
X157992054Y-96526246D01*
X157984408Y-96531442D01*
X157894944Y-96569326D01*
X157844447Y-96574500D01*
X155447446Y-96574500D01*
X155352158Y-96555546D01*
X155271376Y-96501570D01*
X155217400Y-96420788D01*
X155200249Y-96355413D01*
X155187079Y-96246577D01*
X155187078Y-96246575D01*
X155185276Y-96231680D01*
X155125345Y-96073077D01*
X155029312Y-95933349D01*
X155018110Y-95923369D01*
X155018108Y-95923366D01*
X154952698Y-95865088D01*
X154902721Y-95820560D01*
X154821648Y-95777634D01*
X154766144Y-95748246D01*
X154766141Y-95748245D01*
X154752881Y-95741224D01*
X154734104Y-95736508D01*
X154594621Y-95701471D01*
X154506821Y-95659874D01*
X154479212Y-95636043D01*
X154433622Y-95590453D01*
X154426403Y-95582925D01*
X154399606Y-95553783D01*
X154399605Y-95553782D01*
X154388116Y-95541288D01*
X154357964Y-95522593D01*
X154338651Y-95509319D01*
X154310396Y-95487872D01*
X154294614Y-95481623D01*
X154287568Y-95477653D01*
X154280174Y-95474361D01*
X154265750Y-95465418D01*
X154231683Y-95455520D01*
X154209505Y-95447927D01*
X154192311Y-95441119D01*
X154192307Y-95441118D01*
X154176528Y-95434871D01*
X154159649Y-95433097D01*
X154149365Y-95430571D01*
X154140018Y-95428889D01*
X154127488Y-95425249D01*
X154117288Y-95424500D01*
X154090906Y-95424500D01*
X154064878Y-95423136D01*
X154050219Y-95421595D01*
X154050217Y-95421595D01*
X154033338Y-95419821D01*
X154016604Y-95422651D01*
X154000896Y-95423145D01*
X153984765Y-95424500D01*
X134630628Y-95424500D01*
X134620199Y-95424282D01*
X134563685Y-95421913D01*
X134547166Y-95425787D01*
X134547160Y-95425788D01*
X134529152Y-95430012D01*
X134506094Y-95434286D01*
X134470958Y-95439099D01*
X134455375Y-95445843D01*
X134447591Y-95448016D01*
X134440041Y-95450914D01*
X134423511Y-95454791D01*
X134392428Y-95471879D01*
X134371375Y-95482193D01*
X134338821Y-95496280D01*
X134325627Y-95506964D01*
X134316583Y-95512442D01*
X134308785Y-95517862D01*
X134297341Y-95524153D01*
X134289599Y-95530836D01*
X134270944Y-95549491D01*
X134251574Y-95566931D01*
X134240123Y-95576203D01*
X134240120Y-95576206D01*
X134226929Y-95586888D01*
X134217095Y-95600726D01*
X134206338Y-95612181D01*
X134195891Y-95624544D01*
X119240453Y-110579982D01*
X119232926Y-110587200D01*
X119191288Y-110625488D01*
X119172593Y-110655640D01*
X119159319Y-110674953D01*
X119137872Y-110703208D01*
X119131623Y-110718990D01*
X119127653Y-110726036D01*
X119124361Y-110733430D01*
X119115418Y-110747854D01*
X119105520Y-110781921D01*
X119097927Y-110804099D01*
X119091119Y-110821293D01*
X119091118Y-110821297D01*
X119084871Y-110837076D01*
X119083097Y-110853955D01*
X119080571Y-110864239D01*
X119078889Y-110873586D01*
X119075249Y-110886116D01*
X119074500Y-110896316D01*
X119074500Y-110922698D01*
X119073136Y-110948726D01*
X119069821Y-110980266D01*
X119072651Y-110997000D01*
X119073145Y-111012708D01*
X119074500Y-111028839D01*
X119074500Y-117279191D01*
X119055546Y-117374479D01*
X119001570Y-117455261D01*
X117780261Y-118676570D01*
X117699479Y-118730546D01*
X117604191Y-118749500D01*
X117475354Y-118749500D01*
X117290197Y-118788856D01*
X117229625Y-118815825D01*
X117134869Y-118837267D01*
X117039117Y-118820814D01*
X117015305Y-118810212D01*
X117014302Y-118809701D01*
X116925304Y-118764354D01*
X116905948Y-118761288D01*
X116905947Y-118761288D01*
X116884353Y-118757868D01*
X116831519Y-118749500D01*
X116300136Y-118749500D01*
X115768482Y-118749501D01*
X115674696Y-118764354D01*
X115561658Y-118821950D01*
X115471950Y-118911658D01*
X115414354Y-119024696D01*
X115399500Y-119118481D01*
X109700500Y-119118481D01*
X109700500Y-110809172D01*
X109700503Y-110807868D01*
X109700922Y-110727844D01*
X109700969Y-110718895D01*
X109700228Y-110715810D01*
X109700000Y-110711850D01*
X109700000Y-105590361D01*
X109700121Y-105588442D01*
X109700081Y-105588442D01*
X109700145Y-105576242D01*
X109700292Y-105548079D01*
X109700308Y-105547630D01*
X109700500Y-105546174D01*
X109700500Y-105509172D01*
X109700503Y-105507868D01*
X109700793Y-105452536D01*
X109700969Y-105418895D01*
X109700558Y-105417185D01*
X109700500Y-105416173D01*
X109700500Y-94309172D01*
X109700503Y-94307868D01*
X109700922Y-94227844D01*
X109700969Y-94218895D01*
X109700228Y-94215810D01*
X109700000Y-94211850D01*
X109700000Y-89090361D01*
X109700121Y-89088442D01*
X109700081Y-89088442D01*
X109700292Y-89048085D01*
X109700308Y-89047630D01*
X109700500Y-89046174D01*
X109700500Y-89009172D01*
X109700503Y-89007868D01*
X109700943Y-88923855D01*
X109700969Y-88918895D01*
X109700558Y-88917185D01*
X109700500Y-88916173D01*
X109700500Y-83842611D01*
X149510394Y-83842611D01*
X149528999Y-84011135D01*
X149587266Y-84170356D01*
X149648175Y-84260999D01*
X149685588Y-84350658D01*
X149690500Y-84399874D01*
X149690500Y-85098967D01*
X149690282Y-85109394D01*
X149687913Y-85165919D01*
X149693033Y-85187747D01*
X149696012Y-85200448D01*
X149700287Y-85223514D01*
X149705099Y-85258646D01*
X149711843Y-85274232D01*
X149714018Y-85282020D01*
X149716912Y-85289561D01*
X149720790Y-85306093D01*
X149728969Y-85320970D01*
X149728969Y-85320971D01*
X149737875Y-85337171D01*
X149748194Y-85358234D01*
X149762280Y-85390783D01*
X149772959Y-85403972D01*
X149778443Y-85413026D01*
X149783867Y-85420830D01*
X149790153Y-85432263D01*
X149796836Y-85440005D01*
X149815491Y-85458660D01*
X149832931Y-85478030D01*
X149842203Y-85489481D01*
X149842206Y-85489484D01*
X149852888Y-85502675D01*
X149866726Y-85512509D01*
X149878181Y-85523266D01*
X149890544Y-85533713D01*
X153016378Y-88659547D01*
X153023596Y-88667074D01*
X153061884Y-88708712D01*
X153092036Y-88727407D01*
X153111349Y-88740681D01*
X153139604Y-88762128D01*
X153155386Y-88768377D01*
X153162432Y-88772347D01*
X153169826Y-88775639D01*
X153184250Y-88784582D01*
X153218317Y-88794480D01*
X153240495Y-88802073D01*
X153257689Y-88808881D01*
X153257693Y-88808882D01*
X153273472Y-88815129D01*
X153290351Y-88816903D01*
X153300635Y-88819429D01*
X153309982Y-88821111D01*
X153322512Y-88824751D01*
X153332712Y-88825500D01*
X153359094Y-88825500D01*
X153385122Y-88826864D01*
X153399781Y-88828405D01*
X153399783Y-88828405D01*
X153416662Y-88830179D01*
X153433396Y-88827349D01*
X153449104Y-88826855D01*
X153465235Y-88825500D01*
X161770003Y-88825500D01*
X161865291Y-88844454D01*
X161946073Y-88898430D01*
X162951570Y-89903928D01*
X163005546Y-89984710D01*
X163024500Y-90079998D01*
X163024500Y-97200654D01*
X163005546Y-97295942D01*
X162979223Y-97343825D01*
X162928113Y-97416547D01*
X162922659Y-97430536D01*
X162871976Y-97560528D01*
X162871975Y-97560532D01*
X162866524Y-97574513D01*
X162844394Y-97742611D01*
X162862999Y-97911135D01*
X162921266Y-98070356D01*
X163015830Y-98211083D01*
X163141233Y-98325191D01*
X163154425Y-98332353D01*
X163154424Y-98332353D01*
X163277047Y-98398932D01*
X163277050Y-98398933D01*
X163290235Y-98406092D01*
X163304747Y-98409899D01*
X163304749Y-98409900D01*
X163332877Y-98417279D01*
X163454233Y-98449116D01*
X163469245Y-98449352D01*
X163469246Y-98449352D01*
X163528097Y-98450276D01*
X163623760Y-98451779D01*
X163689284Y-98436772D01*
X163774400Y-98417279D01*
X163774404Y-98417277D01*
X163789029Y-98413928D01*
X163871517Y-98372441D01*
X163965157Y-98346561D01*
X164061577Y-98358485D01*
X164146095Y-98406400D01*
X164205843Y-98483012D01*
X164214756Y-98503607D01*
X164216107Y-98506259D01*
X164221266Y-98520356D01*
X164315830Y-98661083D01*
X164441233Y-98775191D01*
X164454425Y-98782353D01*
X164454424Y-98782353D01*
X164577047Y-98848932D01*
X164577050Y-98848933D01*
X164590235Y-98856092D01*
X164688461Y-98881861D01*
X164775820Y-98924375D01*
X164840261Y-98997083D01*
X164859109Y-99037137D01*
X164871266Y-99070356D01*
X164965830Y-99211083D01*
X165091233Y-99325191D01*
X165104425Y-99332353D01*
X165104424Y-99332353D01*
X165227047Y-99398932D01*
X165227050Y-99398933D01*
X165240235Y-99406092D01*
X165254747Y-99409899D01*
X165254749Y-99409900D01*
X165282877Y-99417279D01*
X165404233Y-99449116D01*
X165419245Y-99449352D01*
X165419246Y-99449352D01*
X165478097Y-99450276D01*
X165573760Y-99451779D01*
X165662357Y-99431488D01*
X165724400Y-99417279D01*
X165724404Y-99417277D01*
X165739029Y-99413928D01*
X165890498Y-99337747D01*
X165997245Y-99246576D01*
X166008011Y-99237381D01*
X166008012Y-99237380D01*
X166019423Y-99227634D01*
X166118361Y-99089947D01*
X166131902Y-99056263D01*
X166176001Y-98946565D01*
X166176002Y-98946563D01*
X166181601Y-98932634D01*
X166185925Y-98902255D01*
X166204341Y-98772851D01*
X166205490Y-98764778D01*
X166205645Y-98750000D01*
X166195880Y-98669307D01*
X166187079Y-98596576D01*
X166187078Y-98596573D01*
X166185276Y-98581680D01*
X166125345Y-98423077D01*
X166116845Y-98410709D01*
X166116841Y-98410702D01*
X166069293Y-98341520D01*
X166030941Y-98252255D01*
X166025500Y-98200485D01*
X166025500Y-89817033D01*
X166025718Y-89806606D01*
X166027376Y-89767041D01*
X166028087Y-89750081D01*
X166019987Y-89715545D01*
X166015713Y-89692484D01*
X166013205Y-89674176D01*
X166010901Y-89657354D01*
X166004159Y-89641774D01*
X166001983Y-89633980D01*
X165999086Y-89626434D01*
X165995210Y-89609907D01*
X165978123Y-89578825D01*
X165967804Y-89557762D01*
X165960463Y-89540799D01*
X165953720Y-89525217D01*
X165943034Y-89512021D01*
X165937552Y-89502969D01*
X165932136Y-89495175D01*
X165925848Y-89483738D01*
X165919165Y-89475995D01*
X165900505Y-89457335D01*
X165883065Y-89437965D01*
X165873797Y-89426520D01*
X165863112Y-89413325D01*
X165849270Y-89403488D01*
X165837816Y-89392732D01*
X165825460Y-89382290D01*
X163033622Y-86590453D01*
X163026403Y-86582925D01*
X162999606Y-86553783D01*
X162999605Y-86553782D01*
X162988116Y-86541288D01*
X162957964Y-86522593D01*
X162938651Y-86509319D01*
X162910396Y-86487872D01*
X162894614Y-86481623D01*
X162887568Y-86477653D01*
X162880174Y-86474361D01*
X162865750Y-86465418D01*
X162831683Y-86455520D01*
X162809505Y-86447927D01*
X162792311Y-86441119D01*
X162792307Y-86441118D01*
X162776528Y-86434871D01*
X162759649Y-86433097D01*
X162749365Y-86430571D01*
X162740018Y-86428889D01*
X162727488Y-86425249D01*
X162717288Y-86424500D01*
X162690906Y-86424500D01*
X162664878Y-86423136D01*
X162650219Y-86421595D01*
X162650217Y-86421595D01*
X162633338Y-86419821D01*
X162616604Y-86422651D01*
X162600896Y-86423145D01*
X162584765Y-86424500D01*
X155020810Y-86424500D01*
X154925522Y-86405546D01*
X154844741Y-86351570D01*
X153862431Y-85369261D01*
X153808454Y-85288479D01*
X153789500Y-85193191D01*
X153789500Y-84399362D01*
X153808454Y-84304074D01*
X153836291Y-84254060D01*
X153839107Y-84250142D01*
X153882361Y-84189947D01*
X153900142Y-84145717D01*
X153940001Y-84046565D01*
X153940002Y-84046563D01*
X153945601Y-84032634D01*
X153949051Y-84008398D01*
X153951021Y-83994552D01*
X162819612Y-83994552D01*
X162821067Y-84008396D01*
X162821067Y-84008398D01*
X162825079Y-84046565D01*
X162837798Y-84167581D01*
X162842284Y-84180758D01*
X162842285Y-84180763D01*
X162865125Y-84247853D01*
X162893867Y-84332281D01*
X162901163Y-84344140D01*
X162977736Y-84468610D01*
X162977739Y-84468613D01*
X162985031Y-84480467D01*
X163106760Y-84604772D01*
X163253004Y-84699020D01*
X163266082Y-84703780D01*
X163266084Y-84703781D01*
X163278701Y-84708373D01*
X163416493Y-84758525D01*
X163430296Y-84760269D01*
X163430297Y-84760269D01*
X163543103Y-84774520D01*
X163543108Y-84774520D01*
X163550863Y-84775500D01*
X163643746Y-84775500D01*
X163650662Y-84774724D01*
X163650666Y-84774724D01*
X163725283Y-84766354D01*
X163772898Y-84761013D01*
X163786043Y-84756435D01*
X163786045Y-84756435D01*
X163829948Y-84741146D01*
X163937203Y-84703796D01*
X164066743Y-84622851D01*
X164072946Y-84618975D01*
X164072948Y-84618973D01*
X164084748Y-84611600D01*
X164095259Y-84601162D01*
X164198323Y-84498816D01*
X164198326Y-84498812D01*
X164208201Y-84489006D01*
X164244581Y-84431680D01*
X164290246Y-84359724D01*
X164357308Y-84289426D01*
X164446167Y-84250142D01*
X164543295Y-84247853D01*
X164633905Y-84282907D01*
X164704203Y-84349969D01*
X164712564Y-84362673D01*
X164777736Y-84468610D01*
X164777739Y-84468613D01*
X164785031Y-84480467D01*
X164906760Y-84604772D01*
X165053004Y-84699020D01*
X165066082Y-84703780D01*
X165066084Y-84703781D01*
X165078701Y-84708373D01*
X165216493Y-84758525D01*
X165230296Y-84760269D01*
X165230297Y-84760269D01*
X165343103Y-84774520D01*
X165343108Y-84774520D01*
X165350863Y-84775500D01*
X165443746Y-84775500D01*
X165450662Y-84774724D01*
X165450666Y-84774724D01*
X165525283Y-84766354D01*
X165572898Y-84761013D01*
X165586043Y-84756435D01*
X165586045Y-84756435D01*
X165629948Y-84741146D01*
X165737203Y-84703796D01*
X165884748Y-84611600D01*
X165894624Y-84601793D01*
X165895420Y-84601162D01*
X165981870Y-84556828D01*
X166078705Y-84548952D01*
X166171183Y-84578733D01*
X166201200Y-84599094D01*
X166206760Y-84604772D01*
X166218460Y-84612312D01*
X166218461Y-84612313D01*
X166234813Y-84622851D01*
X166353004Y-84699020D01*
X166366082Y-84703780D01*
X166366084Y-84703781D01*
X166378701Y-84708373D01*
X166516493Y-84758525D01*
X166530296Y-84760269D01*
X166530297Y-84760269D01*
X166643103Y-84774520D01*
X166643108Y-84774520D01*
X166650863Y-84775500D01*
X166743746Y-84775500D01*
X166750662Y-84774724D01*
X166750666Y-84774724D01*
X166825283Y-84766354D01*
X166872898Y-84761013D01*
X166886043Y-84756435D01*
X166886045Y-84756435D01*
X166929948Y-84741146D01*
X167037203Y-84703796D01*
X167166743Y-84622851D01*
X167172946Y-84618975D01*
X167172948Y-84618973D01*
X167184748Y-84611600D01*
X167195259Y-84601162D01*
X167298323Y-84498816D01*
X167298326Y-84498812D01*
X167308201Y-84489006D01*
X167344581Y-84431680D01*
X167390246Y-84359724D01*
X167457308Y-84289426D01*
X167546167Y-84250142D01*
X167643295Y-84247853D01*
X167733905Y-84282907D01*
X167804203Y-84349969D01*
X167812564Y-84362673D01*
X167877736Y-84468610D01*
X167877739Y-84468613D01*
X167885031Y-84480467D01*
X168006760Y-84604772D01*
X168153004Y-84699020D01*
X168166082Y-84703780D01*
X168166084Y-84703781D01*
X168178701Y-84708373D01*
X168316493Y-84758525D01*
X168330296Y-84760269D01*
X168330297Y-84760269D01*
X168443103Y-84774520D01*
X168443108Y-84774520D01*
X168450863Y-84775500D01*
X168543746Y-84775500D01*
X168550662Y-84774724D01*
X168550666Y-84774724D01*
X168625283Y-84766354D01*
X168672898Y-84761013D01*
X168686043Y-84756435D01*
X168686045Y-84756435D01*
X168729948Y-84741146D01*
X168837203Y-84703796D01*
X168984748Y-84611600D01*
X168994624Y-84601793D01*
X168995420Y-84601162D01*
X169081870Y-84556828D01*
X169178705Y-84548952D01*
X169271183Y-84578733D01*
X169301200Y-84599094D01*
X169306760Y-84604772D01*
X169318460Y-84612312D01*
X169318461Y-84612313D01*
X169334813Y-84622851D01*
X169453004Y-84699020D01*
X169466082Y-84703780D01*
X169466084Y-84703781D01*
X169478701Y-84708373D01*
X169616493Y-84758525D01*
X169630296Y-84760269D01*
X169630297Y-84760269D01*
X169743103Y-84774520D01*
X169743108Y-84774520D01*
X169750863Y-84775500D01*
X169843746Y-84775500D01*
X169850662Y-84774724D01*
X169850666Y-84774724D01*
X169925283Y-84766354D01*
X169972898Y-84761013D01*
X169986043Y-84756435D01*
X169986045Y-84756435D01*
X170029948Y-84741146D01*
X170137203Y-84703796D01*
X170266743Y-84622851D01*
X170272946Y-84618975D01*
X170272948Y-84618973D01*
X170284748Y-84611600D01*
X170295259Y-84601162D01*
X170398323Y-84498816D01*
X170398326Y-84498812D01*
X170408201Y-84489006D01*
X170444581Y-84431680D01*
X170490246Y-84359724D01*
X170557308Y-84289426D01*
X170646167Y-84250142D01*
X170743295Y-84247853D01*
X170833905Y-84282907D01*
X170904203Y-84349969D01*
X170912564Y-84362673D01*
X170977736Y-84468610D01*
X170977739Y-84468613D01*
X170985031Y-84480467D01*
X171106760Y-84604772D01*
X171253004Y-84699020D01*
X171266082Y-84703780D01*
X171266084Y-84703781D01*
X171278701Y-84708373D01*
X171416493Y-84758525D01*
X171430296Y-84760269D01*
X171430297Y-84760269D01*
X171543103Y-84774520D01*
X171543108Y-84774520D01*
X171550863Y-84775500D01*
X171580191Y-84775500D01*
X171675479Y-84794454D01*
X171756261Y-84848430D01*
X171810237Y-84929212D01*
X171829191Y-85024500D01*
X171810237Y-85119788D01*
X171756261Y-85200570D01*
X168940453Y-88016378D01*
X168932926Y-88023596D01*
X168891288Y-88061884D01*
X168872593Y-88092036D01*
X168859319Y-88111349D01*
X168837872Y-88139604D01*
X168831623Y-88155386D01*
X168827653Y-88162432D01*
X168824361Y-88169826D01*
X168815418Y-88184250D01*
X168805520Y-88218317D01*
X168797927Y-88240495D01*
X168791119Y-88257689D01*
X168791118Y-88257693D01*
X168784871Y-88273472D01*
X168783097Y-88290351D01*
X168780571Y-88300635D01*
X168778889Y-88309982D01*
X168775249Y-88322512D01*
X168774500Y-88332712D01*
X168774500Y-88359094D01*
X168773136Y-88385122D01*
X168769821Y-88416662D01*
X168772651Y-88433396D01*
X168773145Y-88449104D01*
X168774500Y-88465235D01*
X168774500Y-90100190D01*
X168755546Y-90195478D01*
X168701570Y-90276260D01*
X168620788Y-90330236D01*
X168525500Y-90349190D01*
X168430212Y-90330236D01*
X168349430Y-90276260D01*
X168320293Y-90241226D01*
X168237813Y-90121217D01*
X168237810Y-90121214D01*
X168229312Y-90108849D01*
X168218110Y-90098869D01*
X168218108Y-90098866D01*
X168166017Y-90052455D01*
X168102721Y-89996060D01*
X168066455Y-89976858D01*
X167966144Y-89923746D01*
X167966141Y-89923745D01*
X167952881Y-89916724D01*
X167933362Y-89911821D01*
X167802997Y-89879075D01*
X167802995Y-89879075D01*
X167788441Y-89875419D01*
X167773438Y-89875340D01*
X167773435Y-89875340D01*
X167700861Y-89874960D01*
X167618895Y-89874531D01*
X167454032Y-89914112D01*
X167440699Y-89920994D01*
X167440698Y-89920994D01*
X167316706Y-89984991D01*
X167316704Y-89984992D01*
X167303369Y-89991875D01*
X167175604Y-90103331D01*
X167166970Y-90115616D01*
X167166969Y-90115617D01*
X167141443Y-90151937D01*
X167078113Y-90242047D01*
X167072659Y-90256036D01*
X167021976Y-90386028D01*
X167021975Y-90386032D01*
X167016524Y-90400013D01*
X166994394Y-90568111D01*
X167012999Y-90736635D01*
X167018159Y-90750734D01*
X167034334Y-90794935D01*
X167049500Y-90880507D01*
X167049500Y-94993109D01*
X167032491Y-95083559D01*
X167016524Y-95124513D01*
X166994394Y-95292611D01*
X167012999Y-95461135D01*
X167071266Y-95620356D01*
X167165830Y-95761083D01*
X167291233Y-95875191D01*
X167304425Y-95882353D01*
X167304424Y-95882353D01*
X167427047Y-95948932D01*
X167427050Y-95948933D01*
X167440235Y-95956092D01*
X167454747Y-95959899D01*
X167454749Y-95959900D01*
X167482877Y-95967279D01*
X167604233Y-95999116D01*
X167619245Y-95999352D01*
X167619246Y-95999352D01*
X167678097Y-96000276D01*
X167773760Y-96001779D01*
X167839284Y-95986772D01*
X167924400Y-95967279D01*
X167924404Y-95967277D01*
X167939029Y-95963928D01*
X168090498Y-95887747D01*
X168219423Y-95777634D01*
X168318361Y-95639947D01*
X168320048Y-95641159D01*
X168369811Y-95581956D01*
X168456027Y-95537169D01*
X168552820Y-95528784D01*
X168645453Y-95558079D01*
X168719825Y-95620592D01*
X168764612Y-95706808D01*
X168774500Y-95776281D01*
X168774500Y-96650654D01*
X168755546Y-96745942D01*
X168729223Y-96793825D01*
X168678113Y-96866547D01*
X168672659Y-96880536D01*
X168621976Y-97010528D01*
X168621975Y-97010532D01*
X168616524Y-97024513D01*
X168594394Y-97192611D01*
X168612999Y-97361135D01*
X168671266Y-97520356D01*
X168765830Y-97661083D01*
X168891233Y-97775191D01*
X168904425Y-97782353D01*
X168904424Y-97782353D01*
X169027047Y-97848932D01*
X169027050Y-97848933D01*
X169040235Y-97856092D01*
X169054747Y-97859899D01*
X169054749Y-97859900D01*
X169082877Y-97867279D01*
X169204233Y-97899116D01*
X169219245Y-97899352D01*
X169219246Y-97899352D01*
X169278097Y-97900276D01*
X169373760Y-97901779D01*
X169439284Y-97886772D01*
X169524400Y-97867279D01*
X169524404Y-97867277D01*
X169539029Y-97863928D01*
X169554890Y-97855951D01*
X169607316Y-97829583D01*
X169690498Y-97787747D01*
X169799684Y-97694493D01*
X169808011Y-97687381D01*
X169808012Y-97687380D01*
X169819423Y-97677634D01*
X169918361Y-97539947D01*
X169927321Y-97517658D01*
X169976001Y-97396565D01*
X169976002Y-97396563D01*
X169981601Y-97382634D01*
X169986733Y-97346580D01*
X170004341Y-97222851D01*
X170005490Y-97214778D01*
X170005645Y-97200000D01*
X169995004Y-97112067D01*
X169987079Y-97046576D01*
X169987078Y-97046573D01*
X169985276Y-97031680D01*
X169925345Y-96873077D01*
X169916845Y-96860709D01*
X169916841Y-96860702D01*
X169869293Y-96791520D01*
X169830941Y-96702255D01*
X169825500Y-96650485D01*
X169825500Y-93919137D01*
X169844454Y-93823849D01*
X169898430Y-93743067D01*
X169979212Y-93689091D01*
X170074500Y-93670137D01*
X170169788Y-93689091D01*
X170242080Y-93734969D01*
X170341233Y-93825191D01*
X170354425Y-93832353D01*
X170354424Y-93832353D01*
X170477047Y-93898932D01*
X170477050Y-93898933D01*
X170490235Y-93906092D01*
X170504747Y-93909899D01*
X170504749Y-93909900D01*
X170558813Y-93924083D01*
X170654233Y-93949116D01*
X170669245Y-93949352D01*
X170669246Y-93949352D01*
X170728097Y-93950276D01*
X170823760Y-93951779D01*
X170889284Y-93936772D01*
X170974400Y-93917279D01*
X170974404Y-93917277D01*
X170989029Y-93913928D01*
X171018845Y-93898932D01*
X171127080Y-93844496D01*
X171127085Y-93844493D01*
X171140498Y-93837747D01*
X171151916Y-93827995D01*
X171164419Y-93819688D01*
X171166245Y-93822437D01*
X171228296Y-93787687D01*
X171305241Y-93775500D01*
X172344957Y-93775500D01*
X172440245Y-93794454D01*
X172484134Y-93818732D01*
X172491233Y-93825191D01*
X172526789Y-93844496D01*
X172627047Y-93898932D01*
X172627050Y-93898933D01*
X172640235Y-93906092D01*
X172654747Y-93909899D01*
X172654749Y-93909900D01*
X172708813Y-93924083D01*
X172804233Y-93949116D01*
X172819245Y-93949352D01*
X172819246Y-93949352D01*
X172878097Y-93950276D01*
X172973760Y-93951779D01*
X173039284Y-93936772D01*
X173124400Y-93917279D01*
X173124404Y-93917277D01*
X173139029Y-93913928D01*
X173290498Y-93837747D01*
X173379166Y-93762017D01*
X173408011Y-93737381D01*
X173408012Y-93737380D01*
X173419423Y-93727634D01*
X173518361Y-93589947D01*
X173581601Y-93432634D01*
X173605490Y-93264778D01*
X173605645Y-93250000D01*
X173585276Y-93081680D01*
X173525345Y-92923077D01*
X173429312Y-92783349D01*
X173418110Y-92773369D01*
X173418108Y-92773366D01*
X173327458Y-92692600D01*
X173302721Y-92670560D01*
X173281815Y-92659491D01*
X173166144Y-92598246D01*
X173166141Y-92598245D01*
X173152881Y-92591224D01*
X173133362Y-92586321D01*
X173002997Y-92553575D01*
X173002995Y-92553575D01*
X172988441Y-92549919D01*
X172973438Y-92549840D01*
X172973435Y-92549840D01*
X172900861Y-92549460D01*
X172818895Y-92549031D01*
X172654032Y-92588612D01*
X172503369Y-92666375D01*
X172492054Y-92676246D01*
X172484408Y-92681442D01*
X172394944Y-92719326D01*
X172344447Y-92724500D01*
X171305202Y-92724500D01*
X171209914Y-92705546D01*
X171163569Y-92680225D01*
X171152721Y-92670560D01*
X171130202Y-92658637D01*
X171016144Y-92598246D01*
X171016141Y-92598245D01*
X171002881Y-92591224D01*
X170983362Y-92586321D01*
X170852997Y-92553575D01*
X170852995Y-92553575D01*
X170838441Y-92549919D01*
X170823438Y-92549840D01*
X170823435Y-92549840D01*
X170750861Y-92549460D01*
X170668895Y-92549031D01*
X170504032Y-92588612D01*
X170490699Y-92595494D01*
X170490698Y-92595494D01*
X170366706Y-92659491D01*
X170366704Y-92659492D01*
X170353369Y-92666375D01*
X170342059Y-92676241D01*
X170342058Y-92676242D01*
X170238186Y-92766855D01*
X170153920Y-92815212D01*
X170057564Y-92827640D01*
X169963785Y-92802249D01*
X169886862Y-92742903D01*
X169838505Y-92658637D01*
X169825500Y-92579217D01*
X169825500Y-88720809D01*
X169844454Y-88625521D01*
X169898430Y-88544739D01*
X173081121Y-85362048D01*
X173161903Y-85308072D01*
X173201601Y-85295403D01*
X173339029Y-85263928D01*
X173490498Y-85187747D01*
X173588327Y-85104193D01*
X173608011Y-85087381D01*
X173608012Y-85087380D01*
X173619423Y-85077634D01*
X173718361Y-84939947D01*
X173781601Y-84782634D01*
X173784458Y-84762565D01*
X173804341Y-84622851D01*
X173805490Y-84614778D01*
X173805645Y-84600000D01*
X173796094Y-84521073D01*
X173787079Y-84446576D01*
X173787078Y-84446573D01*
X173785276Y-84431680D01*
X173725345Y-84273077D01*
X173629312Y-84133349D01*
X173618110Y-84123369D01*
X173618108Y-84123366D01*
X173531908Y-84046565D01*
X173502721Y-84020560D01*
X173478890Y-84007942D01*
X173366144Y-83948246D01*
X173366141Y-83948245D01*
X173352881Y-83941224D01*
X173333362Y-83936321D01*
X173202997Y-83903575D01*
X173202995Y-83903575D01*
X173188441Y-83899919D01*
X173173438Y-83899840D01*
X173173435Y-83899840D01*
X173100861Y-83899460D01*
X173018895Y-83899031D01*
X172854032Y-83938612D01*
X172840696Y-83945495D01*
X172840694Y-83945496D01*
X172719706Y-84007942D01*
X172626338Y-84034803D01*
X172529798Y-84023889D01*
X172444784Y-83976861D01*
X172384237Y-83900879D01*
X172363303Y-83842891D01*
X172362202Y-83832419D01*
X172357716Y-83819242D01*
X172357715Y-83819237D01*
X172310620Y-83680900D01*
X172306133Y-83667719D01*
X172225787Y-83537117D01*
X172222264Y-83531390D01*
X172222261Y-83531387D01*
X172214969Y-83519533D01*
X172093240Y-83395228D01*
X171946996Y-83300980D01*
X171933918Y-83296220D01*
X171933916Y-83296219D01*
X171879029Y-83276242D01*
X171783507Y-83241475D01*
X171769704Y-83239731D01*
X171769703Y-83239731D01*
X171656897Y-83225480D01*
X171656892Y-83225480D01*
X171649137Y-83224500D01*
X171556254Y-83224500D01*
X171549338Y-83225276D01*
X171549334Y-83225276D01*
X171474717Y-83233646D01*
X171427102Y-83238987D01*
X171413957Y-83243565D01*
X171413955Y-83243565D01*
X171406291Y-83246234D01*
X171262797Y-83296204D01*
X171243086Y-83308521D01*
X171127054Y-83381025D01*
X171127052Y-83381027D01*
X171115252Y-83388400D01*
X171105377Y-83398206D01*
X171105376Y-83398207D01*
X171001677Y-83501184D01*
X171001674Y-83501188D01*
X170991799Y-83510994D01*
X170984342Y-83522745D01*
X170984340Y-83522747D01*
X170909754Y-83640276D01*
X170842692Y-83710574D01*
X170753833Y-83749858D01*
X170656705Y-83752147D01*
X170566095Y-83717093D01*
X170495797Y-83650031D01*
X170487436Y-83637327D01*
X170422264Y-83531390D01*
X170422261Y-83531387D01*
X170414969Y-83519533D01*
X170293240Y-83395228D01*
X170146996Y-83300980D01*
X170133918Y-83296220D01*
X170133916Y-83296219D01*
X170079029Y-83276242D01*
X169983507Y-83241475D01*
X169969704Y-83239731D01*
X169969703Y-83239731D01*
X169856897Y-83225480D01*
X169856892Y-83225480D01*
X169849137Y-83224500D01*
X169756254Y-83224500D01*
X169749338Y-83225276D01*
X169749334Y-83225276D01*
X169674717Y-83233646D01*
X169627102Y-83238987D01*
X169613957Y-83243565D01*
X169613955Y-83243565D01*
X169606291Y-83246234D01*
X169462797Y-83296204D01*
X169315252Y-83388400D01*
X169305377Y-83398206D01*
X169304580Y-83398838D01*
X169218130Y-83443172D01*
X169121295Y-83451048D01*
X169028817Y-83421267D01*
X168998800Y-83400906D01*
X168993240Y-83395228D01*
X168974808Y-83383349D01*
X168858697Y-83308521D01*
X168846996Y-83300980D01*
X168833918Y-83296220D01*
X168833916Y-83296219D01*
X168779029Y-83276242D01*
X168683507Y-83241475D01*
X168669704Y-83239731D01*
X168669703Y-83239731D01*
X168556897Y-83225480D01*
X168556892Y-83225480D01*
X168549137Y-83224500D01*
X168456254Y-83224500D01*
X168449338Y-83225276D01*
X168449334Y-83225276D01*
X168374717Y-83233646D01*
X168327102Y-83238987D01*
X168313957Y-83243565D01*
X168313955Y-83243565D01*
X168306291Y-83246234D01*
X168162797Y-83296204D01*
X168143086Y-83308521D01*
X168027054Y-83381025D01*
X168027052Y-83381027D01*
X168015252Y-83388400D01*
X168005377Y-83398206D01*
X168005376Y-83398207D01*
X167901677Y-83501184D01*
X167901674Y-83501188D01*
X167891799Y-83510994D01*
X167884342Y-83522745D01*
X167884340Y-83522747D01*
X167809754Y-83640276D01*
X167742692Y-83710574D01*
X167653833Y-83749858D01*
X167556705Y-83752147D01*
X167466095Y-83717093D01*
X167395797Y-83650031D01*
X167387436Y-83637327D01*
X167322264Y-83531390D01*
X167322261Y-83531387D01*
X167314969Y-83519533D01*
X167193240Y-83395228D01*
X167046996Y-83300980D01*
X167033918Y-83296220D01*
X167033916Y-83296219D01*
X166979029Y-83276242D01*
X166883507Y-83241475D01*
X166869704Y-83239731D01*
X166869703Y-83239731D01*
X166756897Y-83225480D01*
X166756892Y-83225480D01*
X166749137Y-83224500D01*
X166656254Y-83224500D01*
X166649338Y-83225276D01*
X166649334Y-83225276D01*
X166574717Y-83233646D01*
X166527102Y-83238987D01*
X166513957Y-83243565D01*
X166513955Y-83243565D01*
X166506291Y-83246234D01*
X166362797Y-83296204D01*
X166215252Y-83388400D01*
X166205377Y-83398206D01*
X166204580Y-83398838D01*
X166118130Y-83443172D01*
X166021295Y-83451048D01*
X165928817Y-83421267D01*
X165898800Y-83400906D01*
X165893240Y-83395228D01*
X165874808Y-83383349D01*
X165758697Y-83308521D01*
X165746996Y-83300980D01*
X165733918Y-83296220D01*
X165733916Y-83296219D01*
X165679029Y-83276242D01*
X165583507Y-83241475D01*
X165569704Y-83239731D01*
X165569703Y-83239731D01*
X165456897Y-83225480D01*
X165456892Y-83225480D01*
X165449137Y-83224500D01*
X165356254Y-83224500D01*
X165349338Y-83225276D01*
X165349334Y-83225276D01*
X165274717Y-83233646D01*
X165227102Y-83238987D01*
X165213957Y-83243565D01*
X165213955Y-83243565D01*
X165206291Y-83246234D01*
X165062797Y-83296204D01*
X165043086Y-83308521D01*
X164927054Y-83381025D01*
X164927052Y-83381027D01*
X164915252Y-83388400D01*
X164905377Y-83398206D01*
X164905376Y-83398207D01*
X164801677Y-83501184D01*
X164801674Y-83501188D01*
X164791799Y-83510994D01*
X164784342Y-83522745D01*
X164784340Y-83522747D01*
X164709754Y-83640276D01*
X164642692Y-83710574D01*
X164553833Y-83749858D01*
X164456705Y-83752147D01*
X164366095Y-83717093D01*
X164295797Y-83650031D01*
X164287436Y-83637327D01*
X164222264Y-83531390D01*
X164222261Y-83531387D01*
X164214969Y-83519533D01*
X164093240Y-83395228D01*
X163946996Y-83300980D01*
X163933918Y-83296220D01*
X163933916Y-83296219D01*
X163879029Y-83276242D01*
X163783507Y-83241475D01*
X163769704Y-83239731D01*
X163769703Y-83239731D01*
X163656897Y-83225480D01*
X163656892Y-83225480D01*
X163649137Y-83224500D01*
X163556254Y-83224500D01*
X163549338Y-83225276D01*
X163549334Y-83225276D01*
X163474717Y-83233646D01*
X163427102Y-83238987D01*
X163413957Y-83243565D01*
X163413955Y-83243565D01*
X163406291Y-83246234D01*
X163262797Y-83296204D01*
X163243086Y-83308521D01*
X163127054Y-83381025D01*
X163127052Y-83381027D01*
X163115252Y-83388400D01*
X163105377Y-83398206D01*
X163105376Y-83398207D01*
X163001677Y-83501184D01*
X163001674Y-83501188D01*
X162991799Y-83510994D01*
X162898575Y-83657892D01*
X162893907Y-83671000D01*
X162893906Y-83671003D01*
X162877494Y-83717093D01*
X162840212Y-83821793D01*
X162819612Y-83994552D01*
X153951021Y-83994552D01*
X153968341Y-83872851D01*
X153969490Y-83864778D01*
X153969645Y-83850000D01*
X153960094Y-83771073D01*
X153951079Y-83696576D01*
X153951078Y-83696573D01*
X153949276Y-83681680D01*
X153889345Y-83523077D01*
X153793312Y-83383349D01*
X153782110Y-83373369D01*
X153782108Y-83373366D01*
X153709327Y-83308521D01*
X153666721Y-83270560D01*
X153620777Y-83246234D01*
X153530144Y-83198246D01*
X153530141Y-83198245D01*
X153516881Y-83191224D01*
X153497362Y-83186321D01*
X153366997Y-83153575D01*
X153366995Y-83153575D01*
X153352441Y-83149919D01*
X153337438Y-83149840D01*
X153337435Y-83149840D01*
X153264861Y-83149460D01*
X153182895Y-83149031D01*
X153018032Y-83188612D01*
X152906392Y-83246234D01*
X152869336Y-83265360D01*
X152775968Y-83292221D01*
X152679428Y-83281307D01*
X152638624Y-83264155D01*
X152500881Y-83191224D01*
X152481362Y-83186321D01*
X152350997Y-83153575D01*
X152350995Y-83153575D01*
X152336441Y-83149919D01*
X152321438Y-83149840D01*
X152321435Y-83149840D01*
X152248861Y-83149460D01*
X152166895Y-83149031D01*
X152002032Y-83188612D01*
X151890392Y-83246234D01*
X151853336Y-83265360D01*
X151759968Y-83292221D01*
X151663428Y-83281307D01*
X151622624Y-83264155D01*
X151484881Y-83191224D01*
X151465362Y-83186321D01*
X151334997Y-83153575D01*
X151334995Y-83153575D01*
X151320441Y-83149919D01*
X151305438Y-83149840D01*
X151305435Y-83149840D01*
X151232861Y-83149460D01*
X151150895Y-83149031D01*
X150986032Y-83188612D01*
X150874392Y-83246234D01*
X150837336Y-83265360D01*
X150743968Y-83292221D01*
X150647428Y-83281307D01*
X150606624Y-83264155D01*
X150468881Y-83191224D01*
X150449362Y-83186321D01*
X150318997Y-83153575D01*
X150318995Y-83153575D01*
X150304441Y-83149919D01*
X150289438Y-83149840D01*
X150289435Y-83149840D01*
X150216861Y-83149460D01*
X150134895Y-83149031D01*
X149970032Y-83188612D01*
X149956699Y-83195494D01*
X149956698Y-83195494D01*
X149832706Y-83259491D01*
X149832704Y-83259492D01*
X149819369Y-83266375D01*
X149808059Y-83276241D01*
X149808058Y-83276242D01*
X149707528Y-83363940D01*
X149691604Y-83377831D01*
X149682970Y-83390116D01*
X149682969Y-83390117D01*
X149676840Y-83398838D01*
X149594113Y-83516547D01*
X149588659Y-83530536D01*
X149537976Y-83660528D01*
X149537975Y-83660532D01*
X149532524Y-83674513D01*
X149510394Y-83842611D01*
X109700500Y-83842611D01*
X109700500Y-81062781D01*
X109702631Y-81030274D01*
X109703647Y-81022561D01*
X109703647Y-81022557D01*
X109705606Y-81007680D01*
X109703960Y-80992762D01*
X109704034Y-80985676D01*
X109705943Y-80957406D01*
X109705956Y-80957302D01*
X109721664Y-80896158D01*
X109726180Y-80884805D01*
X109756498Y-80829938D01*
X109762481Y-80821750D01*
X109829613Y-80762338D01*
X109828561Y-80760894D01*
X109836063Y-80755428D01*
X109837053Y-80754974D01*
X109837062Y-80754968D01*
X109859226Y-80737366D01*
X109883677Y-80720235D01*
X111199798Y-79911235D01*
X111204099Y-79908650D01*
X111227391Y-79894972D01*
X111955560Y-79467351D01*
X112577740Y-79101973D01*
X112582092Y-79099476D01*
X112883169Y-78930732D01*
X112991967Y-78869754D01*
X119744967Y-78869754D01*
X119758796Y-79080749D01*
X119761605Y-79091810D01*
X119761606Y-79091815D01*
X119794910Y-79222946D01*
X119810845Y-79285690D01*
X119815624Y-79296057D01*
X119815626Y-79296062D01*
X119851490Y-79373857D01*
X119899369Y-79477714D01*
X119905955Y-79487033D01*
X120003780Y-79625452D01*
X120021405Y-79650391D01*
X120172865Y-79797937D01*
X120348677Y-79915411D01*
X120427318Y-79949197D01*
X120532464Y-79994372D01*
X120532468Y-79994373D01*
X120542953Y-79998878D01*
X120749186Y-80045544D01*
X120864745Y-80050085D01*
X120949060Y-80053398D01*
X120949064Y-80053398D01*
X120960470Y-80053846D01*
X121169730Y-80023504D01*
X121369955Y-79955537D01*
X121554442Y-79852219D01*
X121563216Y-79844922D01*
X121563220Y-79844919D01*
X121708231Y-79724315D01*
X121717012Y-79717012D01*
X121772420Y-79650391D01*
X121844919Y-79563220D01*
X121844922Y-79563216D01*
X121852219Y-79554442D01*
X121955537Y-79369955D01*
X122023504Y-79169730D01*
X122053846Y-78960470D01*
X122055429Y-78900000D01*
X122045910Y-78796405D01*
X122037126Y-78700808D01*
X122037125Y-78700804D01*
X122036081Y-78689440D01*
X122013028Y-78607699D01*
X121981786Y-78496922D01*
X121981785Y-78496920D01*
X121978686Y-78485931D01*
X121885165Y-78296290D01*
X121758651Y-78126867D01*
X121603381Y-77983337D01*
X121593723Y-77977243D01*
X121587814Y-77972709D01*
X121523756Y-77899663D01*
X121513055Y-77875629D01*
X121502579Y-77861789D01*
X120917341Y-77276551D01*
X120900000Y-77264964D01*
X120882659Y-77276551D01*
X120303508Y-77855702D01*
X120263709Y-77915266D01*
X120263001Y-77916977D01*
X120220115Y-77965888D01*
X120061881Y-78104655D01*
X120054816Y-78113617D01*
X120054815Y-78113618D01*
X120015406Y-78163609D01*
X119930976Y-78270708D01*
X119832523Y-78457836D01*
X119769820Y-78659773D01*
X119764963Y-78700808D01*
X119747201Y-78850882D01*
X119744967Y-78869754D01*
X112991967Y-78869754D01*
X113971714Y-78320638D01*
X113976058Y-78318261D01*
X114841824Y-77855702D01*
X115381069Y-77567596D01*
X115385518Y-77565277D01*
X116730489Y-76881162D01*
X119746216Y-76881162D01*
X119758545Y-77069278D01*
X119762102Y-77091733D01*
X119808509Y-77274464D01*
X119816097Y-77295889D01*
X119895025Y-77467096D01*
X119906392Y-77486785D01*
X119911953Y-77494653D01*
X119927083Y-77509011D01*
X119935548Y-77505242D01*
X120523449Y-76917341D01*
X120535036Y-76900000D01*
X121264964Y-76900000D01*
X121276551Y-76917341D01*
X121856565Y-77497355D01*
X121873906Y-77508942D01*
X121876761Y-77507034D01*
X121882280Y-77499743D01*
X121949497Y-77379716D01*
X121958748Y-77358939D01*
X122019346Y-77180425D01*
X122024655Y-77158309D01*
X122052291Y-76967707D01*
X122053536Y-76953112D01*
X122054735Y-76907323D01*
X122054256Y-76892698D01*
X122036633Y-76700907D01*
X122032488Y-76678538D01*
X121981315Y-76497097D01*
X121973168Y-76475873D01*
X121889785Y-76306789D01*
X121885145Y-76299216D01*
X121874472Y-76289607D01*
X121865164Y-76294046D01*
X121276551Y-76882659D01*
X121264964Y-76900000D01*
X120535036Y-76900000D01*
X120523449Y-76882659D01*
X119941972Y-76301182D01*
X119924631Y-76289595D01*
X119923171Y-76290571D01*
X119915888Y-76300459D01*
X119838302Y-76447926D01*
X119829602Y-76468929D01*
X119773697Y-76648973D01*
X119768969Y-76671216D01*
X119746811Y-76858427D01*
X119746216Y-76881162D01*
X116730489Y-76881162D01*
X116805398Y-76843060D01*
X116809845Y-76840854D01*
X118243961Y-76147408D01*
X118248497Y-76145271D01*
X118721127Y-75928377D01*
X120291748Y-75928377D01*
X120293452Y-75933191D01*
X120297132Y-75937922D01*
X120882659Y-76523449D01*
X120900000Y-76535036D01*
X120917341Y-76523449D01*
X121496203Y-75944587D01*
X121507790Y-75927246D01*
X121504023Y-75921608D01*
X121501823Y-75919850D01*
X121433976Y-75877041D01*
X121413724Y-75866723D01*
X121238624Y-75796865D01*
X121216820Y-75790406D01*
X121031916Y-75753626D01*
X121009311Y-75751251D01*
X120820797Y-75748782D01*
X120798132Y-75750567D01*
X120612341Y-75782491D01*
X120590370Y-75788378D01*
X120413500Y-75853629D01*
X120392981Y-75863416D01*
X120307245Y-75914423D01*
X120291748Y-75928377D01*
X118721127Y-75928377D01*
X119696305Y-75480860D01*
X119700887Y-75478813D01*
X120068498Y-75319000D01*
X121161776Y-74843716D01*
X121166358Y-74841778D01*
X122247534Y-74397439D01*
X122639792Y-74236230D01*
X122644452Y-74234370D01*
X123553766Y-73881908D01*
X124129768Y-73658642D01*
X124134392Y-73656904D01*
X125630960Y-73111240D01*
X125635691Y-73109568D01*
X127143030Y-72594144D01*
X127147794Y-72592569D01*
X127664868Y-72427319D01*
X128609891Y-72125303D01*
X128643966Y-72117006D01*
X128661949Y-72113950D01*
X128661954Y-72113948D01*
X128661959Y-72113947D01*
X128671512Y-72109804D01*
X128681224Y-72107069D01*
X128713153Y-72100301D01*
X128716754Y-72099781D01*
X128720832Y-72099193D01*
X128798082Y-72100157D01*
X128812607Y-72102624D01*
X128885884Y-72127240D01*
X128898955Y-72134044D01*
X128961140Y-72179936D01*
X128971492Y-72190417D01*
X129016617Y-72253179D01*
X129023256Y-72266330D01*
X129046955Y-72339882D01*
X129048917Y-72352365D01*
X129050939Y-72380116D01*
X129050203Y-72385705D01*
X129051850Y-72400620D01*
X129053805Y-72418326D01*
X129055309Y-72445654D01*
X129055309Y-76787505D01*
X129053179Y-76820005D01*
X129050203Y-76842611D01*
X129051019Y-76850000D01*
X129050956Y-76850000D01*
X129051274Y-76854443D01*
X129051274Y-76854449D01*
X129064942Y-77045543D01*
X129068309Y-77092626D01*
X129120015Y-77330313D01*
X129123122Y-77338643D01*
X129123125Y-77338652D01*
X129178376Y-77486785D01*
X129205021Y-77558222D01*
X129209279Y-77566019D01*
X129209279Y-77566020D01*
X129278379Y-77692565D01*
X129321597Y-77771713D01*
X129467369Y-77966441D01*
X129639371Y-78138441D01*
X129642206Y-78140563D01*
X129700609Y-78215746D01*
X129726313Y-78309439D01*
X129714205Y-78405836D01*
X129666128Y-78490263D01*
X129589403Y-78549864D01*
X129538610Y-78568699D01*
X129514783Y-78574684D01*
X129288507Y-78673072D01*
X129081339Y-78807095D01*
X128898842Y-78973154D01*
X128745918Y-79166790D01*
X128740982Y-79175731D01*
X128740981Y-79175733D01*
X128707587Y-79236227D01*
X128626673Y-79382802D01*
X128623264Y-79392428D01*
X128623262Y-79392433D01*
X128567985Y-79548530D01*
X128544309Y-79615390D01*
X128501039Y-79858306D01*
X128500914Y-79868526D01*
X128500914Y-79868528D01*
X128500591Y-79894972D01*
X128498025Y-80105028D01*
X128535347Y-80348930D01*
X128538521Y-80358641D01*
X128550157Y-80394240D01*
X128612003Y-80583460D01*
X128725935Y-80802321D01*
X128874083Y-80999636D01*
X128881463Y-81006688D01*
X128881467Y-81006693D01*
X129045079Y-81163043D01*
X129052468Y-81170104D01*
X129108176Y-81208105D01*
X129247854Y-81303388D01*
X129247858Y-81303390D01*
X129256300Y-81309149D01*
X129480104Y-81413035D01*
X129489939Y-81415762D01*
X129489943Y-81415764D01*
X129708022Y-81476243D01*
X129708026Y-81476244D01*
X129717871Y-81478974D01*
X129850982Y-81493200D01*
X129912703Y-81499796D01*
X129912706Y-81499796D01*
X129919292Y-81500500D01*
X130062554Y-81500500D01*
X130245911Y-81485425D01*
X130485217Y-81425316D01*
X130711493Y-81326928D01*
X130918661Y-81192905D01*
X131101158Y-81026846D01*
X131254082Y-80833210D01*
X131293206Y-80762338D01*
X131368389Y-80626143D01*
X131373327Y-80617198D01*
X131385275Y-80583460D01*
X131452281Y-80394240D01*
X131452282Y-80394238D01*
X131455691Y-80384610D01*
X131498961Y-80141694D01*
X131499286Y-80115135D01*
X131501776Y-79911235D01*
X131501975Y-79894972D01*
X131464653Y-79651070D01*
X131452991Y-79615390D01*
X131391171Y-79426250D01*
X131391170Y-79426247D01*
X131387997Y-79416540D01*
X131274065Y-79197679D01*
X131125917Y-79000364D01*
X131104104Y-78979519D01*
X131048309Y-78899983D01*
X131027198Y-78805149D01*
X131043985Y-78709455D01*
X131096115Y-78627470D01*
X131175651Y-78571675D01*
X131276134Y-78550500D01*
X139658405Y-78550500D01*
X139690906Y-78552630D01*
X139713511Y-78555606D01*
X139727308Y-78554083D01*
X139761808Y-78556979D01*
X139774507Y-78558991D01*
X139848585Y-78583060D01*
X139861799Y-78589793D01*
X139924827Y-78635584D01*
X139935316Y-78646073D01*
X139981107Y-78709101D01*
X139982468Y-78711772D01*
X139987839Y-78722313D01*
X140011910Y-78796397D01*
X140013960Y-78809339D01*
X140016006Y-78837204D01*
X140015294Y-78842611D01*
X140016941Y-78857527D01*
X140018896Y-78875239D01*
X140020400Y-78902562D01*
X140020400Y-82140828D01*
X140020397Y-82142132D01*
X140019931Y-82231105D01*
X140023434Y-82245698D01*
X140023435Y-82245703D01*
X140026942Y-82260312D01*
X140032017Y-82288515D01*
X140035624Y-82318320D01*
X140044477Y-82341750D01*
X140053667Y-82371620D01*
X140059512Y-82395968D01*
X140066393Y-82409300D01*
X140066394Y-82409302D01*
X140073281Y-82422645D01*
X140084940Y-82448833D01*
X140090248Y-82462881D01*
X140090252Y-82462888D01*
X140095555Y-82476923D01*
X140104057Y-82489293D01*
X140104059Y-82489297D01*
X140109737Y-82497559D01*
X140125795Y-82524389D01*
X140130388Y-82533288D01*
X140137275Y-82546631D01*
X140147144Y-82557944D01*
X140147146Y-82557947D01*
X140157012Y-82569256D01*
X140174573Y-82591895D01*
X140191588Y-82616651D01*
X140210289Y-82633313D01*
X140232267Y-82655523D01*
X140248731Y-82674396D01*
X140261015Y-82683029D01*
X140261019Y-82683033D01*
X140273296Y-82691662D01*
X140295757Y-82709464D01*
X140306972Y-82719456D01*
X140306978Y-82719460D01*
X140318179Y-82729440D01*
X140331441Y-82736462D01*
X140331444Y-82736464D01*
X140340312Y-82741160D01*
X140366961Y-82757490D01*
X140369766Y-82759461D01*
X140387447Y-82771887D01*
X140415424Y-82782795D01*
X140441483Y-82794726D01*
X140454756Y-82801754D01*
X140454759Y-82801755D01*
X140468019Y-82808776D01*
X140482574Y-82812432D01*
X140492296Y-82814874D01*
X140522086Y-82824381D01*
X140531429Y-82828024D01*
X140531431Y-82828024D01*
X140545413Y-82833476D01*
X140570865Y-82836827D01*
X140575187Y-82837396D01*
X140603345Y-82842768D01*
X140632459Y-82850081D01*
X140672821Y-82850292D01*
X140673270Y-82850308D01*
X140674726Y-82850500D01*
X140711728Y-82850500D01*
X140713032Y-82850503D01*
X140802005Y-82850969D01*
X140803715Y-82850558D01*
X140804727Y-82850500D01*
X147269928Y-82850500D01*
X147271232Y-82850503D01*
X147360205Y-82850969D01*
X147374798Y-82847466D01*
X147374803Y-82847465D01*
X147389412Y-82843958D01*
X147417616Y-82838883D01*
X147432514Y-82837080D01*
X147447420Y-82835276D01*
X147470850Y-82826423D01*
X147500720Y-82817233D01*
X147525068Y-82811388D01*
X147543734Y-82801754D01*
X147551745Y-82797619D01*
X147577933Y-82785960D01*
X147591981Y-82780652D01*
X147591988Y-82780648D01*
X147606023Y-82775345D01*
X147618393Y-82766843D01*
X147618397Y-82766841D01*
X147626659Y-82761163D01*
X147653489Y-82745105D01*
X147662388Y-82740512D01*
X147662390Y-82740510D01*
X147675731Y-82733625D01*
X147687044Y-82723756D01*
X147687047Y-82723754D01*
X147698356Y-82713888D01*
X147720995Y-82696327D01*
X147745751Y-82679312D01*
X147762413Y-82660611D01*
X147784623Y-82638633D01*
X147803496Y-82622169D01*
X147812129Y-82609885D01*
X147812133Y-82609881D01*
X147820762Y-82597604D01*
X147838564Y-82575143D01*
X147848556Y-82563928D01*
X147848560Y-82563922D01*
X147858540Y-82552721D01*
X147865564Y-82539456D01*
X147870260Y-82530588D01*
X147886590Y-82503939D01*
X147892356Y-82495734D01*
X147900987Y-82483453D01*
X147911895Y-82455476D01*
X147923826Y-82429417D01*
X147930854Y-82416144D01*
X147930855Y-82416141D01*
X147937876Y-82402881D01*
X147943974Y-82378604D01*
X147953481Y-82348814D01*
X147957124Y-82339471D01*
X147957124Y-82339469D01*
X147962576Y-82325487D01*
X147966496Y-82295713D01*
X147971868Y-82267556D01*
X147975524Y-82252999D01*
X147979181Y-82238441D01*
X147979392Y-82198079D01*
X147979408Y-82197630D01*
X147979600Y-82196174D01*
X147979600Y-82159172D01*
X147979603Y-82157868D01*
X147980043Y-82073855D01*
X147980069Y-82068895D01*
X147979658Y-82067185D01*
X147979600Y-82066173D01*
X147979600Y-78917470D01*
X147982084Y-78882385D01*
X147983441Y-78872849D01*
X147984590Y-78864778D01*
X147984745Y-78850000D01*
X147984731Y-78849888D01*
X147987167Y-78802227D01*
X147988089Y-78796405D01*
X148012161Y-78722313D01*
X148017532Y-78711772D01*
X148018893Y-78709101D01*
X148064684Y-78646073D01*
X148075173Y-78635584D01*
X148138201Y-78589793D01*
X148151415Y-78583060D01*
X148225497Y-78558990D01*
X148238439Y-78556940D01*
X148266304Y-78554894D01*
X148271711Y-78555606D01*
X148300389Y-78552440D01*
X148304339Y-78552004D01*
X148331662Y-78550500D01*
X156721457Y-78550500D01*
X156816745Y-78569454D01*
X156897527Y-78623430D01*
X156951503Y-78704212D01*
X156970457Y-78799500D01*
X156951503Y-78894788D01*
X156904277Y-78968209D01*
X156898842Y-78973154D01*
X156745918Y-79166790D01*
X156740982Y-79175731D01*
X156740981Y-79175733D01*
X156707587Y-79236227D01*
X156626673Y-79382802D01*
X156623264Y-79392428D01*
X156623262Y-79392433D01*
X156567985Y-79548530D01*
X156544309Y-79615390D01*
X156501039Y-79858306D01*
X156500914Y-79868526D01*
X156500914Y-79868528D01*
X156500591Y-79894972D01*
X156498025Y-80105028D01*
X156535347Y-80348930D01*
X156538521Y-80358641D01*
X156550157Y-80394240D01*
X156612003Y-80583460D01*
X156725935Y-80802321D01*
X156874083Y-80999636D01*
X156881463Y-81006688D01*
X156881467Y-81006693D01*
X157045079Y-81163043D01*
X157052468Y-81170104D01*
X157108176Y-81208105D01*
X157247854Y-81303388D01*
X157247858Y-81303390D01*
X157256300Y-81309149D01*
X157480104Y-81413035D01*
X157489939Y-81415762D01*
X157489943Y-81415764D01*
X157708022Y-81476243D01*
X157708026Y-81476244D01*
X157717871Y-81478974D01*
X157850982Y-81493200D01*
X157912703Y-81499796D01*
X157912706Y-81499796D01*
X157919292Y-81500500D01*
X158062554Y-81500500D01*
X158245911Y-81485425D01*
X158485217Y-81425316D01*
X158711493Y-81326928D01*
X158918661Y-81192905D01*
X159101158Y-81026846D01*
X159254082Y-80833210D01*
X159293206Y-80762338D01*
X159368389Y-80626143D01*
X159373327Y-80617198D01*
X159385275Y-80583460D01*
X159452281Y-80394240D01*
X159452282Y-80394238D01*
X159455691Y-80384610D01*
X159498961Y-80141694D01*
X159499286Y-80115135D01*
X159501776Y-79911235D01*
X159501975Y-79894972D01*
X159464653Y-79651070D01*
X159452991Y-79615390D01*
X159391171Y-79426250D01*
X159391170Y-79426247D01*
X159387997Y-79416540D01*
X159274065Y-79197679D01*
X159125917Y-79000364D01*
X159118537Y-78993312D01*
X159118533Y-78993307D01*
X158954921Y-78836957D01*
X158947532Y-78829896D01*
X158829141Y-78749135D01*
X158752146Y-78696612D01*
X158752142Y-78696610D01*
X158743700Y-78690851D01*
X158519896Y-78586965D01*
X158510056Y-78584236D01*
X158453783Y-78568630D01*
X158367026Y-78524900D01*
X158303607Y-78451299D01*
X158273182Y-78359031D01*
X158280382Y-78262143D01*
X158324112Y-78175386D01*
X158355807Y-78142039D01*
X158360623Y-78138434D01*
X158532624Y-77966435D01*
X158678395Y-77771708D01*
X158794971Y-77558218D01*
X158798076Y-77549894D01*
X158798078Y-77549889D01*
X158876868Y-77338643D01*
X158879976Y-77330310D01*
X158931682Y-77092625D01*
X158935050Y-77045543D01*
X158945637Y-76897510D01*
X158947483Y-76880222D01*
X158949681Y-76864778D01*
X158949836Y-76850000D01*
X158946494Y-76822383D01*
X158944691Y-76792469D01*
X158944691Y-75329836D01*
X160926308Y-75329836D01*
X160946141Y-75556528D01*
X161005037Y-75776332D01*
X161101208Y-75982570D01*
X161107446Y-75991478D01*
X161107446Y-75991479D01*
X161113607Y-76000278D01*
X161231729Y-76168975D01*
X161351805Y-76289051D01*
X161405781Y-76369833D01*
X161424735Y-76465121D01*
X161405781Y-76560409D01*
X161351805Y-76641191D01*
X161307686Y-76676284D01*
X161212110Y-76736007D01*
X161199515Y-76751017D01*
X161199514Y-76751018D01*
X161143157Y-76818181D01*
X161143155Y-76818184D01*
X161130562Y-76833192D01*
X161083037Y-76950820D01*
X161076414Y-77045543D01*
X161077266Y-77055281D01*
X161077266Y-77055286D01*
X161237118Y-78882385D01*
X161238789Y-78901490D01*
X161261759Y-78993625D01*
X161328988Y-79101213D01*
X161343998Y-79113808D01*
X161343999Y-79113809D01*
X161411162Y-79170166D01*
X161411165Y-79170168D01*
X161426173Y-79182761D01*
X161484987Y-79206523D01*
X161525633Y-79222946D01*
X161525635Y-79222947D01*
X161543801Y-79230286D01*
X161563345Y-79231652D01*
X161563347Y-79231653D01*
X161604006Y-79234496D01*
X161638524Y-79236909D01*
X161648262Y-79236057D01*
X161648267Y-79236057D01*
X163484726Y-79075387D01*
X163484731Y-79075386D01*
X163494471Y-79074534D01*
X163503954Y-79072170D01*
X163503959Y-79072169D01*
X163567589Y-79056305D01*
X163567588Y-79056305D01*
X163586606Y-79051564D01*
X163694194Y-78984335D01*
X163708128Y-78967729D01*
X163763147Y-78902161D01*
X163763149Y-78902158D01*
X163775742Y-78887150D01*
X163807183Y-78809332D01*
X163815927Y-78787690D01*
X163815928Y-78787688D01*
X163823267Y-78769522D01*
X163824693Y-78749135D01*
X163827578Y-78707863D01*
X163853132Y-78614129D01*
X163912611Y-78537309D01*
X163996961Y-78489098D01*
X164093339Y-78476836D01*
X164187073Y-78502390D01*
X164232672Y-78531720D01*
X164240593Y-78538134D01*
X164248768Y-78546098D01*
X164258257Y-78552438D01*
X164258259Y-78552440D01*
X164332143Y-78601807D01*
X164426414Y-78664797D01*
X164436904Y-78669304D01*
X164436906Y-78669305D01*
X164526653Y-78707863D01*
X164622716Y-78749135D01*
X164831100Y-78796288D01*
X164937844Y-78800482D01*
X165033177Y-78804228D01*
X165033181Y-78804228D01*
X165044588Y-78804676D01*
X165185274Y-78784277D01*
X165244727Y-78775657D01*
X165244728Y-78775657D01*
X165256030Y-78774018D01*
X165266838Y-78770349D01*
X165266843Y-78770348D01*
X165447536Y-78709011D01*
X165447538Y-78709010D01*
X165458344Y-78705342D01*
X165515967Y-78673072D01*
X165634800Y-78606522D01*
X165644755Y-78600947D01*
X165809020Y-78464329D01*
X165945638Y-78300064D01*
X166050033Y-78113653D01*
X166055642Y-78097130D01*
X166115039Y-77922152D01*
X166115040Y-77922147D01*
X166118709Y-77911339D01*
X166122966Y-77881983D01*
X166148314Y-77707160D01*
X166148314Y-77707158D01*
X166149367Y-77699897D01*
X166150967Y-77638796D01*
X166131417Y-77426040D01*
X166073423Y-77220409D01*
X165978927Y-77028789D01*
X165895705Y-76917341D01*
X165857926Y-76866748D01*
X165857925Y-76866747D01*
X165851094Y-76857599D01*
X165792922Y-76803826D01*
X165702586Y-76720320D01*
X165702585Y-76720319D01*
X165694204Y-76712572D01*
X165590648Y-76647233D01*
X165520177Y-76580359D01*
X165480660Y-76491604D01*
X165478116Y-76394482D01*
X165512933Y-76303780D01*
X165579810Y-76233306D01*
X165663282Y-76195045D01*
X165682731Y-76190196D01*
X165746062Y-76174406D01*
X165853651Y-76107177D01*
X165935199Y-76009992D01*
X165942539Y-75991824D01*
X165942541Y-75991821D01*
X165975382Y-75910534D01*
X165982723Y-75892365D01*
X165989347Y-75797642D01*
X165851027Y-74216644D01*
X165828056Y-74124510D01*
X165760827Y-74016921D01*
X165725082Y-73986927D01*
X165678655Y-73947970D01*
X165678653Y-73947969D01*
X165663642Y-73935373D01*
X165645474Y-73928033D01*
X165645471Y-73928031D01*
X165595176Y-73907711D01*
X165546015Y-73887849D01*
X165514304Y-73885631D01*
X165461063Y-73881908D01*
X165461059Y-73881908D01*
X165451292Y-73881225D01*
X163870294Y-74019545D01*
X163850950Y-74024368D01*
X163797174Y-74037775D01*
X163797172Y-74037776D01*
X163778160Y-74042516D01*
X163670571Y-74109745D01*
X163589023Y-74206930D01*
X163581683Y-74225098D01*
X163581681Y-74225101D01*
X163545504Y-74314645D01*
X163492235Y-74395894D01*
X163411928Y-74450574D01*
X163316809Y-74470360D01*
X163221359Y-74452238D01*
X163138565Y-74397439D01*
X163070915Y-74329789D01*
X162905874Y-74214227D01*
X162893419Y-74205506D01*
X162893418Y-74205506D01*
X162884510Y-74199268D01*
X162678272Y-74103097D01*
X162458468Y-74044201D01*
X162447640Y-74043254D01*
X162447636Y-74043253D01*
X162242612Y-74025316D01*
X162231776Y-74024368D01*
X162220940Y-74025316D01*
X162015916Y-74043253D01*
X162015912Y-74043254D01*
X162005084Y-74044201D01*
X161785280Y-74103097D01*
X161579042Y-74199268D01*
X161570134Y-74205506D01*
X161570133Y-74205506D01*
X161557678Y-74214227D01*
X161392637Y-74329789D01*
X161231729Y-74490697D01*
X161101208Y-74677102D01*
X161005037Y-74883340D01*
X160946141Y-75103144D01*
X160926308Y-75329836D01*
X158944691Y-75329836D01*
X158944691Y-72118809D01*
X158946820Y-72086316D01*
X158947839Y-72078576D01*
X158947839Y-72078574D01*
X158949797Y-72063698D01*
X158948289Y-72050043D01*
X158951216Y-72015437D01*
X158953315Y-72002292D01*
X158977769Y-71927672D01*
X158984601Y-71914388D01*
X159031075Y-71851096D01*
X159041699Y-71840605D01*
X159105580Y-71794928D01*
X159118948Y-71788265D01*
X159193889Y-71764753D01*
X159195333Y-71764541D01*
X159198499Y-71764077D01*
X159228463Y-71762970D01*
X159228424Y-71762160D01*
X159239007Y-71761645D01*
X159240530Y-71761865D01*
X159240535Y-71761865D01*
X159246556Y-71761277D01*
X159246562Y-71761277D01*
X159266014Y-71759378D01*
X159268596Y-71759126D01*
X159298509Y-71758013D01*
X160876802Y-71794238D01*
G37*
G04 #@! TD.AperFunction*
M02*
