M48
; DRILL file {KiCad 6.0.7-f9a2dced07~116~ubuntu20.04.1} date Wed 16 Nov 2022 04:34:40 PM JST
; FORMAT={-:-/ absolute / metric / decimal}
; #@! TF.CreationDate,2022-11-16T16:34:40+09:00
; #@! TF.GenerationSoftware,Kicad,Pcbnew,6.0.7-f9a2dced07~116~ubuntu20.04.1
; #@! TF.FileFunction,MixedPlating,1,2
FMAT,2
METRIC
; #@! TA.AperFunction,Plated,PTH,ViaDrill
T1C0.300
; #@! TA.AperFunction,Plated,PTH,ViaDrill
T2C0.500
; #@! TA.AperFunction,Plated,PTH,ComponentDrill
T3C0.600
; #@! TA.AperFunction,Plated,PTH,ComponentDrill
T4C0.700
; #@! TA.AperFunction,Plated,PTH,ComponentDrill
T5C0.762
; #@! TA.AperFunction,Plated,PTH,ComponentDrill
T6C0.900
; #@! TA.AperFunction,NonPlated,NPTH,ComponentDrill
T7C0.750
; #@! TA.AperFunction,NonPlated,NPTH,ComponentDrill
T8C2.200
%
G90
G05
T1
X100.21Y-94.1
X100.21Y-110.6
X101.0Y-89.55
X101.0Y-106.1
X101.226Y-94.1
X101.25Y-110.6
X102.242Y-94.1
X102.25Y-110.6
X102.565Y-105.663
X102.58Y-89.149
X103.258Y-110.6
X103.269Y-94.1
X103.7Y-105.55
X103.725Y-89.175
X104.274Y-94.1
X104.3Y-110.6
X140.7Y-98.1
X142.2Y-98.4
X143.1Y-109.05
X143.4Y-104.25
X144.799Y-98.094
X146.4Y-112.4
X148.9Y-109.05
X150.2Y-99.4
X150.216Y-83.85
X150.7Y-97.5
X151.232Y-83.85
X152.248Y-83.85
X152.8Y-106.9
X153.264Y-83.85
X153.4Y-90.8
X153.4Y-91.5
X153.4Y-92.2
X153.5Y-107.6
X154.0Y-113.05
X154.1Y-100.0
X154.275Y-117.05
X154.5Y-96.4
X157.4Y-104.1
X158.2Y-104.1
X158.4Y-97.1
X158.75Y-107.6
X158.75Y-109.924
X163.55Y-97.75
X164.2Y-97.15
X164.85Y-98.2
X165.5Y-98.75
X165.674Y-107.275
X165.675Y-104.2
X166.2Y-92.4
X166.203Y-102.825
X167.7Y-90.575
X167.7Y-95.3
X168.4Y-107.9
X169.2Y-114.35
X169.3Y-97.2
X170.0Y-107.0
X170.525Y-106.15
X170.75Y-93.25
X172.15Y-98.0
X172.8Y-106.15
X172.9Y-93.25
X173.1Y-84.6
T2
X111.15Y-96.6
X113.55Y-105.75
X113.6Y-118.5
X114.15Y-87.25
X116.15Y-102.6
X116.2Y-98.1
X117.35Y-121.5
X118.65Y-114.95
X118.764Y-100.33
X119.1Y-87.05
X121.35Y-98.05
X121.35Y-102.6
X122.0Y-114.95
X122.75Y-97.2
X122.95Y-94.45
X122.95Y-117.3
X124.0Y-105.2
X126.3Y-107.55
X127.05Y-87.15
X129.2Y-100.05
X129.85Y-87.15
X130.6Y-101.95
X130.7Y-98.5
X131.35Y-107.3
X132.75Y-101.95
X132.75Y-104.35
X137.9Y-111.15
X138.1Y-101.9
X140.0Y-101.9
X142.35Y-116.7
X143.05Y-111.2
X143.95Y-107.95
X145.45Y-106.85
X146.95Y-111.4
X148.05Y-83.85
X148.1Y-88.95
X148.65Y-104.95
X149.55Y-97.3
X149.65Y-93.55
X152.1Y-100.15
X161.8Y-81.75
X163.1Y-114.3
X164.7Y-103.45
X166.45Y-124.45
X167.45Y-105.15
X170.55Y-83.05
X172.3Y-115.15
X173.05Y-101.05
X174.15Y-115.15
X175.65Y-84.1
X176.35Y-102.7
X179.8Y-108.9
X181.0Y-94.3
T3
X120.9Y-76.9
X120.9Y-78.9
T4
X116.3Y-119.65
X117.57Y-119.65
X118.84Y-119.65
X120.11Y-119.65
X121.38Y-119.65
X122.65Y-119.65
X123.92Y-119.65
X125.19Y-119.65
T5
X164.761Y-125.802
X164.762Y-75.108
X164.983Y-123.271
X164.983Y-77.639
X179.897Y-105.427
X179.905Y-95.478
X182.055Y-104.089
X182.064Y-96.816
T6
X162.231Y-125.58
X162.232Y-75.33
X162.452Y-123.05
X162.453Y-77.86
X178.558Y-103.269
X178.567Y-97.637
X180.717Y-101.93
X180.725Y-98.975
T7
X124.25Y-122.5
X124.25Y-124.3
X135.05Y-112.3
X136.85Y-112.3
X163.6Y-84.0
X165.4Y-84.0
X166.7Y-84.0
X168.5Y-84.0
X169.8Y-84.0
X171.6Y-84.0
T8
X130.0Y-80.0
X130.0Y-80.0
X130.0Y-120.9
X158.0Y-80.0
X158.0Y-120.9
T0
M30
